G04*
G04 #@! TF.GenerationSoftware,Altium Limited,Altium Designer,21.2.1 (34)*
G04*
G04 Layer_Color=16711935*
%FSTAX24Y24*%
%MOIN*%
G70*
G04*
G04 #@! TF.SameCoordinates,6CF6E2E0-1279-4785-91C8-ECC7A25CC669*
G04*
G04*
G04 #@! TF.FilePolarity,Positive*
G04*
G01*
G75*
%ADD18C,0.0059*%
D18*
X042534Y052435D02*
X042744D01*
X042639D01*
Y05212D01*
X042849Y052435D02*
Y052382D01*
X042954Y052277D01*
X043059Y052382D01*
Y052435D01*
X042954Y052277D02*
Y05212D01*
X043164D02*
Y052435D01*
X043321D01*
X043373Y052382D01*
Y052277D01*
X043321Y052225D01*
X043164D01*
X043688Y052435D02*
X043478D01*
Y05212D01*
X043688D01*
X043478Y052277D02*
X043583D01*
X043793D02*
X044003D01*
X044318Y052382D02*
X044266Y052435D01*
X044161D01*
X044108Y052382D01*
Y052172D01*
X044161Y05212D01*
X044266D01*
X044318Y052172D01*
X044738Y05212D02*
X044843D01*
X04479D01*
Y052435D01*
X044738Y052382D01*
X04521Y052435D02*
X045105Y052382D01*
X045Y052277D01*
Y052172D01*
X045053Y05212D01*
X045158D01*
X04521Y052172D01*
Y052225D01*
X045158Y052277D01*
X045D01*
X045315Y05212D02*
Y052435D01*
X045473D01*
X045525Y052382D01*
Y052277D01*
X045473Y052225D01*
X045315D01*
X04563Y052435D02*
X045735D01*
X045682D01*
Y05212D01*
X04563D01*
X045735D01*
X045892D02*
Y052435D01*
X046102Y05212D01*
Y052435D01*
X046732Y05212D02*
X046522D01*
X046732Y05233D01*
Y052382D01*
X04668Y052435D01*
X046575D01*
X046522Y052382D01*
X046837Y05212D02*
Y052435D01*
X046942Y05233D01*
X047047Y052435D01*
Y05212D01*
X047152Y052435D02*
Y05212D01*
X047309D01*
X047362Y052172D01*
Y052382D01*
X047309Y052435D01*
X047152D01*
X047572Y05212D02*
X047467Y052225D01*
Y05233D01*
X047572Y052435D01*
X047729Y052382D02*
X047782Y052435D01*
X047886D01*
X047939Y052382D01*
Y052172D01*
X047886Y05212D01*
X047782D01*
X047729Y052172D01*
Y052382D01*
X048044Y052435D02*
X048254D01*
Y052382D01*
X048044Y052172D01*
Y05212D01*
X048359Y052382D02*
X048411Y052435D01*
X048516D01*
X048569Y052382D01*
Y05233D01*
X048516Y052277D01*
X048464D01*
X048516D01*
X048569Y052225D01*
Y052172D01*
X048516Y05212D01*
X048411D01*
X048359Y052172D01*
X048674Y05212D02*
X048779Y052225D01*
Y05233D01*
X048674Y052435D01*
X042851Y050076D02*
Y049866D01*
Y049971D01*
X042536D01*
Y049761D02*
X042851D01*
Y049604D01*
X042799Y049551D01*
X042694D01*
X042641Y049604D01*
Y049761D01*
X042851Y049446D02*
X042589D01*
X042536Y049394D01*
Y049289D01*
X042589Y049236D01*
X042851D01*
X042799Y048921D02*
X042851Y048974D01*
Y049079D01*
X042799Y049131D01*
X042746D01*
X042694Y049079D01*
Y048974D01*
X042641Y048921D01*
X042589D01*
X042536Y048974D01*
Y049079D01*
X042589Y049131D01*
X042851Y048817D02*
X042536D01*
Y048659D01*
X042589Y048607D01*
X042641D01*
X042694Y048659D01*
Y048817D01*
Y048659D01*
X042746Y048607D01*
X042799D01*
X042851Y048659D01*
Y048817D01*
Y048502D02*
X042536D01*
Y048292D01*
X042799Y047977D02*
X042851Y048029D01*
Y048134D01*
X042799Y048187D01*
X042589D01*
X042536Y048134D01*
Y048029D01*
X042589Y047977D01*
X042851Y047662D02*
X042799Y047767D01*
X042694Y047872D01*
X042589D01*
X042536Y047819D01*
Y047715D01*
X042589Y047662D01*
X042641D01*
X042694Y047715D01*
Y047872D01*
Y047557D02*
Y047347D01*
X042536Y047032D02*
Y047242D01*
X042746Y047032D01*
X042799D01*
X042851Y047085D01*
Y04719D01*
X042799Y047242D01*
Y046717D02*
X042851Y04677D01*
Y046875D01*
X042799Y046927D01*
X042746D01*
X042694Y046875D01*
Y04677D01*
X042641Y046717D01*
X042589D01*
X042536Y04677D01*
Y046875D01*
X042589Y046927D01*
X042799Y046403D02*
X042851Y046455D01*
Y04656D01*
X042799Y046613D01*
X042589D01*
X042536Y04656D01*
Y046455D01*
X042589Y046403D01*
X042851Y046088D02*
X042799Y046193D01*
X042694Y046298D01*
X042589D01*
X042536Y046245D01*
Y04614D01*
X042589Y046088D01*
X042641D01*
X042694Y04614D01*
Y046298D01*
X057652Y052435D02*
X057862D01*
X057757D01*
Y05212D01*
X057967Y052435D02*
Y052382D01*
X058072Y052277D01*
X058177Y052382D01*
Y052435D01*
X058072Y052277D02*
Y05212D01*
X058282D02*
Y052435D01*
X058439D01*
X058492Y052382D01*
Y052277D01*
X058439Y052225D01*
X058282D01*
X058806Y052435D02*
X058597D01*
Y05212D01*
X058806D01*
X058597Y052277D02*
X058702D01*
X058911D02*
X059121D01*
X059436Y052382D02*
X059384Y052435D01*
X059279D01*
X059226Y052382D01*
Y052172D01*
X059279Y05212D01*
X059384D01*
X059436Y052172D01*
X059856Y05212D02*
X059961D01*
X059908D01*
Y052435D01*
X059856Y052382D01*
X060328Y052435D02*
X060223Y052382D01*
X060118Y052277D01*
Y052172D01*
X060171Y05212D01*
X060276D01*
X060328Y052172D01*
Y052225D01*
X060276Y052277D01*
X060118D01*
X060433Y05212D02*
Y052435D01*
X060591D01*
X060643Y052382D01*
Y052277D01*
X060591Y052225D01*
X060433D01*
X060748Y052435D02*
X060853D01*
X060801D01*
Y05212D01*
X060748D01*
X060853D01*
X06101D02*
Y052435D01*
X06122Y05212D01*
Y052435D01*
X06185Y05212D02*
X06164D01*
X06185Y05233D01*
Y052382D01*
X061798Y052435D01*
X061693D01*
X06164Y052382D01*
X061955Y05212D02*
Y052435D01*
X06206Y05233D01*
X062165Y052435D01*
Y05212D01*
X06227Y052435D02*
Y05212D01*
X062427D01*
X06248Y052172D01*
Y052382D01*
X062427Y052435D01*
X06227D01*
X06269Y05212D02*
X062585Y052225D01*
Y05233D01*
X06269Y052435D01*
X062847Y052382D02*
X0629Y052435D01*
X063005D01*
X063057Y052382D01*
Y052172D01*
X063005Y05212D01*
X0629D01*
X062847Y052172D01*
Y052382D01*
X063162Y052435D02*
X063372D01*
Y052382D01*
X063162Y052172D01*
Y05212D01*
X063477Y052382D02*
X063529Y052435D01*
X063634D01*
X063687Y052382D01*
Y05233D01*
X063634Y052277D01*
X063582D01*
X063634D01*
X063687Y052225D01*
Y052172D01*
X063634Y05212D01*
X063529D01*
X063477Y052172D01*
X063792Y05212D02*
X063897Y052225D01*
Y05233D01*
X063792Y052435D01*
X057969Y050056D02*
Y049846D01*
Y049951D01*
X057654D01*
Y049741D02*
X057969D01*
Y049584D01*
X057917Y049532D01*
X057812D01*
X057759Y049584D01*
Y049741D01*
X057969Y049427D02*
X057707D01*
X057654Y049374D01*
Y049269D01*
X057707Y049217D01*
X057969D01*
X057917Y048902D02*
X057969Y048954D01*
Y049059D01*
X057917Y049112D01*
X057864D01*
X057812Y049059D01*
Y048954D01*
X057759Y048902D01*
X057707D01*
X057654Y048954D01*
Y049059D01*
X057707Y049112D01*
X057969Y048797D02*
X057654D01*
Y048639D01*
X057707Y048587D01*
X057759D01*
X057812Y048639D01*
Y048797D01*
Y048639D01*
X057864Y048587D01*
X057917D01*
X057969Y048639D01*
Y048797D01*
Y048482D02*
X057654D01*
Y048272D01*
X057917Y047957D02*
X057969Y04801D01*
Y048115D01*
X057917Y048167D01*
X057707D01*
X057654Y048115D01*
Y04801D01*
X057707Y047957D01*
X057969Y047642D02*
X057917Y047747D01*
X057812Y047852D01*
X057707D01*
X057654Y0478D01*
Y047695D01*
X057707Y047642D01*
X057759D01*
X057812Y047695D01*
Y047852D01*
Y047537D02*
Y047328D01*
X057654Y047013D02*
Y047223D01*
X057864Y047013D01*
X057917D01*
X057969Y047065D01*
Y04717D01*
X057917Y047223D01*
Y046698D02*
X057969Y04675D01*
Y046855D01*
X057917Y046908D01*
X057864D01*
X057812Y046855D01*
Y04675D01*
X057759Y046698D01*
X057707D01*
X057654Y04675D01*
Y046855D01*
X057707Y046908D01*
X057917Y046383D02*
X057969Y046435D01*
Y04654D01*
X057917Y046593D01*
X057707D01*
X057654Y04654D01*
Y046435D01*
X057707Y046383D01*
X057969Y046068D02*
X057917Y046173D01*
X057812Y046278D01*
X057707D01*
X057654Y046226D01*
Y046121D01*
X057707Y046068D01*
X057759D01*
X057812Y046121D01*
Y046278D01*
M02*
