G04*
G04 #@! TF.GenerationSoftware,Altium Limited,Altium Designer,21.2.1 (34)*
G04*
G04 Layer_Color=16711935*
%FSTAX24Y24*%
%MOIN*%
G70*
G04*
G04 #@! TF.SameCoordinates,6CF6E2E0-1279-4785-91C8-ECC7A25CC669*
G04*
G04*
G04 #@! TF.FilePolarity,Positive*
G04*
G01*
G75*
%ADD10C,0.0079*%
%ADD15C,0.0040*%
%ADD17C,0.0050*%
%ADD18C,0.0059*%
%ADD148C,0.0039*%
%ADD149R,0.0060X0.0181*%
%ADD150R,0.0090X0.0512*%
%ADD151R,0.0630X0.0191*%
D10*
X046319Y051133D02*
G03*
X046319Y051133I-000039J0D01*
G01*
D15*
X031831Y049768D02*
G03*
X031831Y049618I0J-000075D01*
G01*
X031043D02*
G03*
X031043Y049768I0J000075D01*
G01*
X031507Y049583D02*
X031567Y049563D01*
X031507Y049583D02*
X031567Y049623D01*
Y049563D02*
Y049623D01*
X031467Y049693D02*
X031567Y049563D01*
X031467Y049693D02*
X031567Y049703D01*
X031477Y049833D02*
X031567Y049703D01*
X031347Y049583D02*
X031407Y049563D01*
X031347Y049583D02*
X031407Y049623D01*
Y049563D02*
Y049623D01*
X031307Y049693D02*
X031407Y049563D01*
X031307Y049693D02*
X031407Y049703D01*
X031317Y049833D02*
X031407Y049703D01*
X031831Y049768D02*
X031831Y049948D01*
X031043Y049768D02*
Y049948D01*
Y049437D02*
Y049618D01*
X031831Y049618D02*
X031831Y049437D01*
X031043D02*
X031831D01*
X031043Y049948D02*
X031831D01*
D17*
X046752Y05172D02*
X053839D01*
X046752D02*
Y054082D01*
Y044043D02*
Y05172D01*
Y044043D02*
X053839D01*
Y05172D01*
Y054082D01*
X046752D02*
X053839D01*
D18*
X048524Y052803D02*
Y053013D01*
X048629Y053118D01*
X048734Y053013D01*
Y052803D01*
Y05296D01*
X048524D01*
X048838Y052803D02*
Y053118D01*
X049048Y052803D01*
Y053118D01*
X049153D02*
X049363D01*
X049258D01*
Y052803D01*
X049678Y053118D02*
X049468D01*
Y052803D01*
X049678D01*
X049468Y05296D02*
X049573D01*
X049783Y052803D02*
Y053118D01*
X049993Y052803D01*
Y053118D01*
X050098Y052803D02*
Y053118D01*
X050308Y052803D01*
Y053118D01*
X050413Y052803D02*
Y053013D01*
X050518Y053118D01*
X050623Y053013D01*
Y052803D01*
Y05296D01*
X050413D01*
D148*
X058295Y044073D02*
G03*
X058295Y044073I-000197J0D01*
G01*
X032427Y043933D02*
G03*
X032427Y043933I-000197J0D01*
G01*
X061398Y03863D02*
G03*
X061398Y03863I-000197J0D01*
G01*
X04687Y036563D02*
G03*
X04687Y036563I-000197J0D01*
G01*
X064705Y029515D02*
G03*
X064705Y029515I-000197J0D01*
G01*
X039508D02*
G03*
X039508Y029515I-000197J0D01*
G01*
X058406D02*
G03*
X058406Y029515I-000197J0D01*
G01*
X052106D02*
G03*
X052106Y029515I-000197J0D01*
G01*
X045807D02*
G03*
X045807Y029515I-000197J0D01*
G01*
X033209D02*
G03*
X033209Y029515I-000197J0D01*
G01*
X031004Y048866D02*
X031634D01*
X031004Y049181D02*
X031634D01*
Y048866D02*
Y049181D01*
X031004Y048866D02*
Y049181D01*
X063642Y043354D02*
Y043984D01*
X063327Y043354D02*
Y043984D01*
X063642D01*
X063327Y043354D02*
X063642D01*
X064035Y043315D02*
X064665D01*
X064035Y04363D02*
X064665D01*
Y043315D02*
Y04363D01*
X064035Y043315D02*
Y04363D01*
X063642Y044929D02*
Y045559D01*
X063327Y044929D02*
Y045559D01*
X063642D01*
X063327Y044929D02*
X063642D01*
X064044Y04538D02*
X064674D01*
X064044Y045695D02*
X064674D01*
Y04538D02*
Y045695D01*
X064044Y04538D02*
Y045695D01*
X064075Y045047D02*
X064626D01*
X064075Y043866D02*
X064626D01*
X064075D02*
Y045047D01*
X064626Y043866D02*
Y045047D01*
X063504Y048472D02*
X064134D01*
X063504Y048157D02*
X064134D01*
X063504D02*
Y048472D01*
X064134Y048157D02*
Y048472D01*
X063504Y04796D02*
X064134D01*
X063504Y047645D02*
X064134D01*
X063504D02*
Y04796D01*
X064134Y047645D02*
Y04796D01*
X063504Y046543D02*
X064134D01*
X063504Y046858D02*
X064134D01*
Y046543D02*
Y046858D01*
X063504Y046543D02*
Y046858D01*
X042854Y048256D02*
X043169D01*
X042854Y047626D02*
X043169D01*
Y048256D01*
X042854Y047626D02*
Y048256D01*
X042303D02*
X042618D01*
X042303Y047626D02*
X042618D01*
Y048256D01*
X042303Y047626D02*
Y048256D01*
X044547Y047626D02*
Y049043D01*
X043917Y047626D02*
Y049043D01*
X044547D01*
X043917Y047626D02*
X044547D01*
X053273Y042281D02*
Y042911D01*
X053588Y042281D02*
Y042911D01*
X053273Y042281D02*
X053588D01*
X053273Y042911D02*
X053588D01*
X054823Y050047D02*
X055453D01*
X054823Y049732D02*
X055453D01*
X054823D02*
Y050047D01*
X055453Y049732D02*
Y050047D01*
X057744Y043718D02*
X059712D01*
X057744Y045687D02*
X059712D01*
X057744Y043718D02*
Y045687D01*
X059712Y043718D02*
Y045687D01*
X054587Y048472D02*
X055217D01*
X054587Y048787D02*
X055217D01*
Y048472D02*
Y048787D01*
X054587Y048472D02*
Y048787D01*
Y04798D02*
X055217D01*
X054587Y048295D02*
X055217D01*
Y04798D02*
Y048295D01*
X054587Y04798D02*
Y048295D01*
Y047488D02*
X055217D01*
X054587Y047803D02*
X055217D01*
Y047488D02*
Y047803D01*
X054587Y047488D02*
Y047803D01*
Y046996D02*
X055217D01*
X054587Y047311D02*
X055217D01*
Y046996D02*
Y047311D01*
X054587Y046996D02*
Y047311D01*
Y046504D02*
X055217D01*
X054587Y046818D02*
X055217D01*
Y046504D02*
Y046818D01*
X054587Y046504D02*
Y046818D01*
X072657Y047252D02*
Y047567D01*
X073287Y047252D02*
Y047567D01*
X072657D02*
X073287D01*
X072657Y047252D02*
X073287D01*
X045871Y050907D02*
X046186D01*
X045871Y051536D02*
X046186D01*
X045871Y050907D02*
Y051536D01*
X046186Y050907D02*
Y051536D01*
X045335Y050913D02*
X04565D01*
X045335Y051543D02*
X04565D01*
X045335Y050913D02*
Y051543D01*
X04565Y050913D02*
Y051543D01*
X041159Y048911D02*
Y049226D01*
X04053Y048911D02*
Y049226D01*
Y048911D02*
X041159D01*
X04053Y049226D02*
X041159D01*
X037558Y045846D02*
Y048445D01*
X038976Y045846D02*
Y048445D01*
X037558D02*
X038976D01*
X037558Y045846D02*
X038976D01*
X030616Y042713D02*
Y044287D01*
X032584Y042713D02*
Y044287D01*
X030616Y042713D02*
X032584D01*
X030616Y044287D02*
X032584D01*
X031807Y039793D02*
Y040107D01*
X031178Y039793D02*
Y040107D01*
Y039793D02*
X031807D01*
X031178Y040107D02*
X031807D01*
X030107Y045193D02*
Y045507D01*
X030737Y045193D02*
Y045507D01*
X030107D02*
X030737D01*
X030107Y045193D02*
X030737D01*
X031257D02*
Y045507D01*
X031887Y045193D02*
Y045507D01*
X031257D02*
X031887D01*
X031257Y045193D02*
X031887D01*
X030453Y039968D02*
X030768D01*
X030453Y039338D02*
X030768D01*
Y039968D01*
X030453Y039338D02*
Y039968D01*
X031168Y039199D02*
Y039514D01*
X031798Y039199D02*
Y039514D01*
X031168D02*
X031798D01*
X031168Y039199D02*
X031798D01*
X030265Y044393D02*
Y044707D01*
X029635Y044393D02*
Y044707D01*
Y044393D02*
X030265D01*
X029635Y044707D02*
X030265D01*
X031228Y041143D02*
Y041457D01*
X031857Y041143D02*
Y041457D01*
X031228D02*
X031857D01*
X031228Y041143D02*
X031857D01*
X030707D02*
Y041457D01*
X030078Y041143D02*
Y041457D01*
Y041143D02*
X030707D01*
X030078Y041457D02*
X030707D01*
X032407Y045193D02*
Y045507D01*
X033037Y045193D02*
Y045507D01*
X032407D02*
X033037D01*
X032407Y045193D02*
X033037D01*
X033364Y042216D02*
X033679D01*
X033364Y042846D02*
X033679D01*
X033364Y042216D02*
Y042846D01*
X033679Y042216D02*
Y042846D01*
X040969Y047145D02*
Y047932D01*
X041481D01*
Y047145D02*
Y047932D01*
X040969Y047145D02*
X041481D01*
X031673Y035775D02*
X032461D01*
X031673D02*
Y036287D01*
X032461D01*
Y035775D02*
Y036287D01*
X031652Y035166D02*
Y035481D01*
X032282Y035166D02*
Y035481D01*
X031652D02*
X032282D01*
X031652Y035166D02*
X032282D01*
X038839Y049653D02*
Y049968D01*
X038209Y049653D02*
Y049968D01*
Y049653D02*
X038839D01*
X038209Y049968D02*
X038839D01*
X065807Y049653D02*
Y049968D01*
X065177Y049653D02*
Y049968D01*
Y049653D02*
X065807D01*
X065177Y049968D02*
X065807D01*
X038209Y050244D02*
Y050559D01*
X038839Y050244D02*
Y050559D01*
X038209D02*
X038839D01*
X038209Y050244D02*
X038839D01*
X038209Y050834D02*
Y051149D01*
X038839Y050834D02*
Y051149D01*
X038209D02*
X038839D01*
X038209Y050834D02*
X038839D01*
X065177Y050244D02*
Y050559D01*
X065807Y050244D02*
Y050559D01*
X065177D02*
X065807D01*
X065177Y050244D02*
X065807D01*
X065177Y050834D02*
Y051149D01*
X065807Y050834D02*
Y051149D01*
X065177D02*
X065807D01*
X065177Y050834D02*
X065807D01*
X061594Y050244D02*
Y050559D01*
X062224Y050244D02*
Y050559D01*
X061594D02*
X062224D01*
X061594Y050244D02*
X062224D01*
X061594Y050834D02*
Y051149D01*
X062224Y050834D02*
Y051149D01*
X061594D02*
X062224D01*
X061594Y050834D02*
X062224D01*
X069193Y043984D02*
X069508D01*
X069193Y043354D02*
X069508D01*
Y043984D01*
X069193Y043354D02*
Y043984D01*
X070138D02*
X070453D01*
X070138Y043354D02*
X070453D01*
Y043984D01*
X070138Y043354D02*
Y043984D01*
X064035Y038472D02*
Y038787D01*
X064665Y038472D02*
Y038787D01*
X064035D02*
X064665D01*
X064035Y038472D02*
X064665D01*
X060827Y036444D02*
Y039004D01*
X062598Y036444D02*
Y039004D01*
X060827D02*
X062598D01*
X060827Y036444D02*
X062598D01*
X059597Y036464D02*
Y036779D01*
X058967Y036464D02*
Y036779D01*
Y036464D02*
X059597D01*
X058967Y036779D02*
X059597D01*
X058957Y036976D02*
Y037291D01*
X059587Y036976D02*
Y037291D01*
X058957D02*
X059587D01*
X058957Y036976D02*
X059587D01*
X059587Y038157D02*
Y038472D01*
X058957Y038157D02*
Y038472D01*
Y038157D02*
X059587D01*
X058957Y038472D02*
X059587D01*
Y038708D02*
Y039023D01*
X058957Y038708D02*
Y039023D01*
Y038708D02*
X059587D01*
X058957Y039023D02*
X059587D01*
Y03922D02*
Y039535D01*
X058957Y03922D02*
Y039535D01*
Y03922D02*
X059587D01*
X058957Y039535D02*
X059587D01*
X050039Y036189D02*
Y039141D01*
X046102Y036189D02*
Y039141D01*
X050039D01*
X046102Y036189D02*
X050039D01*
X052224Y042173D02*
X052539D01*
X052224Y042803D02*
X052539D01*
X052224Y042173D02*
Y042803D01*
X052539Y042173D02*
Y042803D01*
X051542Y042171D02*
X051857D01*
X051542Y042801D02*
X051857D01*
X051542Y042171D02*
Y042801D01*
X051857Y042171D02*
Y042801D01*
X05086Y042171D02*
X051175D01*
X05086Y042801D02*
X051175D01*
X05086Y042171D02*
Y042801D01*
X051175Y042171D02*
Y042801D01*
X050177Y042171D02*
X050492D01*
X050177Y042801D02*
X050492D01*
X050177Y042171D02*
Y042801D01*
X050492Y042171D02*
Y042801D01*
X049495Y042171D02*
X04981D01*
X049495Y042801D02*
X04981D01*
X049495Y042171D02*
Y042801D01*
X04981Y042171D02*
Y042801D01*
X048812Y042171D02*
X049127D01*
X048812Y042801D02*
X049127D01*
X048812Y042171D02*
Y042801D01*
X049127Y042171D02*
Y042801D01*
X04813Y042173D02*
X048445D01*
X04813Y042803D02*
X048445D01*
X04813Y042173D02*
Y042803D01*
X048445Y042173D02*
Y042803D01*
X05483Y044978D02*
Y046159D01*
X055382Y044978D02*
Y046159D01*
X05483D02*
X055382D01*
X05483Y044978D02*
X055382D01*
X055382Y04297D02*
Y044152D01*
X05483Y04297D02*
Y044152D01*
Y04297D02*
X055382D01*
X05483Y044152D02*
X055382D01*
X061297Y042774D02*
Y043089D01*
X060667Y042774D02*
Y043089D01*
Y042774D02*
X061297D01*
X060667Y043089D02*
X061297D01*
X060657Y043276D02*
Y043591D01*
X061287Y043276D02*
Y043591D01*
X060657D02*
X061287D01*
X060657Y043276D02*
X061287D01*
X060657Y043778D02*
Y044093D01*
X061287Y043778D02*
Y044093D01*
X060657D02*
X061287D01*
X060657Y043778D02*
X061287D01*
X061297Y04428D02*
Y044594D01*
X060667Y04428D02*
Y044594D01*
Y04428D02*
X061297D01*
X060667Y044594D02*
X061297D01*
X060657Y044781D02*
X061287D01*
X060657Y045096D02*
X061287D01*
Y044781D02*
Y045096D01*
X060657Y044781D02*
Y045096D01*
X057972Y048236D02*
X058287D01*
X057972Y047606D02*
X058287D01*
Y048236D01*
X057972Y047606D02*
Y048236D01*
X057421D02*
X057736D01*
X057421Y047606D02*
X057736D01*
Y048236D01*
X057421Y047606D02*
Y048236D01*
X059665Y047606D02*
Y049023D01*
X059035Y047606D02*
Y049023D01*
X059665D01*
X059035Y047606D02*
X059665D01*
X056208Y045175D02*
X056838D01*
X056208Y04549D02*
X056838D01*
Y045175D02*
Y04549D01*
X056208Y045175D02*
Y04549D01*
Y044663D02*
X056838D01*
X056208Y044978D02*
X056838D01*
Y044663D02*
Y044978D01*
X056208Y044663D02*
Y044978D01*
Y044152D02*
X056838D01*
X056208Y044467D02*
X056838D01*
Y044152D02*
Y044467D01*
X056208Y044152D02*
Y044467D01*
Y04364D02*
X056838D01*
X056208Y043955D02*
X056838D01*
Y04364D02*
Y043955D01*
X056208Y04364D02*
Y043955D01*
X041004Y042724D02*
X041634D01*
X041004Y043905D02*
X041634D01*
Y042724D02*
Y043905D01*
X041004Y042724D02*
Y043905D01*
X064882Y027921D02*
Y029889D01*
X063346Y027921D02*
Y029889D01*
X064882D01*
X063346Y027921D02*
X064882D01*
X036107Y027798D02*
X036737D01*
X036107Y028113D02*
X036737D01*
X036107Y027798D02*
Y028113D01*
X036737Y027798D02*
Y028113D01*
X036107Y028864D02*
X036737D01*
X036107Y029179D02*
X036737D01*
X036107Y028864D02*
Y029179D01*
X036737Y028864D02*
Y029179D01*
X061304Y027798D02*
X061934D01*
X061304Y028113D02*
X061934D01*
X061304Y027798D02*
Y028113D01*
X061934Y027798D02*
Y028113D01*
X061294Y028663D02*
X061924D01*
X061294Y028348D02*
X061924D01*
Y028663D01*
X061294Y028348D02*
Y028663D01*
X061304Y028864D02*
X061934D01*
X061304Y029179D02*
X061934D01*
X061304Y028864D02*
Y029179D01*
X061934Y028864D02*
Y029179D01*
X061294Y029696D02*
X061924D01*
X061294Y029381D02*
X061924D01*
Y029696D01*
X061294Y029381D02*
Y029696D01*
X061304Y029898D02*
X061934D01*
X061304Y030213D02*
X061934D01*
X061304Y029898D02*
Y030213D01*
X061934Y029898D02*
Y030213D01*
X036097Y029381D02*
Y029696D01*
X036727Y029381D02*
Y029696D01*
X036097Y029381D02*
X036727D01*
X036097Y029696D02*
X036727D01*
X036097Y028348D02*
Y028663D01*
X036727Y028348D02*
Y028663D01*
X036097Y028348D02*
X036727D01*
X036097Y028663D02*
X036727D01*
X036737Y029898D02*
Y030213D01*
X036107Y029898D02*
Y030213D01*
X036737D01*
X036107Y029898D02*
X036737D01*
X039685Y027921D02*
Y029889D01*
X03815Y027921D02*
Y029889D01*
X039685D01*
X03815Y027921D02*
X039685D01*
X058583D02*
Y029889D01*
X057047Y027921D02*
Y029889D01*
X058583D01*
X057047Y027921D02*
X058583D01*
X055005Y028864D02*
X055635D01*
X055005Y029179D02*
X055635D01*
X055005Y028864D02*
Y029179D01*
X055635Y028864D02*
Y029179D01*
X054995Y029696D02*
X055625D01*
X054995Y029381D02*
X055625D01*
Y029696D01*
X054995Y029381D02*
Y029696D01*
X055005Y027798D02*
X055635D01*
X055005Y028113D02*
X055635D01*
X055005Y027798D02*
Y028113D01*
X055635Y027798D02*
Y028113D01*
X054995Y028663D02*
X055625D01*
X054995Y028348D02*
X055625D01*
Y028663D01*
X054995Y028348D02*
Y028663D01*
X055005Y029898D02*
X055635D01*
X055005Y030213D02*
X055635D01*
X055005Y029898D02*
Y030213D01*
X055635Y029898D02*
Y030213D01*
X052283Y027921D02*
Y029889D01*
X050748Y027921D02*
Y029889D01*
X052283D01*
X050748Y027921D02*
X052283D01*
X048706Y028864D02*
X049335D01*
X048706Y029179D02*
X049335D01*
X048706Y028864D02*
Y029179D01*
X049335Y028864D02*
Y029179D01*
X048696Y029696D02*
X049326D01*
X048696Y029381D02*
X049326D01*
Y029696D01*
X048696Y029381D02*
Y029696D01*
X048706Y027798D02*
X049335D01*
X048706Y028113D02*
X049335D01*
X048706Y027798D02*
Y028113D01*
X049335Y027798D02*
Y028113D01*
X048696Y028663D02*
X049326D01*
X048696Y028348D02*
X049326D01*
Y028663D01*
X048696Y028348D02*
Y028663D01*
X048706Y029898D02*
X049335D01*
X048706Y030213D02*
X049335D01*
X048706Y029898D02*
Y030213D01*
X049335Y029898D02*
Y030213D01*
X045984Y027921D02*
Y029889D01*
X044449Y027921D02*
Y029889D01*
X045984D01*
X044449Y027921D02*
X045984D01*
X042406Y028864D02*
X043036D01*
X042406Y029179D02*
X043036D01*
X042406Y028864D02*
Y029179D01*
X043036Y028864D02*
Y029179D01*
X042396Y029696D02*
X043026D01*
X042396Y029381D02*
X043026D01*
Y029696D01*
X042396Y029381D02*
Y029696D01*
X042406Y027798D02*
X043036D01*
X042406Y028113D02*
X043036D01*
X042406Y027798D02*
Y028113D01*
X043036Y027798D02*
Y028113D01*
X042396Y028663D02*
X043026D01*
X042396Y028348D02*
X043026D01*
Y028663D01*
X042396Y028348D02*
Y028663D01*
X042406Y029898D02*
X043036D01*
X042406Y030213D02*
X043036D01*
X042406Y029898D02*
Y030213D01*
X043036Y029898D02*
Y030213D01*
X033386Y027921D02*
Y029889D01*
X03185Y027921D02*
Y029889D01*
X033386D01*
X03185Y027921D02*
X033386D01*
X029808Y027798D02*
X030438D01*
X029808Y028113D02*
X030438D01*
X029808Y027798D02*
Y028113D01*
X030438Y027798D02*
Y028113D01*
X029798Y028663D02*
X030428D01*
X029798Y028348D02*
X030428D01*
Y028663D01*
X029798Y028348D02*
Y028663D01*
X029808Y028864D02*
X030438D01*
X029808Y029179D02*
X030438D01*
X029808Y028864D02*
Y029179D01*
X030438Y028864D02*
Y029179D01*
X029798Y029696D02*
X030428D01*
X029798Y029381D02*
X030428D01*
Y029696D01*
X029798Y029381D02*
Y029696D01*
X029808Y029898D02*
X030438D01*
X029808Y030213D02*
X030438D01*
X029808Y029898D02*
Y030213D01*
X030438Y029898D02*
Y030213D01*
X059468Y042763D02*
X060098D01*
X059468Y043078D02*
X060098D01*
Y042763D02*
Y043078D01*
X059468Y042763D02*
Y043078D01*
X040846Y044299D02*
X041476D01*
X040846Y044614D02*
X041476D01*
Y044299D02*
Y044614D01*
X040846Y044299D02*
Y044614D01*
X042461Y043511D02*
X043091D01*
X042461Y043826D02*
X043091D01*
Y043511D02*
Y043826D01*
X042461Y043511D02*
Y043826D01*
Y042803D02*
X043091D01*
X042461Y043118D02*
X043091D01*
Y042803D02*
Y043118D01*
X042461Y042803D02*
Y043118D01*
X040217Y043D02*
Y04363D01*
X039902Y043D02*
Y04363D01*
X040217D01*
X039902Y043D02*
X040217D01*
D149*
X031799Y049527D02*
D03*
Y049858D02*
D03*
X031075Y049527D02*
D03*
X031075Y049858D02*
D03*
D150*
X031726Y049693D02*
D03*
X031148Y049693D02*
D03*
D151*
X044232Y048948D02*
D03*
X05935Y048928D02*
D03*
M02*
