G04*
G04 #@! TF.GenerationSoftware,Altium Limited,Altium Designer,21.2.1 (34)*
G04*
G04 Layer_Color=2752767*
%FSTAX24Y24*%
%MOIN*%
G70*
G04*
G04 #@! TF.SameCoordinates,6CF6E2E0-1279-4785-91C8-ECC7A25CC669*
G04*
G04*
G04 #@! TF.FilePolarity,Positive*
G04*
G01*
G75*
%ADD152C,0.0020*%
%ADD153C,0.0027*%
%ADD154C,0.0013*%
D152*
X049349Y048565D02*
Y048725D01*
X049509D01*
Y048565D01*
X049349D01*
X049074Y04829D02*
Y04845D01*
X049234D01*
Y04829D01*
X049074D01*
X049349Y048014D02*
Y048174D01*
X049509D01*
Y048014D01*
X049349D01*
X049074Y047738D02*
Y047899D01*
X049234D01*
Y047738D01*
X049074D01*
X049349Y047463D02*
Y047623D01*
X049509D01*
Y047463D01*
X049349D01*
X0499D02*
Y047623D01*
X05006D01*
Y047463D01*
X0499D01*
X049625Y04829D02*
Y04845D01*
X049785D01*
Y04829D01*
X049625D01*
X066043Y043798D02*
X065963Y043958D01*
X066123D01*
X066043Y043798D01*
Y044798D02*
X065963Y044958D01*
X066123D01*
X066043Y044798D01*
X060728Y04851D02*
X060768Y04855D01*
X060808D01*
X060768Y04859D01*
X060808Y04863D01*
X060768D01*
X060728Y04867D01*
X060688Y04863D01*
X060648D01*
X060688Y04859D01*
X060648Y04855D01*
X060688D01*
X060728Y04851D01*
Y047723D02*
X060768Y047763D01*
X060808D01*
X060768Y047803D01*
X060808Y047843D01*
X060768D01*
X060728Y047883D01*
X060688Y047843D01*
X060648D01*
X060688Y047803D01*
X060648Y047763D01*
X060688D01*
X060728Y047723D01*
X061516Y04851D02*
X061556Y04855D01*
X061596D01*
X061556Y04859D01*
X061596Y04863D01*
X061556D01*
X061516Y04867D01*
X061476Y04863D01*
X061436D01*
X061476Y04859D01*
X061436Y04855D01*
X061476D01*
X061516Y04851D01*
Y047723D02*
X061556Y047763D01*
X061596D01*
X061556Y047803D01*
X061596Y047843D01*
X061556D01*
X061516Y047883D01*
X061476Y047843D01*
X061436D01*
X061476Y047803D01*
X061436Y047763D01*
X061476D01*
X061516Y047723D01*
X065689Y048447D02*
X065729Y048487D01*
X065769D01*
X065729Y048527D01*
X065769Y048567D01*
X065729D01*
X065689Y048607D01*
X065649Y048567D01*
X065609D01*
X065649Y048527D01*
X065609Y048487D01*
X065649D01*
X065689Y048447D01*
Y047447D02*
X065729Y047487D01*
X065769D01*
X065729Y047527D01*
X065769Y047567D01*
X065729D01*
X065689Y047607D01*
X065649Y047567D01*
X065609D01*
X065649Y047527D01*
X065609Y047487D01*
X065649D01*
X065689Y047447D01*
Y046447D02*
X065729Y046487D01*
X065769D01*
X065729Y046527D01*
X065769Y046567D01*
X065729D01*
X065689Y046607D01*
X065649Y046567D01*
X065609D01*
X065649Y046527D01*
X065609Y046487D01*
X065649D01*
X065689Y046447D01*
X040984Y051337D02*
X041024Y051417D01*
X040984Y051497D01*
X041064Y051457D01*
X041144Y051497D01*
X041104Y051417D01*
X041144Y051337D01*
X041064Y051377D01*
X040984Y051337D01*
X041024Y053011D02*
Y052971D01*
X041104D01*
Y053011D01*
X041144D01*
Y053091D01*
X041104D01*
Y053131D01*
X041024D01*
Y053091D01*
X040984D01*
Y053011D01*
X041024D01*
X044386Y051337D02*
X044426Y051417D01*
X044386Y051497D01*
X044466Y051457D01*
X044546Y051497D01*
X044506Y051417D01*
X044546Y051337D01*
X044466Y051377D01*
X044386Y051337D01*
X044426Y053011D02*
Y052971D01*
X044506D01*
Y053011D01*
X044546D01*
Y053091D01*
X044506D01*
Y053131D01*
X044426D01*
Y053091D01*
X044386D01*
Y053011D01*
X044426D01*
X041547Y051534D02*
X041587D01*
X041627Y051574D01*
X041667Y051534D01*
X041707D01*
Y051574D01*
X041667Y051614D01*
X041707Y051654D01*
Y051694D01*
X041667D01*
X041627Y051654D01*
X041587Y051694D01*
X041547D01*
Y051654D01*
X041587Y051614D01*
X041547Y051574D01*
Y051534D01*
X043823D02*
X043863D01*
X043903Y051574D01*
X043943Y051534D01*
X043983D01*
Y051574D01*
X043943Y051614D01*
X043983Y051654D01*
Y051694D01*
X043943D01*
X043903Y051654D01*
X043863Y051694D01*
X043823D01*
Y051654D01*
X043863Y051614D01*
X043823Y051574D01*
Y051534D01*
X073975Y021228D02*
X074055Y021308D01*
X074135Y021228D01*
X074055Y021148D01*
X073975Y021228D01*
X028896D02*
X028976Y021308D01*
X029056Y021228D01*
X028976Y021148D01*
X028896Y021228D01*
X073975Y052724D02*
X074055Y052804D01*
X074135Y052724D01*
X074055Y052644D01*
X073975Y052724D01*
X028896Y052626D02*
X028976Y052706D01*
X029056Y052626D01*
X028976Y052546D01*
X028896Y052626D01*
X063168Y051975D02*
Y052135D01*
X063328D01*
Y051975D01*
X063168D01*
X063208Y052015D02*
Y052095D01*
X063288D01*
Y052015D01*
X063208D01*
X060412Y051975D02*
Y052135D01*
X060572D01*
Y051975D01*
X060412D01*
X060452Y052015D02*
Y052095D01*
X060532D01*
Y052015D01*
X060452D01*
X053366Y037998D02*
X053286Y038158D01*
X053446D01*
X053366Y037998D01*
X056358D02*
X056278Y038158D01*
X056438D01*
X056358Y037998D01*
X0499Y048014D02*
Y048174D01*
X05006D01*
Y048014D01*
X0499D01*
Y048565D02*
Y048725D01*
X05006D01*
Y048565D01*
X0499D01*
X050176Y047738D02*
Y047899D01*
X050336D01*
Y047738D01*
X050176D01*
X049625D02*
Y047899D01*
X049785D01*
Y047738D01*
X049625D01*
X050176Y04829D02*
Y04845D01*
X050336D01*
Y04829D01*
X050176D01*
X056102Y051337D02*
X056142Y051417D01*
X056102Y051497D01*
X056182Y051457D01*
X056262Y051497D01*
X056222Y051417D01*
X056262Y051337D01*
X056182Y051377D01*
X056102Y051337D01*
X056142Y053011D02*
Y052971D01*
X056222D01*
Y053011D01*
X056262D01*
Y053091D01*
X056222D01*
Y053131D01*
X056142D01*
Y053091D01*
X056102D01*
Y053011D01*
X056142D01*
X059504Y051337D02*
X059544Y051417D01*
X059504Y051497D01*
X059584Y051457D01*
X059664Y051497D01*
X059624Y051417D01*
X059664Y051337D01*
X059584Y051377D01*
X059504Y051337D01*
X059544Y053011D02*
Y052971D01*
X059624D01*
Y053011D01*
X059664D01*
Y053091D01*
X059624D01*
Y053131D01*
X059544D01*
Y053091D01*
X059504D01*
Y053011D01*
X059544D01*
X056665Y051534D02*
X056705D01*
X056745Y051574D01*
X056785Y051534D01*
X056825D01*
Y051574D01*
X056785Y051614D01*
X056825Y051654D01*
Y051694D01*
X056785D01*
X056745Y051654D01*
X056705Y051694D01*
X056665D01*
Y051654D01*
X056705Y051614D01*
X056665Y051574D01*
Y051534D01*
X058941D02*
X058981D01*
X059021Y051574D01*
X059061Y051534D01*
X059101D01*
Y051574D01*
X059061Y051614D01*
X059101Y051654D01*
Y051694D01*
X059061D01*
X059021Y051654D01*
X058981Y051694D01*
X058941D01*
Y051654D01*
X058981Y051614D01*
X058941Y051574D01*
Y051534D01*
X06362Y02167D02*
Y02183D01*
X06378D01*
Y02167D01*
X06362D01*
X06366Y02171D02*
Y02179D01*
X06374D01*
Y02171D01*
X06366D01*
X06162Y02167D02*
Y02183D01*
X06178D01*
Y02167D01*
X06162D01*
X06166Y02171D02*
Y02179D01*
X06174D01*
Y02171D01*
X06166D01*
X05962Y02167D02*
Y02183D01*
X05978D01*
Y02167D01*
X05962D01*
X05966Y02171D02*
Y02179D01*
X05974D01*
Y02171D01*
X05966D01*
X05762Y02167D02*
Y02183D01*
X05778D01*
Y02167D01*
X05762D01*
X05766Y02171D02*
Y02179D01*
X05774D01*
Y02171D01*
X05766D01*
X068114Y053526D02*
X068034Y053686D01*
X068194D01*
X068114Y053526D01*
Y053566D02*
X068074Y053646D01*
X068154D01*
X068114Y053566D01*
X070114Y053526D02*
X070034Y053686D01*
X070194D01*
X070114Y053526D01*
Y053566D02*
X070074Y053646D01*
X070154D01*
X070114Y053566D01*
Y051526D02*
X070034Y051686D01*
X070194D01*
X070114Y051526D01*
Y051566D02*
X070074Y051646D01*
X070154D01*
X070114Y051566D01*
X068114Y051526D02*
X068034Y051686D01*
X068194D01*
X068114Y051526D01*
Y051566D02*
X068074Y051646D01*
X068154D01*
X068114Y051566D01*
X069114Y052526D02*
X069034Y052686D01*
X069194D01*
X069114Y052526D01*
Y052566D02*
X069074Y052646D01*
X069154D01*
X069114Y052566D01*
X065812Y031515D02*
X065852Y031555D01*
X065892D01*
X065852Y031595D01*
X065892Y031635D01*
X065852D01*
X065812Y031675D01*
X065772Y031635D01*
X065732D01*
X065772Y031595D01*
X065732Y031555D01*
X065772D01*
X065812Y031515D01*
Y031555D02*
X065832Y031575D01*
X065852D01*
X065832Y031595D01*
X065852Y031615D01*
X065832D01*
X065812Y031635D01*
X065792Y031615D01*
X065772D01*
X065792Y031595D01*
X065772Y031575D01*
X065792D01*
X065812Y031555D01*
X061088Y031515D02*
X061128Y031555D01*
X061168D01*
X061128Y031595D01*
X061168Y031635D01*
X061128D01*
X061088Y031675D01*
X061048Y031635D01*
X061008D01*
X061048Y031595D01*
X061008Y031555D01*
X061048D01*
X061088Y031515D01*
Y031555D02*
X061108Y031575D01*
X061128D01*
X061108Y031595D01*
X061128Y031615D01*
X061108D01*
X061088Y031635D01*
X061068Y031615D01*
X061048D01*
X061068Y031595D01*
X061048Y031575D01*
X061068D01*
X061088Y031555D01*
X065812Y026712D02*
X065852Y026752D01*
X065892D01*
X065852Y026792D01*
X065892Y026832D01*
X065852D01*
X065812Y026872D01*
X065772Y026832D01*
X065732D01*
X065772Y026792D01*
X065732Y026752D01*
X065772D01*
X065812Y026712D01*
Y026752D02*
X065832Y026772D01*
X065852D01*
X065832Y026792D01*
X065852Y026812D01*
X065832D01*
X065812Y026832D01*
X065792Y026812D01*
X065772D01*
X065792Y026792D01*
X065772Y026772D01*
X065792D01*
X065812Y026752D01*
X06345Y025925D02*
X06349Y025965D01*
X06353D01*
X06349Y026005D01*
X06353Y026045D01*
X06349D01*
X06345Y026085D01*
X06341Y026045D01*
X06337D01*
X06341Y026005D01*
X06337Y025965D01*
X06341D01*
X06345Y025925D01*
Y025965D02*
X06347Y025985D01*
X06349D01*
X06347Y026005D01*
X06349Y026025D01*
X06347D01*
X06345Y026045D01*
X06343Y026025D01*
X06341D01*
X06343Y026005D01*
X06341Y025985D01*
X06343D01*
X06345Y025965D01*
X061088Y026712D02*
X061128Y026752D01*
X061168D01*
X061128Y026792D01*
X061168Y026832D01*
X061128D01*
X061088Y026872D01*
X061048Y026832D01*
X061008D01*
X061048Y026792D01*
X061008Y026752D01*
X061048D01*
X061088Y026712D01*
Y026752D02*
X061108Y026772D01*
X061128D01*
X061108Y026792D01*
X061128Y026812D01*
X061108D01*
X061088Y026832D01*
X061068Y026812D01*
X061048D01*
X061068Y026792D01*
X061048Y026772D01*
X061068D01*
X061088Y026752D01*
X071845Y026418D02*
X071885Y026498D01*
X071845Y026578D01*
X071925Y026538D01*
X072005Y026578D01*
X071965Y026498D01*
X072005Y026418D01*
X071925Y026458D01*
X071845Y026418D01*
X071885Y026458D02*
X071905Y026498D01*
X071885Y026538D01*
X071925Y026518D01*
X071965Y026538D01*
X071945Y026498D01*
X071965Y026458D01*
X071925Y026478D01*
X071885Y026458D01*
X069845Y026418D02*
X069885Y026498D01*
X069845Y026578D01*
X069925Y026538D01*
X070005Y026578D01*
X069965Y026498D01*
X070005Y026418D01*
X069925Y026458D01*
X069845Y026418D01*
X069885Y026458D02*
X069905Y026498D01*
X069885Y026538D01*
X069925Y026518D01*
X069965Y026538D01*
X069945Y026498D01*
X069965Y026458D01*
X069925Y026478D01*
X069885Y026458D01*
X067845Y026418D02*
X067885Y026498D01*
X067845Y026578D01*
X067925Y026538D01*
X068005Y026578D01*
X067965Y026498D01*
X068005Y026418D01*
X067925Y026458D01*
X067845Y026418D01*
X067885Y026458D02*
X067905Y026498D01*
X067885Y026538D01*
X067925Y026518D01*
X067965Y026538D01*
X067945Y026498D01*
X067965Y026458D01*
X067925Y026478D01*
X067885Y026458D01*
X068245Y041818D02*
X068285Y041898D01*
X068245Y041978D01*
X068325Y041938D01*
X068405Y041978D01*
X068365Y041898D01*
X068405Y041818D01*
X068325Y041858D01*
X068245Y041818D01*
X068285Y041858D02*
X068305Y041898D01*
X068285Y041938D01*
X068325Y041918D01*
X068365Y041938D01*
X068345Y041898D01*
X068365Y041858D01*
X068325Y041878D01*
X068285Y041858D01*
X071245Y041818D02*
X071285Y041898D01*
X071245Y041978D01*
X071325Y041938D01*
X071405Y041978D01*
X071365Y041898D01*
X071405Y041818D01*
X071325Y041858D01*
X071245Y041818D01*
X071285Y041858D02*
X071305Y041898D01*
X071285Y041938D01*
X071325Y041918D01*
X071365Y041938D01*
X071345Y041898D01*
X071365Y041858D01*
X071325Y041878D01*
X071285Y041858D01*
X070245Y041818D02*
X070285Y041898D01*
X070245Y041978D01*
X070325Y041938D01*
X070405Y041978D01*
X070365Y041898D01*
X070405Y041818D01*
X070325Y041858D01*
X070245Y041818D01*
X070285Y041858D02*
X070305Y041898D01*
X070285Y041938D01*
X070325Y041918D01*
X070365Y041938D01*
X070345Y041898D01*
X070365Y041858D01*
X070325Y041878D01*
X070285Y041858D01*
X069245Y041818D02*
X069285Y041898D01*
X069245Y041978D01*
X069325Y041938D01*
X069405Y041978D01*
X069365Y041898D01*
X069405Y041818D01*
X069325Y041858D01*
X069245Y041818D01*
X069285Y041858D02*
X069305Y041898D01*
X069285Y041938D01*
X069325Y041918D01*
X069365Y041938D01*
X069345Y041898D01*
X069365Y041858D01*
X069325Y041878D01*
X069285Y041858D01*
X071845Y025618D02*
X071885Y025698D01*
X071845Y025778D01*
X071925Y025738D01*
X072005Y025778D01*
X071965Y025698D01*
X072005Y025618D01*
X071925Y025658D01*
X071845Y025618D01*
X071885Y025658D02*
X071905Y025698D01*
X071885Y025738D01*
X071925Y025718D01*
X071965Y025738D01*
X071945Y025698D01*
X071965Y025658D01*
X071925Y025678D01*
X071885Y025658D01*
X069845Y025618D02*
X069885Y025698D01*
X069845Y025778D01*
X069925Y025738D01*
X070005Y025778D01*
X069965Y025698D01*
X070005Y025618D01*
X069925Y025658D01*
X069845Y025618D01*
X069885Y025658D02*
X069905Y025698D01*
X069885Y025738D01*
X069925Y025718D01*
X069965Y025738D01*
X069945Y025698D01*
X069965Y025658D01*
X069925Y025678D01*
X069885Y025658D01*
X067845Y025618D02*
X067885Y025698D01*
X067845Y025778D01*
X067925Y025738D01*
X068005Y025778D01*
X067965Y025698D01*
X068005Y025618D01*
X067925Y025658D01*
X067845Y025618D01*
X067885Y025658D02*
X067905Y025698D01*
X067885Y025738D01*
X067925Y025718D01*
X067965Y025738D01*
X067945Y025698D01*
X067965Y025658D01*
X067925Y025678D01*
X067885Y025658D01*
X071245Y042468D02*
X071285Y042548D01*
X071245Y042628D01*
X071325Y042588D01*
X071405Y042628D01*
X071365Y042548D01*
X071405Y042468D01*
X071325Y042508D01*
X071245Y042468D01*
X071285Y042508D02*
X071305Y042548D01*
X071285Y042588D01*
X071325Y042568D01*
X071365Y042588D01*
X071345Y042548D01*
X071365Y042508D01*
X071325Y042528D01*
X071285Y042508D01*
X070245Y042468D02*
X070285Y042548D01*
X070245Y042628D01*
X070325Y042588D01*
X070405Y042628D01*
X070365Y042548D01*
X070405Y042468D01*
X070325Y042508D01*
X070245Y042468D01*
X070285Y042508D02*
X070305Y042548D01*
X070285Y042588D01*
X070325Y042568D01*
X070365Y042588D01*
X070345Y042548D01*
X070365Y042508D01*
X070325Y042528D01*
X070285Y042508D01*
X069245Y042468D02*
X069285Y042548D01*
X069245Y042628D01*
X069325Y042588D01*
X069405Y042628D01*
X069365Y042548D01*
X069405Y042468D01*
X069325Y042508D01*
X069245Y042468D01*
X069285Y042508D02*
X069305Y042548D01*
X069285Y042588D01*
X069325Y042568D01*
X069365Y042588D01*
X069345Y042548D01*
X069365Y042508D01*
X069325Y042528D01*
X069285Y042508D01*
X068245Y042468D02*
X068285Y042548D01*
X068245Y042628D01*
X068325Y042588D01*
X068405Y042628D01*
X068365Y042548D01*
X068405Y042468D01*
X068325Y042508D01*
X068245Y042468D01*
X068285Y042508D02*
X068305Y042548D01*
X068285Y042588D01*
X068325Y042568D01*
X068365Y042588D01*
X068345Y042548D01*
X068365Y042508D01*
X068325Y042528D01*
X068285Y042508D01*
X04952Y02167D02*
Y02183D01*
X04968D01*
Y02167D01*
X04952D01*
X04956Y02171D02*
Y02179D01*
X04964D01*
Y02171D01*
X04956D01*
X04752Y02167D02*
Y02183D01*
X04768D01*
Y02167D01*
X04752D01*
X04756Y02171D02*
Y02179D01*
X04764D01*
Y02171D01*
X04756D01*
X04552Y02167D02*
Y02183D01*
X04568D01*
Y02167D01*
X04552D01*
X04556Y02171D02*
Y02179D01*
X04564D01*
Y02171D01*
X04556D01*
X04352Y02167D02*
Y02183D01*
X04368D01*
Y02167D01*
X04352D01*
X04356Y02171D02*
Y02179D01*
X04364D01*
Y02171D01*
X04356D01*
X04152Y02167D02*
Y02183D01*
X04168D01*
Y02167D01*
X04152D01*
X04156Y02171D02*
Y02179D01*
X04164D01*
Y02171D01*
X04156D01*
X03952Y02167D02*
Y02183D01*
X03968D01*
Y02167D01*
X03952D01*
X03956Y02171D02*
Y02179D01*
X03964D01*
Y02171D01*
X03956D01*
X03752Y02167D02*
Y02183D01*
X03768D01*
Y02167D01*
X03752D01*
X03756Y02171D02*
Y02179D01*
X03764D01*
Y02171D01*
X03756D01*
X03552Y02167D02*
Y02183D01*
X03568D01*
Y02167D01*
X03552D01*
X03556Y02171D02*
Y02179D01*
X03564D01*
Y02171D01*
X03556D01*
X03352Y02167D02*
Y02183D01*
X03368D01*
Y02167D01*
X03352D01*
X03356Y02171D02*
Y02179D01*
X03364D01*
Y02171D01*
X03356D01*
X05157Y02167D02*
Y02183D01*
X05173D01*
Y02167D01*
X05157D01*
X05161Y02171D02*
Y02179D01*
X05169D01*
Y02171D01*
X05161D01*
X05357Y02167D02*
Y02183D01*
X05373D01*
Y02167D01*
X05357D01*
X05361Y02171D02*
Y02179D01*
X05369D01*
Y02171D01*
X05361D01*
X05557Y02167D02*
Y02183D01*
X05573D01*
Y02167D01*
X05557D01*
X05561Y02171D02*
Y02179D01*
X05569D01*
Y02171D01*
X05561D01*
X06567Y02167D02*
Y02183D01*
X06583D01*
Y02167D01*
X06567D01*
X06571Y02171D02*
Y02179D01*
X06579D01*
Y02171D01*
X06571D01*
X06767Y02167D02*
Y02183D01*
X06783D01*
Y02167D01*
X06767D01*
X06771Y02171D02*
Y02179D01*
X06779D01*
Y02171D01*
X06771D01*
X06967Y02167D02*
Y02183D01*
X06983D01*
Y02167D01*
X06967D01*
X06971Y02171D02*
Y02179D01*
X06979D01*
Y02171D01*
X06971D01*
X034412Y031515D02*
X034452Y031555D01*
X034492D01*
X034452Y031595D01*
X034492Y031635D01*
X034452D01*
X034412Y031675D01*
X034372Y031635D01*
X034332D01*
X034372Y031595D01*
X034332Y031555D01*
X034372D01*
X034412Y031515D01*
Y031555D02*
X034432Y031575D01*
X034452D01*
X034432Y031595D01*
X034452Y031615D01*
X034432D01*
X034412Y031635D01*
X034392Y031615D01*
X034372D01*
X034392Y031595D01*
X034372Y031575D01*
X034392D01*
X034412Y031555D01*
X029688Y031515D02*
X029728Y031555D01*
X029768D01*
X029728Y031595D01*
X029768Y031635D01*
X029728D01*
X029688Y031675D01*
X029648Y031635D01*
X029608D01*
X029648Y031595D01*
X029608Y031555D01*
X029648D01*
X029688Y031515D01*
Y031555D02*
X029708Y031575D01*
X029728D01*
X029708Y031595D01*
X029728Y031615D01*
X029708D01*
X029688Y031635D01*
X029668Y031615D01*
X029648D01*
X029668Y031595D01*
X029648Y031575D01*
X029668D01*
X029688Y031555D01*
X034412Y026712D02*
X034452Y026752D01*
X034492D01*
X034452Y026792D01*
X034492Y026832D01*
X034452D01*
X034412Y026872D01*
X034372Y026832D01*
X034332D01*
X034372Y026792D01*
X034332Y026752D01*
X034372D01*
X034412Y026712D01*
Y026752D02*
X034432Y026772D01*
X034452D01*
X034432Y026792D01*
X034452Y026812D01*
X034432D01*
X034412Y026832D01*
X034392Y026812D01*
X034372D01*
X034392Y026792D01*
X034372Y026772D01*
X034392D01*
X034412Y026752D01*
X03205Y025925D02*
X03209Y025965D01*
X03213D01*
X03209Y026005D01*
X03213Y026045D01*
X03209D01*
X03205Y026085D01*
X03201Y026045D01*
X03197D01*
X03201Y026005D01*
X03197Y025965D01*
X03201D01*
X03205Y025925D01*
Y025965D02*
X03207Y025985D01*
X03209D01*
X03207Y026005D01*
X03209Y026025D01*
X03207D01*
X03205Y026045D01*
X03203Y026025D01*
X03201D01*
X03203Y026005D01*
X03201Y025985D01*
X03203D01*
X03205Y025965D01*
X029688Y026712D02*
X029728Y026752D01*
X029768D01*
X029728Y026792D01*
X029768Y026832D01*
X029728D01*
X029688Y026872D01*
X029648Y026832D01*
X029608D01*
X029648Y026792D01*
X029608Y026752D01*
X029648D01*
X029688Y026712D01*
Y026752D02*
X029708Y026772D01*
X029728D01*
X029708Y026792D01*
X029728Y026812D01*
X029708D01*
X029688Y026832D01*
X029668Y026812D01*
X029648D01*
X029668Y026792D01*
X029648Y026772D01*
X029668D01*
X029688Y026752D01*
X040692Y031515D02*
X040732Y031555D01*
X040772D01*
X040732Y031595D01*
X040772Y031635D01*
X040732D01*
X040692Y031675D01*
X040652Y031635D01*
X040612D01*
X040652Y031595D01*
X040612Y031555D01*
X040652D01*
X040692Y031515D01*
Y031555D02*
X040712Y031575D01*
X040732D01*
X040712Y031595D01*
X040732Y031615D01*
X040712D01*
X040692Y031635D01*
X040672Y031615D01*
X040652D01*
X040672Y031595D01*
X040652Y031575D01*
X040672D01*
X040692Y031555D01*
X035968Y031515D02*
X036008Y031555D01*
X036048D01*
X036008Y031595D01*
X036048Y031635D01*
X036008D01*
X035968Y031675D01*
X035928Y031635D01*
X035888D01*
X035928Y031595D01*
X035888Y031555D01*
X035928D01*
X035968Y031515D01*
Y031555D02*
X035988Y031575D01*
X036008D01*
X035988Y031595D01*
X036008Y031615D01*
X035988D01*
X035968Y031635D01*
X035948Y031615D01*
X035928D01*
X035948Y031595D01*
X035928Y031575D01*
X035948D01*
X035968Y031555D01*
X040692Y026712D02*
X040732Y026752D01*
X040772D01*
X040732Y026792D01*
X040772Y026832D01*
X040732D01*
X040692Y026872D01*
X040652Y026832D01*
X040612D01*
X040652Y026792D01*
X040612Y026752D01*
X040652D01*
X040692Y026712D01*
Y026752D02*
X040712Y026772D01*
X040732D01*
X040712Y026792D01*
X040732Y026812D01*
X040712D01*
X040692Y026832D01*
X040672Y026812D01*
X040652D01*
X040672Y026792D01*
X040652Y026772D01*
X040672D01*
X040692Y026752D01*
X03833Y025925D02*
X03837Y025965D01*
X03841D01*
X03837Y026005D01*
X03841Y026045D01*
X03837D01*
X03833Y026085D01*
X03829Y026045D01*
X03825D01*
X03829Y026005D01*
X03825Y025965D01*
X03829D01*
X03833Y025925D01*
Y025965D02*
X03835Y025985D01*
X03837D01*
X03835Y026005D01*
X03837Y026025D01*
X03835D01*
X03833Y026045D01*
X03831Y026025D01*
X03829D01*
X03831Y026005D01*
X03829Y025985D01*
X03831D01*
X03833Y025965D01*
X035968Y026712D02*
X036008Y026752D01*
X036048D01*
X036008Y026792D01*
X036048Y026832D01*
X036008D01*
X035968Y026872D01*
X035928Y026832D01*
X035888D01*
X035928Y026792D01*
X035888Y026752D01*
X035928D01*
X035968Y026712D01*
Y026752D02*
X035988Y026772D01*
X036008D01*
X035988Y026792D01*
X036008Y026812D01*
X035988D01*
X035968Y026832D01*
X035948Y026812D01*
X035928D01*
X035948Y026792D01*
X035928Y026772D01*
X035948D01*
X035968Y026752D01*
X046972Y031515D02*
X047012Y031555D01*
X047052D01*
X047012Y031595D01*
X047052Y031635D01*
X047012D01*
X046972Y031675D01*
X046932Y031635D01*
X046892D01*
X046932Y031595D01*
X046892Y031555D01*
X046932D01*
X046972Y031515D01*
Y031555D02*
X046992Y031575D01*
X047012D01*
X046992Y031595D01*
X047012Y031615D01*
X046992D01*
X046972Y031635D01*
X046952Y031615D01*
X046932D01*
X046952Y031595D01*
X046932Y031575D01*
X046952D01*
X046972Y031555D01*
X042248Y031515D02*
X042288Y031555D01*
X042328D01*
X042288Y031595D01*
X042328Y031635D01*
X042288D01*
X042248Y031675D01*
X042208Y031635D01*
X042168D01*
X042208Y031595D01*
X042168Y031555D01*
X042208D01*
X042248Y031515D01*
Y031555D02*
X042268Y031575D01*
X042288D01*
X042268Y031595D01*
X042288Y031615D01*
X042268D01*
X042248Y031635D01*
X042228Y031615D01*
X042208D01*
X042228Y031595D01*
X042208Y031575D01*
X042228D01*
X042248Y031555D01*
X046972Y026712D02*
X047012Y026752D01*
X047052D01*
X047012Y026792D01*
X047052Y026832D01*
X047012D01*
X046972Y026872D01*
X046932Y026832D01*
X046892D01*
X046932Y026792D01*
X046892Y026752D01*
X046932D01*
X046972Y026712D01*
Y026752D02*
X046992Y026772D01*
X047012D01*
X046992Y026792D01*
X047012Y026812D01*
X046992D01*
X046972Y026832D01*
X046952Y026812D01*
X046932D01*
X046952Y026792D01*
X046932Y026772D01*
X046952D01*
X046972Y026752D01*
X04461Y025925D02*
X04465Y025965D01*
X04469D01*
X04465Y026005D01*
X04469Y026045D01*
X04465D01*
X04461Y026085D01*
X04457Y026045D01*
X04453D01*
X04457Y026005D01*
X04453Y025965D01*
X04457D01*
X04461Y025925D01*
Y025965D02*
X04463Y025985D01*
X04465D01*
X04463Y026005D01*
X04465Y026025D01*
X04463D01*
X04461Y026045D01*
X04459Y026025D01*
X04457D01*
X04459Y026005D01*
X04457Y025985D01*
X04459D01*
X04461Y025965D01*
X042248Y026712D02*
X042288Y026752D01*
X042328D01*
X042288Y026792D01*
X042328Y026832D01*
X042288D01*
X042248Y026872D01*
X042208Y026832D01*
X042168D01*
X042208Y026792D01*
X042168Y026752D01*
X042208D01*
X042248Y026712D01*
Y026752D02*
X042268Y026772D01*
X042288D01*
X042268Y026792D01*
X042288Y026812D01*
X042268D01*
X042248Y026832D01*
X042228Y026812D01*
X042208D01*
X042228Y026792D01*
X042208Y026772D01*
X042228D01*
X042248Y026752D01*
X053252Y031515D02*
X053292Y031555D01*
X053332D01*
X053292Y031595D01*
X053332Y031635D01*
X053292D01*
X053252Y031675D01*
X053212Y031635D01*
X053172D01*
X053212Y031595D01*
X053172Y031555D01*
X053212D01*
X053252Y031515D01*
Y031555D02*
X053272Y031575D01*
X053292D01*
X053272Y031595D01*
X053292Y031615D01*
X053272D01*
X053252Y031635D01*
X053232Y031615D01*
X053212D01*
X053232Y031595D01*
X053212Y031575D01*
X053232D01*
X053252Y031555D01*
X048528Y031515D02*
X048568Y031555D01*
X048608D01*
X048568Y031595D01*
X048608Y031635D01*
X048568D01*
X048528Y031675D01*
X048488Y031635D01*
X048448D01*
X048488Y031595D01*
X048448Y031555D01*
X048488D01*
X048528Y031515D01*
Y031555D02*
X048548Y031575D01*
X048568D01*
X048548Y031595D01*
X048568Y031615D01*
X048548D01*
X048528Y031635D01*
X048508Y031615D01*
X048488D01*
X048508Y031595D01*
X048488Y031575D01*
X048508D01*
X048528Y031555D01*
X053252Y026712D02*
X053292Y026752D01*
X053332D01*
X053292Y026792D01*
X053332Y026832D01*
X053292D01*
X053252Y026872D01*
X053212Y026832D01*
X053172D01*
X053212Y026792D01*
X053172Y026752D01*
X053212D01*
X053252Y026712D01*
Y026752D02*
X053272Y026772D01*
X053292D01*
X053272Y026792D01*
X053292Y026812D01*
X053272D01*
X053252Y026832D01*
X053232Y026812D01*
X053212D01*
X053232Y026792D01*
X053212Y026772D01*
X053232D01*
X053252Y026752D01*
X05089Y025925D02*
X05093Y025965D01*
X05097D01*
X05093Y026005D01*
X05097Y026045D01*
X05093D01*
X05089Y026085D01*
X05085Y026045D01*
X05081D01*
X05085Y026005D01*
X05081Y025965D01*
X05085D01*
X05089Y025925D01*
Y025965D02*
X05091Y025985D01*
X05093D01*
X05091Y026005D01*
X05093Y026025D01*
X05091D01*
X05089Y026045D01*
X05087Y026025D01*
X05085D01*
X05087Y026005D01*
X05085Y025985D01*
X05087D01*
X05089Y025965D01*
X048528Y026712D02*
X048568Y026752D01*
X048608D01*
X048568Y026792D01*
X048608Y026832D01*
X048568D01*
X048528Y026872D01*
X048488Y026832D01*
X048448D01*
X048488Y026792D01*
X048448Y026752D01*
X048488D01*
X048528Y026712D01*
Y026752D02*
X048548Y026772D01*
X048568D01*
X048548Y026792D01*
X048568Y026812D01*
X048548D01*
X048528Y026832D01*
X048508Y026812D01*
X048488D01*
X048508Y026792D01*
X048488Y026772D01*
X048508D01*
X048528Y026752D01*
X059532Y031515D02*
X059572Y031555D01*
X059612D01*
X059572Y031595D01*
X059612Y031635D01*
X059572D01*
X059532Y031675D01*
X059492Y031635D01*
X059452D01*
X059492Y031595D01*
X059452Y031555D01*
X059492D01*
X059532Y031515D01*
Y031555D02*
X059552Y031575D01*
X059572D01*
X059552Y031595D01*
X059572Y031615D01*
X059552D01*
X059532Y031635D01*
X059512Y031615D01*
X059492D01*
X059512Y031595D01*
X059492Y031575D01*
X059512D01*
X059532Y031555D01*
X054808Y031515D02*
X054848Y031555D01*
X054888D01*
X054848Y031595D01*
X054888Y031635D01*
X054848D01*
X054808Y031675D01*
X054768Y031635D01*
X054728D01*
X054768Y031595D01*
X054728Y031555D01*
X054768D01*
X054808Y031515D01*
Y031555D02*
X054828Y031575D01*
X054848D01*
X054828Y031595D01*
X054848Y031615D01*
X054828D01*
X054808Y031635D01*
X054788Y031615D01*
X054768D01*
X054788Y031595D01*
X054768Y031575D01*
X054788D01*
X054808Y031555D01*
X059532Y026712D02*
X059572Y026752D01*
X059612D01*
X059572Y026792D01*
X059612Y026832D01*
X059572D01*
X059532Y026872D01*
X059492Y026832D01*
X059452D01*
X059492Y026792D01*
X059452Y026752D01*
X059492D01*
X059532Y026712D01*
Y026752D02*
X059552Y026772D01*
X059572D01*
X059552Y026792D01*
X059572Y026812D01*
X059552D01*
X059532Y026832D01*
X059512Y026812D01*
X059492D01*
X059512Y026792D01*
X059492Y026772D01*
X059512D01*
X059532Y026752D01*
X05717Y025925D02*
X05721Y025965D01*
X05725D01*
X05721Y026005D01*
X05725Y026045D01*
X05721D01*
X05717Y026085D01*
X05713Y026045D01*
X05709D01*
X05713Y026005D01*
X05709Y025965D01*
X05713D01*
X05717Y025925D01*
Y025965D02*
X05719Y025985D01*
X05721D01*
X05719Y026005D01*
X05721Y026025D01*
X05719D01*
X05717Y026045D01*
X05715Y026025D01*
X05713D01*
X05715Y026005D01*
X05713Y025985D01*
X05715D01*
X05717Y025965D01*
X054808Y026712D02*
X054848Y026752D01*
X054888D01*
X054848Y026792D01*
X054888Y026832D01*
X054848D01*
X054808Y026872D01*
X054768Y026832D01*
X054728D01*
X054768Y026792D01*
X054728Y026752D01*
X054768D01*
X054808Y026712D01*
Y026752D02*
X054828Y026772D01*
X054848D01*
X054828Y026792D01*
X054848Y026812D01*
X054828D01*
X054808Y026832D01*
X054788Y026812D01*
X054768D01*
X054788Y026792D01*
X054768Y026772D01*
X054788D01*
X054808Y026752D01*
X063998Y051975D02*
Y052135D01*
X064158D01*
Y051975D01*
X063998D01*
X064038Y052015D02*
Y052095D01*
X064118D01*
Y052015D01*
X064038D01*
X066753Y051975D02*
Y052135D01*
X066913D01*
Y051975D01*
X066753D01*
X066793Y052015D02*
Y052095D01*
X066873D01*
Y052015D01*
X066793D01*
X037026Y051975D02*
Y052135D01*
X037186D01*
Y051975D01*
X037026D01*
X037066Y052015D02*
Y052095D01*
X037146D01*
Y052015D01*
X037066D01*
X039782Y051975D02*
Y052135D01*
X039942D01*
Y051975D01*
X039782D01*
X039822Y052015D02*
Y052095D01*
X039902D01*
Y052015D01*
X039822D01*
X06176Y044325D02*
Y044485D01*
X06192D01*
Y044325D01*
X06176D01*
X06303Y043884D02*
Y044044D01*
X06319D01*
Y043884D01*
X06303D01*
X063993Y045753D02*
Y045913D01*
X064153D01*
Y045753D01*
X063993D01*
X064428Y04662D02*
Y04678D01*
X064588D01*
Y04662D01*
X064428D01*
X06305Y044927D02*
Y045087D01*
X06321D01*
Y044927D01*
X06305D01*
Y043313D02*
Y043473D01*
X06321D01*
Y043313D01*
X06305D01*
X06513Y049368D02*
Y049528D01*
X06529D01*
Y049368D01*
X06513D01*
X065845Y042723D02*
Y042883D01*
X066005D01*
Y042723D01*
X065845D01*
X041733Y050612D02*
Y050772D01*
X041893D01*
Y050612D01*
X041733D01*
X042656Y050497D02*
Y050657D01*
X042816D01*
Y050497D01*
X042656D01*
X043622Y050612D02*
Y050772D01*
X043782D01*
Y050612D01*
X043622D01*
X0612Y042368D02*
Y042528D01*
X06136D01*
Y042368D01*
X0612D01*
X057394Y040057D02*
Y040217D01*
X057554D01*
Y040057D01*
X057394D01*
X057401Y039693D02*
Y039853D01*
X057561D01*
Y039693D01*
X057401D01*
X059489Y039679D02*
Y039839D01*
X059649D01*
Y039679D01*
X059489D01*
X044684Y048884D02*
Y049044D01*
X044844D01*
Y048884D01*
X044684D01*
X045477Y048542D02*
Y048702D01*
X045637D01*
Y048542D01*
X045477D01*
X054144Y044573D02*
Y044733D01*
X054304D01*
Y044573D01*
X054144D01*
X054535Y04477D02*
Y04493D01*
X054695D01*
Y04477D01*
X054535D01*
X058326Y045006D02*
Y045166D01*
X058486D01*
Y045006D01*
X058326D01*
X059113Y044494D02*
Y044654D01*
X059273D01*
Y044494D01*
X059113D01*
Y045006D02*
Y045166D01*
X059273D01*
Y045006D01*
X059113D01*
X058326Y044494D02*
Y044654D01*
X058486D01*
Y044494D01*
X058326D01*
X058919Y042876D02*
Y043036D01*
X059079D01*
Y042876D01*
X058919D01*
X058326Y043136D02*
Y043296D01*
X058486D01*
Y043136D01*
X058326D01*
X058573Y042876D02*
Y043036D01*
X058733D01*
Y042876D01*
X058573D01*
X057588Y047199D02*
Y047359D01*
X057748D01*
Y047199D01*
X057588D01*
X057987Y047192D02*
Y047352D01*
X058147D01*
Y047192D01*
X057987D01*
X05927Y047172D02*
Y047332D01*
X05943D01*
Y047172D01*
X05927D01*
X054782Y049219D02*
Y049379D01*
X054942D01*
Y049219D01*
X054782D01*
X055097Y048943D02*
Y049103D01*
X055257D01*
Y048943D01*
X055097D01*
X056413Y049606D02*
Y049766D01*
X056573D01*
Y049606D01*
X056413D01*
X059239Y049605D02*
Y049765D01*
X059399D01*
Y049605D01*
X059239D01*
X065196Y03855D02*
Y03871D01*
X065356D01*
Y03855D01*
X065196D01*
X029527Y032901D02*
Y032861D01*
X029607D01*
Y032901D01*
X029647D01*
Y032981D01*
X029607D01*
Y033021D01*
X029527D01*
Y032981D01*
X029487D01*
Y032901D01*
X029527D01*
X029547Y032921D02*
Y032901D01*
X029587D01*
Y032921D01*
X029607D01*
Y032961D01*
X029587D01*
Y032981D01*
X029547D01*
Y032961D01*
X029527D01*
Y032921D01*
X029547D01*
X031102Y032901D02*
Y032861D01*
X031182D01*
Y032901D01*
X031222D01*
Y032981D01*
X031182D01*
Y033021D01*
X031102D01*
Y032981D01*
X031062D01*
Y032901D01*
X031102D01*
X031122Y032921D02*
Y032901D01*
X031162D01*
Y032921D01*
X031182D01*
Y032961D01*
X031162D01*
Y032981D01*
X031122D01*
Y032961D01*
X031102D01*
Y032921D01*
X031122D01*
X063995Y038256D02*
Y038416D01*
X064155D01*
Y038256D01*
X063995D01*
X034546Y044888D02*
Y045048D01*
X034706D01*
Y044888D01*
X034546D01*
X037341Y044455D02*
Y044615D01*
X037501D01*
Y044455D01*
X037341D01*
X036417Y044474D02*
Y044634D01*
X036577D01*
Y044474D01*
X036417D01*
X029091Y046524D02*
Y046684D01*
X029251D01*
Y046524D01*
X029091D01*
X029167Y044479D02*
Y044639D01*
X029327D01*
Y044479D01*
X029167D01*
X029597Y04527D02*
Y04543D01*
X029757D01*
Y04527D01*
X029597D01*
X034005Y04652D02*
Y04668D01*
X034165D01*
Y04652D01*
X034005D01*
X033365Y045282D02*
Y045442D01*
X033525D01*
Y045282D01*
X033365D01*
X05746Y040871D02*
Y040831D01*
X05754D01*
Y040871D01*
X05758D01*
Y040951D01*
X05754D01*
Y040991D01*
X05746D01*
Y040951D01*
X05742D01*
Y040871D01*
X05746D01*
X05748Y040891D02*
Y040871D01*
X05752D01*
Y040891D01*
X05754D01*
Y040931D01*
X05752D01*
Y040951D01*
X05748D01*
Y040931D01*
X05746D01*
Y040891D01*
X05748D01*
X058522Y039298D02*
Y039458D01*
X058682D01*
Y039298D01*
X058522D01*
X049572Y041737D02*
Y041897D01*
X049732D01*
Y041737D01*
X049572D01*
X050255D02*
Y041897D01*
X050415D01*
Y041737D01*
X050255D01*
X052302Y041739D02*
Y041898D01*
X052462D01*
Y041739D01*
X052302D01*
X050937Y041737D02*
Y041897D01*
X051097D01*
Y041737D01*
X050937D01*
X04889D02*
Y041897D01*
X04905D01*
Y041737D01*
X04889D01*
X048207Y041739D02*
Y041898D01*
X048367D01*
Y041739D01*
X048207D01*
X051619Y041737D02*
Y041897D01*
X051779D01*
Y041737D01*
X051619D01*
X041377Y044868D02*
Y045028D01*
X041537D01*
Y044868D01*
X041377D01*
X057774Y04851D02*
Y04867D01*
X057934D01*
Y04851D01*
X057774D01*
X061672Y043353D02*
Y043513D01*
X061832D01*
Y043353D01*
X061672D01*
X061702Y043855D02*
Y044015D01*
X061862D01*
Y043855D01*
X061702D01*
X06174Y044859D02*
Y045019D01*
X0619D01*
Y044859D01*
X06174D01*
X059999Y042427D02*
Y042587D01*
X060159D01*
Y042427D01*
X059999D01*
X059327Y042405D02*
Y042565D01*
X059487D01*
Y042405D01*
X059327D01*
X044743Y050676D02*
Y050636D01*
X044823D01*
Y050676D01*
X044863D01*
Y050756D01*
X044823D01*
Y050796D01*
X044743D01*
Y050756D01*
X044703D01*
Y050676D01*
X044743D01*
X044763Y050696D02*
Y050676D01*
X044803D01*
Y050696D01*
X044823D01*
Y050736D01*
X044803D01*
Y050756D01*
X044763D01*
Y050736D01*
X044743D01*
Y050696D01*
X044763D01*
X040846Y044928D02*
Y044888D01*
X040926D01*
Y044928D01*
X040966D01*
Y045008D01*
X040926D01*
Y045048D01*
X040846D01*
Y045008D01*
X040806D01*
Y044928D01*
X040846D01*
X040866Y044948D02*
Y044928D01*
X040906D01*
Y044948D01*
X040926D01*
Y044988D01*
X040906D01*
Y045008D01*
X040866D01*
Y044988D01*
X040846D01*
Y044948D01*
X040866D01*
X043289Y046092D02*
Y046052D01*
X043369D01*
Y046092D01*
X043409D01*
Y046172D01*
X043369D01*
Y046212D01*
X043289D01*
Y046172D01*
X043249D01*
Y046092D01*
X043289D01*
X043309Y046112D02*
Y046092D01*
X043349D01*
Y046112D01*
X043369D01*
Y046152D01*
X043349D01*
Y046172D01*
X043309D01*
Y046152D01*
X043289D01*
Y046112D01*
X043309D01*
X055082Y050554D02*
Y050714D01*
X055242D01*
Y050554D01*
X055082D01*
X041161Y05056D02*
Y05052D01*
X041241D01*
Y05056D01*
X041281D01*
Y05064D01*
X041241D01*
Y05068D01*
X041161D01*
Y05064D01*
X041121D01*
Y05056D01*
X041161D01*
X041181Y05058D02*
Y05056D01*
X041221D01*
Y05058D01*
X041241D01*
Y05062D01*
X041221D01*
Y05064D01*
X041181D01*
Y05062D01*
X041161D01*
Y05058D01*
X041181D01*
X032893Y044386D02*
Y044546D01*
X033053D01*
Y044386D01*
X032893D01*
X032892Y042762D02*
Y042922D01*
X033052D01*
Y042762D01*
X032892D01*
X053028Y043147D02*
Y043307D01*
X053188D01*
Y043147D01*
X053028D01*
X052566Y043131D02*
Y043291D01*
X052726D01*
Y043131D01*
X052566D01*
X063365Y036502D02*
Y036662D01*
X063525D01*
Y036502D01*
X063365D01*
X058522Y037053D02*
Y037213D01*
X058682D01*
Y037053D01*
X058522D01*
X032539Y035203D02*
Y035363D01*
X032699D01*
Y035203D01*
X032539D01*
X062931Y027712D02*
Y027872D01*
X063091D01*
Y027712D01*
X062931D01*
X056658Y02776D02*
Y02792D01*
X056818D01*
Y02776D01*
X056658D01*
X050327Y027812D02*
Y027972D01*
X050487D01*
Y027812D01*
X050327D01*
X063584Y026739D02*
Y026899D01*
X063744D01*
Y026739D01*
X063584D01*
X057304D02*
Y026899D01*
X057464D01*
Y026739D01*
X057304D01*
X051024D02*
Y026899D01*
X051184D01*
Y026739D01*
X051024D01*
X044744D02*
Y026899D01*
X044904D01*
Y026739D01*
X044744D01*
X038464D02*
Y026899D01*
X038624D01*
Y026739D01*
X038464D01*
X032184D02*
Y026899D01*
X032344D01*
Y026739D01*
X032184D01*
X064935Y033755D02*
Y033915D01*
X065095D01*
Y033755D01*
X064935D01*
X058658D02*
Y033915D01*
X058818D01*
Y033755D01*
X058658D01*
X052382D02*
Y033915D01*
X052542D01*
Y033755D01*
X052382D01*
X046106D02*
Y033915D01*
X046266D01*
Y033755D01*
X046106D01*
X039829D02*
Y033915D01*
X039989D01*
Y033755D01*
X039829D01*
X033553D02*
Y033915D01*
X033713D01*
Y033755D01*
X033553D01*
X05496Y027547D02*
Y027707D01*
X05512D01*
Y027547D01*
X05496D01*
X048665Y027547D02*
Y027707D01*
X048825D01*
Y027547D01*
X048665D01*
X044025Y02786D02*
Y02802D01*
X044185D01*
Y02786D01*
X044025D01*
X037706Y027843D02*
Y028003D01*
X037866D01*
Y027843D01*
X037706D01*
X031418Y027827D02*
Y027987D01*
X031578D01*
Y027827D01*
X031418D01*
X031696Y038774D02*
Y038934D01*
X031856D01*
Y038774D01*
X031696D01*
X035885Y042132D02*
Y042292D01*
X036045D01*
Y042132D01*
X035885D01*
X03557D02*
Y042292D01*
X03573D01*
Y042132D01*
X03557D01*
Y042605D02*
Y042765D01*
X03573D01*
Y042605D01*
X03557D01*
Y042368D02*
Y042528D01*
X03573D01*
Y042368D01*
X03557D01*
X035885D02*
Y042528D01*
X036045D01*
Y042368D01*
X035885D01*
Y042605D02*
Y042765D01*
X036045D01*
Y042605D01*
X035885D01*
Y042841D02*
Y043001D01*
X036045D01*
Y042841D01*
X035885D01*
X038148Y049317D02*
Y049477D01*
X038308D01*
Y049317D01*
X038148D01*
X054388Y045479D02*
Y045639D01*
X054549D01*
Y045479D01*
X054388D01*
X045592Y049185D02*
Y049345D01*
X045752D01*
Y049185D01*
X045592D01*
X045414Y049542D02*
Y049702D01*
X045574D01*
Y049542D01*
X045414D01*
X03927Y049731D02*
Y049891D01*
X03943D01*
Y049731D01*
X03927D01*
X045412Y050439D02*
Y050599D01*
X045572D01*
Y050439D01*
X045412D01*
X061534Y049917D02*
Y050077D01*
X061694D01*
Y049917D01*
X061534D01*
X03931Y050912D02*
Y051072D01*
X03947D01*
Y050912D01*
X03931D01*
X062696Y050321D02*
Y050481D01*
X062856D01*
Y050321D01*
X062696D01*
X066278D02*
Y050481D01*
X066438D01*
Y050321D01*
X066278D01*
Y050912D02*
Y051072D01*
X066438D01*
Y050912D01*
X066278D01*
X062696D02*
Y051072D01*
X062856D01*
Y050912D01*
X062696D01*
X049739Y034809D02*
Y034969D01*
X049899D01*
Y034809D01*
X049739D01*
X049239D02*
Y034969D01*
X049399D01*
Y034809D01*
X049239D01*
X048739D02*
Y034969D01*
X048899D01*
Y034809D01*
X048739D01*
X048239D02*
Y034969D01*
X048399D01*
Y034809D01*
X048239D01*
X047739D02*
Y034969D01*
X047899D01*
Y034809D01*
X047739D01*
X047241Y034792D02*
Y034952D01*
X047401D01*
Y034792D01*
X047241D01*
X046751Y034809D02*
Y034969D01*
X046911D01*
Y034809D01*
X046751D01*
X046239D02*
Y034969D01*
X046399D01*
Y034809D01*
X046239D01*
X04609Y045552D02*
Y045712D01*
X04625D01*
Y045552D01*
X04609D01*
X046081Y044061D02*
Y044221D01*
X046241D01*
Y044061D01*
X046081D01*
X058522Y036542D02*
Y036702D01*
X058682D01*
Y036542D01*
X058522D01*
X045639Y046827D02*
Y046987D01*
X045799D01*
Y046827D01*
X045639D01*
X045373Y047408D02*
Y047568D01*
X045533D01*
Y047408D01*
X045373D01*
X045648Y047801D02*
Y047962D01*
X045808D01*
Y047801D01*
X045648D01*
X047587Y046144D02*
Y046304D01*
X047747D01*
Y046144D01*
X047587D01*
X047601Y046421D02*
Y046581D01*
X047761D01*
Y046421D01*
X047601D01*
X055688Y044219D02*
Y044379D01*
X055848D01*
Y044219D01*
X055688D01*
Y044731D02*
Y044891D01*
X055848D01*
Y044731D01*
X055688D01*
X05553Y043591D02*
Y043751D01*
X05569D01*
Y043591D01*
X05553D01*
X058741Y050592D02*
Y050752D01*
X058901D01*
Y050592D01*
X058741D01*
X057774Y050477D02*
Y050637D01*
X057934D01*
Y050477D01*
X057774D01*
X056851Y050592D02*
Y050752D01*
X057011D01*
Y050592D01*
X056851D01*
X056739Y045627D02*
Y045787D01*
X056899D01*
Y045627D01*
X056739D01*
Y043343D02*
Y043503D01*
X056899D01*
Y043343D01*
X056739D01*
X037026Y028943D02*
Y029103D01*
X037186D01*
Y028943D01*
X037026D01*
X036042Y027447D02*
Y027607D01*
X036202D01*
Y027447D01*
X036042D01*
X036047Y030474D02*
Y030634D01*
X036207D01*
Y030474D01*
X036047D01*
X036042Y030479D02*
Y030639D01*
X036202D01*
Y030479D01*
X036042D01*
X036637Y030464D02*
Y030624D01*
X036797D01*
Y030464D01*
X036637D01*
X030338D02*
Y030624D01*
X030498D01*
Y030464D01*
X030338D01*
X042937D02*
Y030624D01*
X043097D01*
Y030464D01*
X042937D01*
X049236D02*
Y030624D01*
X049396D01*
Y030464D01*
X049236D01*
X055535D02*
Y030624D01*
X055695D01*
Y030464D01*
X055535D01*
X061834D02*
Y030624D01*
X061994D01*
Y030464D01*
X061834D01*
X062223Y028943D02*
Y029103D01*
X062383D01*
Y028943D01*
X062223D01*
X061239Y027447D02*
Y027607D01*
X061399D01*
Y027447D01*
X061239D01*
X061244Y030474D02*
Y030634D01*
X061404D01*
Y030474D01*
X061244D01*
X061239Y030479D02*
Y030639D01*
X061399D01*
Y030479D01*
X061239D01*
X055924Y028943D02*
Y029103D01*
X056084D01*
Y028943D01*
X055924D01*
X054944Y030474D02*
Y030634D01*
X055104D01*
Y030474D01*
X054944D01*
X05494Y030479D02*
Y030639D01*
X0551D01*
Y030479D01*
X05494D01*
X049625Y028943D02*
Y029103D01*
X049785D01*
Y028943D01*
X049625D01*
X048645Y030474D02*
Y030634D01*
X048805D01*
Y030474D01*
X048645D01*
X04864Y030479D02*
Y030639D01*
X0488D01*
Y030479D01*
X04864D01*
X043326Y028943D02*
Y029103D01*
X043486D01*
Y028943D01*
X043326D01*
X042341Y027447D02*
Y027607D01*
X042501D01*
Y027447D01*
X042341D01*
X042346Y030474D02*
Y030634D01*
X042506D01*
Y030474D01*
X042346D01*
X042341Y030479D02*
Y030639D01*
X042501D01*
Y030479D01*
X042341D01*
X029743D02*
Y030639D01*
X029903D01*
Y030479D01*
X029743D01*
X029748Y030474D02*
Y030634D01*
X029908D01*
Y030474D01*
X029748D01*
X029743Y027447D02*
Y027607D01*
X029903D01*
Y027447D01*
X029743D01*
X030727Y028943D02*
Y029103D01*
X030887D01*
Y028943D01*
X030727D01*
D153*
X054312Y042527D02*
G03*
X054312Y042527I-00008J0D01*
G01*
X068291Y0481D02*
G03*
X068291Y0481I-00008J0D01*
G01*
Y0491D02*
G03*
X068291Y0491I-00008J0D01*
G01*
Y0501D02*
G03*
X068291Y0501I-00008J0D01*
G01*
X06833Y046786D02*
G03*
X06833Y046786I-00008J0D01*
G01*
Y045786D02*
G03*
X06833Y045786I-00008J0D01*
G01*
Y044786D02*
G03*
X06833Y044786I-00008J0D01*
G01*
X055257Y051464D02*
G03*
X055257Y051464I-00008J0D01*
G01*
X07045Y048393D02*
G03*
X07045Y048393I-00008J0D01*
G01*
X07145D02*
G03*
X07145Y048393I-00008J0D01*
G01*
X07245D02*
G03*
X07245Y048393I-00008J0D01*
G01*
X07345D02*
G03*
X07345Y048393I-00008J0D01*
G01*
X061045Y053039D02*
G03*
X061045Y053039I-00008J0D01*
G01*
X062856D02*
G03*
X062856Y053039I-00008J0D01*
G01*
X034745Y049614D02*
G03*
X034745Y049614I-00008J0D01*
G01*
Y051976D02*
G03*
X034745Y051976I-00008J0D01*
G01*
X032895Y050795D02*
G03*
X032895Y050795I-00008J0D01*
G01*
X066441Y053039D02*
G03*
X066441Y053039I-00008J0D01*
G01*
X06463D02*
G03*
X06463Y053039I-00008J0D01*
G01*
X03947D02*
G03*
X03947Y053039I-00008J0D01*
G01*
X037659D02*
G03*
X037659Y053039I-00008J0D01*
G01*
D154*
X034705Y049614D02*
G03*
X034705Y049614I-00004J0D01*
G01*
Y051976D02*
G03*
X034705Y051976I-00004J0D01*
G01*
X032855Y050795D02*
G03*
X032855Y050795I-00004J0D01*
G01*
M02*
