M48
;Layer_Color=9474304
;FILE_FORMAT=2:4
INCH,LZ
;TYPE=PLATED
T1F00S00C0.0079
T2F00S00C0.0236
T4F00S00C0.0276
T5F00S00C0.0315
T6F00S00C0.0354
T7F00S00C0.0394
T9F00S00C0.0472
T10F00S00C0.0512
T11F00S00C0.0591
T12F00S00C0.1260
;TYPE=NON_PLATED
T13F00S00C0.0256
%
T01
X063664Y026818
X063011Y027792
X062303Y029023
X061914Y030544
X061324Y030554
X061319Y030559
Y027527
X057384Y026818
X056738Y02784
X05504Y027627
X056004Y029023
X055615Y030544
X055024Y030554
X05502Y030559
X049316Y030544
X048725Y030554
X04872Y030559
X049705Y029023
X050407Y027892
X051104Y026818
X048745Y027627
X044824Y026818
X044105Y02794
X043406Y029023
X043017Y030544
X042426Y030554
X042421Y030559
Y027527
X038544Y026818
X037786Y027923
X037106Y029023
X036717Y030544
X036127Y030554
X036122Y030559
Y027527
X032264Y026818
X031498Y027907
X030807Y029023
X030418Y030544
X029828Y030554
X029823Y030559
Y027527
X029247Y044559
X029677Y04535
X029171Y046604
X034085Y0466
X033445Y045362
X032973Y044466
X032972Y042842
X03565Y042685
Y042448
Y042212
X035965
Y042448
Y042685
Y042921
X036497Y044554
X037421Y044535
X034626Y044968
X041457Y044948
X04617Y045632
X046161Y044141
X046319Y034889
X046831
X046186Y033835
X039909
X033633
X032619Y035283
X031776Y038854
X048287Y041818
X04897Y041817
X049652
X050335
X051017
X051699
X052382Y041818
X052646Y043211
X053108Y043227
X054224Y044653
X054615Y04485
X054468Y045559
X055768Y044811
Y044299
X05561Y043671
X056819Y043423
X058406Y043216
X058653Y042956
X058999
X059407Y042485
X060079Y042507
X06128Y042448
X061752Y043433
X061782Y043935
X06184Y044405
X06182Y044939
X059193Y045086
Y044574
X058406
Y045086
X056819Y045707
X057474Y040137
X057481Y039773
X058602Y039378
X059569Y039759
X058602Y037133
Y036622
X058738Y033835
X052462
X049819Y034889
X049319
X048819
X048319
X047819
X047321Y034872
X047667Y046224
X047681Y046501
X06313Y045007
X06311Y043964
X06313Y043393
X064073Y045833
X064508Y0467
X065925Y042803
X065276Y03863
X064075Y038336
X063445Y036582
X065015Y033835
X06521Y049448
X066358Y050401
Y050992
X062776
Y050401
X061614Y049997
X059319Y049685
X058821Y050672
X057854Y050557
X056931Y050672
X056493Y049686
X055177Y049023
X054862Y049299
X055162Y050634
X057854Y04859
X057668Y047279
X058067Y047272
X05935Y047252
X04998Y047543
X049429
Y048094
X049154Y047818
Y04837
X049429Y048645
X049705Y04837
X04998Y048645
Y048094
X049705Y047818
X050256
Y04837
X045557Y048622
X045672Y049265
X045494Y049622
X045492Y050519
X043702Y050692
X042736Y050577
X041813Y050692
X03939Y050992
X03935Y049811
X038228Y049397
X044764Y048964
X045728Y047881
X045453Y047488
X045719Y046907
T02
X029567Y032941
X031142
X040886Y044968
X043329Y046132
X0575Y040911
X044783Y050716
X041201Y0506
T04
X067925Y025698
Y026498
X069925
Y025698
X071925
Y026498
X071325Y041898
Y042548
X070325
Y041898
X069325
Y042548
X068325
Y041898
T05
X053366Y038078
X056358
X066043Y043878
Y044878
T06
X065689Y046527
Y047527
Y048527
X061516Y04859
X060728
Y047803
X061516
T07
X054232Y042527
X06825Y044786
Y045786
Y046786
X068211Y0481
Y0491
Y0501
X07037Y048393
X07137
X07237
X07337
X066361Y053039
X06455
X062776
X060965
X055177Y051464
X03939Y053039
X037579
T09
X0637Y02175
X06575
X06775
X06975
X0617
X0597
X0577
X05565
X05365
X05165
X0496
X0476
X0456
X0436
X0416
X0396
X0376
X0356
X0336
X063248Y052055
X064078
X066833
X060492
X039862
X037106
T10
X06345Y026005
X065812Y026792
X061088
X059532
X05717Y026005
X054808Y026792
X053252
X05089Y026005
X048528Y026792
X046972
X04461Y026005
X042248Y026792
X040692
X03833Y026005
X035968Y026792
X034412
X03205Y026005
X029688Y026792
Y031595
X034412
X035968
X040692
X042248
X046972
X048528
X053252
X054808
X059532
X061088
X065812
T11
X068114Y051606
Y053606
X070114
Y051606
X069114Y052606
T12
X074055Y021228
X028976
X074055Y052724
X028976Y052626
T13
X056745Y051614
X059021
X043903
X041627
M30
