G04*
G04 #@! TF.GenerationSoftware,Altium Limited,Altium Designer,21.2.1 (34)*
G04*
G04 Layer_Color=128*
%FSTAX24Y24*%
%MOIN*%
G70*
G04*
G04 #@! TF.SameCoordinates,6CF6E2E0-1279-4785-91C8-ECC7A25CC669*
G04*
G04*
G04 #@! TF.FilePolarity,Positive*
G04*
G01*
G75*
%ADD23R,0.0394X0.0374*%
%ADD136O,0.0787X0.0236*%
D23*
X036127Y027955D02*
D03*
X036717D02*
D03*
X036127Y029022D02*
D03*
X036717D02*
D03*
X061324Y027955D02*
D03*
X061914D02*
D03*
X061904Y028505D02*
D03*
X061314D02*
D03*
X061324Y029022D02*
D03*
X061914D02*
D03*
X061904Y029539D02*
D03*
X061314D02*
D03*
X061324Y030055D02*
D03*
X061914D02*
D03*
X036117Y029539D02*
D03*
X036707D02*
D03*
X036117Y028505D02*
D03*
X036707D02*
D03*
X036717Y030055D02*
D03*
X036127D02*
D03*
X055024Y029022D02*
D03*
X055615D02*
D03*
X055605Y029539D02*
D03*
X055015D02*
D03*
X055024Y027955D02*
D03*
X055615D02*
D03*
X055605Y028505D02*
D03*
X055015D02*
D03*
X055024Y030055D02*
D03*
X055615D02*
D03*
X048725Y029022D02*
D03*
X049316D02*
D03*
X049306Y029539D02*
D03*
X048715D02*
D03*
X048725Y027955D02*
D03*
X049316D02*
D03*
X049306Y028505D02*
D03*
X048715D02*
D03*
X048725Y030055D02*
D03*
X049316D02*
D03*
X042426Y029022D02*
D03*
X043017D02*
D03*
X043007Y029539D02*
D03*
X042416D02*
D03*
X042426Y027955D02*
D03*
X043017D02*
D03*
X043007Y028505D02*
D03*
X042416D02*
D03*
X042426Y030055D02*
D03*
X043017D02*
D03*
X029828Y027955D02*
D03*
X030418D02*
D03*
X030408Y028505D02*
D03*
X029818D02*
D03*
X029828Y029022D02*
D03*
X030418D02*
D03*
X030408Y029538D02*
D03*
X029818D02*
D03*
X029828Y030055D02*
D03*
X030418D02*
D03*
D136*
X065217Y029655D02*
D03*
Y029155D02*
D03*
Y028655D02*
D03*
Y028155D02*
D03*
X063012Y029655D02*
D03*
Y029155D02*
D03*
Y028655D02*
D03*
Y028155D02*
D03*
X04002Y029655D02*
D03*
Y029155D02*
D03*
Y028655D02*
D03*
Y028155D02*
D03*
X037815Y029655D02*
D03*
Y029155D02*
D03*
Y028655D02*
D03*
Y028155D02*
D03*
X058917Y029655D02*
D03*
Y029155D02*
D03*
Y028655D02*
D03*
Y028155D02*
D03*
X056713Y029655D02*
D03*
Y029155D02*
D03*
Y028655D02*
D03*
Y028155D02*
D03*
X052618Y029655D02*
D03*
Y029155D02*
D03*
Y028655D02*
D03*
Y028155D02*
D03*
X050413Y029655D02*
D03*
Y029155D02*
D03*
Y028655D02*
D03*
Y028155D02*
D03*
X046319Y029655D02*
D03*
Y029155D02*
D03*
Y028655D02*
D03*
Y028155D02*
D03*
X044114Y029655D02*
D03*
Y029155D02*
D03*
Y028655D02*
D03*
Y028155D02*
D03*
X03372Y029655D02*
D03*
Y029155D02*
D03*
Y028655D02*
D03*
Y028155D02*
D03*
X031516Y029655D02*
D03*
Y029155D02*
D03*
Y028655D02*
D03*
Y028155D02*
D03*
M02*
