M48
;Layer_Color=9474304
;FILE_FORMAT=2:4
INCH,LZ
;TYPE=PLATED
T3F00S00C0.0236
T8F00S00C0.0394
;TYPE=NON_PLATED
%
G90
G05
T03
G00X056182Y0512
M15
G01Y051633
M16
G00X056182Y053208
M15
G01Y052893
M16
G00X059584Y053208
M15
G01Y052893
M16
G00X059584Y051633
M15
G01Y0512
M16
G00X044466Y051633
M15
G01Y0512
M16
G00X044466Y053208
M15
G01Y052893
M16
G00X041064Y053208
M15
G01Y052893
M16
G00X041064Y0512
M15
G01Y051633
M16
T08
G00X032815Y050303
M15
G01Y051287
M16
G00X035157Y049614
M15
G01X034173
M16
G00X035157Y051976
M15
G01X034173
M16
M17
M30
