G04*
G04 #@! TF.GenerationSoftware,Altium Limited,Altium Designer,21.2.1 (34)*
G04*
G04 Layer_Color=65535*
%FSTAX24Y24*%
%MOIN*%
G70*
G04*
G04 #@! TF.SameCoordinates,6CF6E2E0-1279-4785-91C8-ECC7A25CC669*
G04*
G04*
G04 #@! TF.FilePolarity,Positive*
G04*
G01*
G75*
%ADD10C,0.0079*%
%ADD11C,0.0100*%
%ADD12C,0.0157*%
%ADD13C,0.0098*%
%ADD14C,0.0118*%
%ADD15C,0.0040*%
%ADD16C,0.0070*%
%ADD17C,0.0050*%
%ADD18C,0.0059*%
%ADD19R,0.0236X0.0236*%
%ADD20R,0.3819X0.1378*%
G36*
X042067Y05046D02*
Y050027D01*
X041988D01*
Y05046D01*
X041594D01*
Y050027D01*
X041516D01*
Y05046D01*
Y050539D01*
X042067D01*
Y05046D01*
D02*
G37*
G36*
Y049437D02*
X041516D01*
Y049515D01*
Y049948D01*
X041594D01*
Y049515D01*
X041988D01*
Y049948D01*
X042067D01*
Y049437D01*
D02*
G37*
G36*
X040763Y037053D02*
X040777D01*
Y036539D01*
Y036525D01*
Y036233D01*
X040763D01*
Y036219D01*
X040749D01*
Y036233D01*
X040679D01*
Y036219D01*
X040665D01*
Y036233D01*
X040638D01*
Y036274D01*
X040624D01*
Y03633D01*
X04061D01*
Y036386D01*
X040596D01*
Y036427D01*
X040582D01*
Y036483D01*
X040568D01*
Y036539D01*
X040554D01*
Y03658D01*
X04054D01*
Y036636D01*
X040526D01*
Y036705D01*
X040512D01*
Y036747D01*
X040499D01*
Y036775D01*
X040485D01*
Y036233D01*
X040471D01*
Y036219D01*
X040415D01*
Y036233D01*
X04036D01*
Y037053D01*
X040401D01*
Y037067D01*
X040526D01*
Y037039D01*
X04054D01*
Y036983D01*
X040554D01*
Y036928D01*
X040568D01*
Y036886D01*
X040582D01*
Y036831D01*
X040596D01*
Y036775D01*
X04061D01*
Y036719D01*
X040624D01*
Y036678D01*
X040638D01*
Y036622D01*
X040665D01*
Y037053D01*
X040679D01*
Y037067D01*
X040707D01*
Y037053D01*
X040735D01*
Y037067D01*
X040763D01*
Y037053D01*
D02*
G37*
G36*
X039817D02*
X039831D01*
Y036942D01*
X039692D01*
Y036233D01*
X039678D01*
Y036219D01*
X039637D01*
Y036233D01*
X039567D01*
Y036455D01*
Y036469D01*
Y036928D01*
X039553D01*
Y036942D01*
X039428D01*
Y037053D01*
X039442D01*
Y037067D01*
X039456D01*
Y037053D01*
X03947D01*
Y037067D01*
X039817D01*
Y037053D01*
D02*
G37*
G36*
X042278D02*
X04232D01*
Y037039D01*
X042334D01*
Y037025D01*
X042348D01*
Y037011D01*
X042361D01*
Y036997D01*
X042375D01*
Y03697D01*
X042389D01*
Y036928D01*
X042403D01*
Y036789D01*
X042389D01*
Y036775D01*
X042292D01*
Y036789D01*
X042278D01*
Y036914D01*
X042264D01*
Y036928D01*
X04225D01*
Y036942D01*
X042236D01*
Y036956D01*
X042195D01*
Y036942D01*
X042167D01*
Y036928D01*
X042153D01*
Y0369D01*
X042139D01*
Y036372D01*
X042153D01*
Y036358D01*
X042167D01*
Y036344D01*
X042195D01*
Y03633D01*
X042222D01*
Y036344D01*
X04225D01*
Y036358D01*
X042264D01*
Y036372D01*
X042278D01*
Y036539D01*
X042403D01*
Y036483D01*
Y036469D01*
Y036358D01*
X042389D01*
Y036316D01*
X042375D01*
Y036288D01*
X042361D01*
Y036261D01*
X042334D01*
Y036247D01*
X04232D01*
Y036233D01*
X042278D01*
Y036219D01*
X042139D01*
Y036233D01*
X042097D01*
Y036247D01*
X042083D01*
Y036261D01*
X042056D01*
Y036288D01*
X042042D01*
Y036302D01*
X042028D01*
Y036344D01*
X042014D01*
Y036928D01*
X042028D01*
Y03697D01*
X042042D01*
Y036997D01*
X042056D01*
Y037011D01*
X04207D01*
Y037025D01*
X042083D01*
Y037039D01*
X042097D01*
Y037053D01*
X042139D01*
Y037067D01*
X042278D01*
Y037053D01*
D02*
G37*
G36*
X038914Y037011D02*
X0389D01*
Y03697D01*
X038886D01*
Y036942D01*
X038872D01*
Y036928D01*
X038858D01*
Y036886D01*
X038844D01*
Y036872D01*
X03883D01*
Y036844D01*
X038816D01*
Y036817D01*
X038802D01*
Y036775D01*
X038775D01*
Y036761D01*
X038761D01*
Y036775D01*
X038608D01*
Y036761D01*
X038594D01*
Y036733D01*
X03858D01*
Y036705D01*
X038566D01*
Y036664D01*
X038552D01*
Y036636D01*
X038538D01*
Y036594D01*
X038524D01*
Y036566D01*
X03851D01*
Y036539D01*
X038497D01*
Y036511D01*
X038483D01*
Y036483D01*
X038469D01*
Y036441D01*
X038455D01*
Y036413D01*
X038441D01*
Y036386D01*
X038427D01*
Y036358D01*
X038413D01*
Y036316D01*
X038399D01*
Y036288D01*
X038385D01*
Y036261D01*
X038371D01*
Y036233D01*
X038358D01*
Y036205D01*
X038344D01*
Y036177D01*
X03833D01*
Y036135D01*
X038316D01*
Y036108D01*
X038302D01*
Y036066D01*
X037982D01*
Y036094D01*
X037996D01*
Y036122D01*
X03801D01*
Y036149D01*
X038024D01*
Y036191D01*
X038038D01*
Y036219D01*
X038052D01*
Y036247D01*
X038066D01*
Y036274D01*
X038079D01*
Y036316D01*
X038093D01*
Y036344D01*
X038107D01*
Y036372D01*
X038121D01*
Y0364D01*
X038135D01*
Y036441D01*
X038149D01*
Y036469D01*
X038163D01*
Y036497D01*
X038177D01*
Y036525D01*
X038191D01*
Y036566D01*
X038205D01*
Y036594D01*
X038219D01*
Y036622D01*
X038232D01*
Y03665D01*
X038246D01*
Y036678D01*
X03826D01*
Y036719D01*
X038274D01*
Y036747D01*
X038288D01*
Y036761D01*
X038274D01*
Y036775D01*
X03801D01*
Y036747D01*
X038024D01*
Y036733D01*
X038052D01*
Y036705D01*
X038066D01*
Y036608D01*
X038052D01*
Y036566D01*
X038038D01*
Y036539D01*
X038024D01*
Y036511D01*
X03801D01*
Y036483D01*
X037996D01*
Y036455D01*
X037982D01*
Y036427D01*
X037968D01*
Y036372D01*
X037954D01*
Y036358D01*
X03794D01*
Y03633D01*
X037927D01*
Y036288D01*
X037913D01*
Y036261D01*
X037899D01*
Y036233D01*
X037885D01*
Y036205D01*
X037871D01*
Y036177D01*
X037857D01*
Y036135D01*
X037843D01*
Y036108D01*
X037829D01*
Y03608D01*
X037815D01*
Y036052D01*
X037801D01*
Y03601D01*
X037788D01*
Y035982D01*
X037774D01*
Y035955D01*
X03776D01*
Y035927D01*
X037746D01*
Y035899D01*
X037732D01*
Y035885D01*
X037718D01*
Y035871D01*
X037704D01*
Y035857D01*
X03769D01*
Y035843D01*
X037676D01*
Y03583D01*
X037648D01*
Y035816D01*
X037621D01*
Y035802D01*
X037565D01*
Y035788D01*
X036745D01*
Y03583D01*
X036759D01*
Y035857D01*
X036773D01*
Y035885D01*
X036787D01*
Y035927D01*
X0368D01*
Y035955D01*
X036814D01*
Y035982D01*
X036828D01*
Y03601D01*
X036842D01*
Y036038D01*
X036856D01*
Y036052D01*
X037482D01*
Y036066D01*
X037509D01*
Y036094D01*
X037523D01*
Y036135D01*
X037537D01*
Y036149D01*
X037551D01*
Y036191D01*
X037565D01*
Y036219D01*
X037579D01*
Y036261D01*
X037593D01*
Y036274D01*
X037607D01*
Y036316D01*
X037621D01*
Y036344D01*
X037635D01*
Y036386D01*
X037648D01*
Y0364D01*
X037662D01*
Y036413D01*
Y036441D01*
X037676D01*
Y036469D01*
X03769D01*
Y036483D01*
X037343D01*
Y036441D01*
X037329D01*
Y036413D01*
X037315D01*
Y036372D01*
X037301D01*
Y036344D01*
X037287D01*
Y036316D01*
X037273D01*
Y036288D01*
X037259D01*
Y036261D01*
X037245D01*
Y036219D01*
X037231D01*
Y036205D01*
X036773D01*
Y036191D01*
X036759D01*
Y036177D01*
X036745D01*
Y036135D01*
X036731D01*
Y036108D01*
X036717D01*
Y03608D01*
X036703D01*
Y036038D01*
X036689D01*
Y03601D01*
X036675D01*
Y035982D01*
X036661D01*
Y035955D01*
X036648D01*
Y035927D01*
X036634D01*
Y035885D01*
X03662D01*
Y035857D01*
X036606D01*
Y03583D01*
X036592D01*
Y035802D01*
X036578D01*
Y03576D01*
X036564D01*
Y035732D01*
X03655D01*
Y035704D01*
X036536D01*
Y035677D01*
X036522D01*
Y035635D01*
X036508D01*
Y035621D01*
X036495D01*
Y035579D01*
X036481D01*
Y035552D01*
X036467D01*
Y03551D01*
X036133D01*
Y035524D01*
X036147D01*
Y035565D01*
X036161D01*
Y035593D01*
X036175D01*
Y035621D01*
X036189D01*
Y035663D01*
X036203D01*
Y035677D01*
X036217D01*
Y035718D01*
X03623D01*
Y035746D01*
X036244D01*
Y035774D01*
X036258D01*
Y035816D01*
X036272D01*
Y035843D01*
X036286D01*
Y035871D01*
X0363D01*
Y035913D01*
X036314D01*
Y035927D01*
X036328D01*
Y035969D01*
X036342D01*
Y035996D01*
X036356D01*
Y036024D01*
X036369D01*
Y036066D01*
X036383D01*
Y036094D01*
X036397D01*
Y036122D01*
X036411D01*
Y036149D01*
X036425D01*
Y036177D01*
X036439D01*
Y036205D01*
X036133D01*
Y036233D01*
X036147D01*
Y036261D01*
X036161D01*
Y036288D01*
X036175D01*
Y036316D01*
X036189D01*
Y036344D01*
X036203D01*
Y036372D01*
X036217D01*
Y0364D01*
X03623D01*
Y036427D01*
X036244D01*
Y036455D01*
X036258D01*
Y036483D01*
X037051D01*
Y036497D01*
X037065D01*
Y036539D01*
X037078D01*
Y036566D01*
X037092D01*
Y036594D01*
X037106D01*
Y036636D01*
X03712D01*
Y03665D01*
X037134D01*
Y036692D01*
X037148D01*
Y036719D01*
X037162D01*
Y036761D01*
X037815D01*
Y036775D01*
X037829D01*
Y036817D01*
X037843D01*
Y036844D01*
X037857D01*
Y036872D01*
X037871D01*
Y0369D01*
X037885D01*
Y036928D01*
X037899D01*
Y036956D01*
X037913D01*
Y036997D01*
X037927D01*
Y037011D01*
X03794D01*
Y037039D01*
X038914D01*
Y037011D01*
D02*
G37*
G36*
X041917Y037053D02*
X04193D01*
Y036858D01*
Y036844D01*
Y036344D01*
X041917D01*
Y036302D01*
X041903D01*
Y036288D01*
X041889D01*
Y036261D01*
X041861D01*
Y036247D01*
X041847D01*
Y036233D01*
X041805D01*
Y036219D01*
X041652D01*
Y036233D01*
X041625D01*
Y036247D01*
X041611D01*
Y036261D01*
X041583D01*
Y036288D01*
X041569D01*
Y036316D01*
X041555D01*
Y036358D01*
X041541D01*
Y037053D01*
X041555D01*
Y037067D01*
X041583D01*
Y037053D01*
X041597D01*
Y037067D01*
X041611D01*
Y037053D01*
X041639D01*
Y037067D01*
X041652D01*
Y037053D01*
X041666D01*
Y036386D01*
X04168D01*
Y036358D01*
X041694D01*
Y036344D01*
X041722D01*
Y03633D01*
X041764D01*
Y036344D01*
X041791D01*
Y036372D01*
X041805D01*
Y037053D01*
X041819D01*
Y037067D01*
X041917D01*
Y037053D01*
D02*
G37*
G36*
X041194D02*
X041347D01*
Y037039D01*
X041388D01*
Y037025D01*
X041402D01*
Y037011D01*
X041416D01*
Y036997D01*
X04143D01*
Y03697D01*
X041444D01*
Y036942D01*
X041458D01*
Y036344D01*
X041444D01*
Y036316D01*
X04143D01*
Y036288D01*
X041416D01*
Y036274D01*
X041402D01*
Y036261D01*
X041388D01*
Y036247D01*
X04136D01*
Y036233D01*
X041194D01*
Y036219D01*
X041069D01*
Y036233D01*
X041055D01*
Y036608D01*
Y036622D01*
Y037053D01*
X041082D01*
Y037067D01*
X041194D01*
Y037053D01*
D02*
G37*
G36*
X040151D02*
X040193D01*
Y037039D01*
X040207D01*
Y037025D01*
X04022D01*
Y037011D01*
X040234D01*
Y036997D01*
X040248D01*
Y03697D01*
X040262D01*
Y036942D01*
X040276D01*
Y036344D01*
X040262D01*
Y036302D01*
X040248D01*
Y036288D01*
X040234D01*
Y036261D01*
X040207D01*
Y036247D01*
X040193D01*
Y036233D01*
X040151D01*
Y036219D01*
X040012D01*
Y036233D01*
X03997D01*
Y036247D01*
X039942D01*
Y036261D01*
X039929D01*
Y036274D01*
X039915D01*
Y036302D01*
X039901D01*
Y03633D01*
X039887D01*
Y03665D01*
Y036664D01*
Y036956D01*
X039901D01*
Y036983D01*
X039915D01*
Y037011D01*
X039929D01*
Y037025D01*
X039942D01*
Y037039D01*
X03997D01*
Y037053D01*
X040012D01*
Y037067D01*
X040151D01*
Y037053D01*
D02*
G37*
G36*
X041569Y03608D02*
X041597D01*
Y036066D01*
X041611D01*
Y036052D01*
X041625D01*
Y036024D01*
X041639D01*
Y035913D01*
X041555D01*
Y035982D01*
X041541D01*
Y035996D01*
X041527D01*
Y03601D01*
X041472D01*
Y035996D01*
X041458D01*
Y035913D01*
X041472D01*
Y035885D01*
X041486D01*
Y035871D01*
X0415D01*
Y035843D01*
X041527D01*
Y035816D01*
X041555D01*
Y035802D01*
X041569D01*
Y035788D01*
X041583D01*
Y03576D01*
X041597D01*
Y035746D01*
X041611D01*
Y035732D01*
X041625D01*
Y035704D01*
X041639D01*
Y035552D01*
X041625D01*
Y035524D01*
X041611D01*
Y03551D01*
X041597D01*
Y035496D01*
X041569D01*
Y035482D01*
X04143D01*
Y035496D01*
X041416D01*
Y03551D01*
X041388D01*
Y035538D01*
X041374D01*
Y035565D01*
X04136D01*
Y035691D01*
X041444D01*
Y035593D01*
X041458D01*
Y035579D01*
X041472D01*
Y035565D01*
X041527D01*
Y035579D01*
X041541D01*
Y035621D01*
X041555D01*
Y035635D01*
X041541D01*
Y035677D01*
X041527D01*
Y035704D01*
X041513D01*
Y035718D01*
X0415D01*
Y035732D01*
X041486D01*
Y035746D01*
X041472D01*
Y03576D01*
X041458D01*
Y035774D01*
X041444D01*
Y035788D01*
X04143D01*
Y035802D01*
X041416D01*
Y035816D01*
X041402D01*
Y03583D01*
X041388D01*
Y035857D01*
X041374D01*
Y035899D01*
X04136D01*
Y035996D01*
X041374D01*
Y036038D01*
X041388D01*
Y036052D01*
X041402D01*
Y036066D01*
X041416D01*
Y03608D01*
X041444D01*
Y036094D01*
X041569D01*
Y03608D01*
D02*
G37*
G36*
X042473Y036038D02*
X042459D01*
Y035982D01*
X042445D01*
Y035941D01*
X042431D01*
Y035899D01*
X042417D01*
Y035843D01*
X042403D01*
Y035802D01*
X042389D01*
Y035746D01*
X042375D01*
Y035704D01*
X042361D01*
Y035482D01*
X042264D01*
Y035718D01*
X04225D01*
Y035774D01*
X042236D01*
Y035816D01*
X042222D01*
Y035857D01*
X042209D01*
Y035899D01*
X042195D01*
Y035955D01*
X042181D01*
Y035996D01*
X042167D01*
Y036052D01*
X042153D01*
Y036094D01*
X042236D01*
Y03608D01*
X04225D01*
Y036052D01*
X042264D01*
Y035996D01*
X042278D01*
Y035941D01*
X042292D01*
Y035885D01*
X042306D01*
Y035843D01*
X042334D01*
Y035899D01*
X042348D01*
Y035941D01*
X042361D01*
Y03601D01*
X042375D01*
Y036052D01*
X042389D01*
Y036094D01*
X042473D01*
Y036038D01*
D02*
G37*
G36*
X040109Y03608D02*
X040123D01*
Y035482D01*
X040026D01*
Y035496D01*
X040012D01*
Y035552D01*
X039998D01*
Y035607D01*
X039984D01*
Y035649D01*
X03997D01*
Y035704D01*
X039956D01*
Y035746D01*
X039942D01*
Y035816D01*
X039929D01*
Y035857D01*
X039915D01*
Y035871D01*
X039901D01*
Y035482D01*
X039817D01*
Y036094D01*
X039929D01*
Y03608D01*
X039942D01*
Y036038D01*
X039956D01*
Y035996D01*
X03997D01*
Y035927D01*
X039984D01*
Y035885D01*
X039998D01*
Y03583D01*
X040012D01*
Y035788D01*
X040026D01*
Y035802D01*
X04004D01*
Y036094D01*
X040109D01*
Y03608D01*
D02*
G37*
G36*
X040651Y03601D02*
X040638D01*
Y035899D01*
X040624D01*
Y03583D01*
X04061D01*
Y035732D01*
X040596D01*
Y035635D01*
X040582D01*
Y035538D01*
X040568D01*
Y035482D01*
X040429D01*
Y035496D01*
X040415D01*
Y035593D01*
X040401D01*
Y035663D01*
X040387D01*
Y035774D01*
X040373D01*
Y035843D01*
X04036D01*
Y035955D01*
X040346D01*
Y036038D01*
X040332D01*
Y036094D01*
X040415D01*
Y03608D01*
X040429D01*
Y036024D01*
X040443D01*
Y035913D01*
X040457D01*
Y03583D01*
X040471D01*
Y035732D01*
X040485D01*
Y035649D01*
X040512D01*
Y035732D01*
X040526D01*
Y035802D01*
Y035816D01*
Y03583D01*
X04054D01*
Y035913D01*
X040554D01*
Y03601D01*
X040568D01*
Y03608D01*
X040582D01*
Y036094D01*
X040651D01*
Y03601D01*
D02*
G37*
G36*
X039748Y035552D02*
X039734D01*
Y035524D01*
X03972D01*
Y03551D01*
X039706D01*
Y035496D01*
X039678D01*
Y035482D01*
X039539D01*
Y035496D01*
X039511D01*
Y03551D01*
X039498D01*
Y035524D01*
X039484D01*
Y035565D01*
X03947D01*
Y036094D01*
X039553D01*
Y03608D01*
X039567D01*
Y036038D01*
X039553D01*
Y036024D01*
Y035816D01*
X039567D01*
Y035579D01*
X039581D01*
Y035565D01*
X039637D01*
Y035579D01*
X03965D01*
Y035593D01*
X039664D01*
Y036094D01*
X039748D01*
Y035552D01*
D02*
G37*
G36*
X042125Y03608D02*
X042139D01*
Y036038D01*
X042125D01*
Y036024D01*
X042139D01*
Y03601D01*
X042042D01*
Y035996D01*
X042028D01*
Y035482D01*
X041944D01*
Y035885D01*
Y035899D01*
Y035996D01*
X04193D01*
Y03601D01*
X041833D01*
Y03608D01*
X041847D01*
Y036094D01*
X042125D01*
Y03608D01*
D02*
G37*
G36*
X041791Y035482D02*
X041694D01*
Y035538D01*
Y035552D01*
Y03608D01*
X041708D01*
Y036094D01*
X041791D01*
Y035482D01*
D02*
G37*
G36*
X041221Y03608D02*
X041249D01*
Y036066D01*
X041277D01*
Y036038D01*
X041291D01*
Y036024D01*
X041305D01*
Y03583D01*
X041291D01*
Y035816D01*
X041277D01*
Y035788D01*
X041263D01*
Y03576D01*
X041277D01*
Y035746D01*
X041291D01*
Y035732D01*
X041305D01*
Y035524D01*
X041319D01*
Y035482D01*
X041221D01*
Y035663D01*
X041208D01*
Y035704D01*
X041194D01*
Y035718D01*
X04118D01*
Y035732D01*
X041124D01*
Y035482D01*
X041027D01*
Y035927D01*
Y035941D01*
Y036094D01*
X041221D01*
Y03608D01*
D02*
G37*
G36*
X040957D02*
X040971D01*
Y036066D01*
Y036052D01*
Y03601D01*
X040804D01*
Y03583D01*
X040929D01*
Y035746D01*
X040804D01*
Y035565D01*
X040971D01*
Y035538D01*
X040957D01*
Y035524D01*
X040971D01*
Y035496D01*
X040957D01*
Y035482D01*
X040707D01*
Y036094D01*
X040957D01*
Y03608D01*
D02*
G37*
G36*
X040276Y036066D02*
X04029D01*
Y036038D01*
X040276D01*
Y035482D01*
X040193D01*
Y035774D01*
Y035788D01*
Y036094D01*
X040276D01*
Y036066D01*
D02*
G37*
G36*
X039206Y037039D02*
Y037025D01*
Y035079D01*
X039164D01*
Y037665D01*
X039206D01*
Y037039D01*
D02*
G37*
G36*
X043952Y050453D02*
Y05002D01*
X043873D01*
Y050453D01*
X04348D01*
Y05002D01*
X043401D01*
Y050453D01*
Y050532D01*
X043952D01*
Y050453D01*
D02*
G37*
G36*
X057185Y050441D02*
Y050007D01*
X057106D01*
Y050441D01*
X056713D01*
Y050007D01*
X056634D01*
Y050441D01*
Y050519D01*
X057185D01*
Y050441D01*
D02*
G37*
G36*
X05907Y050433D02*
Y05D01*
X058991D01*
Y050433D01*
X058598D01*
Y05D01*
X058519D01*
Y050433D01*
Y050512D01*
X05907D01*
Y050433D01*
D02*
G37*
G36*
X043952Y049429D02*
X043401D01*
Y049941D01*
X04348D01*
Y049508D01*
X043873D01*
Y049941D01*
X043952D01*
Y049429D01*
D02*
G37*
G36*
X057185Y049417D02*
X056634D01*
Y049496D01*
Y049929D01*
X056713D01*
Y049496D01*
X057106D01*
Y049929D01*
X057185D01*
Y049417D01*
D02*
G37*
G36*
X05907Y049409D02*
X058519D01*
Y049488D01*
Y049921D01*
X058598D01*
Y049488D01*
X058991D01*
Y049921D01*
X05907D01*
Y049409D01*
D02*
G37*
G36*
X066811Y044685D02*
Y044496D01*
X066457D01*
Y04504D01*
X066811Y044685D01*
D02*
G37*
G36*
X06563Y044496D02*
X065276D01*
Y044685D01*
X06563Y04504D01*
Y044496D01*
D02*
G37*
G36*
X044864Y037053D02*
X044892D01*
Y037039D01*
X04492D01*
Y037025D01*
X044933D01*
Y037011D01*
X044947D01*
Y036997D01*
X044961D01*
Y03697D01*
X044975D01*
Y0369D01*
X044989D01*
Y036789D01*
X044975D01*
Y036775D01*
X044878D01*
Y036789D01*
X044864D01*
Y036914D01*
X04485D01*
Y036928D01*
X044836D01*
Y036942D01*
X044808D01*
Y036956D01*
X044781D01*
Y036942D01*
X044753D01*
Y036928D01*
X044739D01*
Y0369D01*
X044725D01*
Y03665D01*
Y036636D01*
Y036372D01*
X044739D01*
Y036358D01*
X044753D01*
Y036344D01*
X044781D01*
Y03633D01*
X044808D01*
Y036344D01*
X044836D01*
Y036358D01*
X04485D01*
Y036372D01*
X044864D01*
Y036566D01*
X044808D01*
Y036692D01*
X044975D01*
Y036678D01*
X044989D01*
Y036386D01*
X044975D01*
Y036316D01*
X044961D01*
Y036288D01*
X044947D01*
Y036261D01*
X04492D01*
Y036247D01*
X044906D01*
Y036233D01*
X044864D01*
Y036219D01*
X044711D01*
Y036233D01*
X044683D01*
Y036247D01*
X044655D01*
Y036261D01*
X044641D01*
Y036274D01*
X044628D01*
Y036302D01*
X044614D01*
Y036344D01*
X0446D01*
Y036942D01*
X044614D01*
Y036983D01*
X044628D01*
Y036997D01*
X044641D01*
Y037025D01*
X044655D01*
Y037039D01*
X044683D01*
Y037053D01*
X044711D01*
Y037067D01*
X044864D01*
Y037053D01*
D02*
G37*
G36*
X044502Y036886D02*
X044516D01*
Y036817D01*
X044502D01*
Y036705D01*
X044516D01*
Y036261D01*
X044502D01*
Y036247D01*
X044516D01*
Y036233D01*
X044489D01*
Y036219D01*
X044475D01*
Y036233D01*
X044377D01*
Y036247D01*
X044363D01*
Y036302D01*
X04435D01*
Y036344D01*
X044336D01*
Y0364D01*
X044322D01*
Y036455D01*
X044308D01*
Y036511D01*
X044294D01*
Y036553D01*
X04428D01*
Y036608D01*
X044266D01*
Y036664D01*
X044252D01*
Y036705D01*
X044238D01*
Y036761D01*
X044224D01*
Y036775D01*
X044211D01*
Y036233D01*
X044197D01*
Y036219D01*
X044169D01*
Y036233D01*
X044085D01*
Y036247D01*
X044099D01*
Y037067D01*
X044155D01*
Y037053D01*
X044266D01*
Y037011D01*
X04428D01*
Y036956D01*
X044294D01*
Y036914D01*
X044308D01*
Y036844D01*
X044322D01*
Y036817D01*
X044336D01*
Y036747D01*
X04435D01*
Y036705D01*
X044363D01*
Y036636D01*
X044377D01*
Y036608D01*
X044391D01*
Y0369D01*
Y036914D01*
Y037053D01*
X044405D01*
Y037067D01*
X044502D01*
Y036886D01*
D02*
G37*
G36*
X043863Y037053D02*
X043905D01*
Y036983D01*
X043919D01*
Y036886D01*
X043932D01*
Y036817D01*
X043946D01*
Y036719D01*
X04396D01*
Y03665D01*
X043974D01*
Y036553D01*
X043988D01*
Y036469D01*
X044002D01*
Y036372D01*
X044016D01*
Y036302D01*
X04403D01*
Y036233D01*
X044016D01*
Y036219D01*
X044002D01*
Y036233D01*
X043905D01*
Y036261D01*
X043891D01*
Y036358D01*
X043877D01*
Y036372D01*
X04371D01*
Y036288D01*
X043696D01*
Y036233D01*
X043682D01*
Y036219D01*
X043668D01*
Y036233D01*
X043571D01*
Y036247D01*
X043585D01*
Y03633D01*
X043599D01*
Y036413D01*
X043613D01*
Y036511D01*
X043627D01*
Y036594D01*
X04364D01*
Y036678D01*
X043654D01*
Y036761D01*
X043668D01*
Y036858D01*
X043682D01*
Y036928D01*
X043696D01*
Y037025D01*
X04371D01*
Y037053D01*
X043724D01*
Y037067D01*
X043863D01*
Y037053D01*
D02*
G37*
G36*
X043196D02*
X043223D01*
Y036705D01*
X043376D01*
Y037053D01*
X043515D01*
Y036233D01*
X043501D01*
Y036219D01*
X043474D01*
Y036233D01*
X043446D01*
Y036219D01*
X043404D01*
Y036233D01*
X043376D01*
Y03658D01*
X043223D01*
Y036219D01*
X043196D01*
Y036233D01*
X04314D01*
Y036219D01*
X043112D01*
Y036233D01*
X043098D01*
Y037053D01*
X04314D01*
Y037067D01*
X043196D01*
Y037053D01*
D02*
G37*
G36*
X042973D02*
X043043D01*
Y036942D01*
X042904D01*
Y036872D01*
Y036858D01*
Y036233D01*
X042862D01*
Y036219D01*
X042779D01*
Y036233D01*
X042765D01*
Y036942D01*
X04264D01*
Y037053D01*
X042737D01*
Y037067D01*
X042973D01*
Y037053D01*
D02*
G37*
%LPC*%
G36*
X041305Y036942D02*
X041194D01*
Y036344D01*
X041305D01*
Y036358D01*
X041319D01*
Y036372D01*
X041333D01*
Y036441D01*
Y036455D01*
Y0369D01*
X041319D01*
Y036928D01*
X041305D01*
Y036942D01*
D02*
G37*
G36*
X040095Y036956D02*
X040054D01*
Y036942D01*
X04004D01*
Y036928D01*
X040026D01*
Y036914D01*
X040012D01*
Y036372D01*
X040026D01*
Y036344D01*
X040054D01*
Y03633D01*
X040109D01*
Y036344D01*
X040123D01*
Y036358D01*
X040137D01*
Y036386D01*
X040151D01*
Y036455D01*
Y036469D01*
Y0369D01*
X040137D01*
Y036928D01*
X040123D01*
Y036942D01*
X040095D01*
Y036956D01*
D02*
G37*
G36*
X04118Y03601D02*
X041124D01*
Y035816D01*
X041194D01*
Y035843D01*
X041208D01*
Y035871D01*
X041221D01*
Y035969D01*
X041208D01*
Y035982D01*
X041194D01*
Y035996D01*
X04118D01*
Y03601D01*
D02*
G37*
G36*
X043807Y036858D02*
X043793D01*
Y036844D01*
X04378D01*
Y036747D01*
X043766D01*
Y036664D01*
X043752D01*
Y036553D01*
X043738D01*
Y036483D01*
X043849D01*
Y036497D01*
X043863D01*
Y036525D01*
X043849D01*
Y036622D01*
X043835D01*
Y036719D01*
X043821D01*
Y036803D01*
X043807D01*
Y036858D01*
D02*
G37*
%LPD*%
D10*
X06888Y047525D02*
G03*
X06888Y047525I-000079J0D01*
G01*
X06565Y045059D02*
G03*
X06565Y043696I000394J-000682D01*
G01*
X066437D02*
G03*
X066437Y045059I-000394J000682D01*
G01*
X067739Y04736D02*
G03*
X067739Y04736I-000079J0D01*
G01*
X058177Y043482D02*
G03*
X058177Y043482I-000039J0D01*
G01*
X042795Y044299D02*
G03*
X042795Y044299I-000295J0D01*
G01*
X038622Y042606D02*
G03*
X038622Y042606I-000295J0D01*
G01*
X032874Y041543D02*
G03*
X032874Y041543I-000295J0D01*
G01*
X033406Y041897D02*
G03*
X033012Y041504I0J-000394D01*
G01*
X0375Y041504D02*
G03*
X037106Y041897I-000394J0D01*
G01*
Y037724D02*
G03*
X0375Y038118I-0J000394D01*
G01*
X033012Y038118D02*
G03*
X033406Y037724I000394J0D01*
G01*
X041535Y046464D02*
G03*
X041535Y046464I-000295J0D01*
G01*
X074051Y049063D02*
G03*
X074051Y049063I-000079J0D01*
G01*
X06065Y039102D02*
G03*
X06065Y039102I-000079J0D01*
G01*
X061201Y038866D02*
G03*
X061201Y038866I-000079J0D01*
G01*
X057224Y038078D02*
G03*
X057224Y038078I-002362J0D01*
G01*
X046378Y036523D02*
G03*
X046378Y036523I-000079J0D01*
G01*
X046102Y035815D02*
G03*
X046102Y035815I-000079J0D01*
G01*
X046319Y051133D02*
G03*
X046319Y051133I-000039J0D01*
G01*
X036287Y05053D02*
G03*
X035686Y050477I-000322J000226D01*
G01*
X064094Y021462D02*
G03*
X063248Y021499I-000394J000682D01*
G01*
X062094Y021462D02*
G03*
X061248Y021499I-000394J000682D01*
G01*
X060094Y021462D02*
G03*
X059248Y021499I-000394J000682D01*
G01*
X058094Y021462D02*
G03*
X057248Y021499I-000394J000682D01*
G01*
X069705Y052606D02*
G03*
X069705Y052606I-000591J0D01*
G01*
X040846Y043984D02*
G03*
X040846Y043984I-000079J0D01*
G01*
X04124Y043708D02*
G03*
X04124Y043708I-000039J0D01*
G01*
X033994Y021462D02*
G03*
X033148Y021499I-000394J000682D01*
G01*
X035994Y021462D02*
G03*
X035148Y021499I-000394J000682D01*
G01*
X037994Y021462D02*
G03*
X037148Y021499I-000394J000682D01*
G01*
X039994Y021462D02*
G03*
X039148Y021499I-000394J000682D01*
G01*
X041994Y021462D02*
G03*
X041148Y021499I-000394J000682D01*
G01*
X043994Y021462D02*
G03*
X043148Y021499I-000394J000682D01*
G01*
X045994Y021462D02*
G03*
X045148Y021499I-000394J000682D01*
G01*
X047994Y021462D02*
G03*
X047148Y021499I-000394J000682D01*
G01*
X049994Y021462D02*
G03*
X049148Y021499I-000394J000682D01*
G01*
X056044Y021462D02*
G03*
X055198Y021499I-000394J000682D01*
G01*
X052044Y021462D02*
G03*
X051198Y021499I-000394J000682D01*
G01*
X054044Y021462D02*
G03*
X053198Y021499I-000394J000682D01*
G01*
X070144Y021462D02*
G03*
X069298Y021499I-000394J000682D01*
G01*
X066144Y021462D02*
G03*
X065298Y021499I-000394J000682D01*
G01*
X068144Y021462D02*
G03*
X067298Y021499I-000394J000682D01*
G01*
X03252Y023984D02*
X056634D01*
X03252Y024968D02*
X056634D01*
Y023984D02*
Y024968D01*
X03252Y023984D02*
Y024968D01*
X056634Y023984D02*
X070709D01*
X056634Y024968D02*
X070709D01*
Y023984D02*
Y024968D01*
X056634Y023984D02*
Y024968D01*
X031319Y049456D02*
X031555Y049693D01*
X031319Y049456D02*
Y049929D01*
X031555Y049693D01*
X031516Y049378D02*
X031988D01*
X031516Y050007D02*
X031988D01*
X030768D02*
X031358D01*
X030768Y049378D02*
X031358D01*
X030768D02*
Y050007D01*
X031988Y049378D02*
X032146Y049535D01*
Y04985D01*
X031988Y050007D02*
X032146Y04985D01*
X05372Y042133D02*
X053839Y042015D01*
X05372Y042133D02*
Y042921D01*
X053839Y043039D01*
X054744Y042133D02*
Y042921D01*
X053839Y043039D02*
X054626D01*
X054744Y042921D01*
X053839Y042015D02*
X054626D01*
X054744Y042133D01*
X068604Y050612D02*
X068723Y050494D01*
Y049706D02*
Y050494D01*
X067699D02*
X067817Y050612D01*
X067699Y049706D02*
Y050494D01*
X067817Y050612D02*
X068604D01*
X067699Y049706D02*
X067817Y049588D01*
X068604D02*
X068723Y049706D01*
X068604Y049612D02*
X068723Y049494D01*
Y048706D02*
Y049494D01*
X067699D02*
X067817Y049612D01*
X067699Y048706D02*
Y049494D01*
Y048706D02*
X067817Y048588D01*
X068604D02*
X068723Y048706D01*
X068604Y048612D02*
X068723Y048494D01*
Y047706D02*
Y048494D01*
X067699D02*
X067817Y048612D01*
X067699Y047706D02*
Y048494D01*
Y047706D02*
X067817Y047588D01*
X068604D01*
X068723Y047706D01*
X065276Y044496D02*
X066811D01*
X064035Y043826D02*
Y044259D01*
Y043826D02*
X064665D01*
Y044259D02*
Y044653D01*
X064035Y045086D02*
X064665D01*
X064035Y044653D02*
Y045086D01*
X067739Y044392D02*
X067857Y044274D01*
X067739Y044392D02*
Y045179D01*
X068644Y044274D02*
X068762Y044392D01*
Y045179D01*
X067857Y044274D02*
X068644D01*
Y045297D02*
X068762Y045179D01*
X067739D02*
X067857Y045297D01*
X067739Y045392D02*
X067857Y045274D01*
X067739Y045392D02*
Y046179D01*
X068644Y045274D02*
X068762Y045392D01*
Y046179D01*
X068644Y046297D02*
X068762Y046179D01*
X067739D02*
X067857Y046297D01*
X067739Y046392D02*
X067857Y046274D01*
X067739Y046392D02*
Y047179D01*
X068644Y046274D02*
X068762Y046392D01*
Y047179D01*
X068644Y047297D02*
X068762Y047179D01*
X067857Y047297D02*
X068644D01*
X067739Y047179D02*
X067857Y047297D01*
X060335Y047409D02*
X061909D01*
Y048984D01*
X060335D02*
X061909D01*
X060335Y047409D02*
Y048984D01*
X063701Y047252D02*
X063858Y047409D01*
Y047094D02*
Y047409D01*
X063701Y047252D02*
X063858Y047094D01*
X063858Y047015D02*
X064331D01*
X063858Y047488D02*
X064331D01*
Y047015D02*
Y047488D01*
X063346D02*
X063701D01*
X063346Y047015D02*
X063701D01*
X063228Y047133D02*
X063346Y047015D01*
X063228Y047133D02*
Y04737D01*
X063346Y047488D01*
X055571Y050952D02*
X055689Y05107D01*
X054783Y050952D02*
X055571D01*
X054665Y05107D02*
X054783Y050952D01*
Y051976D02*
X055571D01*
X054665Y05107D02*
Y051858D01*
X054783Y051976D01*
X055689Y05107D02*
Y051858D01*
X055571Y051976D02*
X055689Y051858D01*
X043839Y047507D02*
X044035Y047311D01*
X043839Y048925D02*
X043957D01*
X043839Y047744D02*
Y048925D01*
X044626Y047744D02*
Y048925D01*
X044508D02*
X044626D01*
X044035Y047311D02*
X044429D01*
X044626Y047507D01*
X044075Y048531D02*
X04439D01*
X044232Y048374D02*
X04439Y048531D01*
X044075D02*
X044232Y048374D01*
X057704Y043679D02*
X058019D01*
X057704D02*
Y043994D01*
Y045411D02*
Y045726D01*
X058019D01*
X059437D02*
X059752D01*
Y045411D02*
Y045726D01*
Y043679D02*
Y043994D01*
X059437Y043679D02*
X059752D01*
X03385Y04641D02*
Y047D01*
X03175D02*
X03385D01*
X03175Y0462D02*
Y047D01*
X03266Y04632D02*
X03294D01*
X03266Y04689D02*
X03294D01*
X03175Y0462D02*
X03385D01*
Y04641D01*
X037519Y047421D02*
Y047776D01*
Y046516D02*
Y04687D01*
Y045807D02*
Y045965D01*
Y048327D02*
Y048484D01*
X039015Y047894D02*
Y048484D01*
X037519D02*
X039015D01*
X037519Y045807D02*
X039015D01*
Y046398D01*
X030616Y043028D02*
Y043972D01*
X032584Y043028D02*
Y043972D01*
X030616Y043028D02*
X032584D01*
X030616Y043972D02*
X032584D01*
X030654Y04098D02*
X031182D01*
X030654Y04027D02*
Y04098D01*
Y04027D02*
X031182D01*
X031487D02*
X032032D01*
X031487Y04098D02*
X032032D01*
Y04027D02*
Y04098D01*
X033406Y041897D02*
X037106D01*
X033012Y04107D02*
Y041504D01*
X0375Y04107D02*
Y041504D01*
Y038118D02*
Y038551D01*
X033012Y038118D02*
Y038551D01*
X033406Y037724D02*
X037106D01*
X032618Y048118D02*
X032776D01*
X032224D02*
X032382D01*
Y04796D02*
Y048275D01*
Y048118D02*
X032618Y048354D01*
Y047881D02*
Y048354D01*
X032382Y048118D02*
X032618Y047881D01*
X031555Y048708D02*
X033445D01*
X031358Y048511D02*
X031555Y048708D01*
Y047527D02*
X033445D01*
X031358Y047724D02*
X031555Y047527D01*
X033445Y048511D02*
Y048708D01*
Y047527D02*
Y047724D01*
X034626Y043393D02*
Y043551D01*
Y043D02*
Y043157D01*
X034469D02*
X034783D01*
X03439Y043393D02*
X034626Y043157D01*
X03439Y043393D02*
X034862D01*
X034626Y043157D02*
X034862Y043393D01*
X033799Y04233D02*
Y04422D01*
X034114D01*
Y042015D02*
Y04233D01*
X033799D02*
X034114Y042015D01*
X033799Y04233D02*
X034114D01*
X035138D02*
X035453D01*
X035138Y042015D02*
X035453Y04233D01*
X035138Y042015D02*
Y04233D01*
Y04422D02*
X035453D01*
Y04233D02*
Y04422D01*
X0294Y04679D02*
Y047D01*
X0315D01*
X03031Y04631D02*
X03059D01*
X03031Y04688D02*
X03059D01*
X0315Y0462D02*
Y047D01*
X0294Y0462D02*
X0315D01*
X0294D02*
Y04679D01*
X036687Y044276D02*
X036897D01*
Y042176D02*
Y044276D01*
X036207Y043086D02*
Y043366D01*
X036777Y043086D02*
Y043366D01*
X036097Y042176D02*
X036897D01*
X036097D02*
Y044276D01*
X036687D01*
X037597D02*
X037807D01*
Y042176D02*
Y044276D01*
X037117Y043086D02*
Y043366D01*
X037687Y043086D02*
Y043366D01*
X037007Y042176D02*
X037807D01*
X037007D02*
Y044276D01*
X037597D01*
X04065Y048315D02*
X040728D01*
Y047842D02*
Y048315D01*
Y046976D02*
Y047448D01*
X04065Y046976D02*
X040728D01*
X04002D02*
X040098D01*
X04002D02*
Y047448D01*
Y047842D02*
Y048315D01*
X040098D01*
X040571Y0467D02*
X040728Y046858D01*
Y046976D01*
X040177Y0467D02*
X040571D01*
X04002Y046858D02*
X040177Y0467D01*
X04002Y046858D02*
Y046976D01*
X04091Y046869D02*
X04154D01*
Y04746D01*
X04091Y046869D02*
Y04746D01*
Y047617D02*
Y048208D01*
X04154Y047617D02*
Y048208D01*
X04091D02*
X04154D01*
X032736Y035716D02*
Y036346D01*
X032146D02*
X032736D01*
X032146Y035716D02*
X032736D01*
X031398D02*
X031988D01*
X031398Y036346D02*
X031988D01*
X031398Y035716D02*
Y036346D01*
X069783Y048944D02*
X073957D01*
X069783Y047881D02*
X073957D01*
Y048944D01*
X069783Y047881D02*
Y048944D01*
X060532Y052645D02*
X060728D01*
X063012D02*
X063209D01*
X061201D02*
X062539D01*
X060532Y052567D02*
Y054023D01*
X060374Y051385D02*
Y051543D01*
Y051385D02*
X060571D01*
Y051543D01*
X063169Y051385D02*
Y051543D01*
Y051385D02*
X063366D01*
Y051543D01*
X060374Y053866D02*
X060532D01*
X060374Y052567D02*
Y053866D01*
X063366Y052567D02*
Y053866D01*
X063209D02*
X063366D01*
X060532D02*
X063209D01*
X06124Y054023D02*
Y056346D01*
X0625D01*
Y054023D02*
Y056346D01*
X063209Y052567D02*
Y054023D01*
X060532D02*
X063209D01*
X032168Y033835D02*
X032326D01*
X031774D02*
X031932D01*
Y033678D02*
Y033993D01*
Y033835D02*
X032168Y034072D01*
Y033599D02*
Y034072D01*
X031932Y033835D02*
X032168Y033599D01*
X031105Y034426D02*
X032995D01*
X030908Y034229D02*
X031105Y034426D01*
Y033245D02*
X032995D01*
X030908Y033442D02*
X031105Y033245D01*
X032995Y034229D02*
Y034426D01*
Y033245D02*
Y033442D01*
X038445Y033835D02*
X038602D01*
X038051D02*
X038208D01*
Y033678D02*
Y033993D01*
Y033835D02*
X038445Y034072D01*
Y033599D02*
Y034072D01*
X038208Y033835D02*
X038445Y033599D01*
X037382Y034426D02*
X039271D01*
X037185Y034229D02*
X037382Y034426D01*
Y033245D02*
X039271D01*
X037185Y033442D02*
X037382Y033245D01*
X039271Y034229D02*
Y034426D01*
Y033245D02*
Y033442D01*
X050997Y033835D02*
X051155D01*
X050604D02*
X050761D01*
Y033678D02*
Y033993D01*
Y033835D02*
X050997Y034072D01*
Y033599D02*
Y034072D01*
X050761Y033835D02*
X050997Y033599D01*
X049934Y034426D02*
X051824D01*
X049738Y034229D02*
X049934Y034426D01*
Y033245D02*
X051824D01*
X049738Y033442D02*
X049934Y033245D01*
X051824Y034229D02*
Y034426D01*
Y033245D02*
Y033442D01*
X057274Y033835D02*
X057431D01*
X05688D02*
X057038D01*
Y033678D02*
Y033993D01*
Y033835D02*
X057274Y034072D01*
Y033599D02*
Y034072D01*
X057038Y033835D02*
X057274Y033599D01*
X056211Y034426D02*
X058101D01*
X056014Y034229D02*
X056211Y034426D01*
Y033245D02*
X058101D01*
X056014Y033442D02*
X056211Y033245D01*
X058101Y034229D02*
Y034426D01*
Y033245D02*
Y033442D01*
X06355Y033835D02*
X063708D01*
X063157D02*
X063314D01*
Y033678D02*
Y033993D01*
Y033835D02*
X06355Y034072D01*
Y033599D02*
Y034072D01*
X063314Y033835D02*
X06355Y033599D01*
X062487Y034426D02*
X064377D01*
X06229Y034229D02*
X062487Y034426D01*
Y033245D02*
X064377D01*
X06229Y033442D02*
X062487Y033245D01*
X064377Y034229D02*
Y034426D01*
Y033245D02*
Y033442D01*
X060768Y038984D02*
Y039063D01*
X062657Y038984D02*
Y039063D01*
X060768D02*
X062657D01*
X060768Y036385D02*
X062657D01*
Y036464D01*
X060768Y036385D02*
Y036464D01*
X05Y036169D02*
X050157D01*
X05Y039161D02*
X050157D01*
Y036169D02*
Y039161D01*
X045984Y036169D02*
Y039161D01*
X046142D01*
X045984Y036169D02*
X046142D01*
X055421Y044939D02*
Y045372D01*
X054791Y044939D02*
X055421D01*
X054791Y045372D02*
Y045766D01*
Y046199D02*
X055421D01*
Y045766D02*
Y046199D01*
X054791Y043758D02*
Y044191D01*
X055421D01*
Y043364D02*
Y043758D01*
X054791Y042931D02*
X055421D01*
X054791D02*
Y043364D01*
X058957Y047488D02*
X059154Y047291D01*
X058957Y048905D02*
X059075D01*
X058957Y047724D02*
Y048905D01*
X059744Y047724D02*
Y048905D01*
X059626D02*
X059744D01*
X059154Y047291D02*
X059547D01*
X059744Y047488D01*
X059193Y048511D02*
X059508D01*
X05935Y048354D02*
X059508Y048511D01*
X059193D02*
X05935Y048354D01*
X035623Y046126D02*
Y046244D01*
Y046126D02*
X03578Y045969D01*
X036174D01*
X036331Y046126D02*
Y046244D01*
X036174Y045969D02*
X036331Y046126D01*
X035623Y047583D02*
X035701D01*
X035623Y047111D02*
Y047583D01*
Y046244D02*
Y046717D01*
Y046244D02*
X035701D01*
X036252D02*
X036331D01*
Y046717D01*
Y047111D02*
Y047583D01*
X036252D02*
X036331D01*
X035965Y050204D02*
Y050756D01*
Y051149D02*
Y051661D01*
Y051858D02*
Y052252D01*
X035575Y052051D02*
X035965Y051661D01*
X035575Y052051D02*
X035965Y052441D01*
X036354Y052051D01*
X035965Y051661D02*
X036354Y052051D01*
X035965Y050204D02*
X036354Y049815D01*
X035965Y049425D02*
X036354Y049815D01*
X035575Y049815D02*
X035965Y049425D01*
X035575Y049815D02*
X035965Y050204D01*
X035768Y049811D02*
X036161D01*
X035965Y049614D02*
Y050007D01*
X032697Y05174D02*
Y055126D01*
Y049299D02*
X033799D01*
X035531D02*
X036516D01*
Y055126D01*
X032697D02*
X036516D01*
X032697Y049299D02*
Y04985D01*
X033287Y050401D02*
X035531D01*
X06385Y022167D02*
X064303Y02262D01*
X06364Y02218D02*
X064192Y022731D01*
X06185Y022167D02*
X062303Y02262D01*
X06164Y02218D02*
X062192Y022731D01*
X05964Y02218D02*
X060192Y022731D01*
X05985Y022167D02*
X060303Y02262D01*
X05785Y022167D02*
X058303Y02262D01*
X05764Y02218D02*
X058192Y022731D01*
X056692Y021041D02*
X064676D01*
X056692Y020136D02*
Y023797D01*
X056417Y023354D02*
X05673Y02325D01*
X056417Y022675D02*
X056417Y023354D01*
X056417Y022675D02*
X056734Y022728D01*
X056692Y023797D02*
X064676D01*
Y020136D02*
Y023797D01*
X056692Y020136D02*
X064676D01*
X068445Y051189D02*
X069783D01*
X067697Y051937D02*
Y053275D01*
X070532Y051937D02*
Y053275D01*
X068445Y054023D02*
X069783D01*
X067933Y054889D02*
Y057173D01*
X070295D01*
Y054889D02*
Y057173D01*
X067854Y054889D02*
X070374D01*
X067854Y054102D02*
Y054889D01*
X070374Y054102D02*
Y054889D01*
X067736Y056858D02*
X070492Y057015D01*
X067736Y056504D02*
X070492Y056661D01*
X067736Y056149D02*
X070492Y056307D01*
X067736Y055795D02*
X070492Y055952D01*
X067736Y055441D02*
X070492Y055598D01*
X067736Y055086D02*
X070492Y055244D01*
X041673Y043118D02*
Y043511D01*
Y043866D02*
Y043944D01*
X040965D02*
X041673D01*
X040965Y043866D02*
Y043944D01*
Y042685D02*
Y042763D01*
Y042685D02*
X041673D01*
Y042763D01*
X032592Y020136D02*
X050616D01*
Y023797D01*
X032592D02*
X050616D01*
X032317Y022675D02*
X032634Y022728D01*
X032317Y022675D02*
X032317Y023354D01*
X03263Y02325D01*
X032592Y020136D02*
Y023797D01*
Y021041D02*
X050616D01*
X03354Y02218D02*
X034092Y022731D01*
X03375Y022167D02*
X034203Y02262D01*
X03575Y022167D02*
X036203Y02262D01*
X03554Y02218D02*
X036092Y022731D01*
X03754Y02218D02*
X038092Y022731D01*
X03775Y022167D02*
X038203Y02262D01*
X03954Y02218D02*
X040092Y022731D01*
X03975Y022167D02*
X040203Y02262D01*
X04154Y02218D02*
X042092Y022731D01*
X04175Y022167D02*
X042203Y02262D01*
X04354Y02218D02*
X044092Y022731D01*
X04375Y022167D02*
X044203Y02262D01*
X04554Y02218D02*
X046092Y022731D01*
X04575Y022167D02*
X046203Y02262D01*
X04754Y02218D02*
X048092Y022731D01*
X04775Y022167D02*
X048203Y02262D01*
X04954Y02218D02*
X050092Y022731D01*
X04975Y022167D02*
X050203Y02262D01*
X0558Y022167D02*
X056253Y02262D01*
X05559Y02218D02*
X056142Y022731D01*
X050642Y020136D02*
X056642D01*
Y023797D01*
X050642D02*
X056642D01*
X050367Y022675D02*
X050684Y022728D01*
X050367Y022675D02*
X050367Y023354D01*
X05068Y02325D01*
X050642Y020136D02*
Y023797D01*
Y021041D02*
X056642D01*
X05159Y02218D02*
X052142Y022731D01*
X0518Y022167D02*
X052253Y02262D01*
X0538Y022167D02*
X054253Y02262D01*
X05359Y02218D02*
X054142Y022731D01*
X058701Y023984D02*
Y024968D01*
X060768Y023984D02*
Y024968D01*
X062638Y023984D02*
Y024968D01*
X064705Y023984D02*
Y024968D01*
X06687Y023984D02*
Y024968D01*
X068839Y023984D02*
Y024968D01*
X034783Y023984D02*
Y024968D01*
X036555Y023984D02*
Y024968D01*
X038819Y023984D02*
Y024968D01*
X040492Y023984D02*
Y024968D01*
X042756Y023984D02*
Y024968D01*
X044577Y023984D02*
Y024968D01*
X046791Y023984D02*
Y024968D01*
X048661Y023984D02*
Y024968D01*
X050827Y023984D02*
Y024968D01*
X052697Y023984D02*
Y024968D01*
X054862Y023984D02*
Y024968D01*
X0699Y022167D02*
X070353Y02262D01*
X06969Y02218D02*
X070242Y022731D01*
X064742Y020136D02*
X070742D01*
Y023797D01*
X064742D02*
X070742D01*
X064467Y022675D02*
X064784Y022728D01*
X064467Y022675D02*
X064467Y023354D01*
X06478Y02325D01*
X064742Y020136D02*
Y023797D01*
Y021041D02*
X070742D01*
X06569Y02218D02*
X066242Y022731D01*
X0659Y022167D02*
X066353Y02262D01*
X0679Y022167D02*
X068353Y02262D01*
X06769Y02218D02*
X068242Y022731D01*
X045548Y033245D02*
Y033442D01*
Y034229D02*
Y034426D01*
X043461Y033442D02*
X043658Y033245D01*
X045548D01*
X043461Y034229D02*
X043658Y034426D01*
X045548D01*
X044485Y033835D02*
X044721Y033599D01*
Y034072D01*
X044485Y033835D02*
X044721Y034072D01*
X044485Y033678D02*
Y033993D01*
X044327Y033835D02*
X044485D01*
X044721D02*
X044878D01*
X064117Y054023D02*
X066794D01*
Y052567D02*
Y054023D01*
X066085D02*
Y056346D01*
X064826D02*
X066085D01*
X064826Y054023D02*
Y056346D01*
X064117Y053866D02*
X066794D01*
X066952D01*
Y052567D02*
Y053866D01*
X063959Y052567D02*
Y053866D01*
X064117D01*
X066952Y051385D02*
Y051543D01*
X066755Y051385D02*
X066952D01*
X066755D02*
Y051543D01*
X064156Y051385D02*
Y051543D01*
X063959Y051385D02*
X064156D01*
X063959D02*
Y051543D01*
X064117Y052567D02*
Y054023D01*
X064786Y052645D02*
X066125D01*
X066597D02*
X066794D01*
X064117D02*
X064314D01*
X037146Y054023D02*
X039823D01*
Y052567D02*
Y054023D01*
X039114D02*
Y056346D01*
X037854D02*
X039114D01*
X037854Y054023D02*
Y056346D01*
X037146Y053866D02*
X039823D01*
X03998D01*
Y052567D02*
Y053866D01*
X036988Y052567D02*
Y053866D01*
X037146D01*
X03998Y051385D02*
Y051543D01*
X039783Y051385D02*
X03998D01*
X039783D02*
Y051543D01*
X037185Y051385D02*
Y051543D01*
X036988Y051385D02*
X037185D01*
X036988D02*
Y051543D01*
X037146Y052567D02*
Y054023D01*
X037815Y052645D02*
X039154D01*
X039626D02*
X039823D01*
X037146D02*
X037343D01*
X059412Y024709D02*
X059333Y024788D01*
X059176D01*
X059097Y024709D01*
Y02463D01*
X059176Y024552D01*
X059333D01*
X059412Y024473D01*
Y024394D01*
X059333Y024316D01*
X059176D01*
X059097Y024394D01*
X05957Y024788D02*
Y024316D01*
X059806D01*
X059884Y024394D01*
Y024709D01*
X059806Y024788D01*
X05957D01*
X060042Y024316D02*
Y02463D01*
X060199Y024788D01*
X060357Y02463D01*
Y024316D01*
Y024552D01*
X060042D01*
X057317Y024709D02*
X057239Y024788D01*
X057081D01*
X057002Y024709D01*
Y024394D01*
X057081Y024316D01*
X057239D01*
X057317Y024394D01*
Y024552D01*
X05716D01*
X057475Y024316D02*
Y024788D01*
X05779Y024316D01*
Y024788D01*
X057947D02*
Y024316D01*
X058183D01*
X058262Y024394D01*
Y024709D01*
X058183Y024788D01*
X057947D01*
X039061Y051425D02*
Y05174D01*
X038904D01*
X038852Y051687D01*
Y051635D01*
X038904Y051582D01*
X039061D01*
X038904D01*
X038852Y05153D01*
Y051477D01*
X038904Y051425D01*
X039061D01*
X038589D02*
X038694D01*
X038747Y051477D01*
Y051687D01*
X038694Y05174D01*
X038589D01*
X038537Y051687D01*
Y051477D01*
X038589Y051425D01*
X038274D02*
X038379D01*
X038432Y051477D01*
Y051687D01*
X038379Y05174D01*
X038274D01*
X038222Y051687D01*
Y051477D01*
X038274Y051425D01*
X038117D02*
X037907D01*
X038012D01*
Y05174D01*
X037967Y0417D02*
Y041307D01*
X038164D01*
X03823Y041372D01*
Y041635D01*
X038164Y0417D01*
X037967D01*
X038623D02*
X038361D01*
Y041307D01*
X038623D01*
X038361Y041504D02*
X038492D01*
X039017Y041635D02*
X038951Y0417D01*
X03882D01*
X038755Y041635D01*
Y041569D01*
X03882Y041504D01*
X038951D01*
X039017Y041438D01*
Y041372D01*
X038951Y041307D01*
X03882D01*
X038755Y041372D01*
X039148Y0417D02*
X039279D01*
X039214D01*
Y041307D01*
X039148D01*
X039279D01*
X039739Y041635D02*
X039673Y0417D01*
X039542D01*
X039476Y041635D01*
Y041372D01*
X039542Y041307D01*
X039673D01*
X039739Y041372D01*
Y041504D01*
X039607D01*
X03987Y041307D02*
Y0417D01*
X040132Y041307D01*
Y0417D01*
X040657D02*
Y041307D01*
X040854D01*
X040919Y041372D01*
Y041438D01*
X040854Y041504D01*
X040657D01*
X040854D01*
X040919Y041569D01*
Y041635D01*
X040854Y0417D01*
X040657D01*
X04105D02*
Y041635D01*
X041182Y041504D01*
X041313Y041635D01*
Y0417D01*
X041182Y041504D02*
Y041307D01*
X041838Y0417D02*
Y041307D01*
Y041504D01*
X0421D01*
Y0417D01*
Y041307D01*
X042231Y0417D02*
Y041372D01*
X042297Y041307D01*
X042428D01*
X042494Y041372D01*
Y0417D01*
X042625D02*
Y041635D01*
X042756Y041504D01*
X042887Y041635D01*
Y0417D01*
X042756Y041504D02*
Y041307D01*
X043018D02*
Y0417D01*
X043281Y041307D01*
Y0417D01*
X043412D02*
Y041307D01*
Y041504D01*
X043674D01*
Y0417D01*
Y041307D01*
X044199D02*
Y0417D01*
X04433Y041569D01*
X044461Y0417D01*
Y041307D01*
X044593Y0417D02*
X044724D01*
X044658D01*
Y041307D01*
X044593D01*
X044724D01*
X044921D02*
Y0417D01*
X045183Y041307D01*
Y0417D01*
X045314D02*
Y041307D01*
Y041504D01*
X045577D01*
Y0417D01*
Y041307D01*
X046101Y0417D02*
Y041307D01*
X046298D01*
X046364Y041372D01*
Y041635D01*
X046298Y0417D01*
X046101D01*
X046495Y041307D02*
Y041569D01*
X046626Y0417D01*
X046757Y041569D01*
Y041307D01*
Y041504D01*
X046495D01*
X046888Y041307D02*
Y0417D01*
X047151Y041307D01*
Y0417D01*
X047544Y041635D02*
X047479Y0417D01*
X047348D01*
X047282Y041635D01*
Y041372D01*
X047348Y041307D01*
X047479D01*
X047544Y041372D01*
Y041504D01*
X047413D01*
X051178Y024316D02*
Y024788D01*
X051493Y024316D01*
Y024788D01*
X051887D02*
X051729D01*
X051651Y024709D01*
Y024394D01*
X051729Y024316D01*
X051887D01*
X051965Y024394D01*
Y024709D01*
X051887Y024788D01*
X052438D02*
X052123D01*
Y024552D01*
X05228Y02463D01*
X052359D01*
X052438Y024552D01*
Y024394D01*
X052359Y024316D01*
X052202D01*
X052123Y024394D01*
X069528Y024316D02*
Y02463D01*
X069685Y024788D01*
X069843Y02463D01*
Y024316D01*
Y024552D01*
X069528D01*
X07D02*
X070315D01*
X070157Y024709D02*
Y024394D01*
X033202Y024709D02*
X033123Y024788D01*
X032966D01*
X032887Y024709D01*
Y024394D01*
X032966Y024316D01*
X033123D01*
X033202Y024394D01*
X033596Y024788D02*
X033438D01*
X033359Y024709D01*
Y024394D01*
X033438Y024316D01*
X033596D01*
X033674Y024394D01*
Y024709D01*
X033596Y024788D01*
X033832Y024316D02*
Y024788D01*
X033989Y02463D01*
X034147Y024788D01*
Y024316D01*
X034304D02*
X034461D01*
X034383D01*
Y024788D01*
X034304Y024709D01*
X063658Y024788D02*
X063344D01*
Y024552D01*
X063501Y02463D01*
X06358D01*
X063658Y024552D01*
Y024394D01*
X06358Y024316D01*
X063422D01*
X063344Y024394D01*
X063816Y024788D02*
Y024473D01*
X063973Y024316D01*
X064131Y024473D01*
Y024788D01*
X055886Y053157D02*
Y053551D01*
X055807Y053629D01*
X055649D01*
X055571Y053551D01*
Y053157D01*
X055413Y053629D02*
Y053315D01*
X055256Y053157D01*
X055098Y053315D01*
Y053629D01*
Y053393D01*
X055413D01*
X054941Y053629D02*
Y053157D01*
X054705D01*
X054626Y053236D01*
Y053393D01*
X054705Y053472D01*
X054941D01*
X054784D02*
X054626Y053629D01*
X054469Y053157D02*
X054154D01*
X054311D01*
Y053629D01*
X066187Y0517D02*
Y051385D01*
X06603D01*
X065978Y051438D01*
Y051543D01*
X06603Y051595D01*
X066187D01*
X066082D02*
X065978Y0517D01*
X065663Y051385D02*
X065873D01*
Y0517D01*
X065663D01*
X065873Y051543D02*
X065768D01*
X065348Y051438D02*
X0654Y051385D01*
X065505D01*
X065558Y051438D01*
Y05149D01*
X065505Y051543D01*
X0654D01*
X065348Y051595D01*
Y051648D01*
X0654Y0517D01*
X065505D01*
X065558Y051648D01*
X065033Y051385D02*
X065243D01*
Y0517D01*
X065033D01*
X065243Y051543D02*
X065138D01*
X064928Y051385D02*
X064718D01*
X064823D01*
Y0517D01*
X055217Y024316D02*
Y024788D01*
X055532Y024316D01*
Y024788D01*
X055925D02*
X055768D01*
X055689Y024709D01*
Y024394D01*
X055768Y024316D01*
X055925D01*
X056004Y024394D01*
Y024709D01*
X055925Y024788D01*
X056476D02*
X056319Y024709D01*
X056161Y024552D01*
Y024394D01*
X05624Y024316D01*
X056397D01*
X056476Y024394D01*
Y024473D01*
X056397Y024552D01*
X056161D01*
X043101Y024316D02*
Y024788D01*
X043416Y024316D01*
Y024788D01*
X04381D02*
X043652D01*
X043574Y024709D01*
Y024394D01*
X043652Y024316D01*
X04381D01*
X043889Y024394D01*
Y024709D01*
X04381Y024788D01*
X044046Y024709D02*
X044125Y024788D01*
X044282D01*
X044361Y024709D01*
Y02463D01*
X044282Y024552D01*
X044203D01*
X044282D01*
X044361Y024473D01*
Y024394D01*
X044282Y024316D01*
X044125D01*
X044046Y024394D01*
X061465Y024709D02*
X061386Y024788D01*
X061229D01*
X06115Y024709D01*
Y02463D01*
X061229Y024552D01*
X061386D01*
X061465Y024473D01*
Y024394D01*
X061386Y024316D01*
X061229D01*
X06115Y024394D01*
X061937Y024709D02*
X061859Y024788D01*
X061701D01*
X061623Y024709D01*
Y024394D01*
X061701Y024316D01*
X061859D01*
X061937Y024394D01*
X062095Y024788D02*
Y024316D01*
X06241D01*
X045199Y024732D02*
X045121Y024811D01*
X044963D01*
X044884Y024732D01*
Y024417D01*
X044963Y024338D01*
X045121D01*
X045199Y024417D01*
X045593Y024811D02*
X045435D01*
X045357Y024732D01*
Y024417D01*
X045435Y024338D01*
X045593D01*
X045672Y024417D01*
Y024732D01*
X045593Y024811D01*
X045829Y024338D02*
Y024811D01*
X045986Y024653D01*
X046144Y024811D01*
Y024338D01*
X046537D02*
Y024811D01*
X046301Y024574D01*
X046616D01*
X041161Y024709D02*
X041082Y024788D01*
X040925D01*
X040846Y024709D01*
Y024394D01*
X040925Y024316D01*
X041082D01*
X041161Y024394D01*
X041554Y024788D02*
X041397D01*
X041318Y024709D01*
Y024394D01*
X041397Y024316D01*
X041554D01*
X041633Y024394D01*
Y024709D01*
X041554Y024788D01*
X041791Y024316D02*
Y024788D01*
X041948Y02463D01*
X042105Y024788D01*
Y024316D01*
X042263Y024709D02*
X042342Y024788D01*
X042499D01*
X042578Y024709D01*
Y02463D01*
X042499Y024552D01*
X04242D01*
X042499D01*
X042578Y024473D01*
Y024394D01*
X042499Y024316D01*
X042342D01*
X042263Y024394D01*
X046043Y053236D02*
Y053629D01*
X045964Y053708D01*
X045807D01*
X045728Y053629D01*
Y053236D01*
X045256Y053315D02*
X045335Y053236D01*
X045492D01*
X045571Y053315D01*
Y053393D01*
X045492Y053472D01*
X045335D01*
X045256Y053551D01*
Y053629D01*
X045335Y053708D01*
X045492D01*
X045571Y053629D01*
X045099Y053236D02*
Y053708D01*
X044862D01*
X044784Y053629D01*
Y053551D01*
X044862Y053472D01*
X045099D01*
X044862D01*
X044784Y053393D01*
Y053315D01*
X044862Y053236D01*
X045099D01*
X039063Y024316D02*
Y024788D01*
X039378Y024316D01*
Y024788D01*
X039771D02*
X039614D01*
X039535Y024709D01*
Y024394D01*
X039614Y024316D01*
X039771D01*
X03985Y024394D01*
Y024709D01*
X039771Y024788D01*
X040322Y024316D02*
X040007D01*
X040322Y02463D01*
Y024709D01*
X040244Y024788D01*
X040086D01*
X040007Y024709D01*
X04714Y024316D02*
Y024788D01*
X047455Y024316D01*
Y024788D01*
X047848D02*
X047691D01*
X047612Y024709D01*
Y024394D01*
X047691Y024316D01*
X047848D01*
X047927Y024394D01*
Y024709D01*
X047848Y024788D01*
X048321Y024316D02*
Y024788D01*
X048084Y024552D01*
X048399D01*
X035182Y024316D02*
Y024788D01*
X035497Y024316D01*
Y024788D01*
X03589D02*
X035733D01*
X035654Y024709D01*
Y024394D01*
X035733Y024316D01*
X03589D01*
X035969Y024394D01*
Y024709D01*
X03589Y024788D01*
X036126Y024316D02*
X036284D01*
X036205D01*
Y024788D01*
X036126Y024709D01*
X067624Y024788D02*
Y024316D01*
X06786D01*
X067939Y024394D01*
Y024473D01*
X06786Y024552D01*
X067624D01*
X06786D01*
X067939Y02463D01*
Y024709D01*
X06786Y024788D01*
X067624D01*
X068096Y024552D02*
X068411D01*
X062526Y051438D02*
X062579Y051385D01*
X062683D01*
X062736Y051438D01*
Y051648D01*
X062683Y0517D01*
X062579D01*
X062526Y051648D01*
X062264Y051385D02*
X062369D01*
X062421Y051438D01*
Y051648D01*
X062369Y0517D01*
X062264D01*
X062211Y051648D01*
Y051438D01*
X062264Y051385D01*
X062106Y0517D02*
Y051385D01*
X061896Y0517D01*
Y051385D01*
X061581D02*
X061791D01*
Y051543D01*
X061686D01*
X061791D01*
Y0517D01*
X061476Y051385D02*
X061372D01*
X061424D01*
Y0517D01*
X061476D01*
X061372D01*
X061004Y051438D02*
X061057Y051385D01*
X061162D01*
X061214Y051438D01*
Y051648D01*
X061162Y0517D01*
X061057D01*
X061004Y051648D01*
Y051543D01*
X061109D01*
X053276Y024709D02*
X053198Y024788D01*
X05304D01*
X052961Y024709D01*
Y024394D01*
X05304Y024316D01*
X053198D01*
X053276Y024394D01*
X05367Y024788D02*
X053512D01*
X053434Y024709D01*
Y024394D01*
X053512Y024316D01*
X05367D01*
X053749Y024394D01*
Y024709D01*
X05367Y024788D01*
X053906Y024316D02*
Y024788D01*
X054063Y02463D01*
X054221Y024788D01*
Y024316D01*
X054693Y024788D02*
X054536Y024709D01*
X054378Y024552D01*
Y024394D01*
X054457Y024316D01*
X054614D01*
X054693Y024394D01*
Y024473D01*
X054614Y024552D01*
X054378D01*
X037122Y024709D02*
X037044Y024788D01*
X036886D01*
X036808Y024709D01*
Y024394D01*
X036886Y024316D01*
X037044D01*
X037122Y024394D01*
X037516Y024788D02*
X037359D01*
X03728Y024709D01*
Y024394D01*
X037359Y024316D01*
X037516D01*
X037595Y024394D01*
Y024709D01*
X037516Y024788D01*
X037752Y024316D02*
Y024788D01*
X03791Y02463D01*
X038067Y024788D01*
Y024316D01*
X038539D02*
X038224D01*
X038539Y02463D01*
Y024709D01*
X038461Y024788D01*
X038303D01*
X038224Y024709D01*
X065464D02*
X065385Y024788D01*
X065228D01*
X065149Y024709D01*
Y024394D01*
X065228Y024316D01*
X065385D01*
X065464Y024394D01*
Y024552D01*
X065307D01*
X065621Y024316D02*
Y024788D01*
X065858D01*
X065936Y024709D01*
Y024552D01*
X065858Y024473D01*
X065621D01*
X065779D02*
X065936Y024316D01*
X066094Y024788D02*
Y024316D01*
X06633D01*
X066409Y024394D01*
Y024709D01*
X06633Y024788D01*
X066094D01*
X03817Y04048D02*
Y040952D01*
X037934Y040716D01*
X038249D01*
X038406Y04048D02*
X038563D01*
X038485D01*
Y040952D01*
X038406Y040874D01*
X0388Y040559D02*
X038878Y04048D01*
X039036D01*
X039114Y040559D01*
Y040874D01*
X039036Y040952D01*
X038878D01*
X0388Y040874D01*
Y040795D01*
X038878Y040716D01*
X039114D01*
X039272Y040874D02*
X039351Y040952D01*
X039508D01*
X039587Y040874D01*
Y040559D01*
X039508Y04048D01*
X039351D01*
X039272Y040559D01*
Y040874D01*
X039744D02*
X039823Y040952D01*
X03998D01*
X040059Y040874D01*
Y040559D01*
X03998Y04048D01*
X039823D01*
X039744Y040559D01*
Y040874D01*
X040216D02*
X040295Y040952D01*
X040453D01*
X040531Y040874D01*
Y040795D01*
X040453Y040716D01*
X040374D01*
X040453D01*
X040531Y040637D01*
Y040559D01*
X040453Y04048D01*
X040295D01*
X040216Y040559D01*
X040925Y04048D02*
Y040952D01*
X040689Y040716D01*
X041004D01*
X041161Y040874D02*
X04124Y040952D01*
X041397D01*
X041476Y040874D01*
Y040795D01*
X041397Y040716D01*
X041476Y040637D01*
Y040559D01*
X041397Y04048D01*
X04124D01*
X041161Y040559D01*
Y040637D01*
X04124Y040716D01*
X041161Y040795D01*
Y040874D01*
X04124Y040716D02*
X041397D01*
X03208Y050677D02*
Y050283D01*
X031883D01*
X031817Y050349D01*
Y05048D01*
X031883Y050546D01*
X03208D01*
X031489Y050283D02*
X031621D01*
X031686Y050349D01*
Y050611D01*
X031621Y050677D01*
X031489D01*
X031424Y050611D01*
Y050349D01*
X031489Y050283D01*
X031293D02*
Y050677D01*
X031161Y050546D01*
X03103Y050677D01*
Y050283D01*
X030637D02*
X030899D01*
Y050677D01*
X030637D01*
X030899Y05048D02*
X030768D01*
X030505Y050677D02*
Y050283D01*
X030309D01*
X030243Y050349D01*
Y05048D01*
X030309Y050546D01*
X030505D01*
X030374D02*
X030243Y050677D01*
X049238Y024709D02*
X049159Y024788D01*
X049002D01*
X048923Y024709D01*
Y024394D01*
X049002Y024316D01*
X049159D01*
X049238Y024394D01*
X049631Y024788D02*
X049474D01*
X049395Y024709D01*
Y024394D01*
X049474Y024316D01*
X049631D01*
X04971Y024394D01*
Y024709D01*
X049631Y024788D01*
X049867Y024316D02*
Y024788D01*
X050025Y02463D01*
X050182Y024788D01*
Y024316D01*
X050655Y024788D02*
X05034D01*
Y024552D01*
X050497Y02463D01*
X050576D01*
X050655Y024552D01*
Y024394D01*
X050576Y024316D01*
X050418D01*
X05034Y024394D01*
X0325Y042252D02*
X032658D01*
X032579D01*
Y042015D01*
X032736D02*
Y042252D01*
X032854D01*
X032894Y042212D01*
Y042133D01*
X032854Y042094D01*
X032736D01*
X032972Y042015D02*
X033051D01*
X033012D01*
Y042252D01*
X032972Y042212D01*
X056227Y04609D02*
Y046366D01*
X056365D01*
X056411Y04632D01*
Y046228D01*
X056365Y046182D01*
X056227D01*
X056319D02*
X056411Y04609D01*
X056686D02*
X056503D01*
X056686Y046274D01*
Y04632D01*
X05664Y046366D01*
X056549D01*
X056503Y04632D01*
X056962Y04609D02*
X056778D01*
X056962Y046274D01*
Y04632D01*
X056916Y046366D01*
X056824D01*
X056778Y04632D01*
X05625Y045697D02*
Y045972D01*
X056388D01*
X056434Y045926D01*
Y045834D01*
X056388Y045788D01*
X05625D01*
X056342D02*
X056434Y045697D01*
X056526D02*
X056617D01*
X056572D01*
Y045972D01*
X056526Y045926D01*
X056755Y045742D02*
X056801Y045697D01*
X056893D01*
X056939Y045742D01*
Y045926D01*
X056893Y045972D01*
X056801D01*
X056755Y045926D01*
Y04588D01*
X056801Y045834D01*
X056939D01*
D11*
X066717Y046897D02*
G03*
X066717Y048157I0J00063D01*
G01*
X042136Y048926D02*
G03*
X042136Y048926I-00005J0D01*
G01*
X057254Y048906D02*
G03*
X057254Y048906I-00005J0D01*
G01*
X064949Y045966D02*
Y049075D01*
Y045966D02*
X066717D01*
X064949Y049075D02*
X066717D01*
Y045966D02*
Y049075D01*
X041065Y050871D02*
X044465D01*
X042126Y049122D02*
Y04983D01*
X043346Y049122D02*
Y04983D01*
X056183Y050871D02*
X059583D01*
X057244Y049102D02*
Y049811D01*
X058465Y049102D02*
Y049811D01*
X066925Y025698D02*
Y042548D01*
Y025698D02*
X072925D01*
X066925Y042548D02*
X072925D01*
Y025698D02*
Y042548D01*
D12*
X07512Y020943D02*
G03*
X07512Y021513I-001065J000285D01*
G01*
X07501Y021779D02*
G03*
X074606Y022183I-000955J-000551D01*
G01*
X07434Y022293D02*
G03*
X07377Y022293I-000285J-001065D01*
G01*
X073504Y022183D02*
G03*
X0731Y021779I000551J-000955D01*
G01*
X07299Y021513D02*
G03*
X07299Y020943I001065J-000285D01*
G01*
X0731Y020677D02*
G03*
X073504Y020273I000955J000551D01*
G01*
X07377Y020163D02*
G03*
X07434Y020163I000285J001065D01*
G01*
X074606Y020273D02*
G03*
X07501Y020677I-000551J000955D01*
G01*
X030041Y020943D02*
G03*
X030041Y021513I-001065J000285D01*
G01*
X029931Y021779D02*
G03*
X029528Y022183I-000955J-000551D01*
G01*
X029262Y022293D02*
G03*
X028691Y022293I-000285J-001065D01*
G01*
X028425Y022183D02*
G03*
X028022Y021779I000551J-000955D01*
G01*
X027912Y021513D02*
G03*
X027912Y020943I001065J-000285D01*
G01*
X028022Y020677D02*
G03*
X028425Y020273I000955J000551D01*
G01*
X028691Y020163D02*
G03*
X029262Y020163I000285J001065D01*
G01*
X029528Y020273D02*
G03*
X029931Y020677I-000551J000955D01*
G01*
X07512Y052439D02*
G03*
X07512Y053009I-001065J000285D01*
G01*
X07501Y053275D02*
G03*
X074606Y053679I-000955J-000551D01*
G01*
X07434Y053789D02*
G03*
X07377Y053789I-000285J-001065D01*
G01*
X073504Y053679D02*
G03*
X0731Y053275I000551J-000955D01*
G01*
X07299Y053009D02*
G03*
X07299Y052439I001065J-000285D01*
G01*
X0731Y052173D02*
G03*
X073504Y051769I000955J000551D01*
G01*
X07377Y051659D02*
G03*
X07434Y051659I000285J001065D01*
G01*
X074606Y051769D02*
G03*
X07501Y052173I-000551J000955D01*
G01*
X030041Y05234D02*
G03*
X030041Y052911I-001065J000285D01*
G01*
X029931Y053177D02*
G03*
X029528Y05358I-000955J-000551D01*
G01*
X029262Y05369D02*
G03*
X028691Y05369I-000285J-001065D01*
G01*
X028425Y05358D02*
G03*
X028022Y053177I000551J-000955D01*
G01*
X027912Y052911D02*
G03*
X027912Y05234I001065J-000285D01*
G01*
X028022Y052074D02*
G03*
X028425Y051671I000955J000551D01*
G01*
X028691Y051561D02*
G03*
X029262Y051561I000285J001065D01*
G01*
X029528Y051671D02*
G03*
X029931Y052074I-000551J000955D01*
G01*
X036083Y050756D02*
G03*
X036083Y050756I-000118J0D01*
G01*
D13*
X037174Y048465D02*
G03*
X037174Y048465I-000049J0D01*
G01*
X032734Y044465D02*
G03*
X032734Y044465I-000049J0D01*
G01*
D14*
X062893Y027909D02*
G03*
X061549Y028465I-000557J000557D01*
G01*
X065351D02*
G03*
X064007Y027909I-000787J0D01*
G01*
D02*
G03*
X062893Y027909I-000557J000557D01*
G01*
X031493D02*
G03*
X030149Y028465I-000557J000557D01*
G01*
X033951D02*
G03*
X032607Y027909I-000787J0D01*
G01*
D02*
G03*
X031493Y027909I-000557J000557D01*
G01*
X037773D02*
G03*
X036429Y028465I-000557J000557D01*
G01*
X040231D02*
G03*
X038887Y027909I-000787J0D01*
G01*
D02*
G03*
X037773Y027909I-000557J000557D01*
G01*
X044053D02*
G03*
X042709Y028465I-000557J000557D01*
G01*
X046511D02*
G03*
X045167Y027909I-000787J0D01*
G01*
D02*
G03*
X044053Y027909I-000557J000557D01*
G01*
X050333D02*
G03*
X048989Y028465I-000557J000557D01*
G01*
X052791D02*
G03*
X051447Y027909I-000787J0D01*
G01*
D02*
G03*
X050333Y027909I-000557J000557D01*
G01*
X056613D02*
G03*
X055269Y028465I-000557J000557D01*
G01*
X059071D02*
G03*
X057727Y027909I-000787J0D01*
G01*
D02*
G03*
X056613Y027909I-000557J000557D01*
G01*
X060399Y025454D02*
X066501D01*
Y032973D01*
X060399D02*
X066501D01*
X060399Y025454D02*
Y032973D01*
X065351Y028465D02*
X065812D01*
X061088D02*
X061549D01*
X06345Y026536D02*
Y029587D01*
X061088Y027324D02*
Y028465D01*
X065812Y027324D02*
Y028465D01*
X061619Y031595D02*
X062761D01*
X064198D02*
X065281D01*
X062958D02*
X06345Y029587D01*
X028999Y025454D02*
X035101D01*
Y032973D01*
X028999D02*
X035101D01*
X028999Y025454D02*
Y032973D01*
X033951Y028465D02*
X034412D01*
X029688D02*
X030149D01*
X03205Y026536D02*
Y029587D01*
X029688Y027324D02*
Y028465D01*
X034412Y027324D02*
Y028465D01*
X030219Y031595D02*
X031361D01*
X032798D02*
X033881D01*
X031558D02*
X03205Y029587D01*
X035279Y025454D02*
X041381D01*
Y032973D01*
X035279D02*
X041381D01*
X035279Y025454D02*
Y032973D01*
X040231Y028465D02*
X040692D01*
X035968D02*
X036429D01*
X03833Y026536D02*
Y029587D01*
X035968Y027324D02*
Y028465D01*
X040692Y027324D02*
Y028465D01*
X036499Y031595D02*
X037641D01*
X039078D02*
X040161D01*
X037838D02*
X03833Y029587D01*
X041559Y025454D02*
X047661D01*
Y032973D01*
X041559D02*
X047661D01*
X041559Y025454D02*
Y032973D01*
X046511Y028465D02*
X046972D01*
X042248D02*
X042709D01*
X04461Y026536D02*
Y029587D01*
X042248Y027324D02*
Y028465D01*
X046972Y027324D02*
Y028465D01*
X042779Y031595D02*
X043921D01*
X045358D02*
X046441D01*
X044118D02*
X04461Y029587D01*
X047839Y025454D02*
X053941D01*
Y032973D01*
X047839D02*
X053941D01*
X047839Y025454D02*
Y032973D01*
X052791Y028465D02*
X053252D01*
X048528D02*
X048989D01*
X05089Y026536D02*
Y029587D01*
X048528Y027324D02*
Y028465D01*
X053252Y027324D02*
Y028465D01*
X049059Y031595D02*
X050201D01*
X051638D02*
X052721D01*
X050398D02*
X05089Y029587D01*
X054119Y025454D02*
X060221D01*
Y032973D01*
X054119D02*
X060221D01*
X054119Y025454D02*
Y032973D01*
X059071Y028465D02*
X059532D01*
X054808D02*
X055269D01*
X05717Y026536D02*
Y029587D01*
X054808Y027324D02*
Y028465D01*
X059532Y027324D02*
Y028465D01*
X055339Y031595D02*
X056481D01*
X057918D02*
X059001D01*
X056678D02*
X05717Y029587D01*
X069981Y047566D02*
Y047094D01*
X070217D01*
X070295Y047173D01*
Y047488D01*
X070217Y047566D01*
X069981D01*
X070453D02*
Y047094D01*
Y04733D01*
X070768D01*
Y047566D01*
Y047094D01*
X070925Y047566D02*
X07124D01*
X071083D01*
Y047094D01*
X071398D02*
X071555D01*
X071476D01*
Y047566D01*
X071398Y047488D01*
X071791Y047094D02*
X071948D01*
X07187D01*
Y047566D01*
X071791Y047488D01*
D15*
X031279Y048863D02*
X031359D01*
X031279Y049183D02*
X031359D01*
X030789Y049253D02*
X031859D01*
Y048793D02*
Y049253D01*
X030789Y048793D02*
X031859D01*
X030789D02*
Y049253D01*
X063644Y043629D02*
Y043709D01*
X063324Y043629D02*
Y043709D01*
X063254Y043139D02*
Y044209D01*
X063714D01*
Y043139D02*
Y044209D01*
X063254Y043139D02*
X063714D01*
X06431Y043312D02*
X06439D01*
X06431Y043632D02*
X06439D01*
X06382Y043702D02*
X06489D01*
Y043242D02*
Y043702D01*
X06382Y043242D02*
X06489D01*
X06382D02*
Y043702D01*
X063644Y045204D02*
Y045284D01*
X063324Y045204D02*
Y045284D01*
X063254Y044714D02*
Y045784D01*
X063714D01*
Y044714D02*
Y045784D01*
X063254Y044714D02*
X063714D01*
X064319Y045378D02*
X064399D01*
X064319Y045698D02*
X064399D01*
X063829Y045768D02*
X064899D01*
Y045308D02*
Y045768D01*
X063829Y045308D02*
X064899D01*
X063829D02*
Y045768D01*
X063779Y048475D02*
X063859D01*
X063779Y048155D02*
X063859D01*
X063279Y048085D02*
X064349D01*
X063279D02*
Y048545D01*
X064349D01*
Y048085D02*
Y048545D01*
X063779Y047963D02*
X063859D01*
X063779Y047643D02*
X063859D01*
X063279Y047573D02*
X064349D01*
X063279D02*
Y048033D01*
X064349D01*
Y047573D02*
Y048033D01*
X063779Y04654D02*
X063859D01*
X063779Y04686D02*
X063859D01*
X063289Y04693D02*
X064359D01*
Y04647D02*
Y04693D01*
X063289Y04647D02*
X064359D01*
X063289D02*
Y04693D01*
X042782Y048471D02*
X043242D01*
X042782Y047401D02*
Y048471D01*
Y047401D02*
X043242D01*
Y048471D01*
X043172Y047901D02*
Y047981D01*
X042852Y047901D02*
Y047981D01*
X042231Y048471D02*
X042691D01*
X042231Y047401D02*
Y048471D01*
Y047401D02*
X042691D01*
Y048471D01*
X042621Y047901D02*
Y047981D01*
X042301Y047901D02*
Y047981D01*
X053271Y042556D02*
Y042636D01*
X05359Y042556D02*
Y042636D01*
X05366Y042056D02*
Y043126D01*
X0532Y042056D02*
X05366D01*
X0532D02*
Y043126D01*
X05366D01*
X055098Y050049D02*
X055178D01*
X055098Y049729D02*
X055178D01*
X054598Y049659D02*
X055668D01*
X054598D02*
Y050119D01*
X055668D01*
Y049659D02*
Y050119D01*
X054862Y04847D02*
X054942D01*
X054862Y04879D02*
X054942D01*
X054372Y04886D02*
X055442D01*
Y0484D02*
Y04886D01*
X054372Y0484D02*
X055442D01*
X054372D02*
Y04886D01*
X054862Y047977D02*
X054942D01*
X054862Y048297D02*
X054942D01*
X054372Y048367D02*
X055442D01*
Y047907D02*
Y048367D01*
X054372Y047907D02*
X055442D01*
X054372D02*
Y048367D01*
X054862Y047485D02*
X054942D01*
X054862Y047805D02*
X054942D01*
X054372Y047875D02*
X055442D01*
Y047415D02*
Y047875D01*
X054372Y047415D02*
X055442D01*
X054372D02*
Y047875D01*
X054862Y046993D02*
X054942D01*
X054862Y047313D02*
X054942D01*
X054372Y047383D02*
X055442D01*
Y046923D02*
Y047383D01*
X054372Y046923D02*
X055442D01*
X054372D02*
Y047383D01*
X054862Y046501D02*
X054942D01*
X054862Y046821D02*
X054942D01*
X054372Y046891D02*
X055442D01*
Y046431D02*
Y046891D01*
X054372Y046431D02*
X055442D01*
X054372D02*
Y046891D01*
X072442Y047179D02*
Y047639D01*
Y047179D02*
X073512D01*
Y047639D01*
X072442D02*
X073512D01*
X072932Y047569D02*
X073012D01*
X072932Y047249D02*
X073012D01*
X045799Y050691D02*
X046259D01*
Y051761D01*
X045799D02*
X046259D01*
X045799Y050691D02*
Y051761D01*
X045869Y051181D02*
Y051261D01*
X046189Y051181D02*
Y051261D01*
X045262Y050698D02*
X045722D01*
Y051768D01*
X045262D02*
X045722D01*
X045262Y050698D02*
Y051768D01*
X045332Y051188D02*
Y051268D01*
X045652Y051188D02*
Y051268D01*
X041374Y048839D02*
Y049299D01*
X040304D02*
X041374D01*
X040304Y048839D02*
Y049299D01*
Y048839D02*
X041374D01*
X040804Y048909D02*
X040884D01*
X040804Y049229D02*
X040884D01*
X032023Y03972D02*
Y04018D01*
X030953D02*
X032023D01*
X030953Y03972D02*
Y04018D01*
Y03972D02*
X032023D01*
X031453Y03979D02*
X031533D01*
X031453Y04011D02*
X031533D01*
X029892Y04512D02*
Y04558D01*
Y04512D02*
X030962D01*
Y04558D01*
X029892D02*
X030962D01*
X030382Y04551D02*
X030462D01*
X030382Y04519D02*
X030462D01*
X031042Y04512D02*
Y04558D01*
Y04512D02*
X032112D01*
Y04558D01*
X031042D02*
X032112D01*
X031532Y04551D02*
X031612D01*
X031532Y04519D02*
X031612D01*
X03038Y040183D02*
X03084D01*
X03038Y039113D02*
Y040183D01*
Y039113D02*
X03084D01*
Y040183D01*
X03077Y039613D02*
Y039693D01*
X03045Y039613D02*
Y039693D01*
X030953Y039127D02*
Y039587D01*
Y039127D02*
X032023D01*
Y039587D01*
X030953D02*
X032023D01*
X031443Y039517D02*
X031523D01*
X031443Y039197D02*
X031523D01*
X03048Y04432D02*
Y04478D01*
X02941D02*
X03048D01*
X02941Y04432D02*
Y04478D01*
Y04432D02*
X03048D01*
X02991Y04439D02*
X02999D01*
X02991Y04471D02*
X02999D01*
X031013Y04107D02*
Y04153D01*
Y04107D02*
X032083D01*
Y04153D01*
X031013D02*
X032083D01*
X031503Y04146D02*
X031583D01*
X031503Y04114D02*
X031583D01*
X030923Y04107D02*
Y04153D01*
X029853D02*
X030923D01*
X029853Y04107D02*
Y04153D01*
Y04107D02*
X030923D01*
X030353Y04114D02*
X030433D01*
X030353Y04146D02*
X030433D01*
X032192Y04512D02*
Y04558D01*
Y04512D02*
X033262D01*
Y04558D01*
X032192D02*
X033262D01*
X032682Y04551D02*
X032762D01*
X032682Y04519D02*
X032762D01*
X033291Y042001D02*
X033751D01*
Y043071D01*
X033291D02*
X033751D01*
X033291Y042001D02*
Y043071D01*
X033361Y042491D02*
Y042571D01*
X033681Y042491D02*
Y042571D01*
X031437Y035094D02*
Y035554D01*
Y035094D02*
X032507D01*
Y035554D01*
X031437D02*
X032507D01*
X031927Y035484D02*
X032007D01*
X031927Y035164D02*
X032007D01*
X039054Y049581D02*
Y050041D01*
X037984D02*
X039054D01*
X037984Y049581D02*
Y050041D01*
Y049581D02*
X039054D01*
X038484Y049651D02*
X038564D01*
X038484Y049971D02*
X038564D01*
X066022Y049581D02*
Y050041D01*
X064952D02*
X066022D01*
X064952Y049581D02*
Y050041D01*
Y049581D02*
X066022D01*
X065452Y049651D02*
X065532D01*
X065452Y049971D02*
X065532D01*
X037994Y050171D02*
Y050631D01*
Y050171D02*
X039064D01*
Y050631D01*
X037994D02*
X039064D01*
X038484Y050561D02*
X038564D01*
X038484Y050241D02*
X038564D01*
X037994Y050762D02*
Y051222D01*
Y050762D02*
X039064D01*
Y051222D01*
X037994D02*
X039064D01*
X038484Y051152D02*
X038564D01*
X038484Y050832D02*
X038564D01*
X064962Y050171D02*
Y050631D01*
Y050171D02*
X066032D01*
Y050631D01*
X064962D02*
X066032D01*
X065452Y050561D02*
X065532D01*
X065452Y050241D02*
X065532D01*
X064962Y050762D02*
Y051222D01*
Y050762D02*
X066032D01*
Y051222D01*
X064962D02*
X066032D01*
X065452Y051152D02*
X065532D01*
X065452Y050832D02*
X065532D01*
X061379Y050171D02*
Y050631D01*
Y050171D02*
X062449D01*
Y050631D01*
X061379D02*
X062449D01*
X061869Y050561D02*
X061949D01*
X061869Y050241D02*
X061949D01*
X061379Y050762D02*
Y051222D01*
Y050762D02*
X062449D01*
Y051222D01*
X061379D02*
X062449D01*
X061869Y051152D02*
X061949D01*
X061869Y050832D02*
X061949D01*
X06912Y044199D02*
X06958D01*
X06912Y043129D02*
Y044199D01*
Y043129D02*
X06958D01*
Y044199D01*
X06951Y043629D02*
Y043709D01*
X06919Y043629D02*
Y043709D01*
X070065Y044199D02*
X070525D01*
X070065Y043129D02*
Y044199D01*
Y043129D02*
X070525D01*
Y044199D01*
X070455Y043629D02*
Y043709D01*
X070135Y043629D02*
Y043709D01*
X06382Y0384D02*
Y03886D01*
Y0384D02*
X06489D01*
Y03886D01*
X06382D02*
X06489D01*
X06431Y03879D02*
X06439D01*
X06431Y03847D02*
X06439D01*
X059812Y036392D02*
Y036852D01*
X058742D02*
X059812D01*
X058742Y036392D02*
Y036852D01*
Y036392D02*
X059812D01*
X059242Y036462D02*
X059322D01*
X059242Y036782D02*
X059322D01*
X058742Y036903D02*
Y037363D01*
Y036903D02*
X059812D01*
Y037363D01*
X058742D02*
X059812D01*
X059232Y037293D02*
X059312D01*
X059232Y036973D02*
X059312D01*
X059802Y038085D02*
Y038545D01*
X058732D02*
X059802D01*
X058732Y038085D02*
Y038545D01*
Y038085D02*
X059802D01*
X059232Y038155D02*
X059312D01*
X059232Y038475D02*
X059312D01*
X059802Y038636D02*
Y039096D01*
X058732D02*
X059802D01*
X058732Y038636D02*
Y039096D01*
Y038636D02*
X059802D01*
X059232Y038706D02*
X059312D01*
X059232Y039026D02*
X059312D01*
X059802Y039148D02*
Y039608D01*
X058732D02*
X059802D01*
X058732Y039148D02*
Y039608D01*
Y039148D02*
X059802D01*
X059232Y039218D02*
X059312D01*
X059232Y039538D02*
X059312D01*
X052152Y041958D02*
X052612D01*
Y043028D01*
X052152D02*
X052612D01*
X052152Y041958D02*
Y043028D01*
X052222Y042448D02*
Y042528D01*
X052542Y042448D02*
Y042528D01*
X051469Y041956D02*
X051929D01*
Y043026D01*
X051469D02*
X051929D01*
X051469Y041956D02*
Y043026D01*
X051539Y042446D02*
Y042526D01*
X051859Y042446D02*
Y042526D01*
X050787Y041956D02*
X051247D01*
Y043026D01*
X050787D02*
X051247D01*
X050787Y041956D02*
Y043026D01*
X050857Y042446D02*
Y042526D01*
X051177Y042446D02*
Y042526D01*
X050105Y041956D02*
X050565D01*
Y043026D01*
X050105D02*
X050565D01*
X050105Y041956D02*
Y043026D01*
X050175Y042446D02*
Y042526D01*
X050495Y042446D02*
Y042526D01*
X049422Y041956D02*
X049882D01*
Y043026D01*
X049422D02*
X049882D01*
X049422Y041956D02*
Y043026D01*
X049492Y042446D02*
Y042526D01*
X049812Y042446D02*
Y042526D01*
X04874Y041956D02*
X0492D01*
Y043026D01*
X04874D02*
X0492D01*
X04874Y041956D02*
Y043026D01*
X04881Y042446D02*
Y042526D01*
X04913Y042446D02*
Y042526D01*
X048057Y041958D02*
X048517D01*
Y043028D01*
X048057D02*
X048517D01*
X048057Y041958D02*
Y043028D01*
X048127Y042448D02*
Y042528D01*
X048447Y042448D02*
Y042528D01*
X061512Y042701D02*
Y043161D01*
X060442D02*
X061512D01*
X060442Y042701D02*
Y043161D01*
Y042701D02*
X061512D01*
X060942Y042771D02*
X061022D01*
X060942Y043091D02*
X061022D01*
X060442Y043203D02*
Y043663D01*
Y043203D02*
X061512D01*
Y043663D01*
X060442D02*
X061512D01*
X060932Y043593D02*
X061012D01*
X060932Y043273D02*
X061012D01*
X060442Y043705D02*
Y044165D01*
Y043705D02*
X061512D01*
Y044165D01*
X060442D02*
X061512D01*
X060932Y044095D02*
X061012D01*
X060932Y043775D02*
X061012D01*
X061512Y044207D02*
Y044667D01*
X060442D02*
X061512D01*
X060442Y044207D02*
Y044667D01*
Y044207D02*
X061512D01*
X060942Y044277D02*
X061022D01*
X060942Y044597D02*
X061022D01*
X060932Y044779D02*
X061012D01*
X060932Y045099D02*
X061012D01*
X060442Y045169D02*
X061512D01*
Y044709D02*
Y045169D01*
X060442Y044709D02*
X061512D01*
X060442D02*
Y045169D01*
X0579Y048451D02*
X05836D01*
X0579Y047381D02*
Y048451D01*
Y047381D02*
X05836D01*
Y048451D01*
X05829Y047881D02*
Y047961D01*
X05797Y047881D02*
Y047961D01*
X057349Y048451D02*
X057809D01*
X057349Y047381D02*
Y048451D01*
Y047381D02*
X057809D01*
Y048451D01*
X057739Y047881D02*
Y047961D01*
X057419Y047881D02*
Y047961D01*
X056483Y045173D02*
X056563D01*
X056483Y045493D02*
X056563D01*
X055993Y045563D02*
X057063D01*
Y045103D02*
Y045563D01*
X055993Y045103D02*
X057063D01*
X055993D02*
Y045563D01*
X056483Y044661D02*
X056563D01*
X056483Y044981D02*
X056563D01*
X055993Y045051D02*
X057063D01*
Y044591D02*
Y045051D01*
X055993Y044591D02*
X057063D01*
X055993D02*
Y045051D01*
X056483Y044149D02*
X056563D01*
X056483Y044469D02*
X056563D01*
X055993Y044539D02*
X057063D01*
Y044079D02*
Y044539D01*
X055993Y044079D02*
X057063D01*
X055993D02*
Y044539D01*
X056483Y043637D02*
X056563D01*
X056483Y043957D02*
X056563D01*
X055993Y044027D02*
X057063D01*
Y043567D02*
Y044027D01*
X055993Y043567D02*
X057063D01*
X055993D02*
Y044027D01*
X059743Y042761D02*
X059823D01*
X059743Y043081D02*
X059823D01*
X059253Y043151D02*
X060323D01*
Y042691D02*
Y043151D01*
X059253Y042691D02*
X060323D01*
X059253D02*
Y043151D01*
X041121Y044296D02*
X041201D01*
X041121Y044616D02*
X041201D01*
X040631Y044686D02*
X041701D01*
Y044226D02*
Y044686D01*
X040631Y044226D02*
X041701D01*
X040631D02*
Y044686D01*
X042736Y043509D02*
X042816D01*
X042736Y043829D02*
X042816D01*
X042246Y043899D02*
X043316D01*
Y043439D02*
Y043899D01*
X042246Y043439D02*
X043316D01*
X042246D02*
Y043899D01*
X042736Y0428D02*
X042816D01*
X042736Y04312D02*
X042816D01*
X042246Y04319D02*
X043316D01*
Y04273D02*
Y04319D01*
X042246Y04273D02*
X043316D01*
X042246D02*
Y04319D01*
X040219Y043275D02*
Y043355D01*
X039899Y043275D02*
Y043355D01*
X039829Y042785D02*
Y043855D01*
X040289D01*
Y042785D02*
Y043855D01*
X039829Y042785D02*
X040289D01*
D16*
X031251Y040894D02*
X031431D01*
X031251Y040354D02*
X031431D01*
D17*
X053348Y044043D02*
X053839D01*
Y04433D01*
X046752Y044043D02*
X047242D01*
X046752D02*
Y04433D01*
Y051437D02*
Y054082D01*
X053839Y051437D02*
Y054082D01*
X046752D02*
X053839D01*
D18*
X069049Y050217D02*
X069003Y050263D01*
X068911D01*
X068865Y050217D01*
Y050034D01*
X068911Y049988D01*
X069003D01*
X069049Y050034D01*
Y050126D01*
X068957D01*
X06914Y049988D02*
Y050263D01*
X069324Y049988D01*
Y050263D01*
X069416D02*
Y049988D01*
X069554D01*
X0696Y050034D01*
Y050217D01*
X069554Y050263D01*
X069416D01*
X039029Y042665D02*
X038845D01*
Y042527D01*
X038937Y042573D01*
X038983D01*
X039029Y042527D01*
Y042435D01*
X038983Y042389D01*
X038891D01*
X038845Y042435D01*
X039121Y042665D02*
Y042481D01*
X039213Y042389D01*
X039304Y042481D01*
Y042665D01*
X072986Y049443D02*
X073038Y049496D01*
X073143D01*
X073196Y049443D01*
Y049391D01*
X073143Y049338D01*
X073091D01*
X073143D01*
X073196Y049286D01*
Y049233D01*
X073143Y049181D01*
X073038D01*
X072986Y049233D01*
X073301Y049496D02*
Y049286D01*
X073406Y049181D01*
X07351Y049286D01*
Y049496D01*
X073615Y049443D02*
X073668Y049496D01*
X073773D01*
X073825Y049443D01*
Y049391D01*
X073773Y049338D01*
X07372D01*
X073773D01*
X073825Y049286D01*
Y049233D01*
X073773Y049181D01*
X073668D01*
X073615Y049233D01*
X072001Y049496D02*
X071896D01*
X071844Y049443D01*
Y049233D01*
X071896Y049181D01*
X072001D01*
X072054Y049233D01*
Y049443D01*
X072001Y049496D01*
X072159D02*
Y049233D01*
X072211Y049181D01*
X072316D01*
X072369Y049233D01*
Y049496D01*
X072474D02*
X072684D01*
X072579D01*
Y049181D01*
X068885Y046878D02*
X069068D01*
X068976D01*
Y046602D01*
X06916Y046878D02*
X069344Y046602D01*
Y046878D02*
X06916Y046602D01*
X041739Y046215D02*
X041693Y046261D01*
Y046353D01*
X041739Y046399D01*
X041785D01*
X041831Y046353D01*
Y046307D01*
Y046353D01*
X041877Y046399D01*
X041923D01*
X041968Y046353D01*
Y046261D01*
X041923Y046215D01*
X041693Y04649D02*
X041877D01*
X041968Y046582D01*
X041877Y046674D01*
X041693D01*
X041739Y046766D02*
X041693Y046812D01*
Y046904D01*
X041739Y04695D01*
X041785D01*
X041831Y046904D01*
Y046858D01*
Y046904D01*
X041877Y04695D01*
X041923D01*
X041968Y046904D01*
Y046812D01*
X041923Y046766D01*
X068885Y04798D02*
Y048255D01*
X069022D01*
X069068Y04821D01*
Y048118D01*
X069022Y048072D01*
X068885D01*
X068976D02*
X069068Y04798D01*
X06916Y048255D02*
X069344Y04798D01*
Y048255D02*
X06916Y04798D01*
X06064Y049633D02*
X060732D01*
X060686D01*
Y049358D01*
X06064D01*
X060732D01*
X061007Y049633D02*
X060915D01*
X060869Y049587D01*
Y049404D01*
X060915Y049358D01*
X061007D01*
X061053Y049404D01*
Y049587D01*
X061007Y049633D01*
X061283Y049358D02*
Y049633D01*
X061145Y049496D01*
X061329D01*
X061604Y049358D02*
X061421D01*
X061604Y049542D01*
Y049587D01*
X061558Y049633D01*
X061466D01*
X061421Y049587D01*
X060646Y047271D02*
X060738D01*
X060692D01*
Y046996D01*
X060646D01*
X060738D01*
X061014Y047271D02*
X060922D01*
X060876Y047225D01*
Y047042D01*
X060922Y046996D01*
X061014D01*
X06106Y047042D01*
Y047225D01*
X061014Y047271D01*
X061289Y046996D02*
Y047271D01*
X061152Y047133D01*
X061335D01*
X061427Y046996D02*
X061519D01*
X061473D01*
Y047271D01*
X061427Y047225D01*
X070085Y049404D02*
X070033Y049456D01*
X069928D01*
X069875Y049404D01*
Y049194D01*
X069928Y049141D01*
X070033D01*
X070085Y049194D01*
Y049299D01*
X06998D01*
X07019Y049141D02*
Y049456D01*
X0704Y049141D01*
Y049456D01*
X070505D02*
Y049141D01*
X070663D01*
X070715Y049194D01*
Y049404D01*
X070663Y049456D01*
X070505D01*
X043038Y04443D02*
X043084Y044476D01*
X043176D01*
X043222Y04443D01*
Y044384D01*
X043176Y044338D01*
X04313D01*
X043176D01*
X043222Y044292D01*
Y044246D01*
X043176Y0442D01*
X043084D01*
X043038Y044246D01*
X043314Y044476D02*
Y044292D01*
X043406Y0442D01*
X043497Y044292D01*
Y044476D01*
X043589Y04443D02*
X043635Y044476D01*
X043727D01*
X043773Y04443D01*
Y044384D01*
X043727Y044338D01*
X043681D01*
X043727D01*
X043773Y044292D01*
Y044246D01*
X043727Y0442D01*
X043635D01*
X043589Y044246D01*
X068904Y045887D02*
X06895Y045933D01*
X069042D01*
X069088Y045887D01*
Y045841D01*
X069042Y045795D01*
X068996D01*
X069042D01*
X069088Y045749D01*
Y045703D01*
X069042Y045657D01*
X06895D01*
X068904Y045703D01*
X06918Y045933D02*
Y045749D01*
X069272Y045657D01*
X069363Y045749D01*
Y045933D01*
X069455Y045887D02*
X069501Y045933D01*
X069593D01*
X069639Y045887D01*
Y045841D01*
X069593Y045795D01*
X069547D01*
X069593D01*
X069639Y045749D01*
Y045703D01*
X069593Y045657D01*
X069501D01*
X069455Y045703D01*
X069127Y044902D02*
X069081Y044948D01*
X06899D01*
X068944Y044902D01*
Y044719D01*
X06899Y044673D01*
X069081D01*
X069127Y044719D01*
Y044811D01*
X069036D01*
X069219Y044673D02*
Y044948D01*
X069403Y044673D01*
Y044948D01*
X069495D02*
Y044673D01*
X069632D01*
X069678Y044719D01*
Y044902D01*
X069632Y044948D01*
X069495D01*
X068865Y049194D02*
X068911Y04924D01*
X069003D01*
X069049Y049194D01*
Y049148D01*
X069003Y049102D01*
X068957D01*
X069003D01*
X069049Y049056D01*
Y04901D01*
X069003Y048964D01*
X068911D01*
X068865Y04901D01*
X06914Y04924D02*
Y049056D01*
X069232Y048964D01*
X069324Y049056D01*
Y04924D01*
X069416Y049194D02*
X069462Y04924D01*
X069554D01*
X0696Y049194D01*
Y049148D01*
X069554Y049102D01*
X069508D01*
X069554D01*
X0696Y049056D01*
Y04901D01*
X069554Y048964D01*
X069462D01*
X069416Y04901D01*
X065413Y045165D02*
X065728D01*
X065413Y045375D02*
X065623Y045165D01*
X065548Y04524D02*
X065728Y045375D01*
X05646Y038773D02*
Y039043D01*
X056594Y038908D02*
X056325D01*
X053583Y038849D02*
X053313D01*
X029849Y048846D02*
Y049122D01*
X029987D01*
X030033Y049076D01*
Y048984D01*
X029987Y048938D01*
X029849D01*
X029941D02*
X030033Y048846D01*
X030308Y049122D02*
X030217Y049076D01*
X030125Y048984D01*
Y048892D01*
X030171Y048846D01*
X030262D01*
X030308Y048892D01*
Y048938D01*
X030262Y048984D01*
X030125D01*
X0304Y049122D02*
X030584D01*
Y049076D01*
X0304Y048892D01*
Y048846D01*
X029793Y04983D02*
Y049555D01*
X029931D01*
X029977Y049601D01*
Y049784D01*
X029931Y04983D01*
X029793D01*
X030069Y049555D02*
X030161D01*
X030115D01*
Y04983D01*
X030069Y049784D01*
X030482Y04983D02*
X030299D01*
Y049693D01*
X03039Y049738D01*
X030436D01*
X030482Y049693D01*
Y049601D01*
X030436Y049555D01*
X030344D01*
X030299Y049601D01*
X06496Y049695D02*
Y049432D01*
X065012Y04938D01*
X065117D01*
X06517Y049432D01*
Y049695D01*
X065275Y04938D02*
X06538D01*
X065327D01*
Y049695D01*
X065275Y049642D01*
X065747Y04938D02*
X065537D01*
X065747Y04959D01*
Y049642D01*
X065695Y049695D01*
X06559D01*
X065537Y049642D01*
X062277Y046543D02*
Y046858D01*
X062434D01*
X062487Y046805D01*
Y0467D01*
X062434Y046648D01*
X062277D01*
X062382D02*
X062487Y046543D01*
X062802Y046858D02*
X062697Y046805D01*
X062592Y0467D01*
Y046595D01*
X062644Y046543D01*
X062749D01*
X062802Y046595D01*
Y046648D01*
X062749Y0467D01*
X062592D01*
X063117Y046858D02*
X063012Y046805D01*
X062907Y0467D01*
Y046595D01*
X062959Y046543D01*
X063064D01*
X063117Y046595D01*
Y046648D01*
X063064Y0467D01*
X062907D01*
X062277Y047645D02*
Y04796D01*
X062434D01*
X062487Y047908D01*
Y047803D01*
X062434Y04775D01*
X062277D01*
X062382D02*
X062487Y047645D01*
X062802Y04796D02*
X062697Y047908D01*
X062592Y047803D01*
Y047698D01*
X062644Y047645D01*
X062749D01*
X062802Y047698D01*
Y04775D01*
X062749Y047803D01*
X062592D01*
X063117Y04796D02*
X062907D01*
Y047803D01*
X063012Y047855D01*
X063064D01*
X063117Y047803D01*
Y047698D01*
X063064Y047645D01*
X062959D01*
X062907Y047698D01*
X06397Y042803D02*
Y043118D01*
X064127D01*
X06418Y043065D01*
Y04296D01*
X064127Y042908D01*
X06397D01*
X064075D02*
X06418Y042803D01*
X064495Y043118D02*
X06439Y043065D01*
X064285Y04296D01*
Y042855D01*
X064337Y042803D01*
X064442D01*
X064495Y042855D01*
Y042908D01*
X064442Y04296D01*
X064285D01*
X064757Y042803D02*
Y043118D01*
X0646Y04296D01*
X06481D01*
X063091Y044863D02*
X062776D01*
Y045021D01*
X062828Y045073D01*
X062933D01*
X062986Y045021D01*
Y044863D01*
Y044968D02*
X063091Y045073D01*
X062776Y045388D02*
X062828Y045283D01*
X062933Y045178D01*
X063038D01*
X063091Y045231D01*
Y045336D01*
X063038Y045388D01*
X062986D01*
X062933Y045336D01*
Y045178D01*
X062828Y045493D02*
X062776Y045545D01*
Y04565D01*
X062828Y045703D01*
X062881D01*
X062933Y04565D01*
Y045598D01*
Y04565D01*
X062986Y045703D01*
X063038D01*
X063091Y04565D01*
Y045545D01*
X063038Y045493D01*
X06397Y045952D02*
Y046267D01*
X064127D01*
X06418Y046215D01*
Y04611D01*
X064127Y046057D01*
X06397D01*
X064075D02*
X06418Y045952D01*
X064495Y046267D02*
X06439Y046215D01*
X064285Y04611D01*
Y046005D01*
X064337Y045952D01*
X064442D01*
X064495Y046005D01*
Y046057D01*
X064442Y04611D01*
X064285D01*
X06481Y045952D02*
X0646D01*
X06481Y046162D01*
Y046215D01*
X064757Y046267D01*
X064652D01*
X0646Y046215D01*
X064377Y044391D02*
Y044601D01*
X064324Y044653D01*
X064219D01*
X064167Y044601D01*
Y044391D01*
X064219Y044338D01*
X064324D01*
X064272Y044443D02*
X064377Y044338D01*
X064324D02*
X064377Y044391D01*
X064639Y044338D02*
Y044653D01*
X064482Y044496D01*
X064692D01*
X053366Y043669D02*
X053471D01*
X053419D01*
Y043354D01*
X053366D01*
X053471D01*
X053786Y043669D02*
X053681D01*
X053629Y043616D01*
Y043406D01*
X053681Y043354D01*
X053786D01*
X053839Y043406D01*
Y043616D01*
X053786Y043669D01*
X054101Y043354D02*
Y043669D01*
X053944Y043511D01*
X054153D01*
X054258Y043616D02*
X054311Y043669D01*
X054416D01*
X054468Y043616D01*
Y043564D01*
X054416Y043511D01*
X054468Y043459D01*
Y043406D01*
X054416Y043354D01*
X054311D01*
X054258Y043406D01*
Y043459D01*
X054311Y043511D01*
X054258Y043564D01*
Y043616D01*
X054311Y043511D02*
X054416D01*
X062264Y047409D02*
Y047094D01*
X062421D01*
X062474Y047147D01*
Y047357D01*
X062421Y047409D01*
X062264D01*
X062579Y047094D02*
X062684D01*
X062631D01*
Y047409D01*
X062579Y047357D01*
X062999Y047094D02*
Y047409D01*
X062841Y047252D01*
X063051D01*
X065689Y043433D02*
Y043118D01*
X065847D01*
X065899Y04317D01*
Y04338D01*
X065847Y043433D01*
X065689D01*
X066004Y043118D02*
X066109D01*
X066056D01*
Y043433D01*
X066004Y04338D01*
X066266D02*
X066319Y043433D01*
X066424D01*
X066476Y04338D01*
Y043328D01*
X066424Y043275D01*
X066371D01*
X066424D01*
X066476Y043223D01*
Y04317D01*
X066424Y043118D01*
X066319D01*
X066266Y04317D01*
X062487Y04842D02*
X062434Y048472D01*
X06233D01*
X062277Y04842D01*
Y04821D01*
X06233Y048157D01*
X062434D01*
X062487Y04821D01*
X062802Y048157D02*
X062592D01*
X062802Y048367D01*
Y04842D01*
X062749Y048472D01*
X062644D01*
X062592Y04842D01*
X063117Y048472D02*
X062907D01*
Y048315D01*
X063012Y048367D01*
X063064D01*
X063117Y048315D01*
Y04821D01*
X063064Y048157D01*
X062959D01*
X062907Y04821D01*
X062828Y043498D02*
X062776Y043446D01*
Y043341D01*
X062828Y043288D01*
X063038D01*
X063091Y043341D01*
Y043446D01*
X063038Y043498D01*
X063091Y043813D02*
Y043603D01*
X062881Y043813D01*
X062828D01*
X062776Y043761D01*
Y043656D01*
X062828Y043603D01*
X063091Y044076D02*
X062776D01*
X062933Y043918D01*
Y044128D01*
X053273Y041861D02*
X053588D01*
Y041703D01*
X053535Y041651D01*
X053431D01*
X053378Y041703D01*
Y041861D01*
Y041756D02*
X053273Y041651D01*
X053588Y041336D02*
X053535Y041441D01*
X053431Y041546D01*
X053326D01*
X053273Y041494D01*
Y041389D01*
X053326Y041336D01*
X053378D01*
X053431Y041389D01*
Y041546D01*
X053273Y041231D02*
Y041126D01*
Y041179D01*
X053588D01*
X053535Y041231D01*
X055742Y048472D02*
Y048787D01*
X055899D01*
X055952Y048734D01*
Y04863D01*
X055899Y048577D01*
X055742D01*
X055847D02*
X055952Y048472D01*
X056266Y048787D02*
X056161Y048734D01*
X056056Y04863D01*
Y048525D01*
X056109Y048472D01*
X056214D01*
X056266Y048525D01*
Y048577D01*
X056214Y04863D01*
X056056D01*
X056371Y048734D02*
X056424Y048787D01*
X056529D01*
X056581Y048734D01*
Y048525D01*
X056529Y048472D01*
X056424D01*
X056371Y048525D01*
Y048734D01*
X055742Y04798D02*
Y048295D01*
X055899D01*
X055952Y048242D01*
Y048137D01*
X055899Y048085D01*
X055742D01*
X055847D02*
X055952Y04798D01*
X056266Y048295D02*
X056056D01*
Y048137D01*
X056161Y04819D01*
X056214D01*
X056266Y048137D01*
Y048032D01*
X056214Y04798D01*
X056109D01*
X056056Y048032D01*
X056371D02*
X056424Y04798D01*
X056529D01*
X056581Y048032D01*
Y048242D01*
X056529Y048295D01*
X056424D01*
X056371Y048242D01*
Y04819D01*
X056424Y048137D01*
X056581D01*
X055742Y047488D02*
Y047803D01*
X055899D01*
X055952Y04775D01*
Y047645D01*
X055899Y047593D01*
X055742D01*
X055847D02*
X055952Y047488D01*
X056266Y047803D02*
X056056D01*
Y047645D01*
X056161Y047698D01*
X056214D01*
X056266Y047645D01*
Y04754D01*
X056214Y047488D01*
X056109D01*
X056056Y04754D01*
X056371Y04775D02*
X056424Y047803D01*
X056529D01*
X056581Y04775D01*
Y047698D01*
X056529Y047645D01*
X056581Y047593D01*
Y04754D01*
X056529Y047488D01*
X056424D01*
X056371Y04754D01*
Y047593D01*
X056424Y047645D01*
X056371Y047698D01*
Y04775D01*
X056424Y047645D02*
X056529D01*
X055742Y046996D02*
Y047311D01*
X055899D01*
X055952Y047258D01*
Y047153D01*
X055899Y047101D01*
X055742D01*
X055847D02*
X055952Y046996D01*
X056266Y047311D02*
X056056D01*
Y047153D01*
X056161Y047206D01*
X056214D01*
X056266Y047153D01*
Y047048D01*
X056214Y046996D01*
X056109D01*
X056056Y047048D01*
X056371Y047311D02*
X056581D01*
Y047258D01*
X056371Y047048D01*
Y046996D01*
X055742Y046504D02*
Y046818D01*
X055899D01*
X055952Y046766D01*
Y046661D01*
X055899Y046609D01*
X055742D01*
X055847D02*
X055952Y046504D01*
X056266Y046818D02*
X056056D01*
Y046661D01*
X056161Y046714D01*
X056214D01*
X056266Y046661D01*
Y046556D01*
X056214Y046504D01*
X056109D01*
X056056Y046556D01*
X056581Y046818D02*
X056476Y046766D01*
X056371Y046661D01*
Y046556D01*
X056424Y046504D01*
X056529D01*
X056581Y046556D01*
Y046609D01*
X056529Y046661D01*
X056371D01*
X054679Y050204D02*
Y050519D01*
X054836D01*
X054889Y050467D01*
Y050362D01*
X054836Y050309D01*
X054679D01*
X054784D02*
X054889Y050204D01*
X055203Y050519D02*
X054993D01*
Y050362D01*
X055098Y050414D01*
X055151D01*
X055203Y050362D01*
Y050257D01*
X055151Y050204D01*
X055046D01*
X054993Y050257D01*
X055518Y050519D02*
X055308D01*
Y050362D01*
X055413Y050414D01*
X055466D01*
X055518Y050362D01*
Y050257D01*
X055466Y050204D01*
X055361D01*
X055308Y050257D01*
X054784Y052448D02*
X054889D01*
X054836D01*
Y052134D01*
X054784D01*
X054889D01*
X055203Y052448D02*
X055098D01*
X055046Y052396D01*
Y052186D01*
X055098Y052134D01*
X055203D01*
X055256Y052186D01*
Y052396D01*
X055203Y052448D01*
X055571Y052134D02*
X055361D01*
X055571Y052343D01*
Y052396D01*
X055518Y052448D01*
X055413D01*
X055361Y052396D01*
X032762Y047396D02*
X03271Y047448D01*
X032605D01*
X032553Y047396D01*
Y047186D01*
X032605Y047134D01*
X03271D01*
X032762Y047186D01*
X033077Y047448D02*
X032972Y047396D01*
X032867Y047291D01*
Y047186D01*
X03292Y047134D01*
X033025D01*
X033077Y047186D01*
Y047238D01*
X033025Y047291D01*
X032867D01*
X061608Y044811D02*
Y045126D01*
X061765D01*
X061818Y045073D01*
Y044968D01*
X061765Y044916D01*
X061608D01*
X061713D02*
X061818Y044811D01*
X062133Y045126D02*
X061923D01*
Y044968D01*
X062028Y045021D01*
X06208D01*
X062133Y044968D01*
Y044863D01*
X06208Y044811D01*
X061975D01*
X061923Y044863D01*
X062395Y044811D02*
Y045126D01*
X062237Y044968D01*
X062447D01*
X051198Y023507D02*
X051093D01*
X051145D01*
Y023245D01*
X051093Y023193D01*
X05104D01*
X050988Y023245D01*
X051302D02*
X051355Y023193D01*
X05146D01*
X051512Y023245D01*
Y023455D01*
X05146Y023507D01*
X051355D01*
X051302Y023455D01*
Y023402D01*
X051355Y02335D01*
X051512D01*
X033298Y023557D02*
X033193D01*
X033245D01*
Y023295D01*
X033193Y023243D01*
X03314D01*
X033088Y023295D01*
X033402Y023505D02*
X033455Y023557D01*
X03356D01*
X033612Y023505D01*
Y023452D01*
X03356Y0234D01*
X033612Y023348D01*
Y023295D01*
X03356Y023243D01*
X033455D01*
X033402Y023295D01*
Y023348D01*
X033455Y0234D01*
X033402Y023452D01*
Y023505D01*
X033455Y0234D02*
X03356D01*
X04271Y052605D02*
X042605D01*
X042657D01*
Y052343D01*
X042605Y05229D01*
X042552D01*
X0425Y052343D01*
X042815Y052553D02*
X042867Y052605D01*
X042972D01*
X043025Y052553D01*
Y0525D01*
X042972Y052448D01*
X04292D01*
X042972D01*
X043025Y052395D01*
Y052343D01*
X042972Y05229D01*
X042867D01*
X042815Y052343D01*
X05783Y052605D02*
X057725D01*
X057777D01*
Y052342D01*
X057725Y05229D01*
X057672D01*
X05762Y052342D01*
X058145Y05229D02*
X057935D01*
X058145Y0525D01*
Y052552D01*
X058092Y052605D01*
X057987D01*
X057935Y052552D01*
X042474Y050734D02*
Y050419D01*
X042631D01*
X042684Y050472D01*
Y050682D01*
X042631Y050734D01*
X042474D01*
X042999D02*
X042894Y050682D01*
X042789Y050577D01*
Y050472D01*
X042841Y050419D01*
X042946D01*
X042999Y050472D01*
Y050524D01*
X042946Y050577D01*
X042789D01*
X057592Y050677D02*
Y050362D01*
X057749D01*
X057802Y050414D01*
Y050624D01*
X057749Y050677D01*
X057592D01*
X058064Y050362D02*
Y050677D01*
X057907Y050519D01*
X058117D01*
X05836Y044775D02*
Y044512D01*
X058412Y04446D01*
X058517D01*
X05857Y044512D01*
Y044775D01*
X058885Y044722D02*
X058832Y044775D01*
X058727D01*
X058675Y044722D01*
Y04467D01*
X058727Y044617D01*
X058832D01*
X058885Y044565D01*
Y044512D01*
X058832Y04446D01*
X058727D01*
X058675Y044512D01*
X05899Y04446D02*
X059095D01*
X059042D01*
Y044775D01*
X05899Y044722D01*
X061371Y039574D02*
Y039312D01*
X061424Y03926D01*
X061529D01*
X061581Y039312D01*
Y039574D01*
X061686Y03926D02*
X061791D01*
X061739D01*
Y039574D01*
X061686Y039522D01*
X061949Y03926D02*
X062054D01*
X062001D01*
Y039574D01*
X061949Y039522D01*
X04991Y049125D02*
Y048862D01*
X049962Y04881D01*
X050067D01*
X05012Y048862D01*
Y049125D01*
X050382Y04881D02*
Y049125D01*
X050225Y048967D01*
X050435D01*
X04106Y043535D02*
Y043272D01*
X041112Y04322D01*
X041217D01*
X04127Y043272D01*
Y043535D01*
X041375Y043482D02*
X041427Y043535D01*
X041532D01*
X041585Y043482D01*
Y04343D01*
X041532Y043377D01*
X04148D01*
X041532D01*
X041585Y043325D01*
Y043272D01*
X041532Y04322D01*
X041427D01*
X041375Y043272D01*
X038064Y048984D02*
Y048721D01*
X038117Y048669D01*
X038222D01*
X038274Y048721D01*
Y048984D01*
X038589Y048669D02*
X038379D01*
X038589Y048879D01*
Y048931D01*
X038537Y048984D01*
X038432D01*
X038379Y048931D01*
X033057Y04371D02*
X032795D01*
X032743Y043657D01*
Y043552D01*
X032795Y0435D01*
X033057D01*
X032743Y043395D02*
Y04329D01*
Y043343D01*
X033057D01*
X033005Y043395D01*
X042041Y045086D02*
X042251D01*
X042146D01*
Y044771D01*
X042356D02*
Y045086D01*
X042513D01*
X042566Y045034D01*
Y044929D01*
X042513Y044876D01*
X042356D01*
X042828Y044771D02*
Y045086D01*
X042671Y044929D01*
X04288D01*
X040781Y045952D02*
X040991D01*
X040886D01*
Y045637D01*
X041096D02*
Y045952D01*
X041253D01*
X041306Y0459D01*
Y045795D01*
X041253Y045742D01*
X041096D01*
X041411Y0459D02*
X041463Y045952D01*
X041568D01*
X041621Y0459D01*
Y045847D01*
X041568Y045795D01*
X041516D01*
X041568D01*
X041621Y045742D01*
Y04569D01*
X041568Y045637D01*
X041463D01*
X041411Y04569D01*
X037907Y043462D02*
X038117D01*
X038012D01*
Y043147D01*
X038222D02*
Y043462D01*
X038379D01*
X038432Y043409D01*
Y043304D01*
X038379Y043252D01*
X038222D01*
X038747Y043147D02*
X038537D01*
X038747Y043357D01*
Y043409D01*
X038694Y043462D01*
X038589D01*
X038537Y043409D01*
X06956Y03395D02*
Y034265D01*
X069717D01*
X06977Y034212D01*
Y034107D01*
X069717Y034055D01*
X06956D01*
X069665D02*
X06977Y03395D01*
X070085Y034212D02*
X070032Y034265D01*
X069927D01*
X069875Y034212D01*
Y03416D01*
X069927Y034107D01*
X070032D01*
X070085Y034055D01*
Y034002D01*
X070032Y03395D01*
X069927D01*
X069875Y034002D01*
X07019Y03395D02*
X070295D01*
X070242D01*
Y034265D01*
X07019Y034212D01*
X06303Y02906D02*
Y029375D01*
X063187D01*
X06324Y029322D01*
Y029217D01*
X063187Y029165D01*
X06303D01*
X063135D02*
X06324Y02906D01*
X063345Y029375D02*
Y02906D01*
X063555D01*
X06387Y029375D02*
X063765Y029322D01*
X06366Y029217D01*
Y029112D01*
X063712Y02906D01*
X063817D01*
X06387Y029112D01*
Y029165D01*
X063817Y029217D01*
X06366D01*
X05675Y02906D02*
Y029375D01*
X056907D01*
X05696Y029322D01*
Y029217D01*
X056907Y029165D01*
X05675D01*
X056855D02*
X05696Y02906D01*
X057065Y029375D02*
Y02906D01*
X057275D01*
X05759Y029375D02*
X05738D01*
Y029217D01*
X057485Y02927D01*
X057537D01*
X05759Y029217D01*
Y029112D01*
X057537Y02906D01*
X057432D01*
X05738Y029112D01*
X05047Y02906D02*
Y029375D01*
X050627D01*
X05068Y029322D01*
Y029217D01*
X050627Y029165D01*
X05047D01*
X050575D02*
X05068Y02906D01*
X050785Y029375D02*
Y02906D01*
X050995D01*
X051257D02*
Y029375D01*
X0511Y029217D01*
X05131D01*
X04419Y02906D02*
Y029375D01*
X044347D01*
X0444Y029322D01*
Y029217D01*
X044347Y029165D01*
X04419D01*
X044295D02*
X0444Y02906D01*
X044505Y029375D02*
Y02906D01*
X044715D01*
X04482Y029322D02*
X044872Y029375D01*
X044977D01*
X04503Y029322D01*
Y02927D01*
X044977Y029217D01*
X044925D01*
X044977D01*
X04503Y029165D01*
Y029112D01*
X044977Y02906D01*
X044872D01*
X04482Y029112D01*
X03791Y02906D02*
Y029375D01*
X038067D01*
X03812Y029322D01*
Y029217D01*
X038067Y029165D01*
X03791D01*
X038015D02*
X03812Y02906D01*
X038225Y029375D02*
Y02906D01*
X038435D01*
X03875D02*
X03854D01*
X03875Y02927D01*
Y029322D01*
X038697Y029375D01*
X038592D01*
X03854Y029322D01*
X03168Y02906D02*
Y029375D01*
X031837D01*
X03189Y029322D01*
Y029217D01*
X031837Y029165D01*
X03168D01*
X031785D02*
X03189Y02906D01*
X031995Y029375D02*
Y02906D01*
X032205D01*
X03231D02*
X032415D01*
X032362D01*
Y029375D01*
X03231Y029322D01*
X057631Y037015D02*
Y03733D01*
X057789D01*
X057841Y037278D01*
Y037173D01*
X057789Y03712D01*
X057631D01*
X057736D02*
X057841Y037015D01*
X058156Y03733D02*
X057946D01*
Y037173D01*
X058051Y037225D01*
X058104D01*
X058156Y037173D01*
Y037068D01*
X058104Y037015D01*
X057999D01*
X057946Y037068D01*
X058261Y037278D02*
X058314Y03733D01*
X058419D01*
X058471Y037278D01*
Y037225D01*
X058419Y037173D01*
X058366D01*
X058419D01*
X058471Y03712D01*
Y037068D01*
X058419Y037015D01*
X058314D01*
X058261Y037068D01*
X057631Y036543D02*
Y036858D01*
X057789D01*
X057841Y036805D01*
Y0367D01*
X057789Y036648D01*
X057631D01*
X057736D02*
X057841Y036543D01*
X058156Y036858D02*
X057946D01*
Y0367D01*
X058051Y036753D01*
X058104D01*
X058156Y0367D01*
Y036595D01*
X058104Y036543D01*
X057999D01*
X057946Y036595D01*
X058471Y036543D02*
X058261D01*
X058471Y036753D01*
Y036805D01*
X058419Y036858D01*
X058314D01*
X058261Y036805D01*
X072605Y0467D02*
Y047015D01*
X072763D01*
X072815Y046963D01*
Y046858D01*
X072763Y046805D01*
X072605D01*
X07271D02*
X072815Y0467D01*
X073077D02*
Y047015D01*
X07292Y046858D01*
X07313D01*
X073235Y0467D02*
X07334D01*
X073287D01*
Y047015D01*
X073235Y046963D01*
X052234Y041763D02*
X052548D01*
Y041606D01*
X052496Y041553D01*
X052391D01*
X052338Y041606D01*
Y041763D01*
Y041658D02*
X052234Y041553D01*
X052496Y041448D02*
X052548Y041396D01*
Y041291D01*
X052496Y041239D01*
X052443D01*
X052391Y041291D01*
Y041343D01*
Y041291D01*
X052338Y041239D01*
X052286D01*
X052234Y041291D01*
Y041396D01*
X052286Y041448D01*
X052496Y041134D02*
X052548Y041081D01*
Y040976D01*
X052496Y040924D01*
X052443D01*
X052391Y040976D01*
X052338Y040924D01*
X052286D01*
X052234Y040976D01*
Y041081D01*
X052286Y041134D01*
X052338D01*
X052391Y041081D01*
X052443Y041134D01*
X052496D01*
X052391Y041081D02*
Y040976D01*
X051545Y041763D02*
X051859D01*
Y041606D01*
X051807Y041553D01*
X051702D01*
X05165Y041606D01*
Y041763D01*
Y041658D02*
X051545Y041553D01*
X051807Y041448D02*
X051859Y041396D01*
Y041291D01*
X051807Y041239D01*
X051754D01*
X051702Y041291D01*
Y041343D01*
Y041291D01*
X05165Y041239D01*
X051597D01*
X051545Y041291D01*
Y041396D01*
X051597Y041448D01*
X051859Y041134D02*
Y040924D01*
X051807D01*
X051597Y041134D01*
X051545D01*
X050856Y041763D02*
X05117D01*
Y041606D01*
X051118Y041553D01*
X051013D01*
X050961Y041606D01*
Y041763D01*
Y041658D02*
X050856Y041553D01*
X051118Y041448D02*
X05117Y041396D01*
Y041291D01*
X051118Y041239D01*
X051065D01*
X051013Y041291D01*
Y041343D01*
Y041291D01*
X050961Y041239D01*
X050908D01*
X050856Y041291D01*
Y041396D01*
X050908Y041448D01*
X05117Y040924D02*
X051118Y041029D01*
X051013Y041134D01*
X050908D01*
X050856Y041081D01*
Y040976D01*
X050908Y040924D01*
X050961D01*
X051013Y040976D01*
Y041134D01*
X050167Y041763D02*
X050481D01*
Y041606D01*
X050429Y041553D01*
X050324D01*
X050272Y041606D01*
Y041763D01*
Y041658D02*
X050167Y041553D01*
X050429Y041448D02*
X050481Y041396D01*
Y041291D01*
X050429Y041239D01*
X050377D01*
X050324Y041291D01*
Y041343D01*
Y041291D01*
X050272Y041239D01*
X050219D01*
X050167Y041291D01*
Y041396D01*
X050219Y041448D01*
X050481Y040924D02*
Y041134D01*
X050324D01*
X050377Y041029D01*
Y040976D01*
X050324Y040924D01*
X050219D01*
X050167Y040976D01*
Y041081D01*
X050219Y041134D01*
X049478Y041763D02*
X049792D01*
Y041606D01*
X04974Y041553D01*
X049635D01*
X049583Y041606D01*
Y041763D01*
Y041658D02*
X049478Y041553D01*
X04974Y041448D02*
X049792Y041396D01*
Y041291D01*
X04974Y041239D01*
X049688D01*
X049635Y041291D01*
Y041343D01*
Y041291D01*
X049583Y041239D01*
X04953D01*
X049478Y041291D01*
Y041396D01*
X04953Y041448D01*
X049478Y040976D02*
X049792D01*
X049635Y041134D01*
Y040924D01*
X048789Y041763D02*
X049104D01*
Y041606D01*
X049051Y041553D01*
X048946D01*
X048894Y041606D01*
Y041763D01*
Y041658D02*
X048789Y041553D01*
X049051Y041448D02*
X049104Y041396D01*
Y041291D01*
X049051Y041239D01*
X048999D01*
X048946Y041291D01*
Y041343D01*
Y041291D01*
X048894Y041239D01*
X048841D01*
X048789Y041291D01*
Y041396D01*
X048841Y041448D01*
X049051Y041134D02*
X049104Y041081D01*
Y040976D01*
X049051Y040924D01*
X048999D01*
X048946Y040976D01*
Y041029D01*
Y040976D01*
X048894Y040924D01*
X048841D01*
X048789Y040976D01*
Y041081D01*
X048841Y041134D01*
X0481Y041763D02*
X048415D01*
Y041606D01*
X048362Y041553D01*
X048257D01*
X048205Y041606D01*
Y041763D01*
Y041658D02*
X0481Y041553D01*
X048362Y041448D02*
X048415Y041396D01*
Y041291D01*
X048362Y041239D01*
X04831D01*
X048257Y041291D01*
Y041343D01*
Y041291D01*
X048205Y041239D01*
X048152D01*
X0481Y041291D01*
Y041396D01*
X048152Y041448D01*
X0481Y040924D02*
Y041134D01*
X04831Y040924D01*
X048362D01*
X048415Y040976D01*
Y041081D01*
X048362Y041134D01*
X044035Y050293D02*
X04435D01*
Y050135D01*
X044297Y050083D01*
X044192D01*
X04414Y050135D01*
Y050293D01*
Y050188D02*
X044035Y050083D01*
X044297Y049978D02*
X04435Y049926D01*
Y049821D01*
X044297Y049768D01*
X044245D01*
X044192Y049821D01*
Y049873D01*
Y049821D01*
X04414Y049768D01*
X044087D01*
X044035Y049821D01*
Y049926D01*
X044087Y049978D01*
X044035Y049663D02*
Y049558D01*
Y049611D01*
X04435D01*
X044297Y049663D01*
X041121Y050385D02*
X041436D01*
Y050227D01*
X041384Y050175D01*
X041279D01*
X041226Y050227D01*
Y050385D01*
Y05028D02*
X041121Y050175D01*
X041384Y05007D02*
X041436Y050017D01*
Y049912D01*
X041384Y04986D01*
X041331D01*
X041279Y049912D01*
Y049965D01*
Y049912D01*
X041226Y04986D01*
X041174D01*
X041121Y049912D01*
Y050017D01*
X041174Y05007D01*
X041384Y049755D02*
X041436Y049703D01*
Y049598D01*
X041384Y049545D01*
X041174D01*
X041121Y049598D01*
Y049703D01*
X041174Y049755D01*
X041384D01*
X042894Y047199D02*
X043209D01*
Y047042D01*
X043156Y046989D01*
X043051D01*
X042999Y047042D01*
Y047199D01*
Y047094D02*
X042894Y046989D01*
Y046674D02*
Y046884D01*
X043104Y046674D01*
X043156D01*
X043209Y046727D01*
Y046832D01*
X043156Y046884D01*
X042946Y046569D02*
X042894Y046517D01*
Y046412D01*
X042946Y046359D01*
X043156D01*
X043209Y046412D01*
Y046517D01*
X043156Y046569D01*
X043104D01*
X043051Y046517D01*
Y046359D01*
X042264Y047238D02*
X042579D01*
Y047081D01*
X042526Y047028D01*
X042421D01*
X042369Y047081D01*
Y047238D01*
Y047133D02*
X042264Y047028D01*
Y046714D02*
Y046923D01*
X042474Y046714D01*
X042526D01*
X042579Y046766D01*
Y046871D01*
X042526Y046923D01*
Y046609D02*
X042579Y046556D01*
Y046451D01*
X042526Y046399D01*
X042474D01*
X042421Y046451D01*
X042369Y046399D01*
X042316D01*
X042264Y046451D01*
Y046556D01*
X042316Y046609D01*
X042369D01*
X042421Y046556D01*
X042474Y046609D01*
X042526D01*
X042421Y046556D02*
Y046451D01*
X060427Y050244D02*
Y050559D01*
X060584D01*
X060637Y050506D01*
Y050401D01*
X060584Y050349D01*
X060427D01*
X060532D02*
X060637Y050244D01*
X060951D02*
X060742D01*
X060951Y050454D01*
Y050506D01*
X060899Y050559D01*
X060794D01*
X060742Y050506D01*
X061056Y050559D02*
X061266D01*
Y050506D01*
X061056Y050296D01*
Y050244D01*
X036962D02*
Y050559D01*
X03712D01*
X037172Y050506D01*
Y050401D01*
X03712Y050349D01*
X036962D01*
X037067D02*
X037172Y050244D01*
X037487D02*
X037277D01*
X037487Y050454D01*
Y050506D01*
X037434Y050559D01*
X037329D01*
X037277Y050506D01*
X037802Y050559D02*
X037697Y050506D01*
X037592Y050401D01*
Y050296D01*
X037644Y050244D01*
X037749D01*
X037802Y050296D01*
Y050349D01*
X037749Y050401D01*
X037592D01*
X06397Y050244D02*
Y050559D01*
X064127D01*
X06418Y050506D01*
Y050401D01*
X064127Y050349D01*
X06397D01*
X064075D02*
X06418Y050244D01*
X064495D02*
X064285D01*
X064495Y050454D01*
Y050506D01*
X064442Y050559D01*
X064337D01*
X064285Y050506D01*
X06481Y050559D02*
X0646D01*
Y050401D01*
X064705Y050454D01*
X064757D01*
X06481Y050401D01*
Y050296D01*
X064757Y050244D01*
X064652D01*
X0646Y050296D01*
X036962Y049693D02*
Y050007D01*
X03712D01*
X037172Y049955D01*
Y04985D01*
X03712Y049798D01*
X036962D01*
X037067D02*
X037172Y049693D01*
X037487D02*
X037277D01*
X037487Y049902D01*
Y049955D01*
X037434Y050007D01*
X037329D01*
X037277Y049955D01*
X037749Y049693D02*
Y050007D01*
X037592Y04985D01*
X037802D01*
X061608Y04426D02*
Y044574D01*
X061765D01*
X061818Y044522D01*
Y044417D01*
X061765Y044364D01*
X061608D01*
X061713D02*
X061818Y04426D01*
X062133D02*
X061923D01*
X062133Y044469D01*
Y044522D01*
X06208Y044574D01*
X061975D01*
X061923Y044522D01*
X062237D02*
X06229Y044574D01*
X062395D01*
X062447Y044522D01*
Y044469D01*
X062395Y044417D01*
X062342D01*
X062395D01*
X062447Y044364D01*
Y044312D01*
X062395Y04426D01*
X06229D01*
X062237Y044312D01*
X056148Y042488D02*
Y042803D01*
X056306D01*
X056358Y04275D01*
Y042645D01*
X056306Y042593D01*
X056148D01*
X056253D02*
X056358Y042488D01*
X056673D02*
X056463D01*
X056673Y042698D01*
Y04275D01*
X056621Y042803D01*
X056516D01*
X056463Y04275D01*
X056778Y042488D02*
X056883D01*
X056831D01*
Y042803D01*
X056778Y04275D01*
X06397Y049653D02*
Y049968D01*
X064127D01*
X06418Y049916D01*
Y049811D01*
X064127Y049758D01*
X06397D01*
X064075D02*
X06418Y049653D01*
X064495D02*
X064285D01*
X064495Y049863D01*
Y049916D01*
X064442Y049968D01*
X064337D01*
X064285Y049916D01*
X0646D02*
X064652Y049968D01*
X064757D01*
X06481Y049916D01*
Y049706D01*
X064757Y049653D01*
X064652D01*
X0646Y049706D01*
Y049916D01*
X056122Y04296D02*
Y043275D01*
X05628D01*
X056332Y043223D01*
Y043118D01*
X05628Y043065D01*
X056122D01*
X056227D02*
X056332Y04296D01*
X056437D02*
X056542D01*
X05649D01*
Y043275D01*
X056437Y043223D01*
X056699D02*
X056752Y043275D01*
X056857D01*
X056909Y043223D01*
Y04317D01*
X056857Y043118D01*
X056909Y043065D01*
Y043013D01*
X056857Y04296D01*
X056752D01*
X056699Y043013D01*
Y043065D01*
X056752Y043118D01*
X056699Y04317D01*
Y043223D01*
X056752Y043118D02*
X056857D01*
X061634Y043748D02*
Y044063D01*
X061791D01*
X061844Y04401D01*
Y043905D01*
X061791Y043853D01*
X061634D01*
X061739D02*
X061844Y043748D01*
X061949D02*
X062054D01*
X062001D01*
Y044063D01*
X061949Y04401D01*
X062211Y044063D02*
X062421D01*
Y04401D01*
X062211Y0438D01*
Y043748D01*
X061634Y042724D02*
Y043039D01*
X061791D01*
X061844Y042986D01*
Y042881D01*
X061791Y042829D01*
X061634D01*
X061739D02*
X061844Y042724D01*
X061949D02*
X062054D01*
X062001D01*
Y043039D01*
X061949Y042986D01*
X062421Y043039D02*
X062316Y042986D01*
X062211Y042881D01*
Y042777D01*
X062264Y042724D01*
X062369D01*
X062421Y042777D01*
Y042829D01*
X062369Y042881D01*
X062211D01*
X057631Y038708D02*
Y039023D01*
X057789D01*
X057841Y038971D01*
Y038866D01*
X057789Y038813D01*
X057631D01*
X057736D02*
X057841Y038708D01*
X057946D02*
X058051D01*
X057999D01*
Y039023D01*
X057946Y038971D01*
X058419Y039023D02*
X058209D01*
Y038866D01*
X058314Y038918D01*
X058366D01*
X058419Y038866D01*
Y038761D01*
X058366Y038708D01*
X058261D01*
X058209Y038761D01*
X057631Y038157D02*
Y038472D01*
X057789D01*
X057841Y03842D01*
Y038315D01*
X057789Y038262D01*
X057631D01*
X057736D02*
X057841Y038157D01*
X057946D02*
X058051D01*
X057999D01*
Y038472D01*
X057946Y03842D01*
X058366Y038157D02*
Y038472D01*
X058209Y038315D01*
X058419D01*
X059193Y050362D02*
X059508D01*
Y050204D01*
X059455Y050152D01*
X05935D01*
X059298Y050204D01*
Y050362D01*
Y050257D02*
X059193Y050152D01*
Y050047D02*
Y049942D01*
Y049994D01*
X059508D01*
X059455Y050047D01*
Y049784D02*
X059508Y049732D01*
Y049627D01*
X059455Y049575D01*
X059403D01*
X05935Y049627D01*
Y049679D01*
Y049627D01*
X059298Y049575D01*
X059245D01*
X059193Y049627D01*
Y049732D01*
X059245Y049784D01*
X056198Y050369D02*
X056513D01*
Y050212D01*
X05646Y050159D01*
X056355D01*
X056303Y050212D01*
Y050369D01*
Y050264D02*
X056198Y050159D01*
Y050054D02*
Y049949D01*
Y050002D01*
X056513D01*
X05646Y050054D01*
X056198Y049582D02*
Y049792D01*
X056408Y049582D01*
X05646D01*
X056513Y049634D01*
Y049739D01*
X05646Y049792D01*
X068642Y043971D02*
X068957D01*
Y043813D01*
X068904Y043761D01*
X068799D01*
X068747Y043813D01*
Y043971D01*
Y043866D02*
X068642Y043761D01*
Y043656D02*
Y043551D01*
Y043603D01*
X068957D01*
X068904Y043656D01*
X068642Y043393D02*
Y043288D01*
Y043341D01*
X068957D01*
X068904Y043393D01*
X070689Y044023D02*
X071004D01*
Y043866D01*
X070951Y043813D01*
X070846D01*
X070794Y043866D01*
Y044023D01*
Y043918D02*
X070689Y043813D01*
Y043708D02*
Y043603D01*
Y043656D01*
X071004D01*
X070951Y043708D01*
Y043446D02*
X071004Y043393D01*
Y043288D01*
X070951Y043236D01*
X070742D01*
X070689Y043288D01*
Y043393D01*
X070742Y043446D01*
X070951D01*
X057986Y046819D02*
Y047133D01*
X058143D01*
X058196Y047081D01*
Y046976D01*
X058143Y046924D01*
X057986D01*
X058091D02*
X058196Y046819D01*
X058301Y046871D02*
X058353Y046819D01*
X058458D01*
X05851Y046871D01*
Y047081D01*
X058458Y047133D01*
X058353D01*
X058301Y047081D01*
Y047028D01*
X058353Y046976D01*
X05851D01*
X057198Y046819D02*
Y047133D01*
X057356D01*
X057408Y047081D01*
Y046976D01*
X057356Y046924D01*
X057198D01*
X057303D02*
X057408Y046819D01*
X057513Y047081D02*
X057566Y047133D01*
X057671D01*
X057723Y047081D01*
Y047028D01*
X057671Y046976D01*
X057723Y046924D01*
Y046871D01*
X057671Y046819D01*
X057566D01*
X057513Y046871D01*
Y046924D01*
X057566Y046976D01*
X057513Y047028D01*
Y047081D01*
X057566Y046976D02*
X057671D01*
X0398Y04316D02*
Y043475D01*
X039957D01*
X04001Y043422D01*
Y043317D01*
X039957Y043265D01*
X0398D01*
X039905D02*
X04001Y04316D01*
X040115Y043475D02*
X040325D01*
Y043422D01*
X040115Y043212D01*
Y04316D01*
X03212Y039811D02*
Y040126D01*
X032277D01*
X032329Y040073D01*
Y039968D01*
X032277Y039916D01*
X03212D01*
X032224D02*
X032329Y039811D01*
X032644Y040126D02*
X032539Y040073D01*
X032434Y039968D01*
Y039863D01*
X032487Y039811D01*
X032592D01*
X032644Y039863D01*
Y039916D01*
X032592Y039968D01*
X032434D01*
X02993Y040393D02*
Y040707D01*
X030088D01*
X03014Y040655D01*
Y04055D01*
X030088Y040498D01*
X02993D01*
X030035D02*
X03014Y040393D01*
X030455Y040707D02*
X030245D01*
Y04055D01*
X03035Y040602D01*
X030402D01*
X030455Y04055D01*
Y040445D01*
X030402Y040393D01*
X030297D01*
X030245Y040445D01*
X03016Y045693D02*
Y046007D01*
X030317D01*
X03037Y045955D01*
Y04585D01*
X030317Y045798D01*
X03016D01*
X030265D02*
X03037Y045693D01*
X030632D02*
Y046007D01*
X030475Y04585D01*
X030685D01*
X031332Y045716D02*
Y046031D01*
X03149D01*
X031542Y045979D01*
Y045874D01*
X03149Y045821D01*
X031332D01*
X031437D02*
X031542Y045716D01*
X031647Y045979D02*
X031699Y046031D01*
X031804D01*
X031857Y045979D01*
Y045926D01*
X031804Y045874D01*
X031752D01*
X031804D01*
X031857Y045821D01*
Y045769D01*
X031804Y045716D01*
X031699D01*
X031647Y045769D01*
X029718Y039496D02*
Y039811D01*
X029875D01*
X029928Y039758D01*
Y039653D01*
X029875Y039601D01*
X029718D01*
X029823D02*
X029928Y039496D01*
X030243D02*
X030033D01*
X030243Y039706D01*
Y039758D01*
X03019Y039811D01*
X030085D01*
X030033Y039758D01*
X032123Y039166D02*
Y039481D01*
X032281D01*
X032333Y039429D01*
Y039324D01*
X032281Y039271D01*
X032123D01*
X032228D02*
X032333Y039166D01*
X032438D02*
X032543D01*
X032491D01*
Y039481D01*
X032438Y039429D01*
X046188Y040257D02*
Y040467D01*
X046135Y040519D01*
X04603D01*
X045978Y040467D01*
Y040257D01*
X04603Y040204D01*
X046135D01*
X046083Y040309D02*
X046188Y040204D01*
X046135D02*
X046188Y040257D01*
X046293Y040467D02*
X046345Y040519D01*
X04645D01*
X046503Y040467D01*
Y040414D01*
X04645Y040362D01*
X046398D01*
X04645D01*
X046503Y040309D01*
Y040257D01*
X04645Y040204D01*
X046345D01*
X046293Y040257D01*
X055046Y044469D02*
Y044679D01*
X054993Y044732D01*
X054889D01*
X054836Y044679D01*
Y044469D01*
X054889Y044417D01*
X054993D01*
X054941Y044522D02*
X055046Y044417D01*
X054993D02*
X055046Y044469D01*
X055361Y044417D02*
X055151D01*
X055361Y044627D01*
Y044679D01*
X055308Y044732D01*
X055203D01*
X055151Y044679D01*
X055138Y042462D02*
Y042671D01*
X055085Y042724D01*
X05498D01*
X054928Y042671D01*
Y042462D01*
X05498Y042409D01*
X055085D01*
X055033Y042514D02*
X055138Y042409D01*
X055085D02*
X055138Y042462D01*
X055243Y042409D02*
X055348D01*
X055295D01*
Y042724D01*
X055243Y042671D01*
X07379Y02107D02*
Y021385D01*
X073895Y02128D01*
X074Y021385D01*
Y02107D01*
X074262D02*
Y021385D01*
X074105Y021227D01*
X074315D01*
X02871Y02107D02*
Y021385D01*
X028815Y02128D01*
X02892Y021385D01*
Y02107D01*
X029025Y021332D02*
X029077Y021385D01*
X029182D01*
X029235Y021332D01*
Y02128D01*
X029182Y021227D01*
X02913D01*
X029182D01*
X029235Y021175D01*
Y021122D01*
X029182Y02107D01*
X029077D01*
X029025Y021122D01*
X07379Y05257D02*
Y052885D01*
X073895Y05278D01*
X074Y052885D01*
Y05257D01*
X074315D02*
X074105D01*
X074315Y05278D01*
Y052832D01*
X074262Y052885D01*
X074157D01*
X074105Y052832D01*
X02877Y05247D02*
Y052785D01*
X028875Y05268D01*
X02898Y052785D01*
Y05247D01*
X029085D02*
X02919D01*
X029137D01*
Y052785D01*
X029085Y052732D01*
X054652Y040992D02*
Y040677D01*
X054862D01*
X055177Y040939D02*
X055125Y040992D01*
X05502D01*
X054967Y040939D01*
Y040887D01*
X05502Y040834D01*
X055125D01*
X055177Y040782D01*
Y040729D01*
X055125Y040677D01*
X05502D01*
X054967Y040729D01*
X055282Y040677D02*
X055387D01*
X055335D01*
Y040992D01*
X055282Y040939D01*
X03505Y039965D02*
Y03965D01*
X03526D01*
X035365D02*
X03547D01*
X035417D01*
Y039965D01*
X035365Y039912D01*
X06906Y054305D02*
X068955D01*
X069007D01*
Y054042D01*
X068955Y05399D01*
X068902D01*
X06885Y054042D01*
X069165Y054305D02*
X069375D01*
Y054252D01*
X069165Y054042D01*
Y05399D01*
X065198Y023607D02*
X065093D01*
X065145D01*
Y023345D01*
X065093Y023293D01*
X06504D01*
X064988Y023345D01*
X065512Y023607D02*
X065407Y023555D01*
X065302Y02345D01*
Y023345D01*
X065355Y023293D01*
X06546D01*
X065512Y023345D01*
Y023398D01*
X06546Y02345D01*
X065302D01*
X057398Y023557D02*
X057293D01*
X057345D01*
Y023295D01*
X057293Y023243D01*
X05724D01*
X057188Y023295D01*
X057712Y023557D02*
X057502D01*
Y0234D01*
X057607Y023452D01*
X05766D01*
X057712Y0234D01*
Y023295D01*
X05766Y023243D01*
X057555D01*
X057502Y023295D01*
X03447Y052335D02*
X034365D01*
X034417D01*
Y052072D01*
X034365Y05202D01*
X034312D01*
X03426Y052072D01*
X034575Y05202D02*
X03468D01*
X034627D01*
Y052335D01*
X034575Y052282D01*
X041227Y048708D02*
X041017D01*
Y048551D01*
X041122D01*
X041017D01*
Y048393D01*
X041332Y048708D02*
Y048393D01*
X041489D01*
X041542Y048446D01*
Y048498D01*
X041489Y048551D01*
X041332D01*
X041489D01*
X041542Y048603D01*
Y048656D01*
X041489Y048708D01*
X041332D01*
X041857Y048393D02*
X041647D01*
X041857Y048603D01*
Y048656D01*
X041804Y048708D01*
X041699D01*
X041647Y048656D01*
X030728Y036189D02*
X030518D01*
Y036031D01*
X030623D01*
X030518D01*
Y035874D01*
X030833Y036189D02*
Y035874D01*
X030991D01*
X031043Y035926D01*
Y035979D01*
X030991Y036031D01*
X030833D01*
X030991D01*
X031043Y036084D01*
Y036136D01*
X030991Y036189D01*
X030833D01*
X031148Y035874D02*
X031253D01*
X031201D01*
Y036189D01*
X031148Y036136D01*
X063091Y034968D02*
Y034653D01*
X063248D01*
X063301Y034706D01*
Y034916D01*
X063248Y034968D01*
X063091D01*
X063406Y034653D02*
X06351D01*
X063458D01*
Y034968D01*
X063406Y034916D01*
X063878Y034653D02*
X063668D01*
X063878Y034863D01*
Y034916D01*
X063825Y034968D01*
X06372D01*
X063668Y034916D01*
X056883Y034929D02*
Y034614D01*
X057041D01*
X057093Y034666D01*
Y034876D01*
X057041Y034929D01*
X056883D01*
X057198Y034614D02*
X057303D01*
X057251D01*
Y034929D01*
X057198Y034876D01*
X057461Y034614D02*
X057566D01*
X057513D01*
Y034929D01*
X057461Y034876D01*
X050453Y034968D02*
Y034653D01*
X05061D01*
X050663Y034706D01*
Y034916D01*
X05061Y034968D01*
X050453D01*
X050768Y034653D02*
X050873D01*
X05082D01*
Y034968D01*
X050768Y034916D01*
X05103D02*
X051083Y034968D01*
X051188D01*
X05124Y034916D01*
Y034706D01*
X051188Y034653D01*
X051083D01*
X05103Y034706D01*
Y034916D01*
X044285Y034929D02*
Y034614D01*
X044442D01*
X044495Y034666D01*
Y034876D01*
X044442Y034929D01*
X044285D01*
X0446Y034666D02*
X044652Y034614D01*
X044757D01*
X04481Y034666D01*
Y034876D01*
X044757Y034929D01*
X044652D01*
X0446Y034876D01*
Y034824D01*
X044652Y034771D01*
X04481D01*
X038104Y034929D02*
Y034614D01*
X038261D01*
X038314Y034666D01*
Y034876D01*
X038261Y034929D01*
X038104D01*
X038419Y034876D02*
X038471Y034929D01*
X038576D01*
X038629Y034876D01*
Y034824D01*
X038576Y034771D01*
X038629Y034719D01*
Y034666D01*
X038576Y034614D01*
X038471D01*
X038419Y034666D01*
Y034719D01*
X038471Y034771D01*
X038419Y034824D01*
Y034876D01*
X038471Y034771D02*
X038576D01*
X031805Y034929D02*
Y034614D01*
X031962D01*
X032014Y034666D01*
Y034876D01*
X031962Y034929D01*
X031805D01*
X032119D02*
X032329D01*
Y034876D01*
X032119Y034666D01*
Y034614D01*
X045058Y048495D02*
X044743D01*
Y048338D01*
X044796Y048285D01*
X045006D01*
X045058Y048338D01*
Y048495D01*
Y04797D02*
Y04818D01*
X044901D01*
X044953Y048075D01*
Y048023D01*
X044901Y04797D01*
X044796D01*
X044743Y048023D01*
Y048128D01*
X044796Y04818D01*
X058839Y048419D02*
X058524D01*
Y048262D01*
X058576Y04821D01*
X058786D01*
X058839Y048262D01*
Y048419D01*
X058786Y048105D02*
X058839Y048052D01*
Y047947D01*
X058786Y047895D01*
X058734D01*
X058681Y047947D01*
Y048D01*
Y047947D01*
X058629Y047895D01*
X058576D01*
X058524Y047947D01*
Y048052D01*
X058576Y048105D01*
X030438Y048275D02*
Y04796D01*
X030595D01*
X030648Y048013D01*
Y048223D01*
X030595Y048275D01*
X030438D01*
X030962Y04796D02*
X030752D01*
X030962Y04817D01*
Y048223D01*
X03091Y048275D01*
X030805D01*
X030752Y048223D01*
X034783Y045085D02*
X034469D01*
Y044928D01*
X034521Y044875D01*
X034731D01*
X034783Y044928D01*
Y045085D01*
X034469Y04477D02*
Y044665D01*
Y044718D01*
X034783D01*
X034731Y04477D01*
X06418Y039286D02*
X064127Y039338D01*
X064022D01*
X06397Y039286D01*
Y039076D01*
X064022Y039023D01*
X064127D01*
X06418Y039076D01*
X064442Y039023D02*
Y039338D01*
X064285Y039181D01*
X064495D01*
X0646Y039076D02*
X064652Y039023D01*
X064757D01*
X06481Y039076D01*
Y039286D01*
X064757Y039338D01*
X064652D01*
X0646Y039286D01*
Y039233D01*
X064652Y039181D01*
X06481D01*
X057841Y039483D02*
X057789Y039535D01*
X057684D01*
X057631Y039483D01*
Y039273D01*
X057684Y03922D01*
X057789D01*
X057841Y039273D01*
X058104Y03922D02*
Y039535D01*
X057946Y039378D01*
X058156D01*
X058261Y039483D02*
X058314Y039535D01*
X058419D01*
X058471Y039483D01*
Y03943D01*
X058419Y039378D01*
X058471Y039325D01*
Y039273D01*
X058419Y03922D01*
X058314D01*
X058261Y039273D01*
Y039325D01*
X058314Y039378D01*
X058261Y03943D01*
Y039483D01*
X058314Y039378D02*
X058419D01*
X060597Y051097D02*
X060545Y051149D01*
X06044D01*
X060387Y051097D01*
Y050887D01*
X06044Y050834D01*
X060545D01*
X060597Y050887D01*
X060912Y050834D02*
X060702D01*
X060912Y051044D01*
Y051097D01*
X06086Y051149D01*
X060755D01*
X060702Y051097D01*
X061017D02*
X061069Y051149D01*
X061174D01*
X061227Y051097D01*
Y051044D01*
X061174Y050992D01*
X061122D01*
X061174D01*
X061227Y050939D01*
Y050887D01*
X061174Y050834D01*
X061069D01*
X061017Y050887D01*
X037211Y051097D02*
X037159Y051149D01*
X037054D01*
X037001Y051097D01*
Y050887D01*
X037054Y050834D01*
X037159D01*
X037211Y050887D01*
X037526Y050834D02*
X037316D01*
X037526Y051044D01*
Y051097D01*
X037474Y051149D01*
X037369D01*
X037316Y051097D01*
X037841Y050834D02*
X037631D01*
X037841Y051044D01*
Y051097D01*
X037789Y051149D01*
X037684D01*
X037631Y051097D01*
X064311Y051136D02*
X064259Y051189D01*
X064154D01*
X064101Y051136D01*
Y050926D01*
X064154Y050874D01*
X064259D01*
X064311Y050926D01*
X064626Y050874D02*
X064416D01*
X064626Y051084D01*
Y051136D01*
X064573Y051189D01*
X064468D01*
X064416Y051136D01*
X064731Y050874D02*
X064836D01*
X064783D01*
Y051189D01*
X064731Y051136D01*
X061857Y043538D02*
X061805Y04359D01*
X0617D01*
X061647Y043538D01*
Y043328D01*
X0617Y043275D01*
X061805D01*
X061857Y043328D01*
X062172Y043275D02*
X061962D01*
X062172Y043485D01*
Y043538D01*
X062119Y04359D01*
X062014D01*
X061962Y043538D01*
X062277D02*
X062329Y04359D01*
X062434D01*
X062487Y043538D01*
Y043328D01*
X062434Y043275D01*
X062329D01*
X062277Y043328D01*
Y043538D01*
X0596Y043022D02*
X059547Y043075D01*
X059442D01*
X05939Y043022D01*
Y042812D01*
X059442Y04276D01*
X059547D01*
X0596Y042812D01*
X059705Y04276D02*
X05981D01*
X059757D01*
Y043075D01*
X059705Y043022D01*
X059967Y042812D02*
X06002Y04276D01*
X060125D01*
X060177Y042812D01*
Y043022D01*
X060125Y043075D01*
X06002D01*
X059967Y043022D01*
Y04297D01*
X06002Y042917D01*
X060177D01*
X046148Y052553D02*
X046201Y052606D01*
Y052711D01*
X046148Y052763D01*
X045938D01*
X045886Y052711D01*
Y052606D01*
X045938Y052553D01*
X045886Y052448D02*
Y052343D01*
Y052396D01*
X046201D01*
X046148Y052448D01*
Y052186D02*
X046201Y052134D01*
Y052029D01*
X046148Y051976D01*
X046096D01*
X046043Y052029D01*
X045991Y051976D01*
X045938D01*
X045886Y052029D01*
Y052134D01*
X045938Y052186D01*
X045991D01*
X046043Y052134D01*
X046096Y052186D01*
X046148D01*
X046043Y052134D02*
Y052029D01*
X045597Y052553D02*
X04565Y052606D01*
Y052711D01*
X045597Y052763D01*
X045387D01*
X045335Y052711D01*
Y052606D01*
X045387Y052553D01*
X045335Y052448D02*
Y052343D01*
Y052396D01*
X04565D01*
X045597Y052448D01*
X04565Y052186D02*
Y051976D01*
X045597D01*
X045387Y052186D01*
X045335D01*
X0426Y043062D02*
X042547Y043115D01*
X042442D01*
X04239Y043062D01*
Y042852D01*
X042442Y0428D01*
X042547D01*
X0426Y042852D01*
X042705Y0428D02*
X04281D01*
X042757D01*
Y043115D01*
X042705Y043062D01*
X043177Y043115D02*
X043072Y043062D01*
X042967Y042957D01*
Y042852D01*
X04302Y0428D01*
X043125D01*
X043177Y042852D01*
Y042905D01*
X043125Y042957D01*
X042967D01*
X0426Y043772D02*
X042547Y043825D01*
X042442D01*
X04239Y043772D01*
Y043562D01*
X042442Y04351D01*
X042547D01*
X0426Y043562D01*
X042705Y04351D02*
X04281D01*
X042757D01*
Y043825D01*
X042705Y043772D01*
X043177Y043825D02*
X042967D01*
Y043667D01*
X043072Y04372D01*
X043125D01*
X043177Y043667D01*
Y043562D01*
X043125Y04351D01*
X04302D01*
X042967Y043562D01*
X04098Y044562D02*
X040927Y044615D01*
X040822D01*
X04077Y044562D01*
Y044352D01*
X040822Y0443D01*
X040927D01*
X04098Y044352D01*
X041085Y0443D02*
X04119D01*
X041137D01*
Y044615D01*
X041085Y044562D01*
X041505Y0443D02*
Y044615D01*
X041347Y044457D01*
X041557D01*
X035793Y048239D02*
X035741Y048292D01*
X035636D01*
X035583Y048239D01*
Y048029D01*
X035636Y047977D01*
X035741D01*
X035793Y048029D01*
X035898Y047977D02*
X036003D01*
X035951D01*
Y048292D01*
X035898Y048239D01*
X036161D02*
X036213Y048292D01*
X036318D01*
X03637Y048239D01*
Y048187D01*
X036318Y048134D01*
X036266D01*
X036318D01*
X03637Y048082D01*
Y048029D01*
X036318Y047977D01*
X036213D01*
X036161Y048029D01*
X039519Y049173D02*
X039467Y049226D01*
X039362D01*
X039309Y049173D01*
Y048964D01*
X039362Y048911D01*
X039467D01*
X039519Y048964D01*
X039624Y048911D02*
X039729D01*
X039677D01*
Y049226D01*
X039624Y049173D01*
X040096Y048911D02*
X039886D01*
X040096Y049121D01*
Y049173D01*
X040044Y049226D01*
X039939D01*
X039886Y049173D01*
X04044Y046241D02*
X040492Y046294D01*
Y046398D01*
X04044Y046451D01*
X04023D01*
X040177Y046398D01*
Y046294D01*
X04023Y046241D01*
X040177Y046136D02*
Y046031D01*
Y046084D01*
X040492D01*
X04044Y046136D01*
X040177Y045874D02*
Y045769D01*
Y045821D01*
X040492D01*
X04044Y045874D01*
X029766Y044105D02*
X029714Y044157D01*
X029609D01*
X029556Y044105D01*
Y043895D01*
X029609Y043843D01*
X029714D01*
X029766Y043895D01*
X029871Y043843D02*
X029976D01*
X029924D01*
Y044157D01*
X029871Y044105D01*
X030134D02*
X030186Y044157D01*
X030291D01*
X030344Y044105D01*
Y043895D01*
X030291Y043843D01*
X030186D01*
X030134Y043895D01*
Y044105D01*
X03144Y041905D02*
X031388Y041957D01*
X031283D01*
X03123Y041905D01*
Y041695D01*
X031283Y041643D01*
X031388D01*
X03144Y041695D01*
X031545D02*
X031597Y041643D01*
X031702D01*
X031755Y041695D01*
Y041905D01*
X031702Y041957D01*
X031597D01*
X031545Y041905D01*
Y041852D01*
X031597Y0418D01*
X031755D01*
X03034Y041905D02*
X030288Y041957D01*
X030183D01*
X03013Y041905D01*
Y041695D01*
X030183Y041643D01*
X030288D01*
X03034Y041695D01*
X030445Y041905D02*
X030497Y041957D01*
X030602D01*
X030655Y041905D01*
Y041852D01*
X030602Y0418D01*
X030655Y041748D01*
Y041695D01*
X030602Y041643D01*
X030497D01*
X030445Y041695D01*
Y041748D01*
X030497Y0418D01*
X030445Y041852D01*
Y041905D01*
X030497Y0418D02*
X030602D01*
X03272Y045955D02*
X032667Y046007D01*
X032563D01*
X03251Y045955D01*
Y045745D01*
X032563Y045693D01*
X032667D01*
X03272Y045745D01*
X032825Y046007D02*
X033035D01*
Y045955D01*
X032825Y045745D01*
Y045693D01*
X0304Y047396D02*
X030348Y047448D01*
X030243D01*
X03019Y047396D01*
Y047186D01*
X030243Y047134D01*
X030348D01*
X0304Y047186D01*
X030715Y047448D02*
X030505D01*
Y047291D01*
X03061Y047343D01*
X030663D01*
X030715Y047291D01*
Y047186D01*
X030663Y047134D01*
X030558D01*
X030505Y047186D01*
X030991Y035427D02*
X030938Y03548D01*
X030833D01*
X030781Y035427D01*
Y035217D01*
X030833Y035165D01*
X030938D01*
X030991Y035217D01*
X031253Y035165D02*
Y03548D01*
X031096Y035322D01*
X031306D01*
X036652Y044779D02*
X036704Y044831D01*
Y044936D01*
X036652Y044989D01*
X036442D01*
X036389Y044936D01*
Y044831D01*
X036442Y044779D01*
X036652Y044674D02*
X036704Y044621D01*
Y044516D01*
X036652Y044464D01*
X036599D01*
X036547Y044516D01*
Y044569D01*
Y044516D01*
X036494Y044464D01*
X036442D01*
X036389Y044516D01*
Y044621D01*
X036442Y044674D01*
X037512Y044779D02*
X037565Y044831D01*
Y044936D01*
X037512Y044989D01*
X037303D01*
X03725Y044936D01*
Y044831D01*
X037303Y044779D01*
X03725Y044464D02*
Y044674D01*
X03746Y044464D01*
X037512D01*
X037565Y044516D01*
Y044621D01*
X037512Y044674D01*
X033563Y043498D02*
X033511Y043551D01*
X033406D01*
X033353Y043498D01*
Y043288D01*
X033406Y043236D01*
X033511D01*
X033563Y043288D01*
X033668Y043236D02*
X033773D01*
X03372D01*
Y043551D01*
X033668Y043498D01*
D19*
X032028Y047645D02*
D03*
Y04859D02*
D03*
X031578Y033363D02*
D03*
Y034308D02*
D03*
X037854Y033363D02*
D03*
Y034308D02*
D03*
X050407Y033363D02*
D03*
Y034308D02*
D03*
X056683Y033363D02*
D03*
Y034308D02*
D03*
X06296Y033363D02*
D03*
Y034308D02*
D03*
X04413D02*
D03*
Y033363D02*
D03*
D20*
X034606Y054437D02*
D03*
M02*
