G04*
G04 #@! TF.GenerationSoftware,Altium Limited,Altium Designer,21.2.1 (34)*
G04*
G04 Layer_Color=8388736*
%FSTAX24Y24*%
%MOIN*%
G70*
G04*
G04 #@! TF.SameCoordinates,6CF6E2E0-1279-4785-91C8-ECC7A25CC669*
G04*
G04*
G04 #@! TF.FilePolarity,Positive*
G04*
G01*
G75*
%ADD18C,0.0059*%
%ADD146C,0.0020*%
D18*
X063607Y025965D02*
Y02607D01*
Y026018D01*
X063293D01*
X063345Y025965D01*
X06597Y026831D02*
X065655D01*
X065812Y026674D01*
Y026884D01*
X06093Y026904D02*
Y026694D01*
X061088D01*
X061035Y026799D01*
Y026851D01*
X061088Y026904D01*
X061193D01*
X061245Y026851D01*
Y026746D01*
X061193Y026694D01*
X066009Y030552D02*
X065694D01*
X066009Y030762D01*
X065694D01*
Y031024D02*
Y030919D01*
X065747Y030867D01*
X065957D01*
X066009Y030919D01*
Y031024D01*
X065957Y031077D01*
X065747D01*
X065694Y031024D01*
X061226Y030552D02*
X060911D01*
X061226Y030762D01*
X060911D01*
X060963Y031077D02*
X060911Y031024D01*
Y030919D01*
X060963Y030867D01*
X061173D01*
X061226Y030919D01*
Y031024D01*
X061173Y031077D01*
X065707Y031477D02*
X065655Y03153D01*
Y031635D01*
X065707Y031687D01*
X06576D01*
X065812Y031635D01*
Y031582D01*
Y031635D01*
X065865Y031687D01*
X065917D01*
X06597Y031635D01*
Y03153D01*
X065917Y031477D01*
X061245Y031687D02*
Y031477D01*
X061035Y031687D01*
X060983D01*
X06093Y031635D01*
Y03153D01*
X060983Y031477D01*
X065077Y026471D02*
X065025Y026418D01*
Y026313D01*
X065077Y026261D01*
X065287D01*
X06534Y026313D01*
Y026418D01*
X065287Y026471D01*
X065025Y026733D02*
Y026628D01*
X065077Y026575D01*
X065287D01*
X06534Y026628D01*
Y026733D01*
X065287Y026785D01*
X065077D01*
X065025Y026733D01*
Y02689D02*
Y026995D01*
Y026943D01*
X06534D01*
Y02689D01*
Y026995D01*
X065025Y027153D02*
X06534D01*
Y027363D01*
X061632Y026471D02*
X06158Y026418D01*
Y026313D01*
X061632Y026261D01*
X061842D01*
X061895Y026313D01*
Y026418D01*
X061842Y026471D01*
X06158Y026733D02*
Y026628D01*
X061632Y026575D01*
X061842D01*
X061895Y026628D01*
Y026733D01*
X061842Y026785D01*
X061632D01*
X06158Y026733D01*
Y02689D02*
Y026995D01*
Y026943D01*
X061895D01*
Y02689D01*
Y026995D01*
X06158Y027153D02*
X061895D01*
Y027363D01*
X062715Y025801D02*
X062663Y025749D01*
Y025644D01*
X062715Y025591D01*
X062925D01*
X062978Y025644D01*
Y025749D01*
X062925Y025801D01*
X062663Y026064D02*
Y025959D01*
X062715Y025906D01*
X062925D01*
X062978Y025959D01*
Y026064D01*
X062925Y026116D01*
X062715D01*
X062663Y026064D01*
X062978Y026221D02*
X062663D01*
X062768Y026326D01*
X062663Y026431D01*
X062978D01*
X032207Y025965D02*
Y02607D01*
Y026018D01*
X031893D01*
X031945Y025965D01*
X03457Y026831D02*
X034255D01*
X034412Y026674D01*
Y026884D01*
X02953Y026904D02*
Y026694D01*
X029688D01*
X029635Y026799D01*
Y026851D01*
X029688Y026904D01*
X029793D01*
X029845Y026851D01*
Y026746D01*
X029793Y026694D01*
X034609Y030552D02*
X034294D01*
X034609Y030762D01*
X034294D01*
Y031024D02*
Y030919D01*
X034347Y030867D01*
X034557D01*
X034609Y030919D01*
Y031024D01*
X034557Y031077D01*
X034347D01*
X034294Y031024D01*
X029826Y030552D02*
X029511D01*
X029826Y030762D01*
X029511D01*
X029563Y031077D02*
X029511Y031024D01*
Y030919D01*
X029563Y030867D01*
X029773D01*
X029826Y030919D01*
Y031024D01*
X029773Y031077D01*
X034307Y031477D02*
X034255Y03153D01*
Y031635D01*
X034307Y031687D01*
X03436D01*
X034412Y031635D01*
Y031582D01*
Y031635D01*
X034465Y031687D01*
X034517D01*
X03457Y031635D01*
Y03153D01*
X034517Y031477D01*
X029845Y031687D02*
Y031477D01*
X029635Y031687D01*
X029583D01*
X02953Y031635D01*
Y03153D01*
X029583Y031477D01*
X033677Y026471D02*
X033625Y026418D01*
Y026313D01*
X033677Y026261D01*
X033887D01*
X03394Y026313D01*
Y026418D01*
X033887Y026471D01*
X033625Y026733D02*
Y026628D01*
X033677Y026575D01*
X033887D01*
X03394Y026628D01*
Y026733D01*
X033887Y026785D01*
X033677D01*
X033625Y026733D01*
Y02689D02*
Y026995D01*
Y026943D01*
X03394D01*
Y02689D01*
Y026995D01*
X033625Y027153D02*
X03394D01*
Y027363D01*
X030233Y026471D02*
X03018Y026418D01*
Y026313D01*
X030233Y026261D01*
X030442D01*
X030495Y026313D01*
Y026418D01*
X030442Y026471D01*
X03018Y026733D02*
Y026628D01*
X030233Y026575D01*
X030442D01*
X030495Y026628D01*
Y026733D01*
X030442Y026785D01*
X030233D01*
X03018Y026733D01*
Y02689D02*
Y026995D01*
Y026943D01*
X030495D01*
Y02689D01*
Y026995D01*
X03018Y027153D02*
X030495D01*
Y027363D01*
X031315Y025801D02*
X031263Y025749D01*
Y025644D01*
X031315Y025591D01*
X031525D01*
X031578Y025644D01*
Y025749D01*
X031525Y025801D01*
X031263Y026064D02*
Y025959D01*
X031315Y025906D01*
X031525D01*
X031578Y025959D01*
Y026064D01*
X031525Y026116D01*
X031315D01*
X031263Y026064D01*
X031578Y026221D02*
X031263D01*
X031368Y026326D01*
X031263Y026431D01*
X031578D01*
X038487Y025965D02*
Y02607D01*
Y026018D01*
X038173D01*
X038225Y025965D01*
X04085Y026831D02*
X040535D01*
X040692Y026674D01*
Y026884D01*
X03581Y026904D02*
Y026694D01*
X035968D01*
X035915Y026799D01*
Y026851D01*
X035968Y026904D01*
X036073D01*
X036125Y026851D01*
Y026746D01*
X036073Y026694D01*
X040889Y030552D02*
X040574D01*
X040889Y030762D01*
X040574D01*
Y031024D02*
Y030919D01*
X040627Y030867D01*
X040837D01*
X040889Y030919D01*
Y031024D01*
X040837Y031077D01*
X040627D01*
X040574Y031024D01*
X036106Y030552D02*
X035791D01*
X036106Y030762D01*
X035791D01*
X035843Y031077D02*
X035791Y031024D01*
Y030919D01*
X035843Y030867D01*
X036053D01*
X036106Y030919D01*
Y031024D01*
X036053Y031077D01*
X040587Y031477D02*
X040535Y03153D01*
Y031635D01*
X040587Y031687D01*
X04064D01*
X040692Y031635D01*
Y031582D01*
Y031635D01*
X040745Y031687D01*
X040797D01*
X04085Y031635D01*
Y03153D01*
X040797Y031477D01*
X036125Y031687D02*
Y031477D01*
X035915Y031687D01*
X035863D01*
X03581Y031635D01*
Y03153D01*
X035863Y031477D01*
X039957Y026471D02*
X039905Y026418D01*
Y026313D01*
X039957Y026261D01*
X040167D01*
X04022Y026313D01*
Y026418D01*
X040167Y026471D01*
X039905Y026733D02*
Y026628D01*
X039957Y026575D01*
X040167D01*
X04022Y026628D01*
Y026733D01*
X040167Y026785D01*
X039957D01*
X039905Y026733D01*
Y02689D02*
Y026995D01*
Y026943D01*
X04022D01*
Y02689D01*
Y026995D01*
X039905Y027153D02*
X04022D01*
Y027363D01*
X036512Y026471D02*
X03646Y026418D01*
Y026313D01*
X036512Y026261D01*
X036722D01*
X036775Y026313D01*
Y026418D01*
X036722Y026471D01*
X03646Y026733D02*
Y026628D01*
X036512Y026575D01*
X036722D01*
X036775Y026628D01*
Y026733D01*
X036722Y026785D01*
X036512D01*
X03646Y026733D01*
Y02689D02*
Y026995D01*
Y026943D01*
X036775D01*
Y02689D01*
Y026995D01*
X03646Y027153D02*
X036775D01*
Y027363D01*
X037595Y025801D02*
X037543Y025749D01*
Y025644D01*
X037595Y025591D01*
X037805D01*
X037858Y025644D01*
Y025749D01*
X037805Y025801D01*
X037543Y026064D02*
Y025959D01*
X037595Y025906D01*
X037805D01*
X037858Y025959D01*
Y026064D01*
X037805Y026116D01*
X037595D01*
X037543Y026064D01*
X037858Y026221D02*
X037543D01*
X037648Y026326D01*
X037543Y026431D01*
X037858D01*
X044767Y025965D02*
Y02607D01*
Y026018D01*
X044453D01*
X044505Y025965D01*
X04713Y026831D02*
X046815D01*
X046972Y026674D01*
Y026884D01*
X04209Y026904D02*
Y026694D01*
X042248D01*
X042195Y026799D01*
Y026851D01*
X042248Y026904D01*
X042353D01*
X042405Y026851D01*
Y026746D01*
X042353Y026694D01*
X047169Y030552D02*
X046854D01*
X047169Y030762D01*
X046854D01*
Y031024D02*
Y030919D01*
X046907Y030867D01*
X047117D01*
X047169Y030919D01*
Y031024D01*
X047117Y031077D01*
X046907D01*
X046854Y031024D01*
X042386Y030552D02*
X042071D01*
X042386Y030762D01*
X042071D01*
X042123Y031077D02*
X042071Y031024D01*
Y030919D01*
X042123Y030867D01*
X042333D01*
X042386Y030919D01*
Y031024D01*
X042333Y031077D01*
X046867Y031477D02*
X046815Y03153D01*
Y031635D01*
X046867Y031687D01*
X04692D01*
X046972Y031635D01*
Y031582D01*
Y031635D01*
X047025Y031687D01*
X047077D01*
X04713Y031635D01*
Y03153D01*
X047077Y031477D01*
X042405Y031687D02*
Y031477D01*
X042195Y031687D01*
X042143D01*
X04209Y031635D01*
Y03153D01*
X042143Y031477D01*
X046237Y026471D02*
X046185Y026418D01*
Y026313D01*
X046237Y026261D01*
X046447D01*
X0465Y026313D01*
Y026418D01*
X046447Y026471D01*
X046185Y026733D02*
Y026628D01*
X046237Y026575D01*
X046447D01*
X0465Y026628D01*
Y026733D01*
X046447Y026785D01*
X046237D01*
X046185Y026733D01*
Y02689D02*
Y026995D01*
Y026943D01*
X0465D01*
Y02689D01*
Y026995D01*
X046185Y027153D02*
X0465D01*
Y027363D01*
X042793Y026471D02*
X04274Y026418D01*
Y026313D01*
X042793Y026261D01*
X043002D01*
X043055Y026313D01*
Y026418D01*
X043002Y026471D01*
X04274Y026733D02*
Y026628D01*
X042793Y026575D01*
X043002D01*
X043055Y026628D01*
Y026733D01*
X043002Y026785D01*
X042793D01*
X04274Y026733D01*
Y02689D02*
Y026995D01*
Y026943D01*
X043055D01*
Y02689D01*
Y026995D01*
X04274Y027153D02*
X043055D01*
Y027363D01*
X043875Y025801D02*
X043823Y025749D01*
Y025644D01*
X043875Y025591D01*
X044085D01*
X044138Y025644D01*
Y025749D01*
X044085Y025801D01*
X043823Y026064D02*
Y025959D01*
X043875Y025906D01*
X044085D01*
X044138Y025959D01*
Y026064D01*
X044085Y026116D01*
X043875D01*
X043823Y026064D01*
X044138Y026221D02*
X043823D01*
X043928Y026326D01*
X043823Y026431D01*
X044138D01*
X051047Y025965D02*
Y02607D01*
Y026018D01*
X050733D01*
X050785Y025965D01*
X05341Y026831D02*
X053095D01*
X053252Y026674D01*
Y026884D01*
X04837Y026904D02*
Y026694D01*
X048528D01*
X048475Y026799D01*
Y026851D01*
X048528Y026904D01*
X048633D01*
X048685Y026851D01*
Y026746D01*
X048633Y026694D01*
X053449Y030552D02*
X053134D01*
X053449Y030762D01*
X053134D01*
Y031024D02*
Y030919D01*
X053187Y030867D01*
X053397D01*
X053449Y030919D01*
Y031024D01*
X053397Y031077D01*
X053187D01*
X053134Y031024D01*
X048666Y030552D02*
X048351D01*
X048666Y030762D01*
X048351D01*
X048403Y031077D02*
X048351Y031024D01*
Y030919D01*
X048403Y030867D01*
X048613D01*
X048666Y030919D01*
Y031024D01*
X048613Y031077D01*
X053147Y031477D02*
X053095Y03153D01*
Y031635D01*
X053147Y031687D01*
X0532D01*
X053252Y031635D01*
Y031582D01*
Y031635D01*
X053305Y031687D01*
X053357D01*
X05341Y031635D01*
Y03153D01*
X053357Y031477D01*
X048685Y031687D02*
Y031477D01*
X048475Y031687D01*
X048423D01*
X04837Y031635D01*
Y03153D01*
X048423Y031477D01*
X052517Y026471D02*
X052465Y026418D01*
Y026313D01*
X052517Y026261D01*
X052727D01*
X05278Y026313D01*
Y026418D01*
X052727Y026471D01*
X052465Y026733D02*
Y026628D01*
X052517Y026575D01*
X052727D01*
X05278Y026628D01*
Y026733D01*
X052727Y026785D01*
X052517D01*
X052465Y026733D01*
Y02689D02*
Y026995D01*
Y026943D01*
X05278D01*
Y02689D01*
Y026995D01*
X052465Y027153D02*
X05278D01*
Y027363D01*
X049072Y026471D02*
X04902Y026418D01*
Y026313D01*
X049072Y026261D01*
X049282D01*
X049335Y026313D01*
Y026418D01*
X049282Y026471D01*
X04902Y026733D02*
Y026628D01*
X049072Y026575D01*
X049282D01*
X049335Y026628D01*
Y026733D01*
X049282Y026785D01*
X049072D01*
X04902Y026733D01*
Y02689D02*
Y026995D01*
Y026943D01*
X049335D01*
Y02689D01*
Y026995D01*
X04902Y027153D02*
X049335D01*
Y027363D01*
X050155Y025801D02*
X050103Y025749D01*
Y025644D01*
X050155Y025591D01*
X050365D01*
X050418Y025644D01*
Y025749D01*
X050365Y025801D01*
X050103Y026064D02*
Y025959D01*
X050155Y025906D01*
X050365D01*
X050418Y025959D01*
Y026064D01*
X050365Y026116D01*
X050155D01*
X050103Y026064D01*
X050418Y026221D02*
X050103D01*
X050208Y026326D01*
X050103Y026431D01*
X050418D01*
X057327Y025965D02*
Y02607D01*
Y026018D01*
X057013D01*
X057065Y025965D01*
X05969Y026831D02*
X059375D01*
X059532Y026674D01*
Y026884D01*
X05465Y026904D02*
Y026694D01*
X054808D01*
X054755Y026799D01*
Y026851D01*
X054808Y026904D01*
X054913D01*
X054965Y026851D01*
Y026746D01*
X054913Y026694D01*
X059729Y030552D02*
X059414D01*
X059729Y030762D01*
X059414D01*
Y031024D02*
Y030919D01*
X059467Y030867D01*
X059677D01*
X059729Y030919D01*
Y031024D01*
X059677Y031077D01*
X059467D01*
X059414Y031024D01*
X054946Y030552D02*
X054631D01*
X054946Y030762D01*
X054631D01*
X054683Y031077D02*
X054631Y031024D01*
Y030919D01*
X054683Y030867D01*
X054893D01*
X054946Y030919D01*
Y031024D01*
X054893Y031077D01*
X059427Y031477D02*
X059375Y03153D01*
Y031635D01*
X059427Y031687D01*
X05948D01*
X059532Y031635D01*
Y031582D01*
Y031635D01*
X059585Y031687D01*
X059637D01*
X05969Y031635D01*
Y03153D01*
X059637Y031477D01*
X054965Y031687D02*
Y031477D01*
X054755Y031687D01*
X054703D01*
X05465Y031635D01*
Y03153D01*
X054703Y031477D01*
X058797Y026471D02*
X058745Y026418D01*
Y026313D01*
X058797Y026261D01*
X059007D01*
X05906Y026313D01*
Y026418D01*
X059007Y026471D01*
X058745Y026733D02*
Y026628D01*
X058797Y026575D01*
X059007D01*
X05906Y026628D01*
Y026733D01*
X059007Y026785D01*
X058797D01*
X058745Y026733D01*
Y02689D02*
Y026995D01*
Y026943D01*
X05906D01*
Y02689D01*
Y026995D01*
X058745Y027153D02*
X05906D01*
Y027363D01*
X055353Y026471D02*
X0553Y026418D01*
Y026313D01*
X055353Y026261D01*
X055562D01*
X055615Y026313D01*
Y026418D01*
X055562Y026471D01*
X0553Y026733D02*
Y026628D01*
X055353Y026575D01*
X055562D01*
X055615Y026628D01*
Y026733D01*
X055562Y026785D01*
X055353D01*
X0553Y026733D01*
Y02689D02*
Y026995D01*
Y026943D01*
X055615D01*
Y02689D01*
Y026995D01*
X0553Y027153D02*
X055615D01*
Y027363D01*
X056435Y025801D02*
X056383Y025749D01*
Y025644D01*
X056435Y025591D01*
X056645D01*
X056698Y025644D01*
Y025749D01*
X056645Y025801D01*
X056383Y026064D02*
Y025959D01*
X056435Y025906D01*
X056645D01*
X056698Y025959D01*
Y026064D01*
X056645Y026116D01*
X056435D01*
X056383Y026064D01*
X056698Y026221D02*
X056383D01*
X056488Y026326D01*
X056383Y026431D01*
X056698D01*
D146*
X066245Y026792D02*
G03*
X066245Y026792I-000433J0D01*
G01*
X063883Y026005D02*
G03*
X063883Y026005I-000433J0D01*
G01*
X061521Y026792D02*
G03*
X061521Y026792I-000433J0D01*
G01*
X062893Y027909D02*
G03*
X061549Y028465I-000557J000557D01*
G01*
X066245Y031595D02*
G03*
X066245Y031595I-000433J0D01*
G01*
X064007Y027909D02*
G03*
X062893Y027909I-000557J000557D01*
G01*
X065351Y028465D02*
G03*
X064007Y027909I-000787J0D01*
G01*
X061521Y031595D02*
G03*
X061521Y031595I-000433J0D01*
G01*
X034845Y026792D02*
G03*
X034845Y026792I-000433J0D01*
G01*
X032483Y026005D02*
G03*
X032483Y026005I-000433J0D01*
G01*
X030121Y026792D02*
G03*
X030121Y026792I-000433J0D01*
G01*
X031493Y027909D02*
G03*
X030149Y028465I-000557J000557D01*
G01*
X034845Y031595D02*
G03*
X034845Y031595I-000433J0D01*
G01*
X032607Y027909D02*
G03*
X031493Y027909I-000557J000557D01*
G01*
X033951Y028465D02*
G03*
X032607Y027909I-000787J0D01*
G01*
X030121Y031595D02*
G03*
X030121Y031595I-000433J0D01*
G01*
X041125Y026792D02*
G03*
X041125Y026792I-000433J0D01*
G01*
X038763Y026005D02*
G03*
X038763Y026005I-000433J0D01*
G01*
X036401Y026792D02*
G03*
X036401Y026792I-000433J0D01*
G01*
X037773Y027909D02*
G03*
X036429Y028465I-000557J000557D01*
G01*
X041125Y031595D02*
G03*
X041125Y031595I-000433J0D01*
G01*
X038887Y027909D02*
G03*
X037773Y027909I-000557J000557D01*
G01*
X040231Y028465D02*
G03*
X038887Y027909I-000787J0D01*
G01*
X036401Y031595D02*
G03*
X036401Y031595I-000433J0D01*
G01*
X047405Y026792D02*
G03*
X047405Y026792I-000433J0D01*
G01*
X045043Y026005D02*
G03*
X045043Y026005I-000433J0D01*
G01*
X042681Y026792D02*
G03*
X042681Y026792I-000433J0D01*
G01*
X044053Y027909D02*
G03*
X042709Y028465I-000557J000557D01*
G01*
X047405Y031595D02*
G03*
X047405Y031595I-000433J0D01*
G01*
X045167Y027909D02*
G03*
X044053Y027909I-000557J000557D01*
G01*
X046511Y028465D02*
G03*
X045167Y027909I-000787J0D01*
G01*
X042681Y031595D02*
G03*
X042681Y031595I-000433J0D01*
G01*
X053685Y026792D02*
G03*
X053685Y026792I-000433J0D01*
G01*
X051323Y026005D02*
G03*
X051323Y026005I-000433J0D01*
G01*
X048961Y026792D02*
G03*
X048961Y026792I-000433J0D01*
G01*
X050333Y027909D02*
G03*
X048989Y028465I-000557J000557D01*
G01*
X053685Y031595D02*
G03*
X053685Y031595I-000433J0D01*
G01*
X051447Y027909D02*
G03*
X050333Y027909I-000557J000557D01*
G01*
X052791Y028465D02*
G03*
X051447Y027909I-000787J0D01*
G01*
X048961Y031595D02*
G03*
X048961Y031595I-000433J0D01*
G01*
X059965Y026792D02*
G03*
X059965Y026792I-000433J0D01*
G01*
X057603Y026005D02*
G03*
X057603Y026005I-000433J0D01*
G01*
X055241Y026792D02*
G03*
X055241Y026792I-000433J0D01*
G01*
X056613Y027909D02*
G03*
X055269Y028465I-000557J000557D01*
G01*
X059965Y031595D02*
G03*
X059965Y031595I-000433J0D01*
G01*
X057727Y027909D02*
G03*
X056613Y027909I-000557J000557D01*
G01*
X059071Y028465D02*
G03*
X057727Y027909I-000787J0D01*
G01*
X055241Y031595D02*
G03*
X055241Y031595I-000433J0D01*
G01*
X065351Y028465D02*
X065812D01*
X061088D02*
X061549D01*
X064139Y031595D02*
X065379D01*
X061521D02*
X062761D01*
X060399Y025454D02*
X066501D01*
X060399Y032973D02*
X066501D01*
X065812Y027225D02*
Y028465D01*
X061088Y027225D02*
Y028465D01*
X06345Y026438D02*
Y029587D01*
X066501Y025454D02*
Y032973D01*
X060399Y025454D02*
Y032973D01*
X062958Y031595D02*
X06345Y029587D01*
X033951Y028465D02*
X034412D01*
X029688D02*
X030149D01*
X032739Y031595D02*
X033979D01*
X030121D02*
X031361D01*
X028999Y025454D02*
X035101D01*
X028999Y032973D02*
X035101D01*
X034412Y027225D02*
Y028465D01*
X029688Y027225D02*
Y028465D01*
X03205Y026438D02*
Y029587D01*
X035101Y025454D02*
Y032973D01*
X028999Y025454D02*
Y032973D01*
X031558Y031595D02*
X03205Y029587D01*
X040231Y028465D02*
X040692D01*
X035968D02*
X036429D01*
X039019Y031595D02*
X040259D01*
X036401D02*
X037641D01*
X035279Y025454D02*
X041381D01*
X035279Y032973D02*
X041381D01*
X040692Y027225D02*
Y028465D01*
X035968Y027225D02*
Y028465D01*
X03833Y026438D02*
Y029587D01*
X041381Y025454D02*
Y032973D01*
X035279Y025454D02*
Y032973D01*
X037838Y031595D02*
X03833Y029587D01*
X046511Y028465D02*
X046972D01*
X042248D02*
X042709D01*
X045299Y031595D02*
X046539D01*
X042681D02*
X043921D01*
X041559Y025454D02*
X047661D01*
X041559Y032973D02*
X047661D01*
X046972Y027225D02*
Y028465D01*
X042248Y027225D02*
Y028465D01*
X04461Y026438D02*
Y029587D01*
X047661Y025454D02*
Y032973D01*
X041559Y025454D02*
Y032973D01*
X044118Y031595D02*
X04461Y029587D01*
X052791Y028465D02*
X053252D01*
X048528D02*
X048989D01*
X051579Y031595D02*
X052819D01*
X048961D02*
X050201D01*
X047839Y025454D02*
X053941D01*
X047839Y032973D02*
X053941D01*
X053252Y027225D02*
Y028465D01*
X048528Y027225D02*
Y028465D01*
X05089Y026438D02*
Y029587D01*
X053941Y025454D02*
Y032973D01*
X047839Y025454D02*
Y032973D01*
X050398Y031595D02*
X05089Y029587D01*
X059071Y028465D02*
X059532D01*
X054808D02*
X055269D01*
X057859Y031595D02*
X059099D01*
X055241D02*
X056481D01*
X054119Y025454D02*
X060221D01*
X054119Y032973D02*
X060221D01*
X059532Y027225D02*
Y028465D01*
X054808Y027225D02*
Y028465D01*
X05717Y026438D02*
Y029587D01*
X060221Y025454D02*
Y032973D01*
X054119Y025454D02*
Y032973D01*
X056678Y031595D02*
X05717Y029587D01*
M02*
