G04*
G04 #@! TF.GenerationSoftware,Altium Limited,Altium Designer,21.2.1 (34)*
G04*
G04 Layer_Color=2752767*
%FSTAX24Y24*%
%MOIN*%
G70*
G04*
G04 #@! TF.SameCoordinates,A1A6E38C-14B6-47A5-B441-A3D0562B644C*
G04*
G04*
G04 #@! TF.FilePolarity,Positive*
G04*
G01*
G75*
%ADD121C,0.0020*%
%ADD122C,0.0027*%
%ADD123C,0.0013*%
D121*
X044687Y011424D02*
Y011584D01*
X044847D01*
Y011424D01*
X044687D01*
X04355Y02217D02*
X04347Y02233D01*
X04363D01*
X04355Y02217D01*
Y02318D02*
X04347Y02334D01*
X04363D01*
X04355Y02318D01*
X04505Y02217D02*
X04497Y02233D01*
X04513D01*
X04505Y02217D01*
Y02318D02*
X04497Y02334D01*
X04513D01*
X04505Y02318D01*
X044687Y042368D02*
Y042528D01*
X044847D01*
Y042368D01*
X044687D01*
X01177Y042366D02*
Y042526D01*
X01193D01*
Y042366D01*
X01177D01*
X037312Y040785D02*
X037232Y040945D01*
X037392D01*
X037312Y040785D01*
X036302D02*
X036222Y040945D01*
X036382D01*
X036302Y040785D01*
X035322D02*
X035242Y040945D01*
X035402D01*
X035322Y040785D01*
X03975Y04232D02*
X03979Y04236D01*
X03983D01*
X03979Y0424D01*
X03983Y04244D01*
X03979D01*
X03975Y04248D01*
X03971Y04244D01*
X03967D01*
X03971Y0424D01*
X03967Y04236D01*
X03971D01*
X03975Y04232D01*
X03875Y04132D02*
X03879Y04136D01*
X03883D01*
X03879Y0414D01*
X03883Y04144D01*
X03879D01*
X03875Y04148D01*
X03871Y04144D01*
X03867D01*
X03871Y0414D01*
X03867Y04136D01*
X03871D01*
X03875Y04132D01*
X04075D02*
X04079Y04136D01*
X04083D01*
X04079Y0414D01*
X04083Y04144D01*
X04079D01*
X04075Y04148D01*
X04071Y04144D01*
X04067D01*
X04071Y0414D01*
X04067Y04136D01*
X04071D01*
X04075Y04132D01*
Y04332D02*
X04079Y04336D01*
X04083D01*
X04079Y0434D01*
X04083Y04344D01*
X04079D01*
X04075Y04348D01*
X04071Y04344D01*
X04067D01*
X04071Y0434D01*
X04067Y04336D01*
X04071D01*
X04075Y04332D01*
X03875D02*
X03879Y04336D01*
X03883D01*
X03879Y0434D01*
X03883Y04344D01*
X03879D01*
X03875Y04348D01*
X03871Y04344D01*
X03867D01*
X03871Y0434D01*
X03867Y04336D01*
X03871D01*
X03875Y04332D01*
X0362Y04252D02*
X03612Y04268D01*
X03628D01*
X0362Y04252D01*
X0322D02*
X03212Y04268D01*
X03228D01*
X0322Y04252D01*
X0332D02*
X03312Y04268D01*
X03328D01*
X0332Y04252D01*
X0342D02*
X03412Y04268D01*
X03428D01*
X0342Y04252D01*
X0352D02*
X03512Y04268D01*
X03528D01*
X0352Y04252D01*
X0372D02*
X03712Y04268D01*
X03728D01*
X0372Y04252D01*
X02Y04242D02*
X02004Y04246D01*
X02008D01*
X02004Y0425D01*
X02008Y04254D01*
X02004D01*
X02Y04258D01*
X01996Y04254D01*
X01992D01*
X01996Y0425D01*
X01992Y04246D01*
X01996D01*
X02Y04242D01*
X018D02*
X01804Y04246D01*
X01808D01*
X01804Y0425D01*
X01808Y04254D01*
X01804D01*
X018Y04258D01*
X01796Y04254D01*
X01792D01*
X01796Y0425D01*
X01792Y04246D01*
X01796D01*
X018Y04242D01*
X011774Y011424D02*
Y011584D01*
X011934D01*
Y011424D01*
X011774D01*
X0343Y012249D02*
X03434Y012289D01*
X03438D01*
X03434Y012329D01*
X03438Y012369D01*
X03434D01*
X0343Y012409D01*
X03426Y012369D01*
X03422D01*
X03426Y012329D01*
X03422Y012289D01*
X03426D01*
X0343Y012249D01*
X0323D02*
X03234Y012289D01*
X03238D01*
X03234Y012329D01*
X03238Y012369D01*
X03234D01*
X0323Y012409D01*
X03226Y012369D01*
X03222D01*
X03226Y012329D01*
X03222Y012289D01*
X03226D01*
X0323Y012249D01*
X0303D02*
X03034Y012289D01*
X03038D01*
X03034Y012329D01*
X03038Y012369D01*
X03034D01*
X0303Y012409D01*
X03026Y012369D01*
X03022D01*
X03026Y012329D01*
X03022Y012289D01*
X03026D01*
X0303Y012249D01*
X0283D02*
X02834Y012289D01*
X02838D01*
X02834Y012329D01*
X02838Y012369D01*
X02834D01*
X0283Y012409D01*
X02826Y012369D01*
X02822D01*
X02826Y012329D01*
X02822Y012289D01*
X02826D01*
X0283Y012249D01*
X03645D02*
X03649Y012289D01*
X03653D01*
X03649Y012329D01*
X03653Y012369D01*
X03649D01*
X03645Y012409D01*
X03641Y012369D01*
X03637D01*
X03641Y012329D01*
X03637Y012289D01*
X03641D01*
X03645Y012249D01*
X03845D02*
X03849Y012289D01*
X03853D01*
X03849Y012329D01*
X03853Y012369D01*
X03849D01*
X03845Y012409D01*
X03841Y012369D01*
X03837D01*
X03841Y012329D01*
X03837Y012289D01*
X03841D01*
X03845Y012249D01*
X04045D02*
X04049Y012289D01*
X04053D01*
X04049Y012329D01*
X04053Y012369D01*
X04049D01*
X04045Y012409D01*
X04041Y012369D01*
X04037D01*
X04041Y012329D01*
X04037Y012289D01*
X04041D01*
X04045Y012249D01*
X035332Y024278D02*
X035372Y024358D01*
X035332Y024438D01*
X035412Y024398D01*
X035492Y024438D01*
X035452Y024358D01*
X035492Y024278D01*
X035412Y024318D01*
X035332Y024278D01*
X03297Y025065D02*
X03301Y025145D01*
X03297Y025225D01*
X03305Y025185D01*
X03313Y025225D01*
X03309Y025145D01*
X03313Y025065D01*
X03305Y025105D01*
X03297Y025065D01*
X030608Y024278D02*
X030648Y024358D01*
X030608Y024438D01*
X030688Y024398D01*
X030768Y024438D01*
X030728Y024358D01*
X030768Y024278D01*
X030688Y024318D01*
X030608Y024278D01*
X035332Y019475D02*
X035372Y019555D01*
X035332Y019635D01*
X035412Y019595D01*
X035492Y019635D01*
X035452Y019555D01*
X035492Y019475D01*
X035412Y019515D01*
X035332Y019475D01*
X030608D02*
X030648Y019555D01*
X030608Y019635D01*
X030688Y019595D01*
X030768Y019635D01*
X030728Y019555D01*
X030768Y019475D01*
X030688Y019515D01*
X030608Y019475D01*
X028832Y024278D02*
X028872Y024358D01*
X028832Y024438D01*
X028912Y024398D01*
X028992Y024438D01*
X028952Y024358D01*
X028992Y024278D01*
X028912Y024318D01*
X028832Y024278D01*
X02647Y025065D02*
X02651Y025145D01*
X02647Y025225D01*
X02655Y025185D01*
X02663Y025225D01*
X02659Y025145D01*
X02663Y025065D01*
X02655Y025105D01*
X02647Y025065D01*
X024108Y024278D02*
X024148Y024358D01*
X024108Y024438D01*
X024188Y024398D01*
X024268Y024438D01*
X024228Y024358D01*
X024268Y024278D01*
X024188Y024318D01*
X024108Y024278D01*
X028832Y019475D02*
X028872Y019555D01*
X028832Y019635D01*
X028912Y019595D01*
X028992Y019635D01*
X028952Y019555D01*
X028992Y019475D01*
X028912Y019515D01*
X028832Y019475D01*
X024108D02*
X024148Y019555D01*
X024108Y019635D01*
X024188Y019595D01*
X024268Y019635D01*
X024228Y019555D01*
X024268Y019475D01*
X024188Y019515D01*
X024108Y019475D01*
X017608D02*
X017648Y019555D01*
X017608Y019635D01*
X017688Y019595D01*
X017768Y019635D01*
X017728Y019555D01*
X017768Y019475D01*
X017688Y019515D01*
X017608Y019475D01*
X022332D02*
X022372Y019555D01*
X022332Y019635D01*
X022412Y019595D01*
X022492Y019635D01*
X022452Y019555D01*
X022492Y019475D01*
X022412Y019515D01*
X022332Y019475D01*
X017608Y024278D02*
X017648Y024358D01*
X017608Y024438D01*
X017688Y024398D01*
X017768Y024438D01*
X017728Y024358D01*
X017768Y024278D01*
X017688Y024318D01*
X017608Y024278D01*
X01997Y025065D02*
X02001Y025145D01*
X01997Y025225D01*
X02005Y025185D01*
X02013Y025225D01*
X02009Y025145D01*
X02013Y025065D01*
X02005Y025105D01*
X01997Y025065D01*
X022332Y024278D02*
X022372Y024358D01*
X022332Y024438D01*
X022412Y024398D01*
X022492Y024438D01*
X022452Y024358D01*
X022492Y024278D01*
X022412Y024318D01*
X022332Y024278D01*
X04136Y01516D02*
Y01512D01*
X04144D01*
Y01516D01*
X04148D01*
Y01524D01*
X04144D01*
Y01528D01*
X04136D01*
Y01524D01*
X04132D01*
Y01516D01*
X04136D01*
X03936D02*
Y01512D01*
X03944D01*
Y01516D01*
X03948D01*
Y01524D01*
X03944D01*
Y01528D01*
X03936D01*
Y01524D01*
X03932D01*
Y01516D01*
X03936D01*
X03736D02*
Y01512D01*
X03744D01*
Y01516D01*
X03748D01*
Y01524D01*
X03744D01*
Y01528D01*
X03736D01*
Y01524D01*
X03732D01*
Y01516D01*
X03736D01*
X03776Y03056D02*
Y03052D01*
X03784D01*
Y03056D01*
X03788D01*
Y03064D01*
X03784D01*
Y03068D01*
X03776D01*
Y03064D01*
X03772D01*
Y03056D01*
X03776D01*
X04076D02*
Y03052D01*
X04084D01*
Y03056D01*
X04088D01*
Y03064D01*
X04084D01*
Y03068D01*
X04076D01*
Y03064D01*
X04072D01*
Y03056D01*
X04076D01*
X03976D02*
Y03052D01*
X03984D01*
Y03056D01*
X03988D01*
Y03064D01*
X03984D01*
Y03068D01*
X03976D01*
Y03064D01*
X03972D01*
Y03056D01*
X03976D01*
X03876D02*
Y03052D01*
X03884D01*
Y03056D01*
X03888D01*
Y03064D01*
X03884D01*
Y03068D01*
X03876D01*
Y03064D01*
X03872D01*
Y03056D01*
X03876D01*
X04136Y01436D02*
Y01432D01*
X04144D01*
Y01436D01*
X04148D01*
Y01444D01*
X04144D01*
Y01448D01*
X04136D01*
Y01444D01*
X04132D01*
Y01436D01*
X04136D01*
X03936D02*
Y01432D01*
X03944D01*
Y01436D01*
X03948D01*
Y01444D01*
X03944D01*
Y01448D01*
X03936D01*
Y01444D01*
X03932D01*
Y01436D01*
X03936D01*
X03736D02*
Y01432D01*
X03744D01*
Y01436D01*
X03748D01*
Y01444D01*
X03744D01*
Y01448D01*
X03736D01*
Y01444D01*
X03732D01*
Y01436D01*
X03736D01*
X04076Y03121D02*
Y03117D01*
X04084D01*
Y03121D01*
X04088D01*
Y03129D01*
X04084D01*
Y03133D01*
X04076D01*
Y03129D01*
X04072D01*
Y03121D01*
X04076D01*
X03976D02*
Y03117D01*
X03984D01*
Y03121D01*
X03988D01*
Y03129D01*
X03984D01*
Y03133D01*
X03976D01*
Y03129D01*
X03972D01*
Y03121D01*
X03976D01*
X03876D02*
Y03117D01*
X03884D01*
Y03121D01*
X03888D01*
Y03129D01*
X03884D01*
Y03133D01*
X03876D01*
Y03129D01*
X03872D01*
Y03121D01*
X03876D01*
X03776D02*
Y03117D01*
X03784D01*
Y03121D01*
X03788D01*
Y03129D01*
X03784D01*
Y03133D01*
X03776D01*
Y03129D01*
X03772D01*
Y03121D01*
X03776D01*
X015719Y019994D02*
X015759D01*
X015799Y020034D01*
X015839Y019994D01*
X015879D01*
Y020034D01*
X015839Y020074D01*
X015879Y020114D01*
Y020154D01*
X015839D01*
X015799Y020114D01*
X015759Y020154D01*
X015719D01*
Y020114D01*
X015759Y020074D01*
X015719Y020034D01*
Y019994D01*
X01474D02*
X01478D01*
X01482Y020034D01*
X01486Y019994D01*
X0149D01*
Y020034D01*
X01486Y020074D01*
X0149Y020114D01*
Y020154D01*
X01486D01*
X01482Y020114D01*
X01478Y020154D01*
X01474D01*
Y020114D01*
X01478Y020074D01*
X01474Y020034D01*
Y019994D01*
X013761D02*
X013801D01*
X013841Y020034D01*
X013881Y019994D01*
X013921D01*
Y020034D01*
X013881Y020074D01*
X013921Y020114D01*
Y020154D01*
X013881D01*
X013841Y020114D01*
X013801Y020154D01*
X013761D01*
Y020114D01*
X013801Y020074D01*
X013761Y020034D01*
Y019994D01*
X012782D02*
X012822D01*
X012862Y020034D01*
X012902Y019994D01*
X012942D01*
Y020034D01*
X012902Y020074D01*
X012942Y020114D01*
Y020154D01*
X012902D01*
X012862Y020114D01*
X012822Y020154D01*
X012782D01*
Y020114D01*
X012822Y020074D01*
X012782Y020034D01*
Y019994D01*
X019895Y032345D02*
X019975Y032425D01*
X020055Y032345D01*
X019975Y032265D01*
X019895Y032345D01*
X020945Y032295D02*
X021025Y032375D01*
X021105Y032295D01*
X021025Y032215D01*
X020945Y032295D01*
Y035245D02*
X021025Y035325D01*
X021105Y035245D01*
X021025Y035165D01*
X020945Y035245D01*
X019895D02*
X019975Y035325D01*
X020055Y035245D01*
X019975Y035165D01*
X019895Y035245D01*
X022095Y032711D02*
X022175Y032791D01*
X022255Y032711D01*
X022175Y032631D01*
X022095Y032711D01*
Y034978D02*
X022175Y035058D01*
X022255Y034978D01*
X022175Y034898D01*
X022095Y034978D01*
Y033278D02*
X022175Y033358D01*
X022255Y033278D01*
X022175Y033198D01*
X022095Y033278D01*
X021545Y034065D02*
X021625Y034145D01*
X021705Y034065D01*
X021625Y033985D01*
X021545Y034065D01*
Y033525D02*
X021625Y033605D01*
X021705Y033525D01*
X021625Y033445D01*
X021545Y033525D01*
X022095Y033845D02*
X022175Y033925D01*
X022255Y033845D01*
X022175Y033765D01*
X022095Y033845D01*
Y032145D02*
X022175Y032225D01*
X022255Y032145D01*
X022175Y032065D01*
X022095Y032145D01*
X020445Y032945D02*
X020525Y033025D01*
X020605Y032945D01*
X020525Y032865D01*
X020445Y032945D01*
X022095Y034411D02*
X022175Y034491D01*
X022255Y034411D01*
X022175Y034331D01*
X022095Y034411D01*
Y035545D02*
X022175Y035625D01*
X022255Y035545D01*
X022175Y035465D01*
X022095Y035545D01*
X019895Y032925D02*
X019975Y033005D01*
X020055Y032925D01*
X019975Y032845D01*
X019895Y032925D01*
X021545Y032985D02*
X021625Y033065D01*
X021705Y032985D01*
X021625Y032905D01*
X021545Y032985D01*
Y034605D02*
X021625Y034685D01*
X021705Y034605D01*
X021625Y034525D01*
X021545Y034605D01*
X019895Y034085D02*
X019975Y034165D01*
X020055Y034085D01*
X019975Y034005D01*
X019895Y034085D01*
X021545Y035145D02*
X021625Y035225D01*
X021705Y035145D01*
X021625Y035065D01*
X021545Y035145D01*
X020445Y034045D02*
X020525Y034125D01*
X020605Y034045D01*
X020525Y033965D01*
X020445Y034045D01*
X020945Y034745D02*
X021025Y034825D01*
X021105Y034745D01*
X021025Y034665D01*
X020945Y034745D01*
X021545Y032445D02*
X021625Y032525D01*
X021705Y032445D01*
X021625Y032365D01*
X021545Y032445D01*
X020945Y032745D02*
X021025Y032825D01*
X021105Y032745D01*
X021025Y032665D01*
X020945Y032745D01*
Y033245D02*
X021025Y033325D01*
X021105Y033245D01*
X021025Y033165D01*
X020945Y033245D01*
Y033845D02*
X021025Y033925D01*
X021105Y033845D01*
X021025Y033765D01*
X020945Y033845D01*
X019895Y033505D02*
X019975Y033585D01*
X020055Y033505D01*
X019975Y033425D01*
X019895Y033505D01*
X020945Y034295D02*
X021025Y034375D01*
X021105Y034295D01*
X021025Y034215D01*
X020945Y034295D01*
X019895Y034665D02*
X019975Y034745D01*
X020055Y034665D01*
X019975Y034585D01*
X019895Y034665D01*
X020445Y034995D02*
X020525Y035075D01*
X020605Y034995D01*
X020525Y034915D01*
X020445Y034995D01*
Y034495D02*
X020525Y034575D01*
X020605Y034495D01*
X020525Y034415D01*
X020445Y034495D01*
Y033445D02*
X020525Y033525D01*
X020605Y033445D01*
X020525Y033365D01*
X020445Y033445D01*
Y032395D02*
X020525Y032475D01*
X020605Y032395D01*
X020525Y032315D01*
X020445Y032395D01*
X012184Y036539D02*
Y036699D01*
X012344D01*
Y036539D01*
X012184D01*
X012224Y036579D02*
Y036658D01*
X012304D01*
Y036579D01*
X012224D01*
X012184Y032601D02*
Y032761D01*
X012344D01*
Y032601D01*
X012184D01*
X012224Y032641D02*
Y032722D01*
X012304D01*
Y032641D01*
X012224D01*
X013956Y032601D02*
Y032761D01*
X014116D01*
Y032601D01*
X013956D01*
X013996Y032641D02*
Y032722D01*
X014076D01*
Y032641D01*
X013996D01*
X013956Y036539D02*
Y036699D01*
X014116D01*
Y036539D01*
X013956D01*
X013996Y036579D02*
Y036658D01*
X014076D01*
Y036579D01*
X013996D01*
X0162Y012249D02*
X01624Y012289D01*
X01628D01*
X01624Y012329D01*
X01628Y012369D01*
X01624D01*
X0162Y012409D01*
X01616Y012369D01*
X01612D01*
X01616Y012329D01*
X01612Y012289D01*
X01616D01*
X0162Y012249D01*
X0182D02*
X01824Y012289D01*
X01828D01*
X01824Y012329D01*
X01828Y012369D01*
X01824D01*
X0182Y012409D01*
X01816Y012369D01*
X01812D01*
X01816Y012329D01*
X01812Y012289D01*
X01816D01*
X0182Y012249D01*
X0202D02*
X02024Y012289D01*
X02028D01*
X02024Y012329D01*
X02028Y012369D01*
X02024D01*
X0202Y012409D01*
X02016Y012369D01*
X02012D01*
X02016Y012329D01*
X02012Y012289D01*
X02016D01*
X0202Y012249D01*
X0222D02*
X02224Y012289D01*
X02228D01*
X02224Y012329D01*
X02228Y012369D01*
X02224D01*
X0222Y012409D01*
X02216Y012369D01*
X02212D01*
X02216Y012329D01*
X02212Y012289D01*
X02216D01*
X0222Y012249D01*
X0242D02*
X02424Y012289D01*
X02428D01*
X02424Y012329D01*
X02428Y012369D01*
X02424D01*
X0242Y012409D01*
X02416Y012369D01*
X02412D01*
X02416Y012329D01*
X02412Y012289D01*
X02416D01*
X0242Y012249D01*
X0262D02*
X02624Y012289D01*
X02628D01*
X02624Y012329D01*
X02628Y012369D01*
X02624D01*
X0262Y012409D01*
X02616Y012369D01*
X02612D01*
X02616Y012329D01*
X02612Y012289D01*
X02616D01*
X0262Y012249D01*
X026623Y01592D02*
Y01608D01*
X026783D01*
Y01592D01*
X026623D01*
X026663Y01596D02*
Y01604D01*
X026743D01*
Y01596D01*
X026663D01*
X020717Y01592D02*
Y01608D01*
X020877D01*
Y01592D01*
X020717D01*
X020757Y01596D02*
Y01604D01*
X020837D01*
Y01596D01*
X020757D01*
X028717Y01592D02*
Y01608D01*
X028877D01*
Y01592D01*
X028717D01*
X028757Y01596D02*
Y01604D01*
X028837D01*
Y01596D01*
X028757D01*
X034623Y01592D02*
Y01608D01*
X034783D01*
Y01592D01*
X034623D01*
X034663Y01596D02*
Y01604D01*
X034743D01*
Y01596D01*
X034663D01*
X012717Y01592D02*
Y01608D01*
X012877D01*
Y01592D01*
X012717D01*
X012757Y01596D02*
Y01604D01*
X012837D01*
Y01596D01*
X012757D01*
X018623Y01592D02*
Y01608D01*
X018783D01*
Y01592D01*
X018623D01*
X018663Y01596D02*
Y01604D01*
X018743D01*
Y01596D01*
X018663D01*
X03977Y02815D02*
X03985Y02823D01*
X03993Y02815D01*
X03985Y02807D01*
X03977Y02815D01*
X03877D02*
X03885Y02823D01*
X03893Y02815D01*
X03885Y02807D01*
X03877Y02815D01*
X03977Y0266D02*
X03985Y02668D01*
X03993Y0266D01*
X03985Y02652D01*
X03977Y0266D01*
X03877D02*
X03885Y02668D01*
X03893Y0266D01*
X03885Y02652D01*
X03877Y0266D01*
X041661Y037978D02*
X041741Y038058D01*
X041821Y037978D01*
X041741Y037898D01*
X041661Y037978D01*
X03682Y03785D02*
X0369Y03793D01*
X03698Y03785D01*
X0369Y03777D01*
X03682Y03785D01*
X030226Y040091D02*
X030306Y040171D01*
X030386Y040091D01*
X030306Y040011D01*
X030226Y040091D01*
X024114Y039135D02*
X024194Y039215D01*
X024274Y039135D01*
X024194Y039055D01*
X024114Y039135D01*
X031786Y02965D02*
X031866Y02973D01*
X031946Y02965D01*
X031866Y02957D01*
X031786Y02965D01*
X02732Y040089D02*
X0274Y040169D01*
X02748Y040089D01*
X0274Y040009D01*
X02732Y040089D01*
X042548Y034022D02*
X042628Y034102D01*
X042709Y034022D01*
X042628Y033942D01*
X042548Y034022D01*
X04181Y034007D02*
X04189Y034087D01*
X04197Y034007D01*
X04189Y033927D01*
X04181Y034007D01*
X042099Y033457D02*
X042179Y033537D01*
X042259Y033457D01*
X042179Y033377D01*
X042099Y033457D01*
X04071Y033838D02*
X04079Y033918D01*
X04087Y033838D01*
X04079Y033758D01*
X04071Y033838D01*
X039927Y033598D02*
X040007Y033678D01*
X040087Y033598D01*
X040007Y033518D01*
X039927Y033598D01*
X037521Y03359D02*
X037601Y03367D01*
X037681Y03359D01*
X037601Y03351D01*
X037521Y03359D01*
X01317Y03025D02*
X01325Y03033D01*
X01333Y03025D01*
X01325Y03017D01*
X01317Y03025D01*
X018072Y027585D02*
X018152Y027666D01*
X018232Y027585D01*
X018152Y027506D01*
X018072Y027585D01*
X03092Y0276D02*
X031Y02768D01*
X03108Y0276D01*
X031Y02752D01*
X03092Y0276D01*
X02452D02*
X0246Y02768D01*
X02468Y0276D01*
X0246Y02752D01*
X02452Y0276D01*
X02927Y04205D02*
X02935Y04213D01*
X02943Y04205D01*
X02935Y04197D01*
X02927Y04205D01*
X02467Y042D02*
X02475Y04208D01*
X02483Y042D01*
X02475Y04192D01*
X02467Y042D01*
X03832Y0336D02*
X0384Y03368D01*
X03848Y0336D01*
X0384Y03352D01*
X03832Y0336D01*
X039076Y037392D02*
X039156Y037472D01*
X039236Y037392D01*
X039156Y037312D01*
X039076Y037392D01*
X03987Y03825D02*
X03995Y03833D01*
X04003Y03825D01*
X03995Y03817D01*
X03987Y03825D01*
X03487Y03435D02*
X03495Y03443D01*
X03503Y03435D01*
X03495Y03427D01*
X03487Y03435D01*
X03722Y03725D02*
X0373Y03733D01*
X03738Y03725D01*
X0373Y03717D01*
X03722Y03725D01*
X03822Y037441D02*
X0383Y037521D01*
X03838Y037441D01*
X0383Y037361D01*
X03822Y037441D01*
X02597Y0297D02*
X02605Y02978D01*
X02613Y0297D01*
X02605Y02962D01*
X02597Y0297D01*
X01947Y02975D02*
X01955Y02983D01*
X01963Y02975D01*
X01955Y02967D01*
X01947Y02975D01*
X02297Y03725D02*
X02305Y03733D01*
X02313Y03725D01*
X02305Y03717D01*
X02297Y03725D01*
X01397Y02875D02*
X01405Y02883D01*
X01413Y02875D01*
X01405Y02867D01*
X01397Y02875D01*
D122*
X04393Y01965D02*
G03*
X04393Y01965I-00008J0D01*
G01*
X04493D02*
G03*
X04493Y01965I-00008J0D01*
G01*
X04473Y01675D02*
G03*
X04473Y01675I-00008J0D01*
G01*
X04373D02*
G03*
X04373Y01675I-00008J0D01*
G01*
X01233Y021996D02*
G03*
X01233Y021996I-00008J0D01*
G01*
X01333D02*
G03*
X01333Y021996I-00008J0D01*
G01*
X015012D02*
G03*
X015012Y021996I-00008J0D01*
G01*
X016012D02*
G03*
X016012Y021996I-00008J0D01*
G01*
X01233Y02475D02*
G03*
X01233Y02475I-00008J0D01*
G01*
X01333D02*
G03*
X01333Y02475I-00008J0D01*
G01*
X017618Y04019D02*
G03*
X017618Y04019I-00008J0D01*
G01*
X016618D02*
G03*
X016618Y04019I-00008J0D01*
G01*
X01957Y03741D02*
G03*
X01957Y03741I-00008J0D01*
G01*
X02057D02*
G03*
X02057Y03741I-00008J0D01*
G01*
X01957Y04021D02*
G03*
X01957Y04021I-00008J0D01*
G01*
X02057D02*
G03*
X02057Y04021I-00008J0D01*
G01*
X030776Y03345D02*
G03*
X030776Y03345I-00008J0D01*
G01*
X027784D02*
G03*
X027784Y03345I-00008J0D01*
G01*
X044847Y012645D02*
G03*
X044847Y012645I-00008J0D01*
G01*
Y010362D02*
G03*
X044847Y010362I-00008J0D01*
G01*
X045654Y010696D02*
G03*
X045654Y010696I-00008J0D01*
G01*
X04404Y012311D02*
G03*
X04404Y012311I-00008J0D01*
G01*
X045989Y011504D02*
G03*
X045989Y011504I-00008J0D01*
G01*
X043705D02*
G03*
X043705Y011504I-00008J0D01*
G01*
X045654Y012311D02*
G03*
X045654Y012311I-00008J0D01*
G01*
X04404Y010696D02*
G03*
X04404Y010696I-00008J0D01*
G01*
Y041641D02*
G03*
X04404Y041641I-00008J0D01*
G01*
X045654Y043256D02*
G03*
X045654Y043256I-00008J0D01*
G01*
X043705Y042448D02*
G03*
X043705Y042448I-00008J0D01*
G01*
X045989D02*
G03*
X045989Y042448I-00008J0D01*
G01*
X04404Y043256D02*
G03*
X04404Y043256I-00008J0D01*
G01*
X045654Y041641D02*
G03*
X045654Y041641I-00008J0D01*
G01*
X044847Y041307D02*
G03*
X044847Y041307I-00008J0D01*
G01*
Y04359D02*
G03*
X044847Y04359I-00008J0D01*
G01*
X011123Y041639D02*
G03*
X011123Y041639I-00008J0D01*
G01*
X012737Y043254D02*
G03*
X012737Y043254I-00008J0D01*
G01*
X010788Y042446D02*
G03*
X010788Y042446I-00008J0D01*
G01*
X013072D02*
G03*
X013072Y042446I-00008J0D01*
G01*
X011123Y043254D02*
G03*
X011123Y043254I-00008J0D01*
G01*
X012737Y041639D02*
G03*
X012737Y041639I-00008J0D01*
G01*
X01193Y041305D02*
G03*
X01193Y041305I-00008J0D01*
G01*
Y043588D02*
G03*
X01193Y043588I-00008J0D01*
G01*
X011934Y012645D02*
G03*
X011934Y012645I-00008J0D01*
G01*
Y010362D02*
G03*
X011934Y010362I-00008J0D01*
G01*
X012741Y010696D02*
G03*
X012741Y010696I-00008J0D01*
G01*
X011126Y012311D02*
G03*
X011126Y012311I-00008J0D01*
G01*
X013075Y011504D02*
G03*
X013075Y011504I-00008J0D01*
G01*
X010792D02*
G03*
X010792Y011504I-00008J0D01*
G01*
X012741Y012311D02*
G03*
X012741Y012311I-00008J0D01*
G01*
X011126Y010696D02*
G03*
X011126Y010696I-00008J0D01*
G01*
D123*
X044807Y012645D02*
G03*
X044807Y012645I-00004J0D01*
G01*
Y010362D02*
G03*
X044807Y010362I-00004J0D01*
G01*
X045614Y010696D02*
G03*
X045614Y010696I-00004J0D01*
G01*
X044Y012311D02*
G03*
X044Y012311I-00004J0D01*
G01*
X045949Y011504D02*
G03*
X045949Y011504I-00004J0D01*
G01*
X043665D02*
G03*
X043665Y011504I-00004J0D01*
G01*
X045614Y012311D02*
G03*
X045614Y012311I-00004J0D01*
G01*
X044Y010696D02*
G03*
X044Y010696I-00004J0D01*
G01*
Y041641D02*
G03*
X044Y041641I-00004J0D01*
G01*
X045614Y043256D02*
G03*
X045614Y043256I-00004J0D01*
G01*
X043665Y042448D02*
G03*
X043665Y042448I-00004J0D01*
G01*
X045949D02*
G03*
X045949Y042448I-00004J0D01*
G01*
X044Y043256D02*
G03*
X044Y043256I-00004J0D01*
G01*
X045614Y041641D02*
G03*
X045614Y041641I-00004J0D01*
G01*
X044807Y041307D02*
G03*
X044807Y041307I-00004J0D01*
G01*
Y04359D02*
G03*
X044807Y04359I-00004J0D01*
G01*
X011083Y041639D02*
G03*
X011083Y041639I-00004J0D01*
G01*
X012697Y043254D02*
G03*
X012697Y043254I-00004J0D01*
G01*
X010748Y042446D02*
G03*
X010748Y042446I-00004J0D01*
G01*
X013032D02*
G03*
X013032Y042446I-00004J0D01*
G01*
X011083Y043254D02*
G03*
X011083Y043254I-00004J0D01*
G01*
X012697Y041639D02*
G03*
X012697Y041639I-00004J0D01*
G01*
X01189Y041305D02*
G03*
X01189Y041305I-00004J0D01*
G01*
Y043588D02*
G03*
X01189Y043588I-00004J0D01*
G01*
X011894Y012645D02*
G03*
X011894Y012645I-00004J0D01*
G01*
Y010362D02*
G03*
X011894Y010362I-00004J0D01*
G01*
X012701Y010696D02*
G03*
X012701Y010696I-00004J0D01*
G01*
X011086Y012311D02*
G03*
X011086Y012311I-00004J0D01*
G01*
X013035Y011504D02*
G03*
X013035Y011504I-00004J0D01*
G01*
X010752D02*
G03*
X010752Y011504I-00004J0D01*
G01*
X012701Y012311D02*
G03*
X012701Y012311I-00004J0D01*
G01*
X011086Y010696D02*
G03*
X011086Y010696I-00004J0D01*
G01*
M02*
