G04*
G04 #@! TF.GenerationSoftware,Altium Limited,Altium Designer,21.2.1 (34)*
G04*
G04 Layer_Color=16711935*
%FSTAX24Y24*%
%MOIN*%
G70*
G04*
G04 #@! TF.SameCoordinates,A1A6E38C-14B6-47A5-B441-A3D0562B644C*
G04*
G04*
G04 #@! TF.FilePolarity,Positive*
G04*
G01*
G75*
%ADD17C,0.0039*%
%ADD117C,0.0020*%
D17*
X016367Y030563D02*
G03*
X015811Y031122I-000555J000004D01*
G01*
X015807Y026397D02*
G03*
X016367Y026957I0J000559D01*
G01*
X011642Y026953D02*
G03*
X012197Y026397I000555J0D01*
G01*
Y031122D02*
G03*
X011642Y030567I0J-000555D01*
G01*
Y026953D02*
Y030567D01*
X012197Y026397D02*
X015807D01*
X016367Y026957D02*
Y030563D01*
X012197Y031122D02*
X015811D01*
D117*
X045094Y020295D02*
G03*
X045097Y019009I-000744J-000645D01*
G01*
X045106Y01965D02*
G03*
X045106Y01965I-000256J0D01*
G01*
X044106D02*
G03*
X044106Y01965I-000256J0D01*
G01*
X045511D02*
G03*
X045511Y01965I-001161J0D01*
G01*
X043406Y016105D02*
G03*
X043403Y017391I000744J000645D01*
G01*
X043906Y01675D02*
G03*
X043906Y01675I-000256J0D01*
G01*
X044906D02*
G03*
X044906Y01675I-000256J0D01*
G01*
X045311D02*
G03*
X045311Y01675I-001161J0D01*
G01*
X045095Y019009D02*
X045095Y020295D01*
X04425Y01985D02*
X04425Y02025D01*
X04445Y02005D01*
X04425Y01985D02*
X04445Y02005D01*
Y01985D02*
Y02025D01*
Y02005D02*
X04475D01*
X04485D01*
X04485Y01995D01*
X04385Y02005D02*
X04425D01*
X04385Y01995D02*
Y02005D01*
X04428Y02022D02*
X04428Y01988D01*
X04431Y02019D02*
X04431Y01991D01*
X04434Y02016D02*
X04434Y01994D01*
X04437Y01997D02*
Y02013D01*
X0444Y02D02*
X0444Y0201D01*
X04425Y01985D02*
X04428Y01988D01*
X04431Y01991D01*
X04434Y01994D02*
X04437Y01997D01*
X0444Y02D01*
X043405Y016105D02*
X043405Y017391D01*
X04425Y01615D02*
X04425Y01655D01*
X04405Y01635D02*
X04425Y01615D01*
X04405Y01635D02*
X04425Y01655D01*
X04405Y01615D02*
Y01655D01*
X04375Y01635D02*
X04405D01*
X04365D02*
X04375D01*
X04365Y01645D02*
X04365Y01635D01*
X04425D02*
X04465D01*
Y01645D01*
X04422Y01652D02*
X04422Y01618D01*
X04419Y01649D02*
X04419Y01621D01*
X04416Y01646D02*
X04416Y01624D01*
X04413Y01627D02*
Y01643D01*
X0441Y0163D02*
X0441Y0164D01*
X04422Y01652D02*
X04425Y01655D01*
X04419Y01649D02*
X04422Y01652D01*
X04413Y01643D02*
X04416Y01646D01*
X0441Y0164D02*
X04413Y01643D01*
M02*
