G04*
G04 #@! TF.GenerationSoftware,Altium Limited,Altium Designer,21.2.1 (34)*
G04*
G04 Layer_Physical_Order=2*
G04 Layer_Color=16711680*
%FSTAX24Y24*%
%MOIN*%
G70*
G04*
G04 #@! TF.SameCoordinates,A1A6E38C-14B6-47A5-B441-A3D0562B644C*
G04*
G04*
G04 #@! TF.FilePolarity,Positive*
G04*
G01*
G75*
%ADD94C,0.0591*%
%ADD95C,0.0315*%
%ADD97C,0.3150*%
%ADD98C,0.0709*%
%ADD99O,0.0750X0.0650*%
%ADD100O,0.0650X0.0750*%
%ADD101C,0.0984*%
%ADD102O,0.0650X0.0850*%
%ADD103R,0.0650X0.0850*%
%ADD104C,0.1181*%
%ADD105C,0.0866*%
G04:AMPARAMS|DCode=106|XSize=102.4mil|YSize=86.6mil|CornerRadius=21.7mil|HoleSize=0mil|Usage=FLASHONLY|Rotation=270.000|XOffset=0mil|YOffset=0mil|HoleType=Round|Shape=RoundedRectangle|*
%AMROUNDEDRECTD106*
21,1,0.1024,0.0433,0,0,270.0*
21,1,0.0591,0.0866,0,0,270.0*
1,1,0.0433,-0.0217,-0.0295*
1,1,0.0433,-0.0217,0.0295*
1,1,0.0433,0.0217,0.0295*
1,1,0.0433,0.0217,-0.0295*
%
%ADD106ROUNDEDRECTD106*%
G04:AMPARAMS|DCode=107|XSize=94.5mil|YSize=70.9mil|CornerRadius=17.7mil|HoleSize=0mil|Usage=FLASHONLY|Rotation=270.000|XOffset=0mil|YOffset=0mil|HoleType=Round|Shape=RoundedRectangle|*
%AMROUNDEDRECTD107*
21,1,0.0945,0.0354,0,0,270.0*
21,1,0.0591,0.0709,0,0,270.0*
1,1,0.0354,-0.0177,-0.0295*
1,1,0.0354,-0.0177,0.0295*
1,1,0.0354,0.0177,0.0295*
1,1,0.0354,0.0177,-0.0295*
%
%ADD107ROUNDEDRECTD107*%
%ADD108R,0.0512X0.0591*%
%ADD109O,0.0512X0.0591*%
%ADD110C,0.0630*%
%ADD111C,0.0354*%
%ADD112R,0.0630X0.0630*%
%ADD113C,0.0591*%
%ADD114R,0.0591X0.0591*%
%ADD115O,0.0709X0.0866*%
%ADD116C,0.0315*%
G36*
X037507Y042812D02*
X03752Y042794D01*
X037539Y042769D01*
X037637Y042661D01*
X037859Y042433D01*
X037713Y042134D01*
X037658Y042187D01*
X037562Y042264D01*
X037522Y042289D01*
X037487Y042304D01*
X037457Y04231D01*
X037432Y042306D01*
X037412Y042292D01*
X037397Y042269D01*
X037388Y042237D01*
X037501Y042825D01*
X037507Y042812D01*
D02*
G37*
G36*
X034449Y04229D02*
X03443Y042258D01*
X034413Y042224D01*
X034398Y042186D01*
X034386Y042146D01*
X034376Y042103D01*
X034368Y042057D01*
X034362Y042008D01*
X034357Y041902D01*
X034043D01*
X034041Y041957D01*
X034032Y042057D01*
X034024Y042103D01*
X034014Y042146D01*
X034002Y042186D01*
X033987Y042224D01*
X03397Y042258D01*
X033951Y04229D01*
X033929Y042319D01*
X034471D01*
X034449Y04229D01*
D02*
G37*
G36*
X033449D02*
X03343Y042258D01*
X033413Y042224D01*
X033398Y042186D01*
X033386Y042146D01*
X033376Y042103D01*
X033368Y042057D01*
X033362Y042008D01*
X033357Y041902D01*
X033043D01*
X033041Y041957D01*
X033032Y042057D01*
X033024Y042103D01*
X033014Y042146D01*
X033002Y042186D01*
X032987Y042224D01*
X03297Y042258D01*
X032951Y04229D01*
X032929Y042319D01*
X033471D01*
X033449Y04229D01*
D02*
G37*
G36*
X018391Y042053D02*
X018371Y042023D01*
X018353Y04199D01*
X018338Y041952D01*
X018325Y041909D01*
X018314Y041863D01*
X018306Y041812D01*
X0183Y041757D01*
X018295Y041634D01*
X017705D01*
X017704Y041698D01*
X017694Y041812D01*
X017686Y041863D01*
X017675Y041909D01*
X017662Y041952D01*
X017647Y04199D01*
X017629Y042023D01*
X017609Y042053D01*
X017587Y042078D01*
X018413D01*
X018391Y042053D01*
D02*
G37*
G36*
X036523Y041467D02*
X036524Y041412D01*
X036536Y041264D01*
X036543Y04122D01*
X036562Y04114D01*
X036574Y041103D01*
X036587Y04107D01*
X036602Y041039D01*
X03605Y04112D01*
X03608Y04112D01*
X036107Y041129D01*
X036131Y041148D01*
X036151Y041176D01*
X036169Y041213D01*
X036183Y04126D01*
X036194Y041316D01*
X036202Y041381D01*
X036207Y041456D01*
X036208Y04154D01*
X036523Y041467D01*
D02*
G37*
G36*
X037333Y041719D02*
Y040667D01*
X037417Y040466D01*
X037389Y040424D01*
X036963D01*
X036935Y040466D01*
X03708Y040815D01*
Y040915D01*
X036991Y041128D01*
X036986Y041225D01*
X036977Y041243D01*
X036975Y041249D01*
X036973Y041255D01*
X036962Y041298D01*
Y041419D01*
X037283Y04174D01*
X037333Y041719D01*
D02*
G37*
G36*
X027441Y043585D02*
X026978Y043122D01*
X026803Y0427D01*
Y040089D01*
X026829Y040027D01*
Y039853D01*
X026952Y03973D01*
X026978Y039668D01*
X02704Y039642D01*
X027164Y039518D01*
X027338D01*
X0274Y039493D01*
X027462Y039518D01*
X027636D01*
X02776Y039642D01*
X027822Y039668D01*
X027848Y03973D01*
X027971Y039853D01*
Y040027D01*
X027997Y040089D01*
Y042453D01*
X028397Y042853D01*
X032441D01*
X032468Y042812D01*
X032422Y0427D01*
Y0425D01*
X032564Y042157D01*
X032587Y042065D01*
X032596Y042053D01*
X032597Y042052D01*
X032599Y042046D01*
X032603Y042034D01*
X032603Y042032D01*
Y040719D01*
X032778Y040297D01*
X033583Y039493D01*
X033564Y039447D01*
X030903D01*
Y040091D01*
Y041612D01*
X030728Y042034D01*
X030728Y042034D01*
X03029Y042472D01*
X029868Y042647D01*
X02935D01*
X029288Y042621D01*
X029114D01*
X02899Y042498D01*
X028928Y042472D01*
X028902Y04241D01*
X028779Y042286D01*
Y042112D01*
X028753Y04205D01*
X028779Y041988D01*
Y041814D01*
X028902Y04169D01*
X028928Y041628D01*
X02899Y041602D01*
X029114Y041479D01*
X029288D01*
X02935Y041453D01*
X029621D01*
X029709Y041365D01*
Y040091D01*
Y039044D01*
X029753Y038938D01*
X029726Y038897D01*
X027597D01*
X026937Y039557D01*
X026515Y039731D01*
X024791D01*
Y041197D01*
X025172Y041578D01*
X025172Y041578D01*
X025198Y04164D01*
X025321Y041764D01*
Y041938D01*
X025347Y042D01*
X025321Y042062D01*
Y042236D01*
X025198Y04236D01*
X025172Y042422D01*
X02511Y042448D01*
X024986Y042571D01*
X024812D01*
X02475Y042597D01*
X024688Y042571D01*
X024514D01*
X02439Y042448D01*
X024328Y042422D01*
X024328Y042422D01*
X023772Y041866D01*
X023598Y041444D01*
Y039135D01*
X023623Y039073D01*
Y038898D01*
X023747Y038775D01*
X023772Y038713D01*
X023835Y038687D01*
X023958Y038564D01*
X024132D01*
X024194Y038538D01*
X026268D01*
X026457Y038349D01*
X026447Y0383D01*
X026378Y038272D01*
X024028Y035922D01*
X023853Y0355D01*
Y032547D01*
X023693Y032387D01*
X023647Y032406D01*
Y03725D01*
X023621Y037312D01*
Y037486D01*
X023498Y03761D01*
X023472Y037672D01*
X02341Y037698D01*
X023286Y037821D01*
X023112D01*
X02305Y037847D01*
X022988Y037821D01*
X022814D01*
X02269Y037698D01*
X022628Y037672D01*
X022602Y03761D01*
X022479Y037486D01*
Y037312D01*
X022453Y03725D01*
Y032147D01*
X021956Y03165D01*
X01685D01*
Y028194D01*
X016353Y027697D01*
X013644D01*
X013644Y027697D01*
X013223Y027522D01*
X011828Y026127D01*
X011653Y025706D01*
Y025439D01*
X0116D01*
Y025119D01*
X011569Y025044D01*
X011584Y025009D01*
X011575Y024972D01*
X0116Y024932D01*
Y024061D01*
X0129D01*
Y024932D01*
X012925Y024972D01*
X012916Y025009D01*
X012931Y025044D01*
X0129Y025119D01*
Y025439D01*
X012898D01*
X012877Y025489D01*
X013892Y026503D01*
X013994D01*
X014014Y026457D01*
X013578Y026022D01*
X013403Y0256D01*
Y022994D01*
X013112Y022703D01*
X01311Y022701D01*
X013106Y0227D01*
X013104Y022698D01*
X013094Y022694D01*
X013091Y022691D01*
X013091Y022691D01*
X01309Y02269D01*
X013071Y022672D01*
X013065Y022667D01*
X013052Y022659D01*
X012963Y022641D01*
X01295Y02264D01*
X0129Y022684D01*
Y022685D01*
X0116D01*
Y021308D01*
X012056D01*
X012312Y021052D01*
Y020525D01*
X012154Y020367D01*
Y01978D01*
X012569Y019365D01*
X013156D01*
X013352Y019561D01*
X013548Y019365D01*
X014135D01*
X014331Y019561D01*
X014527Y019365D01*
X015114D01*
X015529Y01978D01*
Y020367D01*
X015463Y020433D01*
Y021308D01*
X015581D01*
Y021639D01*
X015607Y021702D01*
X015598Y021724D01*
X015605Y021747D01*
X015581Y021791D01*
Y022685D01*
X014616D01*
X014589Y022727D01*
X014597Y022746D01*
Y025353D01*
X015147Y025903D01*
X01685D01*
Y020134D01*
X016774Y01995D01*
Y019695D01*
X015673Y018594D01*
X015659Y018562D01*
X015549Y018451D01*
X015424Y01815D01*
Y016977D01*
X015323Y016876D01*
X012827D01*
X012797Y016888D01*
X012768Y016876D01*
X01255D01*
X01255Y016876D01*
X012249Y016751D01*
X012049Y016551D01*
X011924Y01625D01*
Y01565D01*
X011924Y01565D01*
X012049Y015349D01*
X012249Y015149D01*
X01255Y015024D01*
X014323D01*
X015124Y014223D01*
Y01205D01*
X015249Y011749D01*
X015599Y011399D01*
X0159Y011274D01*
X01665D01*
X016808Y011339D01*
X01685Y011312D01*
Y010319D01*
X013518D01*
X013499Y010365D01*
X013822Y010688D01*
Y012319D01*
X012669Y013472D01*
X011038D01*
X010715Y013149D01*
X010669Y013168D01*
Y029161D01*
X010715Y02918D01*
X011673Y028223D01*
X0122Y028004D01*
X01405D01*
X014577Y028223D01*
X014796Y02875D01*
X014577Y029277D01*
X01405Y029496D01*
X012509D01*
X011494Y03051D01*
Y032133D01*
X011541Y032152D01*
X011897Y031796D01*
X012631D01*
X01315Y032315D01*
X013669Y031796D01*
X014403D01*
X014922Y032315D01*
Y033048D01*
X014403Y033567D01*
X013669D01*
X01315Y033048D01*
X012631Y033567D01*
X011897D01*
X011541Y033211D01*
X011494Y03323D01*
Y03607D01*
X011541Y036089D01*
X011897Y035733D01*
X012631D01*
X01315Y036252D01*
Y036985D01*
X012631Y037504D01*
X012024D01*
X012005Y037551D01*
X012459Y038004D01*
X018744D01*
X018744Y038004D01*
Y03741D01*
X018781Y03732D01*
Y036701D01*
X0194D01*
X01949Y036664D01*
X01958Y036701D01*
X020199D01*
Y03732D01*
X020236Y03741D01*
Y03875D01*
Y04021D01*
X020199Y0403D01*
Y040919D01*
X01958D01*
X01949Y040956D01*
X0194Y040919D01*
X018781D01*
X018746Y040953D01*
Y041821D01*
X018748Y041826D01*
X01875Y041846D01*
X018751Y04185D01*
X018756Y041864D01*
X018984Y042092D01*
Y042908D01*
X018408Y043484D01*
X017592D01*
X017016Y042908D01*
Y042092D01*
X017244Y041864D01*
X017249Y04185D01*
X01725Y041846D01*
X017252Y041826D01*
X017254Y041821D01*
Y040961D01*
X017192Y040898D01*
X016244D01*
X015829Y040483D01*
Y039896D01*
X016183Y039542D01*
X016164Y039496D01*
X01215D01*
X011623Y039277D01*
X010715Y03837D01*
X010669Y038389D01*
Y040778D01*
X010715Y040798D01*
X011035Y040478D01*
X012665D01*
X013819Y041631D01*
Y043262D01*
X013495Y043585D01*
X013514Y043631D01*
X027422D01*
X027441Y043585D01*
D02*
G37*
G36*
X0198Y03989D02*
X019797Y039873D01*
X019794Y039843D01*
X019788Y039684D01*
X019785Y039306D01*
X019415D01*
X019785Y03875D01*
X019495Y038314D01*
X019785D01*
X019804Y037724D01*
X019176D01*
X01918Y03773D01*
X019183Y037747D01*
X019186Y037777D01*
X019191Y037927D01*
X019189Y037976D01*
X019171Y038077D01*
X019142Y038165D01*
X0191Y038242D01*
X019047Y038307D01*
X018982Y03836D01*
X018905Y038402D01*
X018817Y038431D01*
X018716Y038449D01*
X018604Y038455D01*
Y039045D01*
X018716Y039051D01*
X018817Y039069D01*
X018905Y039098D01*
X018982Y03914D01*
X019047Y039193D01*
X0191Y039258D01*
X019142Y039335D01*
X019171Y039423D01*
X019188Y039519D01*
X019176Y039896D01*
X019804D01*
X0198Y03989D01*
D02*
G37*
G36*
X041643Y037162D02*
Y035613D01*
X040368Y034338D01*
X040303Y03418D01*
X040244Y034169D01*
X040069D01*
X040007Y034194D01*
X039945Y034169D01*
X039771D01*
X039648Y034045D01*
X039585Y03402D01*
X03956Y033958D01*
X039436Y033834D01*
Y033773D01*
X03939Y033753D01*
X039122Y034022D01*
X0387Y034197D01*
X0384D01*
X038338Y034171D01*
X038164D01*
X03804Y034048D01*
X037989Y034026D01*
X037961Y034038D01*
X037837Y034161D01*
X037663D01*
X037601Y034187D01*
X037539Y034161D01*
X037364D01*
X037241Y034038D01*
X037179Y034012D01*
X037153Y03395D01*
X03703Y033827D01*
Y033652D01*
X037004Y03359D01*
X03703Y033528D01*
Y033354D01*
X037153Y033231D01*
X037179Y033168D01*
X038203Y032144D01*
Y031989D01*
X038186Y031982D01*
X038005Y031545D01*
Y030955D01*
X038017Y030925D01*
X038005Y030895D01*
Y030305D01*
X038115Y030038D01*
X038088Y029997D01*
X037347D01*
X0368Y030544D01*
Y0316D01*
X03675Y03165D01*
X029094D01*
X028301Y032443D01*
Y032761D01*
X028393D01*
Y034139D01*
X027647D01*
Y035003D01*
X028547Y035903D01*
X034644D01*
X034664Y035857D01*
X034528Y035722D01*
X034353Y0353D01*
Y03435D01*
X034379Y034288D01*
Y034114D01*
X034502Y03399D01*
X034528Y033928D01*
X03459Y033902D01*
X034714Y033779D01*
X034888D01*
X03495Y033753D01*
X035012Y033779D01*
X035186D01*
X03531Y033902D01*
X035372Y033928D01*
X035398Y03399D01*
X035521Y034114D01*
Y034288D01*
X035547Y03435D01*
Y035053D01*
X035797Y035303D01*
X0382D01*
X038622Y035478D01*
X039578Y036434D01*
X039578Y036434D01*
X039753Y036856D01*
Y037153D01*
X041513D01*
X041601Y03719D01*
X041643Y037162D01*
D02*
G37*
G36*
X040958Y031216D02*
X040965Y0311D01*
X040967Y031088D01*
X04097Y031079D01*
X040973Y031073D01*
X040977Y031072D01*
X040623Y031072D01*
X040627Y031073D01*
X04063Y031079D01*
X040633Y031088D01*
X040635Y0311D01*
X040638Y031116D01*
X040641Y031159D01*
X040643Y03125D01*
X040957D01*
X040958Y031216D01*
D02*
G37*
G36*
X040977Y030778D02*
X040973Y030777D01*
X04097Y030771D01*
X040967Y030762D01*
X040965Y03075D01*
X040962Y030734D01*
X040959Y030691D01*
X040957Y0306D01*
X040643D01*
X040642Y030634D01*
X040635Y03075D01*
X040633Y030762D01*
X04063Y030771D01*
X040627Y030777D01*
X040623Y030778D01*
X040977Y030778D01*
D02*
G37*
G36*
X040762Y030136D02*
X041027D01*
X041014Y030134D01*
X041002Y030127D01*
X040991Y030115D01*
X040982Y030098D01*
X040975Y030077D01*
X040969Y030051D01*
X040964Y03002D01*
X04096Y029985D01*
X040957Y0299D01*
X040643Y029205D01*
X04064Y029262D01*
X040634Y029309D01*
X040622Y029345D01*
X040607Y029371D01*
X040587Y029385D01*
X040562Y029389D01*
X040533Y029382D01*
X0405Y029365D01*
X040462Y029336D01*
X04042Y029297D01*
Y029743D01*
X040462Y029788D01*
X0405Y029835D01*
X040533Y029884D01*
X040562Y029935D01*
X040587Y029988D01*
X040607Y030043D01*
X04062Y030091D01*
X040618Y030098D01*
X040609Y030115D01*
X040598Y030127D01*
X040586Y030134D01*
X040573Y030136D01*
X040629D01*
X040634Y030158D01*
X04064Y030218D01*
X040643Y03028D01*
X040762Y030136D01*
D02*
G37*
G36*
X012408Y025299D02*
X012416Y025198D01*
X012423Y025157D01*
X012432Y025123D01*
X012442Y025094D01*
X012455Y025072D01*
X01247Y025057D01*
X012486Y025047D01*
X012505Y025044D01*
X011995D01*
X012014Y025047D01*
X01203Y025057D01*
X012045Y025072D01*
X012058Y025094D01*
X012068Y025123D01*
X012077Y025157D01*
X012084Y025198D01*
X012089Y025246D01*
X012093Y025359D01*
X012407D01*
X012408Y025299D01*
D02*
G37*
G36*
X013729Y022252D02*
X013694Y022217D01*
X013633Y022143D01*
X013605Y022105D01*
X013557Y022026D01*
X013536Y021986D01*
X013501Y021902D01*
X013486Y021859D01*
X0132Y022287D01*
X013227Y022291D01*
X013255Y0223D01*
X013285Y022312D01*
X013316Y022328D01*
X013349Y022348D01*
X013384Y022372D01*
X013457Y022431D01*
X013496Y022466D01*
X013536Y022505D01*
X013729Y022252D01*
D02*
G37*
G36*
X045425Y022267D02*
X045435Y022222D01*
X045447Y022179D01*
X045463Y022136D01*
X045481Y022094D01*
X045503Y022053D01*
X045528Y022013D01*
X045556Y021975D01*
X045588Y021937D01*
X045622Y021901D01*
X045371Y021707D01*
X04533Y021745D01*
X045289Y02178D01*
X045247Y021811D01*
X045205Y021839D01*
X045161Y021863D01*
X045118Y021884D01*
X045073Y021901D01*
X045028Y021915D01*
X044983Y021925D01*
X044937Y021931D01*
X045419Y022313D01*
X045425Y022267D01*
D02*
G37*
G36*
X015151Y021699D02*
X015125Y02169D01*
X015101Y021674D01*
X01508Y021652D01*
X015063Y021624D01*
X015049Y021589D01*
X015038Y021548D01*
X01503Y021501D01*
X015025Y021447D01*
X015024Y021387D01*
X014709D01*
X014708Y021447D01*
X014693Y021674D01*
X014688Y02169D01*
X014683Y021699D01*
X014677Y021702D01*
X015181D01*
X015151Y021699D01*
D02*
G37*
G36*
X015024Y020503D02*
X015024Y020469D01*
X015031Y02038D01*
X015036Y020355D01*
X015041Y020332D01*
X015047Y020312D01*
X015054Y020294D01*
X015062Y020278D01*
X015071Y020264D01*
X014635Y020328D01*
X014649Y02034D01*
X014662Y020355D01*
X014673Y020372D01*
X014682Y020391D01*
X01469Y020412D01*
X014697Y020437D01*
X014702Y020463D01*
X014706Y020492D01*
X014708Y020523D01*
X014709Y020557D01*
X015024Y020503D01*
D02*
G37*
G36*
X014045D02*
X014045Y020469D01*
X014052Y02038D01*
X014057Y020355D01*
X014062Y020332D01*
X014068Y020312D01*
X014075Y020294D01*
X014083Y020278D01*
X014092Y020264D01*
X013656Y020328D01*
X01367Y02034D01*
X013683Y020355D01*
X013694Y020372D01*
X013703Y020391D01*
X013711Y020412D01*
X013718Y020437D01*
X013723Y020463D01*
X013727Y020492D01*
X013729Y020523D01*
X01373Y020557D01*
X014045Y020503D01*
D02*
G37*
G36*
X013066D02*
X013066Y020469D01*
X013073Y02038D01*
X013078Y020355D01*
X013083Y020332D01*
X013089Y020312D01*
X013096Y020294D01*
X013104Y020278D01*
X013113Y020264D01*
X012677Y020328D01*
X012691Y02034D01*
X012704Y020355D01*
X012715Y020372D01*
X012724Y020391D01*
X012732Y020412D01*
X012739Y020437D01*
X012744Y020463D01*
X012748Y020492D01*
X01275Y020523D01*
X012751Y020557D01*
X013066Y020503D01*
D02*
G37*
G36*
X044008Y020143D02*
X044011Y020109D01*
X044016Y020076D01*
X044022Y020045D01*
X04403Y020017D01*
X04404Y01999D01*
X044052Y019965D01*
X044065Y019943D01*
X044081Y019922D01*
X044098Y019903D01*
X043602D01*
X043619Y019922D01*
X043635Y019943D01*
X043648Y019965D01*
X04366Y01999D01*
X04367Y020017D01*
X043678Y020045D01*
X043684Y020076D01*
X043689Y020109D01*
X043692Y020143D01*
X043693Y02018D01*
X044007D01*
X044008Y020143D01*
D02*
G37*
G36*
X045262Y01684D02*
X044953Y016567D01*
X044865Y017032D01*
X044882Y017021D01*
X0449Y017015D01*
X044919Y017012D01*
X04494Y017014D01*
X044961Y01702D01*
X044984Y01703D01*
X045008Y017043D01*
X045033Y017061D01*
X045059Y017083D01*
X045087Y017109D01*
X045262Y01684D01*
D02*
G37*
G36*
X02705Y0254D02*
Y0159D01*
X027038Y015781D01*
X027Y0157D01*
X02685Y01555D01*
X02395Y0156D01*
X0228Y01445D01*
Y01185D01*
X0226Y01165D01*
X02185D01*
X021619Y011881D01*
X021619Y014069D01*
X0222Y01465D01*
X0222Y01565D01*
X0231Y01655D01*
X02515D01*
X02595Y01735D01*
Y0186D01*
X0259Y01865D01*
Y02545D01*
X02615Y0257D01*
X02675D01*
X02705Y0254D01*
D02*
G37*
G36*
X041784Y013964D02*
X041765Y013923D01*
X041749Y013875D01*
X041735Y013819D01*
X041723Y013754D01*
X041705Y013602D01*
X041696Y013418D01*
X041695Y013314D01*
X041105D01*
X041104Y013418D01*
X041077Y013754D01*
X041065Y013819D01*
X041051Y013875D01*
X041035Y013923D01*
X041016Y013964D01*
X040995Y013996D01*
X041805D01*
X041784Y013964D01*
D02*
G37*
G36*
X039784D02*
X039765Y013923D01*
X039749Y013875D01*
X039735Y013819D01*
X039723Y013754D01*
X039705Y013602D01*
X039696Y013418D01*
X039695Y013314D01*
X039105D01*
X039104Y013418D01*
X039077Y013754D01*
X039065Y013819D01*
X039051Y013875D01*
X039035Y013923D01*
X039016Y013964D01*
X038995Y013996D01*
X039805D01*
X039784Y013964D01*
D02*
G37*
G36*
X042778Y022114D02*
X04295Y0217D01*
X043253Y021574D01*
Y020111D01*
X043102Y01996D01*
Y01934D01*
X04354Y018902D01*
X04416D01*
X044598Y01934D01*
Y01996D01*
X044447Y020111D01*
Y021647D01*
X044497Y021681D01*
X044798Y021556D01*
X044878Y021509D01*
X044908Y021505D01*
X044922Y021502D01*
X044935Y021498D01*
X04495Y021492D01*
X044966Y021484D01*
X044979Y021477D01*
X045103Y021353D01*
Y017747D01*
X044854Y017498D01*
X04434D01*
X043902Y01706D01*
Y01644D01*
X04434Y016002D01*
X04496D01*
X04519Y016232D01*
X045235Y016247D01*
X045287Y016293D01*
X045372Y016328D01*
X045935Y016891D01*
X045981Y016872D01*
Y013138D01*
X045935Y013119D01*
X045582Y013472D01*
X043952D01*
X042798Y012319D01*
Y010688D01*
X043122Y010365D01*
X043103Y010319D01*
X0368D01*
Y011344D01*
X036858D01*
X037421Y011908D01*
X03745Y011916D01*
X037479Y011908D01*
X038042Y011344D01*
X038858D01*
X039421Y011908D01*
X03945Y011916D01*
X039479Y011908D01*
X040042Y011344D01*
X040858D01*
X041434Y011921D01*
Y012244D01*
X041441Y012258D01*
X041443Y012261D01*
X041456Y012277D01*
X041458Y012282D01*
X041927Y012751D01*
X042146Y013279D01*
Y013699D01*
X042151Y013727D01*
X042158Y013754D01*
X04216Y013761D01*
X042164Y013766D01*
X042164Y013771D01*
X042171Y013786D01*
X042172Y013814D01*
X042184Y013879D01*
X042277Y014105D01*
Y014695D01*
X042234Y0148D01*
X042277Y014905D01*
Y015495D01*
X042084Y015962D01*
X041617Y016156D01*
X041183D01*
X040716Y015962D01*
X040523Y015495D01*
Y014905D01*
X040566Y0148D01*
X040523Y014695D01*
Y014105D01*
X040616Y013879D01*
X040628Y013814D01*
X040629Y013786D01*
X040636Y013771D01*
X040636Y013766D01*
X04064Y013761D01*
X040642Y013754D01*
X040649Y013727D01*
X040654Y013699D01*
Y013588D01*
X040403Y013336D01*
X040398Y013335D01*
X040382Y013322D01*
X040379Y01332D01*
X040365Y013313D01*
X040146D01*
Y013699D01*
X040151Y013727D01*
X040158Y013754D01*
X04016Y013761D01*
X040164Y013766D01*
X040164Y013771D01*
X040171Y013786D01*
X040172Y013814D01*
X040184Y013879D01*
X040277Y014105D01*
Y014695D01*
X040234Y0148D01*
X040277Y014905D01*
Y015495D01*
X040084Y015962D01*
X039617Y016156D01*
X039183D01*
X038716Y015962D01*
X038523Y015495D01*
Y014905D01*
X038566Y0148D01*
X038523Y014695D01*
Y014105D01*
X038616Y013879D01*
X038628Y013814D01*
X038629Y013786D01*
X038636Y013771D01*
X038636Y013766D01*
X03864Y013761D01*
X038642Y013754D01*
X038649Y013727D01*
X038654Y013699D01*
Y013588D01*
X038403Y013336D01*
X038398Y013335D01*
X038382Y013322D01*
X038379Y01332D01*
X038365Y013313D01*
X038146D01*
Y013788D01*
X038277Y014105D01*
Y014695D01*
X038234Y0148D01*
X038277Y014905D01*
Y015495D01*
X038084Y015962D01*
X037617Y016156D01*
X037185D01*
Y016491D01*
X042672Y021978D01*
X042672Y021978D01*
X042728Y022114D01*
X042778D01*
D02*
G37*
G36*
X032756Y013133D02*
X032718Y013092D01*
X032688Y01305D01*
X032666Y01301D01*
X032651Y01297D01*
X032644Y01293D01*
X032645Y01289D01*
X032654Y012851D01*
X03267Y012813D01*
X032695Y012775D01*
X032727Y012737D01*
X03196Y012812D01*
X031983Y012829D01*
X032046Y012883D01*
X03231Y013134D01*
X032458Y013281D01*
X032756Y013133D01*
D02*
G37*
G36*
X041271Y012732D02*
X041227Y012686D01*
X041153Y012599D01*
X041123Y012557D01*
X041097Y012517D01*
X041077Y012478D01*
X041061Y01244D01*
X041049Y012403D01*
X041043Y012368D01*
X041041Y012335D01*
X040456Y012919D01*
X04049Y012921D01*
X040525Y012928D01*
X040561Y012939D01*
X040599Y012955D01*
X040638Y012976D01*
X040678Y013001D01*
X04072Y013031D01*
X040763Y013066D01*
X040853Y01315D01*
X041271Y012732D01*
D02*
G37*
G36*
X039271D02*
X039227Y012686D01*
X039153Y012599D01*
X039123Y012557D01*
X039097Y012517D01*
X039077Y012478D01*
X039061Y01244D01*
X039049Y012403D01*
X039043Y012368D01*
X039041Y012335D01*
X038456Y012919D01*
X03849Y012921D01*
X038525Y012928D01*
X038561Y012939D01*
X038599Y012955D01*
X038638Y012976D01*
X038678Y013001D01*
X03872Y013031D01*
X038763Y013066D01*
X038853Y01315D01*
X039271Y012732D01*
D02*
G37*
G36*
X037271D02*
X037227Y012686D01*
X037153Y012599D01*
X037123Y012557D01*
X037097Y012517D01*
X037077Y012478D01*
X037061Y01244D01*
X037049Y012403D01*
X037043Y012368D01*
X037041Y012335D01*
X036456Y012919D01*
X03649Y012921D01*
X036525Y012928D01*
X036561Y012939D01*
X036599Y012955D01*
X036638Y012976D01*
X036678Y013001D01*
X03672Y013031D01*
X036763Y013066D01*
X036853Y01315D01*
X037271Y012732D01*
D02*
G37*
G36*
X01815Y0199D02*
Y01935D01*
X0168Y018D01*
Y01185D01*
X01665Y0117D01*
X0159D01*
X01555Y01205D01*
Y0144D01*
X0145Y01545D01*
X01255D01*
X01235Y01565D01*
Y01625D01*
X01255Y01645D01*
X0155D01*
X01585Y0168D01*
Y01815D01*
X0172Y0195D01*
Y01995D01*
X01735Y0201D01*
X01795D01*
X01815Y0199D01*
D02*
G37*
G36*
X03355Y0254D02*
Y0201D01*
X03505Y0186D01*
Y01565D01*
X03475Y01535D01*
X0317D01*
X0298Y01345D01*
X02705D01*
X0268Y0132D01*
Y0119D01*
X02655Y01165D01*
X0258D01*
X02555Y0119D01*
Y0134D01*
X0261Y01395D01*
X02915D01*
X0301Y0149D01*
Y0156D01*
X0307Y0162D01*
X0333D01*
X0336Y0165D01*
Y017057D01*
X0325Y018157D01*
Y02535D01*
X03275Y0256D01*
X03335D01*
X03355Y0254D01*
D02*
G37*
G36*
X02485Y0199D02*
Y017998D01*
X023852Y017D01*
X02205D01*
X0216Y01655D01*
Y01495D01*
X02075Y0141D01*
Y0118D01*
X0206Y01165D01*
X0198D01*
X0196Y01185D01*
Y01525D01*
X01995Y0156D01*
Y0174D01*
X02125Y018667D01*
X023109D01*
X02328Y01868D01*
X0237Y0191D01*
Y019179D01*
X023599Y019219D01*
X023633Y019254D01*
X0237Y019329D01*
Y01985D01*
X024Y02015D01*
X0246D01*
X02485Y0199D01*
D02*
G37*
G36*
X020603Y025547D02*
Y019303D01*
X01925Y01795D01*
Y01565D01*
X0188Y0152D01*
Y0118D01*
X01865Y01165D01*
X01785D01*
X01755Y01195D01*
Y01535D01*
X0183Y0161D01*
Y0187D01*
X019415Y019816D01*
X0194Y019831D01*
Y0255D01*
X0196Y0257D01*
X02045D01*
X020603Y025547D01*
D02*
G37*
G36*
X0314Y01995D02*
Y01745D01*
X0308Y01685D01*
X02955D01*
X02936Y01666D01*
X02957Y016355D01*
X029495Y016279D01*
X029263Y016017D01*
X02925Y016D01*
Y0152D01*
X0284Y01435D01*
X02525D01*
X0248Y0139D01*
Y0119D01*
X0245Y0116D01*
X02385D01*
X0236Y01185D01*
Y0145D01*
X02405Y01495D01*
X02755D01*
X02825Y01565D01*
Y0178D01*
X02895Y0185D01*
X03D01*
Y01855D01*
X03025Y0188D01*
Y01995D01*
X0306Y0203D01*
X03105D01*
X0314Y01995D01*
D02*
G37*
%LPC*%
G36*
X030981Y034139D02*
X030411D01*
X030007Y033735D01*
Y033165D01*
X030411Y032761D01*
X030981D01*
X031385Y033165D01*
Y033735D01*
X030981Y034139D01*
D02*
G37*
%LPD*%
D94*
X010749Y030201D02*
X0122Y02875D01*
X010749Y037349D02*
X01215Y03875D01*
X010749Y030201D02*
Y037349D01*
X0122Y02875D02*
X01405D01*
X018292Y015589D02*
X018703Y016D01*
X018292Y012421D02*
Y015589D01*
X0182Y012329D02*
X018292Y012421D01*
X0374Y0144D02*
Y0152D01*
Y013279D02*
Y0144D01*
X03645Y012329D02*
X0374Y013279D01*
X0394Y0144D02*
Y0152D01*
Y013279D02*
Y0144D01*
X03845Y012329D02*
X0394Y013279D01*
X0414D02*
Y0144D01*
X04045Y012329D02*
X0414Y013279D01*
X028797Y016D02*
X030688Y017891D01*
Y019555D01*
X0242Y0134D02*
X0254Y0146D01*
X0242Y012329D02*
Y0134D01*
X02655Y025145D02*
X026703Y024993D01*
Y016D02*
Y024993D01*
X0237Y016D02*
X026703D01*
X024188Y019391D02*
Y019555D01*
X020797Y016D02*
X024188Y019391D01*
X0202Y015403D02*
X020797Y016D01*
X0202Y012329D02*
Y015403D01*
X0162Y01605D02*
Y018067D01*
Y012329D02*
Y01605D01*
X012847D02*
X0162D01*
X012797Y016D02*
X012847Y01605D01*
X0162Y018067D02*
X017688Y019555D01*
X018703Y016D02*
Y018303D01*
X02005Y01965D02*
Y025145D01*
X018703Y018303D02*
X02005Y01965D01*
X01949Y03875D02*
Y04021D01*
Y03741D02*
Y03875D01*
X01215D02*
X01949D01*
X018Y040652D02*
Y0425D01*
X017538Y04019D02*
X018Y040652D01*
D95*
X04485Y01855D02*
Y01965D01*
X04365Y01735D02*
X04485Y01855D01*
X04365Y01675D02*
Y01735D01*
X04505Y02225D02*
X0457Y0216D01*
Y0175D02*
Y0216D01*
X04495Y01675D02*
X0457Y0175D01*
X04465Y01675D02*
X04495D01*
X04355Y02225D02*
X04385Y02195D01*
Y01965D02*
Y02195D01*
X03985Y0266D02*
Y02815D01*
X03885Y0266D02*
Y02815D01*
X0425Y0405D02*
X043248Y039752D01*
X042628Y034022D02*
X043248Y034641D01*
Y039752D01*
X042058Y039828D02*
X042727Y039159D01*
X04189Y034007D02*
X042727Y034843D01*
Y039159D01*
X042239Y035366D02*
Y038776D01*
X041624Y039392D02*
X042239Y038776D01*
X04079Y033916D02*
X042239Y035366D01*
X039576Y03775D02*
X041513D01*
X041741Y037978D01*
X031498Y01415D02*
X034758D01*
X0303Y012952D02*
X031498Y01415D01*
X0303Y012329D02*
Y012952D01*
X035601Y014993D02*
Y018351D01*
X034758Y01415D02*
X035601Y014993D01*
Y018351D02*
X0408Y02355D01*
X0372Y0426D02*
X037469D01*
X03793Y040667D02*
Y042139D01*
X037469Y0426D02*
X03793Y042139D01*
Y040667D02*
X038097Y0405D01*
X036302Y040865D02*
X036366Y040929D01*
Y041666D01*
X0372Y0425D01*
Y0426D01*
X036302Y040865D02*
Y040915D01*
X038097Y0405D02*
X0425D01*
X034528Y039392D02*
X041624D01*
X0332Y040719D02*
X034528Y039392D01*
X0332Y040719D02*
Y0426D01*
X0268Y03785D02*
X0369D01*
X02935Y04205D02*
X029868D01*
X030306Y040091D02*
Y041612D01*
X029868Y04205D02*
X030306Y041612D01*
Y039044D02*
Y040091D01*
Y039044D02*
X0305Y03885D01*
X03935D01*
X024194Y039135D02*
Y041444D01*
X02475Y042D02*
Y042D01*
X024194Y041444D02*
X02475Y042D01*
X024194Y039135D02*
X026515D01*
X02735Y0383D01*
X03671D01*
X036712Y038303D01*
X037088D01*
X03709Y0383D01*
X039026D01*
X039576Y03775D01*
X031866Y02965D02*
X031866Y02965D01*
X0292Y02965D02*
X031854D01*
X02705Y0318D02*
X0292Y02965D01*
X031854D02*
X031866D01*
X02965Y03025D02*
X03625D01*
X0371Y0294D01*
X027704Y032196D02*
X02965Y03025D01*
X0408Y0306D02*
Y03125D01*
Y0299D02*
Y0306D01*
Y02355D02*
Y0299D01*
X0361Y01745D02*
X0416Y02295D01*
X032764Y013364D02*
X035164D01*
X0361Y0143D02*
Y01745D01*
X035164Y013364D02*
X0361Y0143D01*
X0323Y0129D02*
X032764Y013364D01*
X0323Y012329D02*
Y0129D01*
X036588Y013988D02*
Y016738D01*
X034929Y012329D02*
X036588Y013988D01*
X0343Y012329D02*
X034929D01*
X03535Y04345D02*
X0362Y0426D01*
X02815Y04345D02*
X03535D01*
X0274Y0427D02*
X02815Y04345D01*
X0274Y040089D02*
Y0427D01*
X013644Y0271D02*
X0166D01*
X01225Y025706D02*
X013644Y0271D01*
X01225Y02475D02*
Y025706D01*
X02049Y035759D02*
Y03741D01*
X019975Y035245D02*
X02049Y035759D01*
X035064Y039828D02*
X042058D01*
X04225Y0224D02*
Y033386D01*
X042179Y033457D02*
X04225Y033386D01*
X04079Y033838D02*
Y033916D01*
X0416Y02295D02*
Y032005D01*
X040007Y033598D02*
X0416Y032005D01*
X037601Y03359D02*
X0388Y032391D01*
Y03125D02*
Y032391D01*
X0342Y040691D02*
Y0426D01*
Y040691D02*
X035064Y039828D01*
X0114Y0346D02*
X013419Y036618D01*
X0114Y0313D02*
Y0346D01*
X013419Y036618D02*
X014036D01*
X0114Y0313D02*
X01245Y03025D01*
X01325D01*
X018152Y027585D02*
X018167Y0276D01*
X017067Y0265D02*
X018152Y027585D01*
X0246Y0276D02*
X031D01*
X018167D02*
X0246D01*
X0149Y0265D02*
X017067D01*
X014Y0256D02*
X0149Y0265D01*
X014Y022746D02*
Y0256D01*
X01325Y021996D02*
X014Y022746D01*
X0403Y0294D02*
X0408Y0299D01*
X0371Y0294D02*
X0403D01*
X027704Y032196D02*
Y03345D01*
X036588Y016738D02*
X04225Y0224D01*
X0398Y03125D02*
Y0325D01*
X0387Y0336D02*
X0398Y0325D01*
X0384Y0336D02*
X0387D01*
X03935Y03885D02*
X03995Y03825D01*
X039156Y037363D02*
Y037392D01*
X0382Y0359D02*
X039156Y036856D01*
Y037363D01*
X03555Y0359D02*
X0382D01*
X03495Y0353D02*
X03555Y0359D01*
X03495Y03435D02*
Y0353D01*
X03785Y0365D02*
X0383Y03695D01*
X0283Y0365D02*
X03785D01*
X0277Y03725D02*
X0373D01*
X0383Y03695D02*
Y037441D01*
X02445Y0355D02*
X0268Y03785D01*
X02445Y0323D02*
Y0355D01*
X0225Y03035D02*
X02445Y0323D01*
X01995Y03035D02*
X0225D01*
X01955Y02995D02*
X01995Y03035D01*
X01955Y02975D02*
Y02995D01*
X02705Y03525D02*
X0283Y0365D01*
X02705Y0318D02*
Y03525D01*
X02605Y0356D02*
X0277Y03725D01*
X02605Y0297D02*
Y0356D01*
X02305Y0319D02*
Y03725D01*
X02215Y031D02*
X02305Y0319D01*
X0186Y031D02*
X02215D01*
X0175Y0299D02*
X0186Y031D01*
X0175Y028D02*
Y0299D01*
X0166Y0271D02*
X0175Y028D01*
X015799Y020074D02*
X015932Y020206D01*
Y021996D01*
X013887Y02012D02*
Y021263D01*
X013841Y020074D02*
X013887Y02012D01*
X01325Y021957D02*
Y021996D01*
Y021957D02*
X013848Y021359D01*
Y021302D02*
Y021359D01*
Y021302D02*
X013887Y021263D01*
X012908Y02012D02*
Y021299D01*
X012862Y020074D02*
X012908Y02012D01*
X01225Y021957D02*
Y021996D01*
Y021957D02*
X012908Y021299D01*
X014866Y02012D02*
Y021931D01*
X01482Y020074D02*
X014866Y02012D01*
Y021931D02*
X014932Y021996D01*
X0159Y022028D02*
X015932Y021996D01*
D97*
X044767Y011504D02*
D03*
Y042448D02*
D03*
X01185Y042446D02*
D03*
X011854Y011504D02*
D03*
D98*
X04385Y01965D02*
D03*
X04485D02*
D03*
X04465Y01675D02*
D03*
X04365D02*
D03*
D99*
X04355Y02225D02*
D03*
Y02326D02*
D03*
X04505Y02225D02*
D03*
Y02326D02*
D03*
D100*
X037312Y040865D02*
D03*
X036302D02*
D03*
X035322D02*
D03*
D101*
X03975Y0424D02*
D03*
X03875Y0414D02*
D03*
X04075D02*
D03*
Y0434D02*
D03*
X03875D02*
D03*
X012264Y036618D02*
D03*
Y032682D02*
D03*
X014036D02*
D03*
Y036618D02*
D03*
D102*
X0362Y0426D02*
D03*
X0332D02*
D03*
X0342D02*
D03*
X0352D02*
D03*
X0372D02*
D03*
D103*
X0322D02*
D03*
D104*
X02Y0425D02*
D03*
X018D02*
D03*
X0343Y012329D02*
D03*
X0323D02*
D03*
X0303D02*
D03*
X0283D02*
D03*
X03645D02*
D03*
X03845D02*
D03*
X04045D02*
D03*
X0162D02*
D03*
X0182D02*
D03*
X0202D02*
D03*
X0222D02*
D03*
X0242D02*
D03*
X0262D02*
D03*
D105*
X035412Y024358D02*
D03*
X03305Y025145D02*
D03*
X030688Y024358D02*
D03*
X035412Y019555D02*
D03*
X030688D02*
D03*
X028912Y024358D02*
D03*
X02655Y025145D02*
D03*
X024188Y024358D02*
D03*
X028912Y019555D02*
D03*
X024188D02*
D03*
X017688D02*
D03*
X022412D02*
D03*
X017688Y024358D02*
D03*
X02005Y025145D02*
D03*
X022412Y024358D02*
D03*
D106*
X0414Y0152D02*
D03*
X0394D02*
D03*
X0374D02*
D03*
X0414Y0144D02*
D03*
X0394D02*
D03*
X0374D02*
D03*
D107*
X0378Y0306D02*
D03*
X0408D02*
D03*
X0398D02*
D03*
X0388D02*
D03*
X0408Y03125D02*
D03*
X0398D02*
D03*
X0388D02*
D03*
X0378D02*
D03*
D108*
X01225Y021996D02*
D03*
X014932D02*
D03*
X01225Y02475D02*
D03*
D109*
X01325Y021996D02*
D03*
X015932D02*
D03*
X01325Y02475D02*
D03*
D110*
X015799Y020074D02*
D03*
X01482D02*
D03*
X013841D02*
D03*
X012862D02*
D03*
X016538Y04019D02*
D03*
X02049Y03741D02*
D03*
Y04021D02*
D03*
D111*
X019975Y032345D02*
D03*
X021025Y032295D02*
D03*
Y035245D02*
D03*
X019975D02*
D03*
X022175Y032711D02*
D03*
Y034978D02*
D03*
Y033278D02*
D03*
X021625Y034065D02*
D03*
Y033525D02*
D03*
X022175Y033845D02*
D03*
Y032145D02*
D03*
X020525Y032945D02*
D03*
X022175Y034411D02*
D03*
Y035545D02*
D03*
X019975Y032925D02*
D03*
X021625Y032985D02*
D03*
Y034605D02*
D03*
X019975Y034085D02*
D03*
X021625Y035145D02*
D03*
X020525Y034045D02*
D03*
X021025Y034745D02*
D03*
X021625Y032445D02*
D03*
X021025Y032745D02*
D03*
Y033245D02*
D03*
Y033845D02*
D03*
X019975Y033505D02*
D03*
X021025Y034295D02*
D03*
X019975Y034665D02*
D03*
X020525Y034995D02*
D03*
Y034495D02*
D03*
Y033445D02*
D03*
Y032395D02*
D03*
X03985Y02815D02*
D03*
X03885D02*
D03*
X03985Y0266D02*
D03*
X03885D02*
D03*
X041741Y037978D02*
D03*
X0369Y03785D02*
D03*
X030306Y040091D02*
D03*
X024194Y039135D02*
D03*
X031866Y02965D02*
D03*
X0274Y040089D02*
D03*
X042628Y034022D02*
D03*
X04189Y034007D02*
D03*
X042179Y033457D02*
D03*
X04079Y033838D02*
D03*
X040007Y033598D02*
D03*
X037601Y03359D02*
D03*
X01325Y03025D02*
D03*
X018152Y027585D02*
D03*
X031Y0276D02*
D03*
X0246D02*
D03*
X02935Y04205D02*
D03*
X02475Y042D02*
D03*
X0384Y0336D02*
D03*
X039156Y037392D02*
D03*
X03995Y03825D02*
D03*
X03495Y03435D02*
D03*
X0373Y03725D02*
D03*
X0383Y037441D02*
D03*
X02605Y0297D02*
D03*
X01955Y02975D02*
D03*
X02305Y03725D02*
D03*
X01405Y02875D02*
D03*
D112*
X017538Y04019D02*
D03*
X01949Y03741D02*
D03*
Y04021D02*
D03*
D113*
X030696Y03345D02*
D03*
D114*
X027704D02*
D03*
D115*
X026703Y016D02*
D03*
X020797D02*
D03*
X028797D02*
D03*
X034703D02*
D03*
X012797D02*
D03*
X018703D02*
D03*
D116*
X044767Y012645D02*
D03*
Y010362D02*
D03*
X045574Y010696D02*
D03*
X04396Y012311D02*
D03*
X045909Y011504D02*
D03*
X043625D02*
D03*
X045574Y012311D02*
D03*
X04396Y010696D02*
D03*
Y041641D02*
D03*
X045574Y043256D02*
D03*
X043625Y042448D02*
D03*
X045909D02*
D03*
X04396Y043256D02*
D03*
X045574Y041641D02*
D03*
X044767Y041307D02*
D03*
Y04359D02*
D03*
X011043Y041639D02*
D03*
X012657Y043254D02*
D03*
X010708Y042446D02*
D03*
X012992D02*
D03*
X011043Y043254D02*
D03*
X012657Y041639D02*
D03*
X01185Y041305D02*
D03*
Y043588D02*
D03*
X011854Y012645D02*
D03*
Y010362D02*
D03*
X012661Y010696D02*
D03*
X011046Y012311D02*
D03*
X012995Y011504D02*
D03*
X010712D02*
D03*
X012661Y012311D02*
D03*
X011046Y010696D02*
D03*
M02*
