G04*
G04 #@! TF.GenerationSoftware,Altium Limited,Altium Designer,21.2.1 (34)*
G04*
G04 Layer_Physical_Order=1*
G04 Layer_Color=255*
%FSTAX24Y24*%
%MOIN*%
G70*
G04*
G04 #@! TF.SameCoordinates,A1A6E38C-14B6-47A5-B441-A3D0562B644C*
G04*
G04*
G04 #@! TF.FilePolarity,Positive*
G04*
G01*
G75*
G04:AMPARAMS|DCode=20|XSize=39.4mil|YSize=47.2mil|CornerRadius=9.8mil|HoleSize=0mil|Usage=FLASHONLY|Rotation=180.000|XOffset=0mil|YOffset=0mil|HoleType=Round|Shape=RoundedRectangle|*
%AMROUNDEDRECTD20*
21,1,0.0394,0.0276,0,0,180.0*
21,1,0.0197,0.0472,0,0,180.0*
1,1,0.0197,-0.0098,0.0138*
1,1,0.0197,0.0098,0.0138*
1,1,0.0197,0.0098,-0.0138*
1,1,0.0197,-0.0098,-0.0138*
%
%ADD20ROUNDEDRECTD20*%
G04:AMPARAMS|DCode=21|XSize=27.6mil|YSize=47.2mil|CornerRadius=6.9mil|HoleSize=0mil|Usage=FLASHONLY|Rotation=270.000|XOffset=0mil|YOffset=0mil|HoleType=Round|Shape=RoundedRectangle|*
%AMROUNDEDRECTD21*
21,1,0.0276,0.0335,0,0,270.0*
21,1,0.0138,0.0472,0,0,270.0*
1,1,0.0138,-0.0167,-0.0069*
1,1,0.0138,-0.0167,0.0069*
1,1,0.0138,0.0167,0.0069*
1,1,0.0138,0.0167,-0.0069*
%
%ADD21ROUNDEDRECTD21*%
%ADD22R,0.0394X0.0472*%
G04:AMPARAMS|DCode=23|XSize=78.7mil|YSize=35.4mil|CornerRadius=1.8mil|HoleSize=0mil|Usage=FLASHONLY|Rotation=270.000|XOffset=0mil|YOffset=0mil|HoleType=Round|Shape=RoundedRectangle|*
%AMROUNDEDRECTD23*
21,1,0.0787,0.0319,0,0,270.0*
21,1,0.0752,0.0354,0,0,270.0*
1,1,0.0035,-0.0159,-0.0376*
1,1,0.0035,-0.0159,0.0376*
1,1,0.0035,0.0159,0.0376*
1,1,0.0035,0.0159,-0.0376*
%
%ADD23ROUNDEDRECTD23*%
G04:AMPARAMS|DCode=24|XSize=78.7mil|YSize=35.4mil|CornerRadius=1.8mil|HoleSize=0mil|Usage=FLASHONLY|Rotation=180.000|XOffset=0mil|YOffset=0mil|HoleType=Round|Shape=RoundedRectangle|*
%AMROUNDEDRECTD24*
21,1,0.0787,0.0319,0,0,180.0*
21,1,0.0752,0.0354,0,0,180.0*
1,1,0.0035,-0.0376,0.0159*
1,1,0.0035,0.0376,0.0159*
1,1,0.0035,0.0376,-0.0159*
1,1,0.0035,-0.0376,-0.0159*
%
%ADD24ROUNDEDRECTD24*%
G04:AMPARAMS|DCode=25|XSize=196.9mil|YSize=196.9mil|CornerRadius=9.8mil|HoleSize=0mil|Usage=FLASHONLY|Rotation=90.000|XOffset=0mil|YOffset=0mil|HoleType=Round|Shape=RoundedRectangle|*
%AMROUNDEDRECTD25*
21,1,0.1969,0.1772,0,0,90.0*
21,1,0.1772,0.1969,0,0,90.0*
1,1,0.0197,0.0886,0.0886*
1,1,0.0197,0.0886,-0.0886*
1,1,0.0197,-0.0886,-0.0886*
1,1,0.0197,-0.0886,0.0886*
%
%ADD25ROUNDEDRECTD25*%
%ADD26R,0.0630X0.1260*%
%ADD27O,0.0984X0.0472*%
G04:AMPARAMS|DCode=28|XSize=50mil|YSize=50mil|CornerRadius=12.5mil|HoleSize=0mil|Usage=FLASHONLY|Rotation=0.000|XOffset=0mil|YOffset=0mil|HoleType=Round|Shape=RoundedRectangle|*
%AMROUNDEDRECTD28*
21,1,0.0500,0.0250,0,0,0.0*
21,1,0.0250,0.0500,0,0,0.0*
1,1,0.0250,0.0125,-0.0125*
1,1,0.0250,-0.0125,-0.0125*
1,1,0.0250,-0.0125,0.0125*
1,1,0.0250,0.0125,0.0125*
%
%ADD28ROUNDEDRECTD28*%
G04:AMPARAMS|DCode=29|XSize=102.4mil|YSize=118.1mil|CornerRadius=25.6mil|HoleSize=0mil|Usage=FLASHONLY|Rotation=90.000|XOffset=0mil|YOffset=0mil|HoleType=Round|Shape=RoundedRectangle|*
%AMROUNDEDRECTD29*
21,1,0.1024,0.0669,0,0,90.0*
21,1,0.0512,0.1181,0,0,90.0*
1,1,0.0512,0.0335,0.0256*
1,1,0.0512,0.0335,-0.0256*
1,1,0.0512,-0.0335,-0.0256*
1,1,0.0512,-0.0335,0.0256*
%
%ADD29ROUNDEDRECTD29*%
%ADD30R,0.1181X0.1024*%
%ADD31O,0.0984X0.0472*%
%ADD32R,0.0394X0.0550*%
%ADD33R,0.0787X0.1299*%
%ADD34R,0.0787X0.0394*%
G04:AMPARAMS|DCode=35|XSize=39.4mil|YSize=78.7mil|CornerRadius=9.8mil|HoleSize=0mil|Usage=FLASHONLY|Rotation=0.000|XOffset=0mil|YOffset=0mil|HoleType=Round|Shape=RoundedRectangle|*
%AMROUNDEDRECTD35*
21,1,0.0394,0.0591,0,0,0.0*
21,1,0.0197,0.0787,0,0,0.0*
1,1,0.0197,0.0098,-0.0295*
1,1,0.0197,-0.0098,-0.0295*
1,1,0.0197,-0.0098,0.0295*
1,1,0.0197,0.0098,0.0295*
%
%ADD35ROUNDEDRECTD35*%
%ADD36R,0.0394X0.0512*%
%ADD37R,0.0512X0.1339*%
%ADD38R,0.2559X0.3346*%
%ADD39R,0.0984X0.4134*%
%ADD40R,0.1378X0.0472*%
%ADD41R,0.1378X0.2362*%
%ADD42R,0.0276X0.0354*%
%ADD43R,0.0630X0.0866*%
G04:AMPARAMS|DCode=44|XSize=63mil|YSize=86.6mil|CornerRadius=15.7mil|HoleSize=0mil|Usage=FLASHONLY|Rotation=180.000|XOffset=0mil|YOffset=0mil|HoleType=Round|Shape=RoundedRectangle|*
%AMROUNDEDRECTD44*
21,1,0.0630,0.0551,0,0,180.0*
21,1,0.0315,0.0866,0,0,180.0*
1,1,0.0315,-0.0157,0.0276*
1,1,0.0315,0.0157,0.0276*
1,1,0.0315,0.0157,-0.0276*
1,1,0.0315,-0.0157,-0.0276*
%
%ADD44ROUNDEDRECTD44*%
G04:AMPARAMS|DCode=45|XSize=63mil|YSize=86.6mil|CornerRadius=15.7mil|HoleSize=0mil|Usage=FLASHONLY|Rotation=90.000|XOffset=0mil|YOffset=0mil|HoleType=Round|Shape=RoundedRectangle|*
%AMROUNDEDRECTD45*
21,1,0.0630,0.0551,0,0,90.0*
21,1,0.0315,0.0866,0,0,90.0*
1,1,0.0315,0.0276,0.0157*
1,1,0.0315,0.0276,-0.0157*
1,1,0.0315,-0.0276,-0.0157*
1,1,0.0315,-0.0276,0.0157*
%
%ADD45ROUNDEDRECTD45*%
%ADD46R,0.0866X0.0630*%
%ADD94C,0.0591*%
%ADD95C,0.0315*%
%ADD96C,0.0512*%
%ADD97C,0.3150*%
%ADD98C,0.0709*%
%ADD99O,0.0750X0.0650*%
%ADD100O,0.0650X0.0750*%
%ADD101C,0.0984*%
%ADD102O,0.0650X0.0850*%
%ADD103R,0.0650X0.0850*%
%ADD104C,0.1181*%
%ADD105C,0.0866*%
G04:AMPARAMS|DCode=106|XSize=102.4mil|YSize=86.6mil|CornerRadius=21.7mil|HoleSize=0mil|Usage=FLASHONLY|Rotation=270.000|XOffset=0mil|YOffset=0mil|HoleType=Round|Shape=RoundedRectangle|*
%AMROUNDEDRECTD106*
21,1,0.1024,0.0433,0,0,270.0*
21,1,0.0591,0.0866,0,0,270.0*
1,1,0.0433,-0.0217,-0.0295*
1,1,0.0433,-0.0217,0.0295*
1,1,0.0433,0.0217,0.0295*
1,1,0.0433,0.0217,-0.0295*
%
%ADD106ROUNDEDRECTD106*%
G04:AMPARAMS|DCode=107|XSize=94.5mil|YSize=70.9mil|CornerRadius=17.7mil|HoleSize=0mil|Usage=FLASHONLY|Rotation=270.000|XOffset=0mil|YOffset=0mil|HoleType=Round|Shape=RoundedRectangle|*
%AMROUNDEDRECTD107*
21,1,0.0945,0.0354,0,0,270.0*
21,1,0.0591,0.0709,0,0,270.0*
1,1,0.0354,-0.0177,-0.0295*
1,1,0.0354,-0.0177,0.0295*
1,1,0.0354,0.0177,0.0295*
1,1,0.0354,0.0177,-0.0295*
%
%ADD107ROUNDEDRECTD107*%
%ADD108R,0.0512X0.0591*%
%ADD109O,0.0512X0.0591*%
%ADD110C,0.0630*%
%ADD111C,0.0354*%
%ADD112R,0.0630X0.0630*%
%ADD113C,0.0591*%
%ADD114R,0.0591X0.0591*%
%ADD115O,0.0709X0.0866*%
%ADD116C,0.0315*%
G36*
X016703Y043766D02*
X016729Y043753D01*
X016759Y043743D01*
X016791Y043733D01*
X016827Y043725D01*
X016866Y043719D01*
X016953Y04371D01*
X017001Y043708D01*
X017052Y043707D01*
Y043631D01*
X022487D01*
X022497Y043581D01*
X02203Y043388D01*
X02183Y042906D01*
X02203Y042423D01*
X022512Y042224D01*
X023024D01*
X023202Y042297D01*
X02325Y0423D01*
X023272Y042296D01*
X023284Y042299D01*
X023286Y042299D01*
X023293Y042302D01*
X023296Y042302D01*
X023298Y042303D01*
X023321Y042309D01*
X024186D01*
X024205Y042263D01*
X024179Y042236D01*
Y042062D01*
X024153Y042D01*
X024179Y041938D01*
Y041764D01*
X024302Y04164D01*
X024328Y041578D01*
X02439Y041552D01*
X024514Y041429D01*
X024688D01*
X02475Y041403D01*
X025933D01*
X026354Y041578D01*
X026654Y041878D01*
X026654Y041878D01*
X026829Y0423D01*
Y042329D01*
X026879Y042362D01*
X027212Y042224D01*
X027724D01*
X027902Y042297D01*
X02795Y0423D01*
X027972Y042296D01*
X027984Y042299D01*
X027986Y042299D01*
X027993Y042302D01*
X027996Y042302D01*
X027998Y042303D01*
X028021Y042309D01*
X02877D01*
X028779Y042286D01*
Y042112D01*
X028753Y04205D01*
X028779Y041988D01*
Y041814D01*
X028902Y04169D01*
X028928Y041628D01*
X02899Y041602D01*
X029114Y041479D01*
X029288D01*
X02935Y041453D01*
X030727D01*
X031149Y041628D01*
X031354Y041833D01*
X031529Y042255D01*
X031529Y042255D01*
Y042365D01*
X03167Y042423D01*
X03187Y042906D01*
X03167Y043388D01*
X031203Y043581D01*
X031213Y043631D01*
X037864D01*
Y043105D01*
X037814Y043095D01*
X03775Y04325D01*
X0372Y043478D01*
X0367Y043271D01*
X0362Y043478D01*
X0357Y043271D01*
X0352Y043478D01*
X0347Y043271D01*
X0342Y043478D01*
X0337Y043271D01*
X0332Y043478D01*
X03265Y04325D01*
X032422Y0427D01*
Y0425D01*
X032517Y04227D01*
X031278Y041031D01*
X031103Y040609D01*
Y040187D01*
X030923Y040007D01*
X030877Y040026D01*
Y040029D01*
X030903Y040091D01*
X030877Y040153D01*
Y040328D01*
X030754Y040451D01*
X030728Y040513D01*
X030666Y040539D01*
X030543Y040662D01*
X030368D01*
X030306Y040688D01*
X030302Y040686D01*
X02992D01*
X029742Y04076D01*
X029545D01*
X02925Y040638D01*
X028955Y04076D01*
X028758D01*
X028721Y040745D01*
X02872Y040745D01*
X028615Y040701D01*
X028556Y040693D01*
X028538Y040692D01*
X028524Y040693D01*
X02852Y040691D01*
X028517Y040691D01*
X028508Y040687D01*
X028504Y040686D01*
X025971D01*
X025967Y040687D01*
X025958Y040691D01*
X025955Y040691D01*
X025951Y040693D01*
X025937Y040692D01*
X025919Y040693D01*
X02586Y040701D01*
X025755Y040745D01*
X025754Y040745D01*
X025717Y04076D01*
X02552D01*
X025225Y040638D01*
X02493Y04076D01*
X024733D01*
X024356Y040604D01*
X0242Y040227D01*
Y039952D01*
X024204Y039942D01*
Y039738D01*
X024194Y039731D01*
X024132Y039706D01*
X023958D01*
X023835Y039582D01*
X023772Y039557D01*
X023747Y039495D01*
X023629Y039377D01*
X023579Y039384D01*
Y04005D01*
X023424Y040425D01*
Y0407D01*
X023065D01*
X022833Y040796D01*
X022601Y0407D01*
X022243D01*
Y040425D01*
X022087Y04005D01*
Y039363D01*
X021263D01*
Y038532D01*
X021167Y0383D01*
Y037346D01*
X020236D01*
Y03741D01*
X020199Y0375D01*
Y038119D01*
X01958D01*
X01949Y038156D01*
X0194Y038119D01*
X018781D01*
Y037876D01*
X018731Y037843D01*
X018342Y038004D01*
X017791D01*
X017369Y037829D01*
X017194Y037407D01*
Y037093D01*
X017369Y036671D01*
X017572Y036586D01*
X017619Y036474D01*
X018236Y035857D01*
Y035167D01*
X017695D01*
Y035763D01*
X016789D01*
X016612Y035836D01*
X015846D01*
Y0382D01*
X015691Y038573D01*
X015627Y038727D01*
X015377Y038977D01*
X01485Y039196D01*
X014323Y038977D01*
X014104Y03845D01*
X014323Y037923D01*
X014354Y037891D01*
Y0351D01*
Y034782D01*
X013509Y033936D01*
X01329Y033409D01*
Y033189D01*
X01315Y033048D01*
X012631Y033567D01*
X011996D01*
Y035733D01*
X012631D01*
X01315Y036252D01*
Y036482D01*
X013346Y036954D01*
Y03834D01*
X01445Y039444D01*
X016537D01*
X016538Y039444D01*
X016627Y039481D01*
X017448D01*
X017538Y039444D01*
X017627Y039481D01*
X018247D01*
Y0401D01*
X018284Y04019D01*
Y04065D01*
X018247Y04074D01*
Y040898D01*
X018181D01*
X018065Y041178D01*
X017773Y04147D01*
X017792Y041516D01*
X018408D01*
X018984Y042092D01*
Y042908D01*
X018408Y043484D01*
X017592D01*
X017355Y043247D01*
X016946D01*
X016942Y043248D01*
X016933Y043252D01*
X01693Y043252D01*
X016926Y043254D01*
X016912Y043253D01*
X016894Y043254D01*
X016835Y043262D01*
X01673Y043306D01*
X016729Y043305D01*
X016692Y04332D01*
X016495D01*
X016444Y043299D01*
X016403Y043327D01*
Y0435D01*
X016403Y0435D01*
X016366Y04359D01*
X016394Y043631D01*
X01668D01*
Y043779D01*
X016703Y043766D01*
D02*
G37*
G36*
X015954Y043312D02*
X015956Y043302D01*
X015958Y043287D01*
X015961Y043236D01*
X015962Y04318D01*
X015964D01*
X015964Y043122D01*
X01598Y042878D01*
X015985Y042855D01*
X01599Y042838D01*
X015996Y042826D01*
X015616D01*
X015622Y042838D01*
X015628Y042855D01*
X015633Y042878D01*
X015637Y042906D01*
X015644Y042977D01*
X015647Y043075D01*
X015641Y043161D01*
X015635Y043202D01*
X015627Y043236D01*
X015617Y043265D01*
X015606Y043287D01*
X015592Y043302D01*
X015577Y043312D01*
X015561Y043315D01*
X015952D01*
X015954Y043312D01*
D02*
G37*
G36*
X030586Y042687D02*
X030562Y042699D01*
X030534Y042709D01*
X030502Y042718D01*
X030468Y042726D01*
X030388Y042738D01*
X030343Y042743D01*
X030187Y042748D01*
Y043063D01*
X030242Y043064D01*
X030429Y043078D01*
X030468Y043085D01*
X030534Y043102D01*
X030562Y043112D01*
X030586Y043124D01*
Y042687D01*
D02*
G37*
G36*
X027838Y043112D02*
X027866Y043102D01*
X027898Y043093D01*
X027932Y043085D01*
X028012Y043073D01*
X028057Y043068D01*
X028213Y043063D01*
Y042748D01*
X028158Y042747D01*
X027971Y042733D01*
X027932Y042726D01*
X027866Y042709D01*
X027838Y042699D01*
X027814Y042687D01*
Y043124D01*
X027838Y043112D01*
D02*
G37*
G36*
X025886Y042687D02*
X025862Y042699D01*
X025834Y042709D01*
X025802Y042718D01*
X025768Y042726D01*
X025688Y042738D01*
X025643Y042743D01*
X025487Y042748D01*
Y043063D01*
X025542Y043064D01*
X025729Y043078D01*
X025768Y043085D01*
X025834Y043102D01*
X025862Y043112D01*
X025886Y043124D01*
Y042687D01*
D02*
G37*
G36*
X023138Y043112D02*
X023166Y043102D01*
X023198Y043093D01*
X023232Y043085D01*
X023312Y043073D01*
X023357Y043068D01*
X023513Y043063D01*
Y042748D01*
X023458Y042747D01*
X023271Y042733D01*
X023232Y042726D01*
X023166Y042709D01*
X023138Y042699D01*
X023114Y042687D01*
Y043124D01*
X023138Y043112D01*
D02*
G37*
G36*
X016753Y042866D02*
X016779Y042853D01*
X016809Y042843D01*
X016841Y042833D01*
X016877Y042825D01*
X016916Y042819D01*
X017003Y04281D01*
X017051Y042808D01*
X017102Y042807D01*
Y042493D01*
X017051Y042492D01*
X016916Y042481D01*
X016877Y042475D01*
X016841Y042467D01*
X016809Y042457D01*
X016779Y042446D01*
X016753Y042434D01*
X01673Y042421D01*
Y042879D01*
X016753Y042866D01*
D02*
G37*
G36*
X031217Y042676D02*
X03119Y042666D01*
X031167Y04265D01*
X031146Y042627D01*
X031129Y042598D01*
X031115Y042562D01*
X031104Y04252D01*
X031096Y042471D01*
X031091Y042416D01*
X03109Y042354D01*
X030775D01*
X030773Y042416D01*
X030769Y042471D01*
X030761Y04252D01*
X03075Y042562D01*
X030736Y042598D01*
X030718Y042627D01*
X030698Y04265D01*
X030674Y042666D01*
X030648Y042676D01*
X030618Y042679D01*
X031247D01*
X031217Y042676D01*
D02*
G37*
G36*
X026517D02*
X02649Y042666D01*
X026467Y04265D01*
X026446Y042627D01*
X026429Y042598D01*
X026415Y042562D01*
X026404Y04252D01*
X026396Y042471D01*
X026391Y042416D01*
X02639Y042354D01*
X026075D01*
X026073Y042416D01*
X026069Y042471D01*
X026061Y04252D01*
X02605Y042562D01*
X026036Y042598D01*
X026018Y042627D01*
X025998Y04265D01*
X025974Y042666D01*
X025948Y042676D01*
X025918Y042679D01*
X026547D01*
X026517Y042676D01*
D02*
G37*
G36*
X04312Y043585D02*
X042798Y043264D01*
Y041633D01*
X043952Y04048D01*
X045582D01*
X045935Y040833D01*
X045981Y040814D01*
Y039969D01*
X044D01*
X043669Y039831D01*
X043531Y0395D01*
Y0319D01*
X043669Y031569D01*
X044Y031431D01*
X045981D01*
Y013138D01*
X045935Y013119D01*
X045582Y013472D01*
X043952D01*
X042798Y012319D01*
Y010688D01*
X043122Y010365D01*
X043103Y010319D01*
X03685D01*
Y011344D01*
X036858D01*
X037421Y011908D01*
X03745Y011916D01*
X037479Y011908D01*
X038042Y011344D01*
X038858D01*
X039421Y011908D01*
X03945Y011916D01*
X039479Y011908D01*
X040042Y011344D01*
X040858D01*
X041434Y011921D01*
Y012736D01*
X040858Y013313D01*
X040042D01*
X039479Y01275D01*
X03945Y012741D01*
X039421Y01275D01*
X038858Y013313D01*
X038042D01*
X037479Y01275D01*
X03745Y012741D01*
X037421Y01275D01*
X036858Y013313D01*
X03685D01*
Y013537D01*
X036892Y013565D01*
X037183Y013444D01*
X037617D01*
X038084Y013638D01*
X038277Y014105D01*
Y014695D01*
X038234Y0148D01*
X038277Y014905D01*
Y015495D01*
X038084Y015962D01*
X037617Y016156D01*
X037183D01*
X036892Y016035D01*
X03685Y016063D01*
Y03145D01*
X032613D01*
X032442Y031622D01*
X03202Y031796D01*
X028147D01*
Y032761D01*
X028393D01*
Y034139D01*
X027015D01*
Y033445D01*
X026953Y033296D01*
Y032047D01*
X026275D01*
Y03222D01*
X02624Y032304D01*
Y032385D01*
X026066Y032807D01*
X026066Y032807D01*
X025763Y033109D01*
X025391Y033263D01*
X025391Y033265D01*
Y033919D01*
X025346D01*
X025318Y03396D01*
X025386Y034125D01*
Y034375D01*
X025309Y034561D01*
X025297Y034621D01*
Y03475D01*
X025122Y035172D01*
X025122Y035172D01*
X024824Y035469D01*
Y035653D01*
X025907D01*
X025967Y035628D01*
X026016Y035648D01*
X026042Y035643D01*
X026059Y035653D01*
X026661D01*
X026678Y035643D01*
X026704Y035648D01*
X026752Y035628D01*
X026813Y035653D01*
X028091D01*
Y035442D01*
X029509D01*
Y035653D01*
X03135D01*
X031772Y035828D01*
X032046Y036102D01*
X032051Y036107D01*
X032115Y036153D01*
X032131Y036163D01*
X032145Y03617D01*
X032166Y03618D01*
X032216Y036234D01*
X032322Y036278D01*
X032375Y036406D01*
X032387Y03642D01*
X032387Y036434D01*
X032486Y036675D01*
Y036925D01*
X032438Y037043D01*
X032438Y037045D01*
X032433Y037054D01*
X032436Y037065D01*
X032407Y037117D01*
X032322Y037322D01*
X032315Y037325D01*
Y037484D01*
X0337D01*
Y039216D01*
X033731Y039253D01*
X0357D01*
Y038689D01*
X03583Y038374D01*
X036145Y038244D01*
X036412D01*
X036417Y038239D01*
X036436Y038194D01*
X036329Y038086D01*
X036301Y038068D01*
X036287Y038073D01*
X035535D01*
X03522Y037943D01*
X03509Y037628D01*
Y037309D01*
X035127Y037219D01*
X03509Y037128D01*
Y036809D01*
X035127Y036719D01*
X03509Y036628D01*
Y036309D01*
X035127Y036219D01*
X03509Y036128D01*
Y035809D01*
X035127Y035719D01*
X03509Y035628D01*
Y035309D01*
X035127Y035219D01*
X03509Y035128D01*
Y035112D01*
X035041Y035103D01*
X034988Y035229D01*
X034634Y035376D01*
X034532D01*
X034467Y035403D01*
X034408D01*
X034343Y035376D01*
X0343D01*
X034101Y035293D01*
X033965Y035623D01*
X033611Y035769D01*
X033508D01*
X033443Y035796D01*
X033384D01*
X033384Y035796D01*
X033319Y035769D01*
X033276D01*
X032922Y035623D01*
X032828Y035397D01*
X03115D01*
X030728Y035222D01*
X030728Y035222D01*
X030274Y034768D01*
X030099Y034346D01*
Y033828D01*
X030007Y033735D01*
Y033165D01*
X030411Y032761D01*
X030981D01*
X031385Y033165D01*
Y033735D01*
X031293Y033828D01*
Y034099D01*
X031397Y034203D01*
X032866D01*
X032876Y034154D01*
X032874Y034153D01*
X032791Y033954D01*
X032758D01*
Y033875D01*
X032718Y033777D01*
Y033501D01*
X032733Y033463D01*
X032751D01*
X032745Y033451D01*
X032742Y033442D01*
X032758Y033403D01*
Y033324D01*
X032791D01*
X032858Y033162D01*
X032825Y033112D01*
X032758D01*
Y032797D01*
Y032497D01*
X032752Y032482D01*
X032758Y032468D01*
Y032167D01*
Y031852D01*
X033424D01*
X033455Y03183D01*
X033501Y031839D01*
X033545Y031821D01*
X033602Y031845D01*
X033617Y031841D01*
X033634Y031852D01*
X033939D01*
X033939Y031852D01*
X033989Y031862D01*
X034075Y031827D01*
X034076Y031827D01*
X034113Y031812D01*
X03431D01*
X034605Y031934D01*
X0349Y031812D01*
X035097D01*
X035474Y031968D01*
X035513Y032061D01*
X035654Y032202D01*
X0357Y032183D01*
Y031996D01*
X03583Y031681D01*
X036145Y031551D01*
X036464D01*
X036555Y031588D01*
X036645Y031551D01*
X036964D01*
X037055Y031588D01*
X037145Y031551D01*
X037448D01*
X037449Y031565D01*
Y031551D01*
X037464D01*
X037555Y031588D01*
X037645Y031551D01*
X037959D01*
X037965Y03155D01*
X038005Y031514D01*
Y030955D01*
X038017Y030925D01*
X038005Y030895D01*
Y030305D01*
X038186Y029868D01*
X038253Y02984D01*
Y02815D01*
X038279Y028088D01*
Y027914D01*
X038402Y02779D01*
X038428Y027728D01*
X03849Y027702D01*
X038614Y027579D01*
X038788D01*
X03885Y027553D01*
X038912Y027579D01*
X039086D01*
X03921Y027702D01*
X039272Y027728D01*
X039298Y02779D01*
X03935Y027843D01*
X039402Y02779D01*
X039428Y027728D01*
X03949Y027702D01*
X039614Y027579D01*
X039788D01*
X03985Y027553D01*
X039912Y027579D01*
X040086D01*
X04021Y027702D01*
X040272Y027728D01*
X040298Y02779D01*
X040421Y027914D01*
Y028088D01*
X040447Y02815D01*
Y029715D01*
X040488Y029743D01*
X040623Y029687D01*
X040977D01*
X041414Y029868D01*
X041595Y030305D01*
Y030895D01*
X041583Y030925D01*
X041595Y030955D01*
Y031517D01*
X041642Y031552D01*
X041645Y031551D01*
X041964D01*
X042055Y031588D01*
X042145Y031551D01*
X042464D01*
X042779Y031681D01*
X042909Y031996D01*
Y032748D01*
X042779Y033063D01*
X042689Y0331D01*
X042679Y033149D01*
X04275Y03322D01*
Y033395D01*
X042773Y033451D01*
X042865D01*
X042988Y033574D01*
X04305Y0336D01*
X043076Y033662D01*
X043199Y033785D01*
Y033959D01*
X043225Y034022D01*
X043199Y034084D01*
Y034258D01*
X043076Y034381D01*
X04305Y034443D01*
X042572Y034922D01*
X04215Y035097D01*
X03715D01*
X03715Y035097D01*
X036774Y034941D01*
X036732Y034969D01*
Y035128D01*
X036695Y035219D01*
X036732Y035309D01*
Y035628D01*
X036695Y035719D01*
X036732Y035809D01*
Y036128D01*
X036695Y036219D01*
X036732Y036309D01*
Y036628D01*
X036695Y036719D01*
X036732Y036809D01*
Y036945D01*
X036778Y036964D01*
X036852Y03689D01*
X036878Y036828D01*
X03694Y036802D01*
X037064Y036679D01*
X037238D01*
X0373Y036653D01*
X037362Y036679D01*
X037536D01*
X03766Y036802D01*
X037722Y036828D01*
X037902Y037009D01*
X03794Y036993D01*
X038064Y03687D01*
X038238D01*
X0383Y036844D01*
X038362Y03687D01*
X038536D01*
X03866Y036993D01*
X038675Y036999D01*
X03872Y036955D01*
X03872Y036955D01*
X038831Y036909D01*
X038919Y036821D01*
X039044D01*
X039141Y036781D01*
X039239Y036821D01*
X039392D01*
X039501Y03693D01*
X039563Y036955D01*
X039578Y03697D01*
X039604Y037032D01*
X039727Y037155D01*
Y03733D01*
X039753Y037392D01*
X039727Y037454D01*
Y037628D01*
X039726Y037629D01*
X039747Y037679D01*
X039888D01*
X03995Y037653D01*
X040012Y037679D01*
X040186D01*
X04031Y037802D01*
X040372Y037828D01*
X040727Y038183D01*
X040752Y038244D01*
X040964D01*
X041055Y038281D01*
X041134Y038248D01*
X04117Y038215D01*
Y03804D01*
X041144Y037978D01*
X04117Y037916D01*
Y037742D01*
X041293Y037618D01*
X041319Y037556D01*
X041381Y037531D01*
X041504Y037407D01*
X041679D01*
X041741Y037382D01*
X041803Y037407D01*
X041977D01*
X0421Y037531D01*
X042163Y037556D01*
X042227Y03762D01*
X042252Y037682D01*
X042312Y037742D01*
Y037826D01*
X042401Y038042D01*
Y038244D01*
X042464D01*
X042779Y038374D01*
X042909Y038689D01*
Y039441D01*
X042901Y039461D01*
Y039645D01*
X042901Y039645D01*
X042727Y040067D01*
X042522Y040272D01*
X0421Y040447D01*
X041697D01*
X036972Y040447D01*
X036944Y040488D01*
X03708Y040815D01*
Y040915D01*
X036852Y041465D01*
X03658Y041577D01*
X03657Y041626D01*
X036622Y041678D01*
X036722Y04192D01*
X0372Y041722D01*
X03775Y04195D01*
X037978Y0425D01*
Y0427D01*
X037873Y042954D01*
X037915Y042982D01*
X038383Y042514D01*
X038864D01*
Y042286D01*
X038383D01*
X037864Y041767D01*
Y041033D01*
X038383Y040514D01*
X039117D01*
X039636Y041033D01*
Y041514D01*
X039864D01*
Y041033D01*
X040383Y040514D01*
X041117D01*
X041636Y041033D01*
Y041767D01*
X041117Y042286D01*
X040636D01*
Y042514D01*
X041117D01*
X041636Y043033D01*
Y043631D01*
X043101D01*
X04312Y043585D01*
D02*
G37*
G36*
X033148Y040478D02*
X033141Y040458D01*
X033135Y040434D01*
X033129Y040405D01*
X033121Y040333D01*
X033115Y040242D01*
X033114Y040132D01*
X032799Y040145D01*
X032799Y040205D01*
X03278Y040484D01*
X032776Y040493D01*
X033156D01*
X033148Y040478D01*
D02*
G37*
G36*
X02872Y03986D02*
X028697Y039874D01*
X028671Y039886D01*
X028641Y039897D01*
X028609Y039906D01*
X028573Y039914D01*
X028534Y03992D01*
X028447Y039929D01*
X028399Y039931D01*
X028348Y039932D01*
Y040247D01*
X028399Y040248D01*
X028534Y040258D01*
X028573Y040265D01*
X028609Y040273D01*
X028641Y040282D01*
X028671Y040293D01*
X028697Y040305D01*
X02872Y040319D01*
Y03986D01*
D02*
G37*
G36*
X025778Y040305D02*
X025804Y040293D01*
X025834Y040282D01*
X025866Y040273D01*
X025902Y040265D01*
X025941Y040258D01*
X026028Y04025D01*
X026076Y040248D01*
X026127Y040247D01*
Y039932D01*
X026076Y039931D01*
X025941Y03992D01*
X025902Y039914D01*
X025866Y039906D01*
X025834Y039897D01*
X025804Y039886D01*
X025778Y039874D01*
X025755Y03986D01*
Y040319D01*
X025778Y040305D01*
D02*
G37*
G36*
X025009Y039893D02*
X024999Y039869D01*
X024989Y039841D01*
X024981Y039809D01*
X024974Y039774D01*
X024964Y039693D01*
X024961Y039646D01*
X024958Y039543D01*
X024958Y039543D01*
X024958Y039314D01*
X024538Y039338D01*
Y038893D01*
X024516Y038908D01*
X024493Y03892D01*
X024466Y038932D01*
X024437Y038942D01*
X024405Y03895D01*
X02437Y038957D01*
X024332Y038962D01*
X024249Y038968D01*
X024203Y038969D01*
Y039284D01*
X024249Y039285D01*
X024332Y039291D01*
X02437Y039296D01*
X024405Y039303D01*
X024437Y039311D01*
X024466Y039321D01*
X024493Y039332D01*
X024516Y039345D01*
X024524Y03935D01*
X024537Y039361D01*
X024559Y039386D01*
X024579Y039414D01*
X024596Y039444D01*
X02461Y039478D01*
X024622Y039515D01*
X024632Y039554D01*
X024638Y039597D01*
X024642Y039643D01*
X024643Y039672D01*
X024641Y039914D01*
X025021D01*
X025009Y039893D01*
D02*
G37*
G36*
X033239Y039693D02*
X033177Y03969D01*
X033116Y039684D01*
X033058Y039672D01*
X033001Y039657D01*
X032947Y039637D01*
X032894Y039612D01*
X032843Y039583D01*
X032794Y03955D01*
X032746Y039512D01*
X032701Y03947D01*
X032858Y03985D01*
X033239Y039693D01*
D02*
G37*
G36*
X029545Y039419D02*
X029742D01*
X02992Y039493D01*
X030304D01*
X030371Y03952D01*
X030371D01*
X030391Y039474D01*
X030328Y039412D01*
X030153Y03899D01*
Y038097D01*
X030153Y038097D01*
X02805D01*
X02805Y038097D01*
X027628Y037922D01*
X027628Y037922D01*
X027458Y037752D01*
X026813D01*
X026752Y037777D01*
X026704Y037757D01*
X026678Y037763D01*
X026661Y037752D01*
X026052D01*
X026032Y037765D01*
X02601Y037759D01*
X025967Y037777D01*
X025913Y037755D01*
X025389Y038279D01*
X02535Y038372D01*
X025357Y038387D01*
X025321Y038496D01*
X025323Y038512D01*
X025311Y038528D01*
X025285Y038658D01*
X025272Y038666D01*
X025411Y039001D01*
Y039251D01*
X025397Y039285D01*
Y039425D01*
X025439Y039453D01*
X02552Y039419D01*
X025717D01*
X025754Y039434D01*
X025755Y039434D01*
X02586Y039477D01*
X025919Y039486D01*
X025937Y039486D01*
X025951Y039486D01*
X025955Y039487D01*
X025958Y039487D01*
X025967Y039492D01*
X025971Y039493D01*
X028504D01*
X028508Y039492D01*
X028517Y039487D01*
X02852Y039487D01*
X028524Y039486D01*
X028538Y039486D01*
X028556Y039486D01*
X028615Y039477D01*
X02872Y039434D01*
X028721Y039434D01*
X028758Y039419D01*
X028955D01*
X02925Y039541D01*
X029545Y039419D01*
D02*
G37*
G36*
X032312Y039081D02*
X032261Y039028D01*
X03222Y03898D01*
X032188Y038937D01*
X032166Y038899D01*
X032154Y038867D01*
X032151Y03884D01*
X032158Y038818D01*
X032174Y038801D01*
X032201Y038789D01*
X032236Y038783D01*
X031425Y038861D01*
X031466Y038859D01*
X031507Y038863D01*
X03155Y038873D01*
X031593Y038887D01*
X031637Y038907D01*
X031682Y038932D01*
X031728Y038962D01*
X031775Y038998D01*
X031822Y039039D01*
X03187Y039085D01*
X032312Y039081D01*
D02*
G37*
G36*
X023744Y038585D02*
X023754Y038558D01*
X023769Y038535D01*
X023791Y038514D01*
X02382Y038497D01*
X023855Y038483D01*
X023896Y038472D01*
X023916Y038468D01*
X023948Y038466D01*
X024217Y038458D01*
X024328Y038457D01*
Y038457D01*
X024415Y038456D01*
X024932Y038418D01*
X024911Y038404D01*
X024849Y038388D01*
X024745Y038369D01*
X0246Y038348D01*
X024476Y037985D01*
X024483Y038015D01*
X024481Y038042D01*
X02447Y038065D01*
X024451Y038086D01*
X024424Y038103D01*
X024388Y038117D01*
X024344Y038128D01*
X024291Y038136D01*
X02423Y038141D01*
X024208Y038141D01*
X023856Y038118D01*
X023855Y038117D01*
X02382Y038103D01*
X023791Y038086D01*
X023769Y038065D01*
X023754Y038042D01*
X023744Y038015D01*
X023741Y037985D01*
Y03811D01*
X023738Y03811D01*
X023712Y038101D01*
X023705Y038097D01*
X023694Y038079D01*
X023682Y038057D01*
X023672Y038035D01*
X023664Y038012D01*
X023657Y037988D01*
X023652Y037964D01*
X023648Y037939D01*
X023646Y037913D01*
X023645Y037887D01*
X02333D01*
X023329Y037913D01*
X023327Y037939D01*
X023323Y037964D01*
X023318Y037988D01*
X023311Y038012D01*
X023302Y038035D01*
X023292Y038057D01*
X023281Y038079D01*
X023268Y0381D01*
X023253Y03812D01*
X023696D01*
Y038509D01*
X023712Y038499D01*
X023738Y03849D01*
X023741Y03849D01*
Y038615D01*
X023744Y038585D01*
D02*
G37*
G36*
X023538Y037632D02*
X023527Y037637D01*
X023512Y037636D01*
X023493Y037629D01*
X023469Y037616D01*
X023441Y037597D01*
X023408Y037572D01*
X023329Y037503D01*
X023233Y037409D01*
X02301Y037632D01*
X02306Y037682D01*
X023198Y03784D01*
X023217Y037868D01*
X02323Y037892D01*
X023237Y037912D01*
X023238Y037927D01*
X023233Y037937D01*
X023538Y037632D01*
D02*
G37*
G36*
X032004Y037836D02*
X031977Y037827D01*
X031954Y037811D01*
X031933Y037789D01*
X031916Y03776D01*
X031902Y037726D01*
X031891Y037684D01*
X031883Y037637D01*
X031878Y037583D01*
X031876Y037523D01*
X031561D01*
X03156Y037583D01*
X031555Y037637D01*
X031547Y037684D01*
X031536Y037726D01*
X031522Y03776D01*
X031505Y037789D01*
X031484Y037811D01*
X031461Y037827D01*
X031434Y037836D01*
X031404Y037839D01*
X032034D01*
X032004Y037836D01*
D02*
G37*
G36*
X026755Y037344D02*
X026765Y037337D01*
X026781Y037332D01*
X026803Y037327D01*
X026831Y037323D01*
X026907Y037316D01*
X027067Y037313D01*
Y036998D01*
X027007Y036998D01*
X026803Y036984D01*
X026781Y036979D01*
X026765Y036974D01*
X026755Y036967D01*
X026752Y03696D01*
Y037351D01*
X026755Y037344D01*
D02*
G37*
G36*
X025967Y03696D02*
X025964Y036967D01*
X025955Y036974D01*
X02594Y036979D01*
X025919Y036984D01*
X025892Y036988D01*
X025821Y036995D01*
X025725Y036998D01*
X025668Y036998D01*
Y037313D01*
X025725Y037313D01*
X025919Y037327D01*
X02594Y037332D01*
X025955Y037337D01*
X025964Y037344D01*
X025967Y037351D01*
Y03696D01*
D02*
G37*
G36*
X031878Y037317D02*
X031882Y037272D01*
X031889Y03723D01*
X031898Y03719D01*
X031911Y037154D01*
X031926Y03712D01*
X031943Y037089D01*
X031964Y037061D01*
X031987Y037036D01*
X032013Y037013D01*
X031554Y036957D01*
X031556Y036964D01*
X031557Y036976D01*
X03156Y037049D01*
X031561Y037289D01*
X031876Y037365D01*
X031878Y037317D01*
D02*
G37*
G36*
X012895Y037274D02*
X012749Y036704D01*
X012252Y03711D01*
X012262Y037114D01*
X012271Y037123D01*
X012279Y037137D01*
X012286Y037158D01*
X012292Y037185D01*
X012296Y037217D01*
X012303Y037299D01*
X012305Y037404D01*
X012895Y037274D01*
D02*
G37*
G36*
X031987Y036567D02*
X031953Y036551D01*
X031916Y036531D01*
X031877Y036506D01*
X031792Y036445D01*
X031747Y036408D01*
X031596Y036273D01*
X031542Y036219D01*
X031328Y03645D01*
X031393Y036518D01*
X031495Y036637D01*
X031531Y03669D01*
X031559Y036737D01*
X031576Y036779D01*
X031584Y036816D01*
X031583Y036847D01*
X031572Y036874D01*
X031551Y036896D01*
X031987Y036567D01*
D02*
G37*
G36*
X026755Y036438D02*
X026765Y036432D01*
X026781Y036426D01*
X026803Y036421D01*
X026831Y036417D01*
X026907Y036411D01*
X027067Y036407D01*
Y036093D01*
X027007Y036092D01*
X026803Y036079D01*
X026781Y036074D01*
X026765Y036068D01*
X026755Y036062D01*
X026752Y036054D01*
Y036446D01*
X026755Y036438D01*
D02*
G37*
G36*
X025967Y036054D02*
X025964Y036062D01*
X025955Y036068D01*
X025939Y036074D01*
X025917Y036079D01*
X025889Y036083D01*
X025813Y036089D01*
X025652Y036093D01*
Y036407D01*
X025712Y036408D01*
X025917Y036421D01*
X025939Y036426D01*
X025955Y036432D01*
X025964Y036438D01*
X025967Y036446D01*
Y036054D01*
D02*
G37*
G36*
X029117Y036535D02*
X029126Y036508D01*
X029142Y036485D01*
X029164Y036464D01*
X029193Y036447D01*
X029227Y036433D01*
X029268Y036422D01*
X029315Y036414D01*
X029369Y036409D01*
X029429Y036407D01*
Y036093D01*
X029369Y036091D01*
X029315Y036086D01*
X029268Y036078D01*
X029227Y036067D01*
X029193Y036053D01*
X029164Y036036D01*
X029142Y036015D01*
X029126Y035992D01*
X029117Y035965D01*
X029114Y035935D01*
Y036565D01*
X029117Y036535D01*
D02*
G37*
G36*
X028487Y035935D02*
X028484Y035965D01*
X028475Y035992D01*
X028459Y036015D01*
X028437Y036036D01*
X028408Y036053D01*
X028374Y036067D01*
X028333Y036078D01*
X028285Y036086D01*
X028231Y036091D01*
X028171Y036093D01*
Y036407D01*
X028231Y036409D01*
X028285Y036414D01*
X028333Y036422D01*
X028374Y036433D01*
X028408Y036447D01*
X028437Y036464D01*
X028459Y036485D01*
X028475Y036508D01*
X028484Y036535D01*
X028487Y036565D01*
Y035935D01*
D02*
G37*
G36*
X024431Y036535D02*
X024441Y036508D01*
X024457Y036485D01*
X024479Y036464D01*
X024507Y036447D01*
X024542Y036433D01*
X024583Y036422D01*
X024631Y036414D01*
X024684Y036409D01*
X024744Y036407D01*
Y036093D01*
X024684Y036091D01*
X024631Y036086D01*
X024583Y036078D01*
X024542Y036067D01*
X024507Y036053D01*
X024479Y036036D01*
X024457Y036015D01*
X024441Y035992D01*
X024431Y035965D01*
X024428Y035935D01*
Y036565D01*
X024431Y036535D01*
D02*
G37*
G36*
X02422Y035601D02*
X024214Y035595D01*
X02421Y035586D01*
X024206Y035572D01*
X024202Y035555D01*
X024199Y035534D01*
X024196Y035481D01*
X024194Y035413D01*
X02388D01*
X023879Y035449D01*
X023872Y035555D01*
X023868Y035572D01*
X023864Y035586D01*
X02386Y035595D01*
X023854Y035601D01*
X023848Y035603D01*
X024226D01*
X02422Y035601D01*
D02*
G37*
G36*
X024858Y034708D02*
X024864Y034632D01*
X02487Y034597D01*
X024876Y034565D01*
X024885Y034535D01*
X024895Y034507D01*
X024906Y034481D01*
X024919Y034458D01*
X024933Y034437D01*
X024467D01*
X024481Y034458D01*
X024494Y034481D01*
X024505Y034507D01*
X024515Y034535D01*
X024524Y034565D01*
X02453Y034597D01*
X024536Y034632D01*
X024542Y034708D01*
X024543Y03475D01*
X024857D01*
X024858Y034708D01*
D02*
G37*
G36*
X034125Y03341D02*
X034102Y033423D01*
X034076Y033435D01*
X034046Y033446D01*
X034014Y033456D01*
X033978Y033463D01*
X033939Y03347D01*
X033852Y033479D01*
X033805Y033481D01*
X033671Y03347D01*
X033632Y033463D01*
X033596Y033456D01*
X033564Y033446D01*
X033535Y033435D01*
X033508Y033423D01*
X033485Y03341D01*
Y033868D01*
X033508Y033855D01*
X033535Y033842D01*
X033564Y033832D01*
X033596Y033822D01*
X033632Y033814D01*
X033671Y033808D01*
X033758Y033799D01*
X033805Y033797D01*
X033939Y033808D01*
X033978Y033814D01*
X034014Y033822D01*
X034046Y033832D01*
X034076Y033842D01*
X034102Y033855D01*
X034125Y033868D01*
Y03341D01*
D02*
G37*
G36*
X030854Y033845D02*
X030858Y033787D01*
X030861Y033762D01*
X030866Y033739D01*
X030871Y033719D01*
X030878Y033701D01*
X030885Y033685D01*
X030893Y033672D01*
X030903Y033661D01*
X030489D01*
X030499Y033672D01*
X030507Y033685D01*
X030514Y033701D01*
X030521Y033719D01*
X030526Y033739D01*
X030531Y033762D01*
X030534Y033787D01*
X030538Y033845D01*
X030539Y033877D01*
X030854D01*
X030854Y033845D01*
D02*
G37*
G36*
X027835Y033153D02*
X027808Y033143D01*
X027785Y033128D01*
X027764Y033106D01*
X027747Y033077D01*
X027733Y033043D01*
X027722Y033002D01*
X027714Y032954D01*
X027709Y032901D01*
X027707Y032841D01*
X027393D01*
X02741Y033156D01*
X027865D01*
X027835Y033153D01*
D02*
G37*
G36*
X018236Y032805D02*
X017741D01*
X017737Y032803D01*
X017695Y032831D01*
Y033755D01*
X017743Y033761D01*
X018236D01*
Y032805D01*
D02*
G37*
G36*
X035424Y032593D02*
X035195Y032356D01*
X035097Y032719D01*
X035099Y03272D01*
X035103Y032723D01*
X035109Y032727D01*
X035137Y032753D01*
X035201Y032816D01*
X035424Y032593D01*
D02*
G37*
G36*
X033548Y032702D02*
X033557Y032689D01*
X033573Y032678D01*
X033595Y032668D01*
X033623Y032659D01*
X033658Y032652D01*
X033699Y032647D01*
X033774Y032642D01*
X033889Y032651D01*
X033928Y032658D01*
X033964Y032666D01*
X033996Y032675D01*
X034026Y032686D01*
X034052Y032698D01*
X034075Y032712D01*
Y032253D01*
X034052Y032266D01*
X034026Y032279D01*
X033996Y032289D01*
X033964Y032299D01*
X033928Y032307D01*
X033889Y032313D01*
X033802Y032322D01*
X033784Y032323D01*
X033658Y032312D01*
X033623Y032305D01*
X033595Y032297D01*
X033573Y032287D01*
X033557Y032275D01*
X033548Y032262D01*
X033545Y032247D01*
Y032717D01*
X033548Y032702D01*
D02*
G37*
G36*
X022814Y036679D02*
X022988D01*
X02305Y036653D01*
X023112Y036679D01*
X02325D01*
Y035207D01*
X023526D01*
X023615Y034991D01*
X024077Y034529D01*
X024036Y03443D01*
X023678Y034072D01*
X023503Y03365D01*
Y0325D01*
X02367Y032097D01*
X023644Y032047D01*
X019613D01*
X019585Y032088D01*
X019728Y032432D01*
Y03445D01*
Y035839D01*
X01975Y035854D01*
X0219D01*
X022427Y036073D01*
X02244Y036085D01*
X022658Y036613D01*
Y036764D01*
X022708Y036784D01*
X022814Y036679D01*
D02*
G37*
G36*
X027707Y03145D02*
X027393Y0312D01*
X027389Y031217D01*
X02738Y031233D01*
X027364Y031247D01*
X027342Y031259D01*
X027314Y031269D01*
X027279Y031278D01*
X027238Y031284D01*
X027137Y031292D01*
X027078Y031293D01*
Y031607D01*
X027137Y031611D01*
X027191Y03162D01*
X027238Y031636D01*
X027279Y031658D01*
X027314Y031686D01*
X027342Y031721D01*
X027364Y031762D01*
X02738Y031809D01*
X027389Y031863D01*
X027393Y031922D01*
X027707Y03145D01*
D02*
G37*
G36*
X017076Y032449D02*
X015749Y031122D01*
X015708Y03115D01*
X015863Y031525D01*
Y032269D01*
X016017Y032422D01*
X016612D01*
X016789Y032496D01*
X017057D01*
X017076Y032449D01*
D02*
G37*
G36*
X021272Y031293D02*
X021213Y031289D01*
X021159Y03128D01*
X021112Y031264D01*
X021071Y031242D01*
X021036Y031214D01*
X021008Y031179D01*
X020986Y031138D01*
X02097Y031091D01*
X020961Y031037D01*
X020957Y030978D01*
X020643D01*
X020639Y031037D01*
X02063Y031091D01*
X020614Y031138D01*
X020592Y031179D01*
X020564Y031214D01*
X020529Y031242D01*
X020488Y031264D01*
X020441Y03128D01*
X020387Y031289D01*
X020328Y031293D01*
X0208Y031607D01*
X021272Y031293D01*
D02*
G37*
G36*
X025273Y030857D02*
X025301Y030846D01*
X025332Y030837D01*
X025367Y030829D01*
X025447Y030817D01*
X025492Y030813D01*
X025648Y030807D01*
Y030493D01*
X025592Y030492D01*
X025405Y030477D01*
X025367Y030471D01*
X025301Y030454D01*
X025273Y030443D01*
X025248Y030432D01*
Y030868D01*
X025273Y030857D01*
D02*
G37*
G36*
X018649Y030857D02*
X018677Y030846D01*
X018708Y030837D01*
X018743Y030829D01*
X018823Y030817D01*
X018868Y030813D01*
X019024Y030807D01*
Y030493D01*
X018969Y030492D01*
X018781Y030477D01*
X018743Y030471D01*
X018677Y030454D01*
X018649Y030443D01*
X018625Y030432D01*
Y030868D01*
X018649Y030857D01*
D02*
G37*
G36*
X022305Y030742D02*
X02232Y030731D01*
X022342Y030712D01*
X022452Y030611D01*
X022625Y03044D01*
X022404Y030216D01*
X022343Y030274D01*
X022235Y030365D01*
X022187Y030398D01*
X022143Y030422D01*
X022103Y030437D01*
X022067Y030445D01*
X022035Y030443D01*
X022007Y030433D01*
X021983Y030415D01*
X022296Y03074D01*
X022297Y030745D01*
X022305Y030742D01*
D02*
G37*
G36*
X016269Y030224D02*
X016282Y030027D01*
X016288Y029995D01*
X016296Y02997D01*
X016304Y029953D01*
X016314Y029942D01*
X016324Y029938D01*
X015621D01*
X015632Y029942D01*
X015642Y029953D01*
X01565Y02997D01*
X015657Y029995D01*
X015663Y030027D01*
X015669Y030065D01*
X015675Y030164D01*
X015678Y030291D01*
X016268D01*
X016269Y030224D01*
D02*
G37*
G36*
X012334Y030418D02*
X012343Y030317D01*
X012358Y030228D01*
X012378Y030151D01*
X012405Y030086D01*
X012437Y030033D01*
X012476Y029992D01*
X01252Y029962D01*
X01257Y029944D01*
X012626Y029938D01*
X011445D01*
X011501Y029944D01*
X011552Y029962D01*
X011596Y029992D01*
X011634Y030033D01*
X011667Y030086D01*
X011693Y030151D01*
X011714Y030228D01*
X011729Y030317D01*
X011738Y030418D01*
X011741Y03053D01*
X012331D01*
X012334Y030418D01*
D02*
G37*
G36*
X025Y029415D02*
X02497Y029417D01*
X024943Y029412D01*
X02492Y029399D01*
X024899Y029379D01*
X024882Y029351D01*
X024868Y029315D01*
X024857Y029273D01*
X024849Y029222D01*
X024844Y029164D01*
X024843Y029099D01*
X024528Y029132D01*
X024527Y029188D01*
X024515Y029334D01*
X024508Y029375D01*
X0245Y029412D01*
X02449Y029444D01*
X024478Y029473D01*
X024465Y029498D01*
X02445Y029519D01*
X025Y029415D01*
D02*
G37*
G36*
X032864Y029022D02*
X03288Y028778D01*
X032885Y028755D01*
X03289Y028738D01*
X032896Y028726D01*
X032516D01*
X032522Y028738D01*
X032528Y028755D01*
X032533Y028778D01*
X032537Y028806D01*
X032544Y028877D01*
X032548Y029022D01*
X032549Y02908D01*
X032864D01*
X032864Y029022D01*
D02*
G37*
G36*
X035338Y028565D02*
X035281Y028506D01*
X035191Y028399D01*
X035157Y028349D01*
X035131Y028303D01*
X035113Y02826D01*
X035102Y02822D01*
X035098Y028184D01*
X035102Y02815D01*
X035114Y02812D01*
X034804Y028698D01*
X034822Y028674D01*
X034846Y02866D01*
X034875Y028657D01*
X03491Y028663D01*
X034951Y028679D01*
X034997Y028705D01*
X035049Y028741D01*
X035106Y028788D01*
X035237Y02891D01*
X035338Y028565D01*
D02*
G37*
G36*
X022262Y028566D02*
X022204Y028507D01*
X022113Y028398D01*
X022079Y028348D01*
X022053Y028302D01*
X022035Y028259D01*
X022032Y028251D01*
X022035Y028243D01*
X022053Y0282D01*
X022079Y028154D01*
X022113Y028104D01*
X022155Y028051D01*
X022204Y027995D01*
X022262Y027936D01*
X02215Y027602D01*
X022081Y027669D01*
X02196Y027772D01*
X021908Y027808D01*
X021862Y027835D01*
X021821Y027852D01*
X021785Y027858D01*
X021755Y027855D01*
X021731Y027842D01*
X021712Y027819D01*
X021962Y028251D01*
X021712Y028683D01*
X021731Y02866D01*
X021755Y028647D01*
X021785Y028644D01*
X021821Y02865D01*
X021862Y028667D01*
X021908Y028694D01*
X02196Y02873D01*
X022018Y028777D01*
X02215Y0289D01*
X022262Y028566D01*
D02*
G37*
G36*
X031214Y02874D02*
X031228Y028535D01*
X031232Y028513D01*
X031238Y028498D01*
X031245Y028488D01*
X031252Y028485D01*
X030861D01*
X030868Y028488D01*
X030874Y028498D01*
X03088Y028513D01*
X030885Y028535D01*
X030889Y028564D01*
X030895Y028639D01*
X030899Y0288D01*
X031214D01*
X031214Y02874D01*
D02*
G37*
G36*
X018314D02*
X018328Y028535D01*
X018332Y028513D01*
X018338Y028498D01*
X018345Y028488D01*
X018352Y028485D01*
X017961D01*
X017968Y028488D01*
X017974Y028498D01*
X01798Y028513D01*
X017985Y028535D01*
X017989Y028564D01*
X017995Y028639D01*
X017999Y0288D01*
X018314D01*
X018314Y02874D01*
D02*
G37*
G36*
X024843Y028682D02*
X024856Y028477D01*
X024861Y028455D01*
X024867Y028439D01*
X024873Y02843D01*
X024881Y028427D01*
X024489D01*
X024497Y02843D01*
X024503Y028439D01*
X024509Y028455D01*
X024514Y028477D01*
X024518Y028505D01*
X024524Y028581D01*
X024528Y028742D01*
X024843D01*
X024843Y028682D01*
D02*
G37*
G36*
X032002Y028722D02*
X032017Y028478D01*
X032022Y028455D01*
X032028Y028438D01*
X032034Y028426D01*
X031654D01*
X03166Y028438D01*
X031665Y028455D01*
X03167Y028478D01*
X031675Y028506D01*
X031681Y028577D01*
X031686Y028722D01*
X031686Y02878D01*
X032001D01*
X032002Y028722D01*
D02*
G37*
G36*
X019102D02*
X019117Y028478D01*
X019122Y028455D01*
X019128Y028438D01*
X019134Y028426D01*
X018754D01*
X01876Y028438D01*
X018765Y028455D01*
X01877Y028478D01*
X018775Y028506D01*
X018781Y028577D01*
X018786Y028722D01*
X018786Y02878D01*
X019101D01*
X019102Y028722D01*
D02*
G37*
G36*
X02563Y028663D02*
X025646Y02842D01*
X025651Y028397D01*
X025656Y02838D01*
X025662Y028367D01*
X025282D01*
X025289Y02838D01*
X025294Y028397D01*
X025299Y02842D01*
X025303Y028447D01*
X02531Y028518D01*
X025315Y028663D01*
X025315Y028722D01*
X02563D01*
X02563Y028663D01*
D02*
G37*
G36*
X012728Y029284D02*
X012746Y029234D01*
X012776Y02919D01*
X012817Y029152D01*
X01287Y029119D01*
X012935Y029093D01*
X013012Y029072D01*
X013101Y029057D01*
X013202Y029048D01*
X013314Y029045D01*
Y028455D01*
X013202Y028452D01*
X013101Y028443D01*
X013012Y028428D01*
X012935Y028407D01*
X01287Y028381D01*
X012817Y028348D01*
X012776Y02831D01*
X012746Y028266D01*
X012728Y028216D01*
X012722Y028159D01*
Y029341D01*
X012728Y029284D01*
D02*
G37*
G36*
X028595Y028208D02*
X028589Y028176D01*
X028591Y028141D01*
X028601Y028102D01*
X028619Y028059D01*
X028646Y028013D01*
X02868Y027963D01*
X028723Y027909D01*
X028774Y027851D01*
X028833Y02779D01*
X028686Y027492D01*
X028618Y027558D01*
X028498Y02766D01*
X028445Y027697D01*
X028398Y027724D01*
X028356Y027742D01*
X02832Y027749D01*
X028289Y027747D01*
X028262Y027736D01*
X028241Y027715D01*
X028609Y028235D01*
X028595Y028208D01*
D02*
G37*
G36*
X015383Y030666D02*
X015245Y030335D01*
X01489D01*
Y027697D01*
X013659D01*
X013237Y027522D01*
X013165Y027449D01*
X013119Y027468D01*
Y028004D01*
X01405D01*
X014577Y028223D01*
X014796Y02875D01*
X014577Y029277D01*
X01405Y029496D01*
X013119D01*
Y030304D01*
X014642D01*
X015169Y030523D01*
X015341Y030694D01*
X015383Y030666D01*
D02*
G37*
G36*
X03257Y027296D02*
X032547Y027309D01*
X032521Y027322D01*
X032491Y027332D01*
X032459Y027342D01*
X032423Y02735D01*
X032384Y027356D01*
X032297Y027365D01*
X032249Y027367D01*
X032198Y027368D01*
Y027682D01*
X032249Y027683D01*
X032384Y027694D01*
X032423Y0277D01*
X032459Y027708D01*
X032491Y027718D01*
X032521Y027729D01*
X032547Y027741D01*
X03257Y027754D01*
Y027296D01*
D02*
G37*
G36*
X021684Y026088D02*
X021677Y02609D01*
X021665Y026087D01*
X021649Y026078D01*
X021628Y026064D01*
X021603Y026045D01*
X021539Y025989D01*
X02141Y025864D01*
X021187Y026087D01*
X021234Y026134D01*
X021402Y026326D01*
X02141Y026342D01*
X021414Y026353D01*
X021411Y026361D01*
X021684Y026088D01*
D02*
G37*
G36*
X012408Y025299D02*
X012416Y025198D01*
X012423Y025157D01*
X012432Y025123D01*
X012442Y025094D01*
X012455Y025072D01*
X01247Y025057D01*
X012486Y025047D01*
X012505Y025044D01*
X011995D01*
X012014Y025047D01*
X01203Y025057D01*
X012045Y025072D01*
X012058Y025094D01*
X012068Y025123D01*
X012077Y025157D01*
X012084Y025198D01*
X012089Y025246D01*
X012093Y025359D01*
X012407D01*
X012408Y025299D01*
D02*
G37*
G36*
X035571Y02498D02*
X035576Y024939D01*
X035583Y024901D01*
X035593Y024863D01*
X035606Y024827D01*
X035622Y024792D01*
X035641Y024759D01*
X035663Y024727D01*
X035688Y024696D01*
X035715Y024667D01*
X035109D01*
X035137Y024696D01*
X035161Y024727D01*
X035183Y024759D01*
X035202Y024792D01*
X035218Y024827D01*
X035231Y024863D01*
X035242Y024901D01*
X035249Y024939D01*
X035253Y02498D01*
X035255Y025021D01*
X03557D01*
X035571Y02498D01*
D02*
G37*
G36*
X030847D02*
X030851Y024939D01*
X030858Y024901D01*
X030869Y024863D01*
X030882Y024827D01*
X030898Y024792D01*
X030917Y024759D01*
X030939Y024727D01*
X030963Y024696D01*
X030991Y024667D01*
X030385D01*
X030412Y024696D01*
X030437Y024727D01*
X030459Y024759D01*
X030478Y024792D01*
X030494Y024827D01*
X030507Y024863D01*
X030517Y024901D01*
X030524Y024939D01*
X030529Y02498D01*
X03053Y025021D01*
X030845D01*
X030847Y02498D01*
D02*
G37*
G36*
X029071D02*
X029076Y024939D01*
X029083Y024901D01*
X029093Y024863D01*
X029106Y024827D01*
X029122Y024792D01*
X029141Y024759D01*
X029163Y024727D01*
X029188Y024696D01*
X029215Y024667D01*
X028609D01*
X028637Y024696D01*
X028661Y024727D01*
X028683Y024759D01*
X028702Y024792D01*
X028718Y024827D01*
X028731Y024863D01*
X028742Y024901D01*
X028749Y024939D01*
X028753Y02498D01*
X028755Y025021D01*
X02907D01*
X029071Y02498D01*
D02*
G37*
G36*
X024347D02*
X024351Y024939D01*
X024358Y024901D01*
X024369Y024863D01*
X024382Y024827D01*
X024398Y024792D01*
X024417Y024759D01*
X024439Y024727D01*
X024463Y024696D01*
X024491Y024667D01*
X023885D01*
X023912Y024696D01*
X023937Y024727D01*
X023959Y024759D01*
X023978Y024792D01*
X023994Y024827D01*
X024007Y024863D01*
X024017Y024901D01*
X024024Y024939D01*
X024029Y02498D01*
X02403Y025021D01*
X024345D01*
X024347Y02498D01*
D02*
G37*
G36*
X022571D02*
X022576Y024939D01*
X022583Y024901D01*
X022593Y024863D01*
X022606Y024827D01*
X022622Y024792D01*
X022641Y024759D01*
X022663Y024727D01*
X022688Y024696D01*
X022715Y024667D01*
X022109D01*
X022137Y024696D01*
X022162Y024727D01*
X022183Y024759D01*
X022202Y024792D01*
X022218Y024827D01*
X022231Y024863D01*
X022242Y024901D01*
X022249Y024939D01*
X022253Y02498D01*
X022255Y025021D01*
X02257D01*
X022571Y02498D01*
D02*
G37*
G36*
X017847D02*
X017851Y024939D01*
X017858Y024901D01*
X017869Y024863D01*
X017882Y024827D01*
X017898Y024792D01*
X017917Y024759D01*
X017939Y024727D01*
X017963Y024696D01*
X017991Y024667D01*
X017385D01*
X017412Y024696D01*
X017437Y024727D01*
X017459Y024759D01*
X017478Y024792D01*
X017494Y024827D01*
X017507Y024863D01*
X017517Y024901D01*
X017524Y024939D01*
X017529Y02498D01*
X01753Y025021D01*
X017845D01*
X017847Y02498D01*
D02*
G37*
G36*
X012486Y024453D02*
X01247Y024443D01*
X012455Y024428D01*
X012442Y024406D01*
X012432Y024377D01*
X012423Y024343D01*
X012416Y024302D01*
X012411Y024254D01*
X012407Y024141D01*
X012093D01*
X012092Y024201D01*
X012084Y024302D01*
X012077Y024343D01*
X012068Y024377D01*
X012058Y024406D01*
X012045Y024428D01*
X01203Y024443D01*
X012014Y024453D01*
X011995Y024456D01*
X012505D01*
X012486Y024453D01*
D02*
G37*
G36*
X015155Y024331D02*
X015153Y024322D01*
X015151Y024309D01*
X015148Y024269D01*
X015146Y024088D01*
X014831D01*
X01482Y024335D01*
X015157D01*
X015155Y024331D01*
D02*
G37*
G36*
X016196Y024354D02*
X01619Y024337D01*
X016185Y024314D01*
X016181Y024287D01*
X016174Y024216D01*
X01617Y024071D01*
X016169Y024012D01*
X015854D01*
X015854Y024071D01*
X015838Y024314D01*
X015834Y024337D01*
X015828Y024354D01*
X015822Y024367D01*
X016202D01*
X016196Y024354D01*
D02*
G37*
G36*
X035688Y024019D02*
X035663Y023989D01*
X035641Y023957D01*
X035622Y023923D01*
X035606Y023889D01*
X035593Y023853D01*
X035583Y023815D01*
X035576Y023776D01*
X035571Y023736D01*
X03557Y023695D01*
X035255D01*
X035253Y023736D01*
X035249Y023776D01*
X035242Y023815D01*
X035231Y023853D01*
X035218Y023889D01*
X035202Y023923D01*
X035183Y023957D01*
X035161Y023989D01*
X035137Y024019D01*
X035109Y024049D01*
X035715D01*
X035688Y024019D01*
D02*
G37*
G36*
X029188D02*
X029163Y023989D01*
X029141Y023957D01*
X029122Y023923D01*
X029106Y023889D01*
X029093Y023853D01*
X029083Y023815D01*
X029076Y023776D01*
X029071Y023736D01*
X02907Y023695D01*
X028755D01*
X028753Y023736D01*
X028749Y023776D01*
X028742Y023815D01*
X028731Y023853D01*
X028718Y023889D01*
X028702Y023923D01*
X028683Y023957D01*
X028661Y023989D01*
X028637Y024019D01*
X028609Y024049D01*
X029215D01*
X029188Y024019D01*
D02*
G37*
G36*
X022688D02*
X022663Y023989D01*
X022641Y023957D01*
X022622Y023923D01*
X022606Y023889D01*
X022593Y023853D01*
X022583Y023815D01*
X022576Y023776D01*
X022571Y023736D01*
X02257Y023695D01*
X022255D01*
X022253Y023736D01*
X022249Y023776D01*
X022242Y023815D01*
X022231Y023853D01*
X022218Y023889D01*
X022202Y023923D01*
X022183Y023957D01*
X022162Y023989D01*
X022137Y024019D01*
X022109Y024049D01*
X022715D01*
X022688Y024019D01*
D02*
G37*
G36*
X015059Y022546D02*
X015069Y022445D01*
X015078Y022404D01*
X01509Y022369D01*
X015104Y022341D01*
X015121Y022319D01*
X01514Y022303D01*
X015162Y022294D01*
X015186Y022291D01*
X014677D01*
X014689Y022294D01*
X014701Y022303D01*
X01471Y022319D01*
X014719Y022341D01*
X014726Y022369D01*
X014732Y022404D01*
X014737Y022445D01*
X014742Y022546D01*
X014743Y022606D01*
X015057D01*
X015059Y022546D01*
D02*
G37*
G36*
X0168Y0265D02*
Y021932D01*
X015581D01*
Y022188D01*
X015609Y022236D01*
X015601Y022264D01*
X015613Y022291D01*
X015581Y022366D01*
Y022538D01*
X016434Y02339D01*
X016608Y023812D01*
Y02432D01*
X016628Y024367D01*
X016628Y024368D01*
X016643Y024405D01*
Y024995D01*
X016487Y025372D01*
X01611Y025528D01*
X015913D01*
X015537Y025372D01*
X015525Y025344D01*
X015475D01*
X015463Y025372D01*
X015087Y025528D01*
X01489D01*
X014513Y025372D01*
X014357Y024995D01*
Y024405D01*
X014388Y024331D01*
X014253Y024197D01*
X0129D01*
Y024381D01*
X012931Y024456D01*
X012916Y024491D01*
X012925Y024528D01*
X0129Y024568D01*
Y024932D01*
X012925Y024972D01*
X012916Y025009D01*
X012931Y025044D01*
X0129Y025119D01*
Y025439D01*
X0129D01*
X012892Y025489D01*
X013906Y026503D01*
X0167D01*
X016758Y026528D01*
X0168Y0265D01*
D02*
G37*
G36*
X010723Y032523D02*
X011091Y032154D01*
X011618Y031936D01*
X011757D01*
X011897Y031796D01*
X012376D01*
X012386Y031747D01*
X011977Y031577D01*
X011509Y031109D01*
X01129Y030581D01*
Y030335D01*
X010953D01*
Y027185D01*
X012835D01*
X012854Y027139D01*
X011828Y026113D01*
X011653Y025691D01*
Y025439D01*
X0116D01*
Y025119D01*
X011569Y025044D01*
X011584Y025009D01*
X011575Y024972D01*
X0116Y024932D01*
Y024568D01*
X011575Y024528D01*
X011584Y024491D01*
X011569Y024456D01*
X0116Y024381D01*
Y024061D01*
X011653D01*
Y02385D01*
X011828Y023428D01*
X012078Y023178D01*
X012078Y023178D01*
X0125Y023003D01*
X014384D01*
X014412Y022962D01*
X014303Y0227D01*
Y022685D01*
X014282D01*
Y022366D01*
X014275Y022348D01*
X014265Y022329D01*
X014266Y022326D01*
X014251Y022291D01*
X014272Y02224D01*
X014264Y022186D01*
X014282Y022162D01*
Y021932D01*
X01397D01*
X013953Y021957D01*
Y022036D01*
X013747Y022533D01*
X01325Y022739D01*
X012941Y022611D01*
X0129Y022639D01*
Y022685D01*
X0116D01*
Y021308D01*
X011934D01*
X012328Y020913D01*
X012546Y020823D01*
X012553Y020766D01*
X012154Y020367D01*
Y01978D01*
X012569Y019365D01*
X013156D01*
X013352Y019561D01*
X013548Y019365D01*
X014135D01*
X014331Y019561D01*
X014527Y019365D01*
X015114D01*
X015529Y01978D01*
Y020367D01*
X015204Y020692D01*
X015223Y020739D01*
X0168D01*
Y013186D01*
X016754Y013167D01*
X016608Y013313D01*
X015792D01*
X015216Y012736D01*
Y011921D01*
X015792Y011344D01*
X016608D01*
X016754Y011491D01*
X0168Y011471D01*
Y010319D01*
X013518D01*
X013499Y010365D01*
X013822Y010688D01*
Y012319D01*
X012669Y013472D01*
X011038D01*
X010715Y013149D01*
X010669Y013168D01*
Y032525D01*
X010718Y032534D01*
X010723Y032523D01*
D02*
G37*
G36*
X028183Y020493D02*
X028123Y020489D01*
X02807Y02048D01*
X028023Y020464D01*
X027982Y020442D01*
X027947Y020414D01*
X027919Y020379D01*
X027897Y020338D01*
X027881Y020291D01*
X027871Y020237D01*
X027868Y020178D01*
X027553D01*
X02755Y020237D01*
X027541Y020291D01*
X027525Y020338D01*
X027503Y020379D01*
X027475Y020414D01*
X02744Y020442D01*
X027399Y020464D01*
X027352Y02048D01*
X027298Y020489D01*
X027238Y020493D01*
X027711Y02065D01*
X028183Y020493D01*
D02*
G37*
G36*
X027857Y012997D02*
X02789Y012968D01*
X027923Y012944D01*
X027956Y012924D01*
X027987Y012909D01*
X028018Y012898D01*
X028048Y012891D01*
X028077Y012888D01*
X028106Y01289D01*
X028134Y012895D01*
X027733Y012495D01*
X027739Y012523D01*
X027741Y012551D01*
X027738Y012581D01*
X027731Y012611D01*
X02772Y012642D01*
X027704Y012673D01*
X027685Y012705D01*
X02766Y012738D01*
X027632Y012772D01*
X027599Y012807D01*
X027822Y013029D01*
X027857Y012997D01*
D02*
G37*
%LPC*%
G36*
X020199Y040919D02*
X018781D01*
Y039501D01*
X020199D01*
Y040919D01*
D02*
G37*
G36*
X03985Y027197D02*
X039788Y027171D01*
X039614D01*
X03949Y027048D01*
X039428Y027022D01*
X039402Y02696D01*
X03935Y026907D01*
X039298Y02696D01*
X039272Y027022D01*
X03921Y027048D01*
X039086Y027171D01*
X038912D01*
X03885Y027197D01*
X038788Y027171D01*
X038614D01*
X03849Y027048D01*
X038428Y027022D01*
X038402Y02696D01*
X038279Y026836D01*
Y026662D01*
X038253Y0266D01*
Y02445D01*
X038428Y024028D01*
X039618Y022838D01*
X04004Y022663D01*
X042848D01*
X042876Y022622D01*
X042722Y02225D01*
X04295Y0217D01*
X0435Y021472D01*
X0436D01*
X04415Y0217D01*
X044275Y022002D01*
X044325D01*
X04445Y0217D01*
X045Y021472D01*
X0451D01*
X04565Y0217D01*
X045878Y02225D01*
X045669Y022755D01*
X045878Y02326D01*
X045722Y023635D01*
X045706Y023701D01*
X045692Y02371D01*
X04565Y02381D01*
X045647Y023812D01*
Y024D01*
X045472Y024422D01*
X044872Y025022D01*
X04445Y025197D01*
X040747D01*
X040447Y025497D01*
Y0266D01*
X040421Y026662D01*
Y026836D01*
X040298Y02696D01*
X040272Y027022D01*
X04021Y027048D01*
X040086Y027171D01*
X039912D01*
X03985Y027197D01*
D02*
G37*
G36*
X04416Y020398D02*
X04354D01*
X043102Y01996D01*
Y01934D01*
X04354Y018902D01*
X04416D01*
X044598Y01934D01*
Y01996D01*
X04416Y020398D01*
D02*
G37*
G36*
X04496Y017498D02*
X04434D01*
X043902Y01706D01*
Y01644D01*
X04434Y016002D01*
X04496D01*
X045398Y01644D01*
Y01706D01*
X04496Y017498D01*
D02*
G37*
G36*
X041617Y016156D02*
X041183D01*
X040716Y015962D01*
X040523Y015495D01*
Y014905D01*
X040566Y0148D01*
X040523Y014695D01*
Y014105D01*
X040716Y013638D01*
X041183Y013444D01*
X041617D01*
X042084Y013638D01*
X042277Y014105D01*
Y014695D01*
X042234Y0148D01*
X042277Y014905D01*
Y015495D01*
X042084Y015962D01*
X041617Y016156D01*
D02*
G37*
G36*
X039617D02*
X039183D01*
X038716Y015962D01*
X038523Y015495D01*
Y014905D01*
X038566Y0148D01*
X038523Y014695D01*
Y014105D01*
X038716Y013638D01*
X039183Y013444D01*
X039617D01*
X040084Y013638D01*
X040277Y014105D01*
Y014695D01*
X040234Y0148D01*
X040277Y014905D01*
Y015495D01*
X040084Y015962D01*
X039617Y016156D01*
D02*
G37*
%LPD*%
G36*
X045209Y023798D02*
X045222Y023659D01*
X045233Y023603D01*
X045247Y023555D01*
X045264Y023516D01*
X045284Y023486D01*
X045308Y023464D01*
X045334Y023451D01*
X045364Y023447D01*
X044736D01*
X044766Y023451D01*
X044792Y023464D01*
X044816Y023486D01*
X044836Y023516D01*
X044853Y023555D01*
X044867Y023603D01*
X044878Y023659D01*
X044886Y023725D01*
X044891Y023798D01*
X044893Y023881D01*
X045207D01*
X045209Y023798D01*
D02*
G37*
G36*
X043319Y022989D02*
X04329Y023011D01*
X043258Y02303D01*
X043224Y023047D01*
X043186Y023062D01*
X043146Y023074D01*
X043103Y023084D01*
X043057Y023092D01*
X043008Y023098D01*
X042902Y023103D01*
Y023417D01*
X042957Y023419D01*
X043057Y023428D01*
X043103Y023436D01*
X043146Y023446D01*
X043186Y023458D01*
X043224Y023473D01*
X043258Y02349D01*
X04329Y023509D01*
X043319Y023531D01*
Y022989D01*
D02*
G37*
%LPC*%
G36*
X012797Y016888D02*
X012225Y016651D01*
X011988Y016079D01*
Y015921D01*
X012225Y015349D01*
X012797Y015112D01*
X01337Y015349D01*
X013607Y015921D01*
Y016079D01*
X01337Y016651D01*
X012797Y016888D01*
D02*
G37*
%LPD*%
D20*
X032966Y040669D02*
D03*
X033754D02*
D03*
X033349Y033639D02*
D03*
X032561D02*
D03*
X034261D02*
D03*
X035049D02*
D03*
X032561Y032482D02*
D03*
X034999D02*
D03*
X034211D02*
D03*
X029644Y040089D02*
D03*
X028856D02*
D03*
X024831D02*
D03*
X025619D02*
D03*
X025644Y032083D02*
D03*
X026306Y0265D02*
D03*
X027094D02*
D03*
X026306Y02855D02*
D03*
X027094D02*
D03*
X026306Y027525D02*
D03*
X027094D02*
D03*
X025472Y028192D02*
D03*
X019756Y02855D02*
D03*
X020544D02*
D03*
X019756Y027525D02*
D03*
X020544D02*
D03*
X016544Y04355D02*
D03*
X032706Y0265D02*
D03*
X033494D02*
D03*
X032706Y02855D02*
D03*
X033494D02*
D03*
X018944Y02825D02*
D03*
X031844D02*
D03*
X016594Y04265D02*
D03*
X015806D02*
D03*
X033494Y027525D02*
D03*
X032706D02*
D03*
X020544Y0265D02*
D03*
X019756D02*
D03*
D21*
X033443Y0352D02*
D03*
X034467Y035593D02*
D03*
Y034806D02*
D03*
D22*
X033349Y032482D02*
D03*
X024856Y032083D02*
D03*
X024685Y028192D02*
D03*
X015756Y04355D02*
D03*
X018156Y02825D02*
D03*
X031056D02*
D03*
D23*
X042805Y032372D02*
D03*
X042305D02*
D03*
X041805D02*
D03*
X041305D02*
D03*
X040805D02*
D03*
X040305D02*
D03*
X039805D02*
D03*
X039305D02*
D03*
X038805D02*
D03*
X038305D02*
D03*
X037805D02*
D03*
X037305D02*
D03*
X036805D02*
D03*
X036305D02*
D03*
Y039065D02*
D03*
X036805D02*
D03*
X037305D02*
D03*
X037805D02*
D03*
X038305D02*
D03*
X038805D02*
D03*
X039305D02*
D03*
X039805D02*
D03*
X040305D02*
D03*
X040805D02*
D03*
X041305D02*
D03*
X041805D02*
D03*
X042305D02*
D03*
X042805D02*
D03*
D24*
X035911Y033469D02*
D03*
Y033969D02*
D03*
Y034469D02*
D03*
Y034969D02*
D03*
Y035469D02*
D03*
Y035969D02*
D03*
Y036469D02*
D03*
Y036969D02*
D03*
Y037469D02*
D03*
Y037969D02*
D03*
D25*
X039852Y036112D02*
D03*
D26*
X0288Y036466D02*
D03*
Y038434D02*
D03*
D27*
X034622Y02965D02*
D03*
Y03065D02*
D03*
X031078Y02965D02*
D03*
Y03065D02*
D03*
X028446Y02965D02*
D03*
Y03065D02*
D03*
X024902Y02965D02*
D03*
Y03065D02*
D03*
X021822Y02965D02*
D03*
Y03065D02*
D03*
X018278Y02965D02*
D03*
Y03065D02*
D03*
D28*
X025725Y039126D02*
D03*
X024725D02*
D03*
X0328Y0368D02*
D03*
X0318D02*
D03*
X0257Y03425D02*
D03*
X0247D02*
D03*
X025725Y038098D02*
D03*
X024725D02*
D03*
X0219Y0366D02*
D03*
X0229D02*
D03*
X01485Y03845D02*
D03*
X01385D02*
D03*
X0116Y0384D02*
D03*
X0126D02*
D03*
D29*
X031719Y03835D02*
D03*
D30*
X034081D02*
D03*
D31*
X022768Y042906D02*
D03*
Y041094D02*
D03*
X026232Y042906D02*
D03*
Y041094D02*
D03*
X027468Y042906D02*
D03*
Y041094D02*
D03*
X030932Y042906D02*
D03*
Y041094D02*
D03*
D32*
X0248Y03325D02*
D03*
X0257D02*
D03*
D33*
X024037Y03625D02*
D03*
D34*
X02636Y037156D02*
D03*
Y03625D02*
D03*
Y035344D02*
D03*
D35*
X016012Y0247D02*
D03*
X014988D02*
D03*
D36*
X022833Y04005D02*
D03*
X021967D02*
D03*
D37*
X023487Y0383D02*
D03*
X021913D02*
D03*
D38*
X020855Y033795D02*
D03*
D39*
X022134D02*
D03*
D40*
X016612Y032456D02*
D03*
Y033125D02*
D03*
Y033795D02*
D03*
Y034464D02*
D03*
Y035133D02*
D03*
D41*
X012036Y02876D02*
D03*
X015973D02*
D03*
D42*
X018176Y027053D02*
D03*
X018924D02*
D03*
X01855Y026147D02*
D03*
X031026Y027053D02*
D03*
X031774D02*
D03*
X0314Y026147D02*
D03*
X024626Y027053D02*
D03*
X025374D02*
D03*
X025Y026147D02*
D03*
D43*
X021724Y026519D02*
D03*
X028295Y026415D02*
D03*
X0348Y026534D02*
D03*
D44*
X021724Y028251D02*
D03*
X028295Y028147D02*
D03*
X0348Y028266D02*
D03*
D45*
X018066Y03725D02*
D03*
D46*
X016334D02*
D03*
D94*
X0116Y0384D02*
Y038967D01*
X013803Y04117D02*
X017018D01*
X0116Y038967D02*
X013803Y04117D01*
X012046Y02875D02*
X01405D01*
X01385Y03845D02*
X013986Y038314D01*
Y036669D02*
X014036Y036618D01*
X013986Y036669D02*
Y038314D01*
X018982Y03445D02*
Y036165D01*
Y032432D02*
Y03445D01*
X015973Y030291D02*
X017741Y032059D01*
X018609D02*
X018982Y032432D01*
X017741Y032059D02*
X018609D01*
X018146Y037001D02*
Y03723D01*
Y037001D02*
X018982Y036165D01*
X018126Y03725D02*
X018146Y03723D01*
X018066Y03725D02*
X018126D01*
X015973Y02876D02*
Y030291D01*
X022833Y038417D02*
Y04005D01*
Y038417D02*
X02295Y0383D01*
X023487D01*
X021913Y036613D02*
Y0383D01*
X0219Y0366D02*
X021913Y036613D01*
X01975Y0366D02*
X0219D01*
X01949Y03686D02*
X01975Y0366D01*
X01949Y03686D02*
Y03741D01*
X02049Y04021D02*
Y04201D01*
Y03741D02*
Y04021D01*
X02Y0425D02*
X02049Y04201D01*
X012036Y02876D02*
X012046Y02875D01*
X0126Y038649D02*
X014141Y04019D01*
X0126Y0384D02*
Y038649D01*
X014141Y04019D02*
X016537D01*
X017018Y04117D02*
X017538Y04065D01*
Y04019D02*
Y04065D01*
X016537Y04019D02*
X016538Y04019D01*
X014036Y032682D02*
Y033409D01*
X0151Y034473D02*
Y0351D01*
X014036Y033409D02*
X0151Y034473D01*
X015117Y031525D02*
Y032578D01*
X012504Y03105D02*
X014642D01*
X015117Y031525D01*
Y032578D02*
X015665Y033125D01*
X012036Y02876D02*
Y030581D01*
X012504Y03105D01*
X0151Y0351D02*
Y0382D01*
Y0351D02*
X015133Y035133D01*
X01485Y03845D02*
X0151Y0382D01*
X020199Y03445D02*
X020855Y033795D01*
X019975Y033895D02*
X020755D01*
X020855Y033795D01*
X01125Y038151D02*
X011499Y0384D01*
X0116D01*
X01125Y03305D02*
Y038151D01*
X011618Y032682D02*
X012264D01*
X01125Y03305D02*
X011618Y032682D01*
X0126Y036954D02*
Y0384D01*
X012264Y036618D02*
X0126Y036954D01*
D95*
X0359Y02065D02*
X042D01*
X0426Y02005D01*
Y0178D02*
Y02005D01*
Y0178D02*
X04365Y01675D01*
X0388Y0306D02*
X03885Y03055D01*
Y02815D02*
Y03055D01*
X0398Y0306D02*
X03985Y03055D01*
Y02815D02*
Y03055D01*
Y02525D02*
Y0266D01*
Y02525D02*
X0405Y0246D01*
X04445D01*
X04505Y024D01*
Y02326D02*
Y024D01*
X03885Y02445D02*
Y0266D01*
Y02445D02*
X04004Y02326D01*
X04355D01*
X042074Y027499D02*
X042805Y02823D01*
X0378Y027499D02*
X042074D01*
X042805Y02823D02*
Y032372D01*
X0378Y02255D02*
Y027499D01*
Y0306D01*
X041741Y037978D02*
X041805Y038042D01*
Y039065D01*
X035161Y040704D02*
X035322Y040865D01*
X033754Y040669D02*
Y040704D01*
X035161D01*
X0362Y0421D02*
Y0426D01*
X0359Y0418D02*
X0362Y0421D01*
X0353Y0418D02*
X0359D01*
X0349Y0414D02*
X0353Y0418D01*
X03365Y0414D02*
X0349D01*
X032966Y040716D02*
X03365Y0414D01*
X032966Y040669D02*
Y040716D01*
X032956Y039948D02*
Y040659D01*
X032966Y040669D01*
X032858Y03985D02*
X032956Y039948D01*
X03285Y03985D02*
X032858D01*
X032983Y041892D02*
X034592D01*
X037376Y040474D02*
X0374Y04045D01*
X037376Y040474D02*
Y0408D01*
X037312Y040865D02*
X037376Y0408D01*
X0374Y04045D02*
X0425D01*
X042805Y040145D01*
Y039065D02*
Y040145D01*
X01325Y03025D02*
X0148D01*
X032858Y03985D02*
X041697Y03985D01*
X031719Y03871D02*
X032858Y03985D01*
X031719Y0368D02*
Y03835D01*
Y036619D02*
Y0368D01*
Y03835D02*
Y03871D01*
X0317Y040609D02*
X032983Y041892D01*
X03075Y03899D02*
X0317Y03994D01*
Y040609D01*
X034592Y041892D02*
X0352Y0425D01*
Y0426D01*
X0328Y03625D02*
Y0368D01*
X031894Y035344D02*
X0328Y03625D01*
Y0368D02*
Y0378D01*
X03335Y03835D02*
X034081D01*
X0328Y0378D02*
X03335Y03835D01*
X0297Y035344D02*
X031894D01*
X031719Y0368D02*
X0318D01*
X03135Y03625D02*
X031719Y036619D01*
X029016Y03625D02*
X03135D01*
X0288Y036466D02*
X029016Y03625D01*
X041697Y03985D02*
X0421D01*
X034212Y035778D02*
Y038219D01*
X0369Y03785D02*
X037305Y038255D01*
X042305Y039065D02*
Y039645D01*
X0421Y03985D02*
X042305Y039645D01*
X034081Y03835D02*
X03553D01*
X027711Y02065D02*
X0359D01*
X030226Y038842D02*
Y03925D01*
X0288Y038434D02*
X029818D01*
X030226Y038842D01*
Y03925D02*
X031111Y040135D01*
Y040916D01*
X030932Y041094D02*
X031111Y040916D01*
X030932Y041094D02*
X030969D01*
X0322Y042325D02*
Y0426D01*
X030969Y041094D02*
X0322Y042325D01*
X03075Y03785D02*
Y03899D01*
X01945Y0425D02*
X02D01*
X0187Y04175D02*
X01945Y0425D01*
X0187Y03955D02*
Y04175D01*
X017916Y038766D02*
X0187Y03955D01*
X016334Y038766D02*
X017916D01*
X028108Y039126D02*
X0288Y038434D01*
X025725Y039126D02*
X028108D01*
X025933Y042D02*
X026232Y0423D01*
X02475Y042D02*
X025933D01*
X026232Y0423D02*
Y042906D01*
X02935Y04205D02*
X030727D01*
X030932Y042255D02*
Y042906D01*
X030727Y04205D02*
X030932Y042255D01*
X030304Y040089D02*
X030306Y040091D01*
X029644Y040089D02*
X030304D01*
X024194Y039135D02*
X024203Y039126D01*
X024725D01*
X025725Y038098D02*
Y039126D01*
X024801Y040059D02*
X024831Y040089D01*
X024801Y039202D02*
Y040059D01*
X024725Y039126D02*
X024801Y039202D01*
X02636Y035344D02*
X0297D01*
X02975Y035294D01*
Y03285D02*
Y035294D01*
Y03285D02*
X030118Y032482D01*
X032561D01*
Y033639D01*
X03325Y03125D02*
X0378D01*
X032561Y031939D02*
X03325Y03125D01*
X032561Y031939D02*
Y032482D01*
X033349D02*
X034211D01*
X034408Y034806D02*
X034467D01*
X034261Y034659D02*
X034408Y034806D01*
X034261Y033639D02*
Y034659D01*
X033349Y033639D02*
X034261D01*
X03311Y0348D02*
X033365Y035054D01*
Y03518D01*
X033384Y0352D01*
X033443D01*
X03115Y0348D02*
X03311D01*
X030696Y034346D02*
X03115Y0348D01*
X030696Y03345D02*
Y034346D01*
X0351Y033729D02*
Y0342D01*
X035049Y033678D02*
X0351Y033729D01*
X035049Y033639D02*
Y033678D01*
X03495Y03435D02*
X0351Y0342D01*
X034212Y035778D02*
X034396Y035593D01*
X034467D01*
X034081Y03835D02*
X034212Y038219D01*
X034999Y032482D02*
X03509D01*
X035313Y032705D01*
Y033087D01*
X035694Y033469D01*
X035911D01*
X03202Y0312D02*
X033494Y029726D01*
X02755Y0312D02*
X03202D01*
X02755Y02985D02*
Y03145D01*
X033494Y029194D02*
Y029726D01*
X031078Y03065D02*
X031874D01*
X032706Y029083D02*
Y029818D01*
X031874Y03065D02*
X032706Y029818D01*
X031846Y029438D02*
Y029642D01*
X031844Y029436D02*
X031846Y029438D01*
Y029642D02*
X031854Y02965D01*
X031844Y02825D02*
Y029436D01*
X031866Y02965D02*
X031866Y02965D01*
X031854Y02965D02*
X031866D01*
X027711Y012918D02*
Y02065D01*
X027711Y02065D02*
X027711Y02065D01*
X016376Y02065D02*
X027711D01*
X0359D02*
X0378Y02255D01*
X04315Y032717D02*
Y036944D01*
X042312Y036112D02*
X043144Y036944D01*
X042805Y039065D02*
X043144Y038726D01*
Y036944D02*
Y038726D01*
X042805Y032372D02*
X04315Y032717D01*
X039852Y036112D02*
X042312D01*
X0274Y040089D02*
X028856D01*
X025619D02*
X0274D01*
X0113Y01995D02*
Y02555D01*
X01465Y0301D02*
X0148Y03025D01*
X01465Y02805D02*
Y0301D01*
X01435Y02775D02*
X01465Y02805D01*
X0135Y02775D02*
X01435D01*
X0113Y02555D02*
X0135Y02775D01*
X01225Y02475D02*
Y025691D01*
X013659Y0271D02*
X0167D01*
X01225Y025691D02*
X013659Y0271D01*
X0113Y01995D02*
X01215Y0191D01*
X014826D01*
X015799Y020074D01*
X0229Y03575D02*
Y0366D01*
X022695Y035545D02*
X0229Y03575D01*
X022175Y035545D02*
X022695D01*
X04215Y0345D02*
X042628Y034022D01*
X03715Y0345D02*
X04215D01*
X0368Y03335D02*
Y03415D01*
X03715Y0345D01*
X041876Y034007D02*
X04189D01*
X041305Y033436D02*
X041876Y034007D01*
X041305Y032372D02*
Y033436D01*
X042157Y033457D02*
X042179D01*
X041805Y033105D02*
X042157Y033457D01*
X041805Y032372D02*
Y033105D01*
X040805Y032372D02*
Y033823D01*
X04079Y033838D02*
X040805Y033823D01*
X040007Y033598D02*
X040305Y0333D01*
Y032372D02*
Y0333D01*
X036305Y032855D02*
X0368Y03335D01*
X036305Y032372D02*
Y032855D01*
X037305Y033294D02*
X037601Y03359D01*
X037305Y032372D02*
Y033294D01*
X03553Y03835D02*
X035911Y037969D01*
X016334Y03725D02*
Y038766D01*
X0159Y0392D02*
X016334Y038766D01*
X0146Y0392D02*
X0159D01*
X01385Y03845D02*
X0146Y0392D01*
X015932Y021996D02*
X0168Y022865D01*
Y0257D01*
X0161Y0264D02*
X0168Y0257D01*
X0137Y0264D02*
X0161D01*
X01325Y02595D02*
X0137Y0264D01*
X01325Y02475D02*
Y02595D01*
X0148Y03025D02*
X016612Y032062D01*
Y032456D01*
Y033795D02*
X017555D01*
X01775Y0336D01*
Y0329D02*
Y0336D01*
X017306Y032456D02*
X01775Y0329D01*
X016612Y032456D02*
X017306D01*
X0171Y030467D02*
X018083Y03145D01*
X0171Y0275D02*
Y030467D01*
X018083Y03145D02*
X0208D01*
X018152Y027077D02*
X018176Y027053D01*
X018152Y027077D02*
Y027585D01*
X0246Y027079D02*
X024626Y027053D01*
X0246Y027079D02*
Y0276D01*
X031Y027079D02*
X031026Y027053D01*
X031Y027079D02*
Y0276D01*
X014988Y024088D02*
Y0247D01*
X0145Y0236D02*
X014988Y024088D01*
X0125Y0236D02*
X0145D01*
X01225Y02385D02*
X0125Y0236D01*
X01225Y02385D02*
Y02475D01*
X01275Y021335D02*
X022412D01*
X01225Y021835D02*
X01275Y021335D01*
X01225Y021835D02*
Y021996D01*
X015799Y020074D02*
X016376Y02065D01*
X035385Y021335D02*
X035412Y021362D01*
X028912Y021335D02*
X035385D01*
X028912D02*
Y024358D01*
X022412Y021335D02*
X028912D01*
X022412D02*
Y024358D01*
X027711Y012918D02*
X0283Y012329D01*
X02755Y03145D02*
Y033296D01*
X027704Y03345D01*
X0208Y03145D02*
X02755D01*
X033494Y02855D02*
Y029194D01*
X027094Y029394D02*
X02755Y02985D01*
X027094Y02855D02*
Y029394D01*
X0208Y02965D02*
Y03145D01*
X020544Y029394D02*
X0208Y02965D01*
X020544Y02855D02*
Y029394D01*
X0167Y0271D02*
X0171Y0275D01*
X032706Y02855D02*
Y029083D01*
X02665Y029141D02*
Y030161D01*
X026306Y02855D02*
Y028797D01*
X02665Y029141D01*
X026161Y03065D02*
X02665Y030161D01*
X019756Y029247D02*
X020184Y029674D01*
Y03025D01*
X019756Y02855D02*
Y029247D01*
X037805Y033005D02*
X0384Y0336D01*
X037805Y032372D02*
Y033005D01*
X038805Y037714D02*
Y039065D01*
Y037714D02*
X039141Y037377D01*
X039156Y037392D01*
X03995Y03825D02*
X040305Y038605D01*
Y039065D01*
X0373Y03725D02*
X037805Y037755D01*
Y039065D01*
X037305Y038255D02*
Y039065D01*
X0383Y037441D02*
X038305Y037445D01*
Y039065D01*
X025472Y029122D02*
X02605Y0297D01*
X025472Y028192D02*
Y029122D01*
X024902Y03065D02*
X026161D01*
X019784Y03065D02*
X020184Y03025D01*
X018278Y03065D02*
X019784D01*
X018944Y029144D02*
X01955Y02975D01*
X018944Y02825D02*
Y029144D01*
X021807Y04021D02*
X022691Y041094D01*
X022768D01*
X02049Y04021D02*
X021807D01*
X027468Y041094D02*
X030932D01*
X026232D02*
X027468D01*
X022768D02*
X026232D01*
X027468Y042906D02*
X030932D01*
X022768D02*
X026232D01*
X0304Y0375D02*
X03075Y03785D01*
X02805Y0375D02*
X0304D01*
X027706Y037156D02*
X02805Y0375D01*
X02636Y037156D02*
X027706D01*
X028584Y03625D02*
X0288Y036466D01*
X02636Y03625D02*
X028584D01*
X0257Y0342D02*
X02636Y03486D01*
Y035344D01*
X0257Y03325D02*
Y0342D01*
X0257Y03325D02*
X0257Y03325D01*
X025644Y032083D02*
Y032385D01*
X025341Y032687D02*
X025644Y032385D01*
X025Y032687D02*
X025341D01*
X0248Y032887D02*
X025Y032687D01*
X0248Y032887D02*
Y03325D01*
X0241Y0325D02*
X024439Y032161D01*
X024817D01*
X024856Y032122D01*
Y032083D02*
Y032122D01*
X0241Y03365D02*
X0247Y03425D01*
X0241Y0325D02*
Y03365D01*
X0247Y03425D02*
Y03475D01*
X024037Y035413D02*
X0247Y03475D01*
X024037Y035413D02*
Y03625D01*
X02636D01*
X025668Y037156D02*
X02636D01*
X024725Y038098D02*
X025668Y037156D01*
X024523Y0383D02*
X024725Y038098D01*
X023487Y0383D02*
X024523D01*
X02305Y03725D02*
X02308Y03728D01*
Y037479D01*
X023487Y037887D01*
Y0383D01*
X03125Y0266D02*
X0321D01*
X0322Y0265D01*
X032706D01*
X025562Y0266D02*
X025662Y0265D01*
X026306D01*
X024626Y026611D02*
Y027053D01*
X025111Y026611D02*
X025122Y0266D01*
X024626Y026611D02*
X025111D01*
X025122Y0266D02*
X025562D01*
X019108Y026451D02*
X019708D01*
X0183Y0266D02*
X018959D01*
X019108Y026451D01*
X019708D02*
X019756Y0265D01*
X018176Y026724D02*
X0183Y0266D01*
X018176Y026724D02*
Y027053D01*
X031026Y026824D02*
X03125Y0266D01*
X031026Y026824D02*
Y027053D01*
X035412Y024358D02*
Y027388D01*
X0348Y028D02*
X035412Y027388D01*
X0348Y028D02*
Y028266D01*
X034622Y03065D02*
X0352D01*
X03555Y0303D01*
Y029D02*
Y0303D01*
X034816Y028266D02*
X03555Y029D01*
X0348Y028266D02*
X034816D01*
X03415Y029178D02*
X034622Y02965D01*
X03415Y02785D02*
Y029178D01*
X033825Y027525D02*
X03415Y02785D01*
X033494Y027525D02*
X033825D01*
X031056Y029628D02*
X031078Y02965D01*
X031056Y02825D02*
Y029628D01*
X031774Y027053D02*
Y027313D01*
X031986Y027525D02*
X032706D01*
X031774Y027313D02*
X031986Y027525D01*
X032706Y027287D02*
X033494Y0265D01*
X032706Y027287D02*
Y027525D01*
X0348Y025977D02*
Y026534D01*
X034723Y0259D02*
X0348Y025977D01*
X0321Y0259D02*
X034723D01*
X031853Y026147D02*
X0321Y0259D01*
X0314Y026147D02*
X031853D01*
X030688Y025435D02*
X0314Y026147D01*
X030688Y024358D02*
Y025435D01*
X0227Y029227D02*
Y030143D01*
X022193Y03065D02*
X0227Y030143D01*
X021822Y03065D02*
X022193D01*
X028795Y03065D02*
X029304Y03014D01*
Y029274D02*
Y03014D01*
X02885Y028819D02*
X029304Y029274D01*
X028446Y03065D02*
X028795D01*
X02885Y028819D02*
X02885D01*
X0277Y029118D02*
X028232Y02965D01*
X0277Y028729D02*
Y029118D01*
X0277Y028728D02*
X0277Y028729D01*
X0277Y028131D02*
Y028728D01*
X027094Y027525D02*
X0277Y028131D01*
X028295Y028265D02*
X02885Y028819D01*
X024685Y028192D02*
Y029577D01*
X024758Y02965D01*
X024902D01*
X028232D02*
X028446D01*
X028912Y024358D02*
Y027488D01*
X028295Y028105D02*
X028912Y027488D01*
X028295Y028105D02*
Y028265D01*
X025625Y027525D02*
X026306D01*
X026315Y027525D02*
X027094Y026746D01*
Y0265D02*
Y026746D01*
X026306Y027525D02*
X026315Y027525D01*
X025374Y027274D02*
X025625Y027525D01*
X025374Y027053D02*
Y027274D01*
X0256Y02595D02*
X027949D01*
X028295Y026296D01*
Y026415D01*
X025403Y026147D02*
X0256Y02595D01*
X025Y026147D02*
X025403D01*
X021724Y028251D02*
X022412Y027563D01*
Y024358D02*
Y027563D01*
X017688Y024358D02*
Y025285D01*
X01855Y026147D02*
X01855D01*
X017688Y025285D02*
X01855Y026147D01*
X018982Y02595D02*
X021273D01*
X01855Y026147D02*
X018785D01*
X018982Y02595D01*
X024188Y025335D02*
X025Y026147D01*
X024188Y024358D02*
Y025335D01*
X018156Y029528D02*
X018278Y02965D01*
X018156Y02825D02*
Y029528D01*
X021724Y028251D02*
X0227Y029227D01*
X021015Y028844D02*
X021822Y02965D01*
X021016Y028257D02*
Y028843D01*
X021009Y027991D02*
Y028251D01*
X021016Y028257D01*
X021015Y028844D02*
X021016Y028843D01*
X021273Y02595D02*
X021724Y026401D01*
Y026519D01*
X020544Y027525D02*
X021009Y027991D01*
X019675Y027525D02*
X020544Y026656D01*
Y0265D02*
Y026656D01*
X019246Y027525D02*
X019675D01*
X018924Y027203D02*
X019246Y027525D01*
X035412Y021362D02*
Y024358D01*
X0149Y022028D02*
Y0227D01*
Y022028D02*
X014932Y021996D01*
X016012Y023812D02*
Y0247D01*
X0149Y0227D02*
X016012Y023812D01*
X02Y0425D02*
Y0431D01*
X01955Y04355D02*
X02Y0431D01*
X016544Y04355D02*
X01955D01*
X015756D02*
X015806Y0435D01*
Y04265D02*
Y0435D01*
X016594Y04265D02*
X01785D01*
X018Y0425D01*
D96*
X018968Y034464D02*
X018982Y03445D01*
X016612Y034464D02*
X018968D01*
X015665Y033125D02*
X016612D01*
X015133Y035133D02*
X016612D01*
D97*
X044767Y011504D02*
D03*
Y042448D02*
D03*
X01185Y042446D02*
D03*
X011854Y011504D02*
D03*
D98*
X04385Y01965D02*
D03*
X04485D02*
D03*
X04465Y01675D02*
D03*
X04365D02*
D03*
D99*
X04355Y02225D02*
D03*
Y02326D02*
D03*
X04505Y02225D02*
D03*
Y02326D02*
D03*
D100*
X037312Y040865D02*
D03*
X036302D02*
D03*
X035322D02*
D03*
D101*
X03975Y0424D02*
D03*
X03875Y0414D02*
D03*
X04075D02*
D03*
Y0434D02*
D03*
X03875D02*
D03*
X012264Y036618D02*
D03*
Y032682D02*
D03*
X014036D02*
D03*
Y036618D02*
D03*
D102*
X0362Y0426D02*
D03*
X0332D02*
D03*
X0342D02*
D03*
X0352D02*
D03*
X0372D02*
D03*
D103*
X0322D02*
D03*
D104*
X02Y0425D02*
D03*
X018D02*
D03*
X0343Y012329D02*
D03*
X0323D02*
D03*
X0303D02*
D03*
X0283D02*
D03*
X03645D02*
D03*
X03845D02*
D03*
X04045D02*
D03*
X0162D02*
D03*
X0182D02*
D03*
X0202D02*
D03*
X0222D02*
D03*
X0242D02*
D03*
X0262D02*
D03*
D105*
X035412Y024358D02*
D03*
X03305Y025145D02*
D03*
X030688Y024358D02*
D03*
X035412Y019555D02*
D03*
X030688D02*
D03*
X028912Y024358D02*
D03*
X02655Y025145D02*
D03*
X024188Y024358D02*
D03*
X028912Y019555D02*
D03*
X024188D02*
D03*
X017688D02*
D03*
X022412D02*
D03*
X017688Y024358D02*
D03*
X02005Y025145D02*
D03*
X022412Y024358D02*
D03*
D106*
X0414Y0152D02*
D03*
X0394D02*
D03*
X0374D02*
D03*
X0414Y0144D02*
D03*
X0394D02*
D03*
X0374D02*
D03*
D107*
X0378Y0306D02*
D03*
X0408D02*
D03*
X0398D02*
D03*
X0388D02*
D03*
X0408Y03125D02*
D03*
X0398D02*
D03*
X0388D02*
D03*
X0378D02*
D03*
D108*
X01225Y021996D02*
D03*
X014932D02*
D03*
X01225Y02475D02*
D03*
D109*
X01325Y021996D02*
D03*
X015932D02*
D03*
X01325Y02475D02*
D03*
D110*
X015799Y020074D02*
D03*
X01482D02*
D03*
X013841D02*
D03*
X012862D02*
D03*
X016538Y04019D02*
D03*
X02049Y03741D02*
D03*
Y04021D02*
D03*
D111*
X019975Y032345D02*
D03*
X021025Y032295D02*
D03*
Y035245D02*
D03*
X019975D02*
D03*
X022175Y032711D02*
D03*
Y034978D02*
D03*
Y033278D02*
D03*
X021625Y034065D02*
D03*
Y033525D02*
D03*
X022175Y033845D02*
D03*
Y032145D02*
D03*
X020525Y032945D02*
D03*
X022175Y034411D02*
D03*
Y035545D02*
D03*
X019975Y032925D02*
D03*
X021625Y032985D02*
D03*
Y034605D02*
D03*
X019975Y034085D02*
D03*
X021625Y035145D02*
D03*
X020525Y034045D02*
D03*
X021025Y034745D02*
D03*
X021625Y032445D02*
D03*
X021025Y032745D02*
D03*
Y033245D02*
D03*
Y033845D02*
D03*
X019975Y033505D02*
D03*
X021025Y034295D02*
D03*
X019975Y034665D02*
D03*
X020525Y034995D02*
D03*
Y034495D02*
D03*
Y033445D02*
D03*
Y032395D02*
D03*
X03985Y02815D02*
D03*
X03885D02*
D03*
X03985Y0266D02*
D03*
X03885D02*
D03*
X041741Y037978D02*
D03*
X0369Y03785D02*
D03*
X030306Y040091D02*
D03*
X024194Y039135D02*
D03*
X031866Y02965D02*
D03*
X0274Y040089D02*
D03*
X042628Y034022D02*
D03*
X04189Y034007D02*
D03*
X042179Y033457D02*
D03*
X04079Y033838D02*
D03*
X040007Y033598D02*
D03*
X037601Y03359D02*
D03*
X01325Y03025D02*
D03*
X018152Y027585D02*
D03*
X031Y0276D02*
D03*
X0246D02*
D03*
X02935Y04205D02*
D03*
X02475Y042D02*
D03*
X0384Y0336D02*
D03*
X039156Y037392D02*
D03*
X03995Y03825D02*
D03*
X03495Y03435D02*
D03*
X0373Y03725D02*
D03*
X0383Y037441D02*
D03*
X02605Y0297D02*
D03*
X01955Y02975D02*
D03*
X02305Y03725D02*
D03*
X01405Y02875D02*
D03*
D112*
X017538Y04019D02*
D03*
X01949Y03741D02*
D03*
Y04021D02*
D03*
D113*
X030696Y03345D02*
D03*
D114*
X027704D02*
D03*
D115*
X026703Y016D02*
D03*
X020797D02*
D03*
X028797D02*
D03*
X034703D02*
D03*
X012797D02*
D03*
X018703D02*
D03*
D116*
X044767Y012645D02*
D03*
Y010362D02*
D03*
X045574Y010696D02*
D03*
X04396Y012311D02*
D03*
X045909Y011504D02*
D03*
X043625D02*
D03*
X045574Y012311D02*
D03*
X04396Y010696D02*
D03*
Y041641D02*
D03*
X045574Y043256D02*
D03*
X043625Y042448D02*
D03*
X045909D02*
D03*
X04396Y043256D02*
D03*
X045574Y041641D02*
D03*
X044767Y041307D02*
D03*
Y04359D02*
D03*
X011043Y041639D02*
D03*
X012657Y043254D02*
D03*
X010708Y042446D02*
D03*
X012992D02*
D03*
X011043Y043254D02*
D03*
X012657Y041639D02*
D03*
X01185Y041305D02*
D03*
Y043588D02*
D03*
X011854Y012645D02*
D03*
Y010362D02*
D03*
X012661Y010696D02*
D03*
X011046Y012311D02*
D03*
X012995Y011504D02*
D03*
X010712D02*
D03*
X012661Y012311D02*
D03*
X011046Y010696D02*
D03*
M02*
