M48
;Layer_Color=9474304
;FILE_FORMAT=2:4
INCH,LZ
;TYPE=PLATED
T1F00S00C0.0118
T2F00S00C0.0197
T3F00S00C0.0276
T4F00S00C0.0300
T5F00S00C0.0315
T6F00S00C0.0360
T7F00S00C0.0472
T8F00S00C0.0512
T9F00S00C0.0591
T10F00S00C0.1654
%
T01
X031866Y02965
X03885Y02815
X03985
Y0266
X03885
X031Y0276
X0246
X02605Y0297
X01955Y02975
X018152Y027585
X01405Y02875
X01325Y03025
X019975Y032345
Y032925
X020525Y032945
Y033445
Y034045
Y034495
Y034995
X021025Y035245
Y034745
Y034295
Y033845
Y033245
Y032745
Y032295
X020525Y032395
X021625Y032445
Y032985
Y033525
Y034065
Y034605
Y035145
X022175Y034978
Y034411
Y033845
Y033278
Y032711
Y032145
Y035545
X019975Y035245
Y034665
Y034085
Y033505
X02305Y03725
X024194Y039135
X02475Y042
X0274Y040089
X030306Y040091
X02935Y04205
X0369Y03785
X0373Y03725
X0383Y037441
X039156Y037392
X03995Y03825
X041741Y037978
X04189Y034007
X042628Y034022
X042179Y033457
X04079Y033838
X040007Y033598
X0384Y0336
X037601Y03359
X03495Y03435
T02
X011046Y010696
X010712Y011504
X011046Y012311
X011854Y012645
X012661Y012311
X012995Y011504
X012661Y010696
X011854Y010362
X04396Y010696
X043625Y011504
X04396Y012311
X044767Y012645
X045574Y012311
X045909Y011504
X045574Y010696
X044767Y010362
X012657Y041639
X012992Y042446
X012657Y043254
X01185Y043588
X011043Y043254
X010708Y042446
X011043Y041639
X01185Y041305
X04396Y041641
X043625Y042448
X04396Y043256
X044767Y04359
X045574Y043256
X045909Y042448
X045574Y041641
X044767Y041307
T03
X0374Y0144
Y0152
X0394
Y0144
X0414
Y0152
X0408Y0306
X0398
X0388
X0378
Y03125
X0388
X0398
X0408
T04
X015799Y020074
X01482
X013841
X012862
T05
X04365Y01675
X04465
X04485Y01965
X04385
X015932Y021996
X014932
X01325
X01225
Y02475
X01325
X016538Y04019
X017538
X01949Y04021
X02049
Y03741
X01949
X027704Y03345
X030696
T06
X04355Y02225
Y02326
X04505
Y02225
X037312Y040865
X036302
X035322
X0352Y0426
X0362
X0372
X0342
X0332
X0322
T07
X034703Y016
X028797
X026703
X020797
X018703
X012797
X012264Y032682
X014036
Y036618
X012264
T08
X035412Y019555
Y024358
X03305Y025145
X030688Y024358
X028912
X02655Y025145
X024188Y024358
X022412
X02005Y025145
X017688Y024358
Y019555
X022412
X024188
X028912
X030688
T09
X0162Y012329
X0182
X0202
X0222
X0242
X0262
X0283
X0303
X0323
X0343
X03645
X03845
X04045
X02Y0425
X018
X03875Y0434
X03975Y0424
X03875Y0414
X04075
Y0434
T10
X011854Y011504
X044767
X01185Y042446
X044767Y042448
M30
